<svg width="128" height="40" viewBox="0 0 128 40" fill="none" xmlns="http://www.w3.org/2000/svg">
<path d="M117.566 12.4024L128 0V15.194L123.957 19.9995L128 24.8049V40L117.566 27.5973L107.133 40V24.8049L111.176 19.9995L107.133 15.194V0L117.566 12.4024Z" fill="black"/>
<path fill-rule="evenodd" clip-rule="evenodd" d="M13.5292 15.3809V9.40041C13.5292 6.41028 12.0262 4.91234 9.01976 4.91234L0 4.91418V34.8192H5.27519V21.3614H8.26758V34.8192H13.5292V24.2547C13.5292 21.3623 12.0296 20.2674 9.77102 19.8935V19.841C12.0425 19.4319 13.5292 18.372 13.5292 15.3809ZM8.26873 18.3701H5.27519V7.90248H8.26873V18.3701Z" fill="black"/>
<path d="M35.8469 4.91234V13.1378L34.3427 13.1367V7.90248H28.3274L28.3292 18.2923H33.5915V21.2845H28.3292V31.8289L34.3427 31.8282V26.6164H35.8469V34.8192H23.0678V4.91234H35.8469Z" fill="black"/>
<path d="M58.2318 4.91234L58.2328 13.1378L56.7289 13.1367V7.90248H50.7114L50.7151 18.2923H55.9776V21.2845H50.7151V34.8192H45.4537V4.91234H58.2318Z" fill="black"/>
<path d="M98.631 4.91234V13.1378L97.1278 13.1367V7.90248H91.1029L91.1142 18.2923H96.3758V21.2845H91.1142V31.8289L97.1278 31.8282V26.6164H98.631V34.8192H85.8528V4.91234H98.631Z" fill="black"/>
<path d="M77.542 26.594L75.3434 34.8192H62.5653L70.4877 4.91234H75.7497L68.6155 31.8289H74.6399L76.0378 26.5947L77.542 26.594Z" fill="black"/>
</svg>
