<svg width="32" height="40" viewBox="0 0 32 40" fill="none" xmlns="http://www.w3.org/2000/svg">
<path fill-rule="evenodd" clip-rule="evenodd" d="M12.6708 0.000976562L16.7007 3.27932L21.1017 1.61965L22.6796 5.66751L28.1723 6.06477L26.9676 9.76697L31.9993 12.2059L28.1858 14.6914L31.2981 18.3716L26.1536 18.7715L26.6464 22.8469L21.392 21.2144L19.3636 15.6519L25.966 18.6789L20.7775 14.2236L27.6523 14.6068L20.6577 12.241L26.3549 9.99568L19.5953 10.4268L22.405 6.02689L17.4705 9.06154L16.6191 3.77307L14.8446 8.60451L10.4758 3.58401L12.4594 9.01898L5.84639 5.9871L11.0411 10.4428L3.78632 10.0423L10.9124 12.3966L4.87345 14.7765L-0.000701904 12.414L3.75467 10.0406L3.69011 10.037L0.524495 6.30354L5.66977 5.90358L5.17646 1.81943L10.3454 3.43406L10.3257 3.41142L12.6708 0.000976562ZM12.7445 0.513676L10.7693 3.38621L14.7196 7.92574L16.3612 3.45585L12.7445 0.513676ZM17.734 8.48731L16.9413 3.56372L20.9004 2.07071L22.3057 5.67581L17.734 8.48731ZM22.8202 6.02955L20.2639 10.0325L26.6441 9.62556L27.6994 6.38244L22.8202 6.02955ZM28.0399 14.3674L21.6788 12.2158L26.9385 10.143L31.2873 12.2509L28.0399 14.3674Z" fill="black"/>
<path d="M12.0593 14.3085L9.14908 18.9155L3.76917 18.4873L4.97906 14.7554L12.0593 14.3085Z" fill="black"/>
<path d="M15.176 21.2389L14.2864 15.7138L9.19611 18.8647L10.7715 22.8954L15.176 21.2389Z" fill="black"/>
<path d="M17.0087 16.1965L21.3908 21.2316L19.1283 24.4999L15.2102 21.2099L17.0087 16.1965Z" fill="black"/>
<path fill-rule="evenodd" clip-rule="evenodd" d="M26.5729 26.1082C26.3415 27.3066 25.5914 28.0428 24.4771 28.0428C23.2941 28.0428 22.7241 27.1868 22.9384 26.0783C23.0141 25.5478 23.28 25.0629 23.6868 24.7134C24.0935 24.3639 24.6134 24.1737 25.15 24.178C26.2558 24.178 26.7615 25.1153 26.5729 26.104V26.1082ZM24.2713 26.1682C24.2113 26.6475 24.2113 27.1697 24.6228 27.1183C24.9657 27.0755 25.1371 26.6903 25.2443 26.0826C25.3343 25.569 25.2443 25.2694 25.03 25.1581C24.6914 24.9912 24.3399 25.5861 24.2713 26.1682Z" fill="black"/>
<path fill-rule="evenodd" clip-rule="evenodd" d="M24.2499 39.9368C23.9767 39.9678 23.702 39.9835 23.427 39.9839C20.4611 39.9839 18.6266 38.7213 18.3609 36.3587C17.9662 37.1939 17.4063 37.9408 16.7151 38.5544C15.7224 39.3583 14.5122 39.8486 13.2391 39.9625H13.2005C12.9434 39.9881 12.6819 40.001 12.4162 40.001C9.36027 40.001 7.49585 38.6656 7.32012 36.1704C7.32649 36.1408 7.32649 36.1102 7.32012 36.0805L6.61722 39.7656H1.81259L3.42842 31.3512H1.75687L2.24119 28.7832H8.70022L8.01017 32.3613C8.41239 31.4814 8.99669 30.6967 9.72458 30.0586C10.7263 29.26 11.9442 28.7786 13.222 28.6762C13.4934 28.6505 13.7677 28.6377 14.0449 28.6377C17.0194 28.6377 18.8409 29.8874 19.1195 32.2757C19.5044 31.437 20.0658 30.6911 20.7654 30.0886C21.7614 29.2757 22.9808 28.7833 24.2628 28.6762C24.5328 28.6505 24.8071 28.6377 25.0814 28.6377C28.1502 28.6377 29.9846 29.9688 30.1732 32.4897V33.3842C30.1314 34.3659 29.8929 35.3292 29.4719 36.2173C29.0508 37.1053 28.4556 37.9 27.7216 38.5544C26.7283 39.3568 25.5182 39.8455 24.2456 39.9582L24.2499 39.9368ZM24.2628 31.4411C23.9781 31.7691 23.7584 32.1482 23.6156 32.5581C23.0669 33.8522 22.7883 35.2445 22.7969 36.6498C22.8269 37.2062 23.0755 37.4544 23.547 37.4544C23.6823 37.4536 23.816 37.425 23.9399 37.3705C24.0637 37.3161 24.1751 37.2368 24.267 37.1377L24.2885 37.1163C24.5573 36.8063 24.7692 36.4513 24.9142 36.0677C25.4583 34.7758 25.7311 33.3861 25.7157 31.9846C25.69 31.4282 25.4114 31.1286 24.9399 31.1286C24.8112 31.1277 24.6835 31.1531 24.5649 31.2031C24.4462 31.2532 24.3391 31.3269 24.2499 31.4197L24.2628 31.4411ZM13.222 31.4411C12.9373 31.7691 12.7177 32.1482 12.5748 32.5581C12.0262 33.8523 11.7476 35.2445 11.7562 36.6498C11.7862 37.2062 12.0347 37.4544 12.5062 37.4544C12.6415 37.4536 12.7752 37.425 12.8991 37.3705C13.0229 37.3161 13.1343 37.2368 13.2263 37.1377L13.2477 37.1163C13.5165 36.8063 13.7284 36.4513 13.8734 36.0677C14.4231 34.7784 14.7017 33.3901 14.6921 31.9889C14.6664 31.4325 14.3878 31.1329 13.9163 31.1329C13.7875 31.132 13.6599 31.1574 13.5412 31.2074C13.4226 31.2575 13.3154 31.3311 13.2263 31.4239L13.222 31.4411Z" fill="black"/>
<path fill-rule="evenodd" clip-rule="evenodd" d="M26.5729 28.0128L27.2373 24.2593H28.7159C29.4617 24.2379 30.3403 24.6317 30.1603 25.4748C30.0103 26.1767 29.2002 26.4421 28.6945 26.502H28.1287L27.8073 28.0171L26.5729 28.0128ZM28.4973 25.9199L28.511 25.915C28.6744 25.8566 28.8502 25.7938 28.9002 25.569C28.9731 25.2266 28.8231 25.1067 28.5959 25.0811H28.3988L28.2702 25.937H28.4973V25.9199Z" fill="black"/>
<path d="M15.1593 24.2636H16.4408L16.2308 25.5818H16.8479L17.0622 24.2636H18.3523L17.7523 27.9914H16.4622L16.7065 26.4935H16.085L15.845 27.9914H14.5463L15.1593 24.2636Z" fill="black"/>
<path d="M8.58879 27.9957L9.18883 24.2636H11.5933L11.4433 25.1453H10.3375L10.2475 25.6845H11.2461L11.109 26.532H10.1189L10.0203 27.1012H11.1304L10.9932 27.9957H8.58879Z" fill="black"/>
<path d="M5.03139 25.3935C4.95874 25.3176 4.87067 25.2581 4.77309 25.2189C4.67551 25.1798 4.57068 25.162 4.46563 25.1667C3.85702 25.1667 3.42842 25.6802 3.42842 26.4164C3.4175 26.5088 3.42711 26.6025 3.45656 26.6908C3.48602 26.7791 3.53459 26.8598 3.59884 26.9273C3.66308 26.9947 3.74141 27.0471 3.82826 27.0809C3.91511 27.1147 4.00834 27.1289 4.10132 27.1226C4.36367 27.1229 4.61915 27.0389 4.82994 26.8829L4.58136 27.9615C4.32661 28.0507 4.0584 28.0956 3.78844 28.0941C2.76837 28.0941 2.09975 27.4949 2.09975 26.5748C2.09201 26.2709 2.14529 25.9685 2.25644 25.6855C2.3676 25.4025 2.53437 25.1446 2.74694 24.927C3.22958 24.4691 3.87286 24.2186 4.53849 24.2293C4.73539 24.2235 4.93201 24.248 5.12139 24.3021H5.1814L5.01424 25.3721L5.03139 25.3935Z" fill="black"/>
<path d="M8.35734 27.1569L8.20733 28.0257H4.91566L4.93281 27.9487L7.04582 25.1753H5.66143L5.80287 24.2936H8.96595L8.95309 24.4006L6.87009 27.1569H8.35734Z" fill="black"/>
<path d="M20.3839 24.2636H23.1355L22.9898 25.1624H22.244L21.7897 27.9957H20.5039L20.9539 25.1624H20.2382L20.3839 24.2636Z" fill="black"/>
<path d="M14.5163 25.3593C14.4437 25.2834 14.3556 25.2239 14.258 25.1848C14.1605 25.1456 14.0556 25.1278 13.9506 25.1325C13.3634 25.1325 12.9348 25.6546 12.9348 26.3822C12.9239 26.4747 12.9335 26.5683 12.9629 26.6566C12.9924 26.7449 13.041 26.8257 13.1052 26.8931C13.1695 26.9605 13.2478 27.013 13.3346 27.0467C13.4215 27.0805 13.5147 27.0947 13.6077 27.0884C13.8701 27.0887 14.1255 27.0047 14.3363 26.8487L14.0877 27.9273C13.833 28.0165 13.5648 28.0614 13.2948 28.06C12.2748 28.06 11.6061 27.4608 11.6061 26.5406C11.5984 26.2367 11.6517 25.9343 11.7628 25.6513C11.874 25.3683 12.0408 25.1104 12.2533 24.8928C12.736 24.4349 13.3792 24.1844 14.0449 24.1952C14.2418 24.1893 14.4384 24.2138 14.6278 24.2679H14.6878L14.5206 25.3379L14.5163 25.3593Z" fill="black"/>
</svg>
