<svg width="160" height="40" viewBox="0 0 160 40" fill="none" xmlns="http://www.w3.org/2000/svg">
<path d="M90.7017 13.0382C90.7017 8.37022 90.7824 4.02414 91.0247 0L78.6673 2.334V3.46076L79.8788 3.62173C80.7673 3.70221 81.3327 4.02414 81.6557 4.50704C81.9788 5.07042 82.2211 5.87525 82.3826 7.08249C82.5442 9.4165 82.7057 14.7284 82.6249 23.0986C82.6249 31.3883 82.5442 36.6197 82.3826 38.6318C86.8248 39.5976 90.2978 40 92.8824 40C97.7284 40 101.524 38.6318 104.271 35.8149C107.017 33.0785 108.47 29.2153 108.47 24.4668C108.47 20.6841 107.42 17.5453 105.321 15.0503C103.221 12.5553 100.555 11.3481 97.4053 11.3481C95.3054 11.3481 93.1247 11.9115 90.7017 13.0382V13.0382ZM90.944 37.827C90.7824 35.2515 90.6209 27.5251 90.6209 14.8893C91.3478 14.6479 92.317 14.4869 93.5285 14.4869C95.4669 14.4869 97.0015 15.4527 98.1323 17.4648C99.263 19.4769 99.8284 21.8913 99.8284 24.9497C99.8284 28.7324 99.1822 31.7907 97.8899 34.3662C96.5977 36.8612 94.9823 38.1489 92.9631 38.1489C92.317 37.9879 91.6709 37.9074 90.944 37.827V37.827ZM32.3069 0.804829H0V2.41449L1.69611 2.57545C2.98839 2.8169 3.87683 3.2998 4.4422 4.02414C5.00757 4.82897 5.33064 6.1167 5.41141 7.88732C6.05755 16.5795 6.05755 24.7082 5.41141 32.1932C5.24987 33.9638 4.9268 35.2515 4.4422 36.0563C3.87683 36.8612 2.98839 37.3441 1.69611 37.505L0 37.7465V39.3561H20.838V37.7465L18.6572 37.5855C17.365 37.4245 16.4765 36.8612 15.9112 36.1368C15.3458 35.332 15.0227 34.0443 14.9419 32.2736C14.6996 29.0543 14.5381 25.3521 14.5381 21.2475L18.8995 21.328C21.2418 21.4084 22.8571 23.1791 23.6648 26.7203H25.2802V13.6016H23.6648C22.8571 17.0624 21.3226 18.833 18.8995 18.9135L14.5381 18.994C14.5381 11.7505 14.6996 6.5996 14.9419 3.46076H21.3226C25.8455 3.46076 28.9147 6.35815 30.6916 12.1529L32.63 11.5895L32.3069 0.804829ZM28.5109 25.5936C28.5109 29.7787 29.7224 33.2394 32.0646 35.9759C34.4069 38.7123 37.8799 40 42.2413 40C46.6027 40 50.1565 38.6318 52.741 35.8149C55.3256 33.0785 56.5371 29.6177 56.5371 25.4326C56.5371 21.2475 55.3256 17.7867 52.9833 15.0503C50.6411 12.3139 47.1681 11.0262 42.8067 11.0262C38.4452 11.0262 34.8915 12.3944 32.3069 15.2113C29.7224 17.9477 28.5109 21.4084 28.5109 25.5936V25.5936ZM46.522 16.4185C47.4912 18.7525 47.895 21.8109 47.895 25.5131C47.895 34.0443 46.1181 38.2294 42.6451 38.2294C40.8682 38.2294 39.4952 37.0221 38.526 34.6076C37.5568 32.1932 37.153 29.1348 37.153 25.5131C37.153 17.0624 38.9298 12.8773 42.4028 12.8773C44.1797 12.7968 45.5527 14.004 46.522 16.4185V16.4185ZM114.77 35.9759C117.436 38.6318 120.828 40 124.866 40C127.37 40 129.551 39.5171 131.489 38.4708C133.428 37.505 134.962 36.2978 136.012 34.8491L135.204 33.8833C133.428 35.2515 131.408 35.8954 129.066 35.8954C125.835 35.8954 123.332 34.8491 121.636 32.6761C119.859 30.503 119.051 27.7666 119.213 24.2253H136.497C136.497 20.3622 135.528 17.2233 133.508 14.7284C131.489 12.3139 128.662 11.1066 125.028 11.1066C120.505 11.1066 117.032 12.5553 114.528 15.3722C112.024 18.1891 110.813 21.6499 110.813 25.7545C110.813 29.9396 112.105 33.3199 114.77 35.9759V35.9759ZM120.747 15.7746C121.636 13.8431 122.766 12.8773 124.301 12.8773C126.724 12.8773 127.935 15.9356 127.935 22.1328L119.374 22.2938C119.455 19.8793 119.859 17.7062 120.747 15.7746ZM158.223 12.5553C156.042 11.5895 153.296 11.0262 149.985 11.0262C146.593 11.0262 143.927 11.9115 141.908 13.6016C139.889 15.2917 138.839 17.3843 138.839 19.8793C138.839 22.0523 139.485 23.7425 140.697 24.9497C141.908 26.1569 143.847 27.2032 146.35 28.0885C148.612 28.8934 150.227 29.6982 151.035 30.4225C151.842 31.2274 152.327 32.1127 152.327 33.3199C152.327 34.4467 151.923 35.493 151.035 36.2978C150.227 37.1831 149.096 37.5855 147.643 37.5855C144.089 37.5855 141.424 35.0101 139.566 29.8592L138.193 30.2616L138.516 38.3099C141.424 39.4366 144.654 40 148.208 40C151.923 40 154.75 39.1952 156.85 37.505C158.95 35.8954 160 33.5614 160 30.664C160 28.7324 159.515 27.1227 158.465 25.9155C157.415 24.7082 155.719 23.662 153.296 22.6962C150.631 21.7304 148.773 20.8451 147.804 20.0402C146.835 19.2354 146.35 18.2696 146.35 17.0624C146.35 15.8551 146.673 14.8893 147.4 14.0845C148.127 13.2797 149.016 12.9577 150.146 12.9577C153.377 12.9577 155.719 15.2918 157.173 19.8793L158.546 19.4769L158.223 12.5553ZM80.525 11.831C79.3942 11.2676 78.1827 11.0262 76.8097 11.0262C75.4366 11.0262 74.0636 11.5895 72.529 12.7163C70.9944 13.8431 69.8637 15.3722 68.9753 17.4648L69.056 11.0262L56.7794 13.4406V14.5674L57.9909 14.6479C59.5255 14.8089 60.4139 16.0161 60.5755 18.1891C61.0601 23.1791 61.0601 28.4909 60.5755 34.1247C60.4139 36.2978 59.5255 37.4245 57.9909 37.666L56.7794 37.827V39.3561H73.9021V37.827L71.7214 37.666C70.1868 37.505 69.2983 36.2978 69.1368 34.1247C68.6522 29.4567 68.5714 24.4668 68.9753 19.3159C69.4599 18.5111 70.5098 18.0282 72.1252 17.8672C73.7405 17.7062 75.5982 18.1891 77.5366 19.3159L80.525 11.831V11.831Z" fill="black"/>
</svg>
