<svg width="234" height="40" viewBox="0 0 234 40" fill="none" xmlns="http://www.w3.org/2000/svg">
<path d="M28.6091 21.8667C27.6483 22.8267 26.5808 23.5733 25.4066 24.2133C24.2323 24.8533 23.0581 25.28 21.8838 25.4933L31.9184 39.36H22.3108L10.9953 22.08L12.0628 19.7333L17.0801 19.4133C18.8948 19.4133 20.2826 18.88 21.3501 17.8133C22.4176 16.7467 22.9513 15.36 22.9513 13.44C22.9513 11.52 22.3108 10.0267 21.2433 8.96C20.1758 7.89333 18.7881 7.36 17.0801 7.36H8.32653V39.4667H0V0.106665H18.3611C20.3893 0.106665 22.3108 0.426667 23.9121 1.06667C25.5133 1.70667 26.9011 2.66667 28.0753 3.84C29.2496 5.01333 30.1036 6.50667 30.7441 8.10667C31.3846 9.70667 31.7049 11.52 31.7049 13.44C31.7049 15.36 31.3846 16.96 30.8508 18.3467C30.3171 19.7333 29.5698 20.9067 28.6091 21.8667Z" fill="black"/>
<path fill-rule="evenodd" clip-rule="evenodd" d="M53.8022 11.3067C55.7237 12.16 57.2182 13.12 58.4992 14.5067C59.7802 15.7867 60.7409 17.3867 61.3814 19.2C62.0219 21.0133 62.3422 22.9333 62.3422 25.0667C62.3422 27.2 62.0219 29.12 61.3814 30.9333C60.7409 32.64 59.7802 34.24 58.4992 35.6267C57.2182 37.0133 55.6169 38.08 53.8022 38.8267C51.9874 39.5733 49.8524 40 47.3971 40C44.9419 40 42.8069 39.5733 40.9921 38.8267C39.0706 38.08 37.5761 37.0133 36.2951 35.6267C35.0141 34.3467 34.0534 32.7467 33.4129 30.9333C32.7724 29.12 32.4521 27.2 32.4521 25.0667C32.4521 22.9333 32.7724 21.0133 33.4129 19.2C34.0534 17.3867 35.0141 15.8933 36.2951 14.5067C37.5761 13.12 39.1774 12.0533 40.9921 11.3067C42.8069 10.56 44.9419 10.1333 47.3971 10.1333C49.7457 10.1333 51.9874 10.56 53.8022 11.3067ZM52.8414 31.04C53.4819 30.2933 53.9089 29.3333 54.2292 28.3733C54.4427 27.3067 54.6562 26.24 54.6562 25.0667C54.6562 23.8933 54.5494 22.8267 54.2292 21.8667C53.9089 20.8 53.4819 19.9467 52.8414 19.2C52.2009 18.4533 51.4537 17.8133 50.4929 17.3867C49.5322 16.96 48.4647 16.7467 47.2904 16.7467C46.1161 16.7467 45.0486 16.96 44.1946 17.3867C43.3406 17.8133 42.5934 18.4533 41.9529 19.2C41.3124 19.9467 40.8854 20.9067 40.5651 21.8667C40.2449 22.8267 40.1381 23.8933 40.1381 25.0667C40.1381 26.24 40.2449 27.4133 40.5651 28.3733C40.8854 29.44 41.3124 30.2933 41.9529 31.04C42.4866 31.7867 43.3406 32.4267 44.1946 32.8533C45.0486 33.28 46.1161 33.4933 47.2904 33.4933C48.4647 33.4933 49.5322 33.28 50.4929 32.8533C51.4537 32.4267 52.2009 31.7867 52.8414 31.04Z" fill="black"/>
<path d="M83.5855 10.88H92.2323L82.091 24L92.5525 39.36H83.799L76.0062 27.2H73.0172V39.36H65.5447V1.38667L73.0172 0V21.44H75.686L83.5855 10.88Z" fill="black"/>
<path d="M102.694 39.36H95.2213V1.38667L102.694 0V39.36Z" fill="black"/>
<path fill-rule="evenodd" clip-rule="evenodd" d="M126.819 11.0933C128.527 11.84 129.915 12.8 131.089 13.9733C132.264 15.2533 133.118 16.64 133.438 18.0267C133.972 19.7333 134.292 21.5467 134.292 23.4667C134.292 24.2132 134.292 24.8534 134.185 25.4933C134.134 25.7974 134.108 26.0773 134.082 26.3447C134.054 26.6401 134.028 26.92 133.972 27.2H113.689C113.796 28.0533 114.009 28.9067 114.436 29.76C114.863 30.6133 115.397 31.2533 116.038 31.8933C116.785 32.4267 117.532 32.96 118.386 33.28C119.24 33.6 120.201 33.8133 121.268 33.8133C122.976 33.8133 124.471 33.6 125.965 32.96C127.46 32.32 128.741 31.5733 129.915 30.72L133.224 35.52C131.516 36.9067 129.488 37.9733 127.353 38.72C125.111 39.4667 122.87 39.7867 120.628 39.7867C118.6 39.7867 116.678 39.4667 114.863 38.8267C113.155 38.1867 111.554 37.2267 110.273 35.9467C108.992 34.6667 108.031 33.0667 107.284 31.2533C106.537 29.44 106.217 27.3067 106.217 24.8533C106.217 22.6133 106.644 20.5867 107.284 18.7733C107.925 16.96 108.885 15.36 110.166 14.08C111.447 12.8 112.942 11.84 114.757 11.0933C116.571 10.3467 118.493 10.0267 120.735 10.0267C123.083 10.0267 125.111 10.4533 126.819 11.0933ZM114.436 20.2667C114.116 21.0133 113.903 21.6533 113.903 22.4H127.246C127.246 21.76 127.14 21.0133 126.926 20.2667C126.713 19.52 126.392 18.88 125.859 18.24C125.325 17.6 124.684 17.1733 123.83 16.7467C122.976 16.32 121.909 16.1067 120.735 16.1067C119.56 16.1067 118.6 16.32 117.746 16.7467C116.998 17.1733 116.251 17.6 115.717 18.24C115.184 18.88 114.757 19.52 114.436 20.2667Z" fill="black"/>
<path d="M162.794 13.5467C163.648 14.6133 164.182 15.8933 164.609 17.3867C164.929 18.88 165.143 20.48 165.143 22.08V39.1467H157.67V23.7867C157.67 21.3333 157.243 19.4133 156.282 18.3467C155.428 17.1733 154.041 16.64 152.439 16.64C150.945 16.64 149.664 17.0667 148.596 17.7067C147.529 18.4533 146.675 19.2 146.034 20.0533V39.2533H138.562V10.7733H143.793L145.714 14.5067C146.888 13.2267 148.276 12.16 149.877 11.3067C151.479 10.4533 153.293 10.0267 155.428 10.0267C157.136 10.0267 158.524 10.3467 159.805 10.9867C160.98 11.6267 162.047 12.48 162.794 13.5467Z" fill="black"/>
<path d="M202.402 39.3629H176.462V37.1229L190.659 24.3229C196.958 18.6696 199.093 15.4696 199.093 11.4162C199.093 6.50958 195.143 3.30958 190.553 3.30958C185.749 3.30958 182.546 5.76292 179.451 10.3496L177.316 8.96292C180.625 3.94959 184.148 0.85625 190.766 0.85625C197.278 0.85625 202.082 5.44291 202.082 11.3096V11.4162C202.082 16.6429 199.199 20.0562 192.581 26.1362L180.945 36.6962H202.402V39.3629Z" fill="black"/>
<path fill-rule="evenodd" clip-rule="evenodd" d="M227.808 39.3629H225.14V30.0829H204.537L203.576 27.9496L225.246 1.17625H227.808V27.6296H234V30.0829H227.808V39.3629ZM225.14 5.22958L206.992 27.6296H225.14V5.22958Z" fill="black"/>
</svg>
