<svg width="60" height="60" viewBox="0 0 60 60" fill="none" xmlns="http://www.w3.org/2000/svg">
<g clip-path="url(#clip0)">
<path fill-rule="evenodd" clip-rule="evenodd" d="M28 0H32V7.41604C33.1534 7.92 34.08 8.84656 34.584 10H57V14H52.9026L59.8695 32.2881C59.9649 32.5384 60.0066 32.796 60.0005 33.0482V34C60.0005 38.4183 56.4188 42 52.0005 42H48.0005C43.5822 42 40.0005 38.4183 40.0005 34V33.0437C39.9949 32.793 40.0368 32.5369 40.1316 32.2881L47.0985 14H34.584C34.08 15.1534 33.1534 16.08 32 16.584V42.2223C35.7051 43.0588 38.5763 46.1666 39 50H21C21.4238 46.1666 24.2949 43.0589 28 42.2223V16.584C26.8466 16.08 25.92 15.1534 25.416 14H12.9021L19.869 32.2881C19.9644 32.5384 20.0062 32.796 20 33.0482V34C20 38.4183 16.4183 42 12 42H8C3.58172 42 -1.94996e-09 38.4183 -1.94996e-09 34V33.0437C-0.00556142 32.793 0.0362764 32.5369 0.131076 32.2881L7.09797 14H3V10H25.416C25.92 8.84656 26.8466 7.92 28 7.41604V0ZM10.0001 17.6181L4.52124 32H15.4789L10.0001 17.6181ZM44.5217 32L50.0005 17.6181L55.4793 32H44.5217Z" fill="#FEDB49"/>
<path d="M14 60H46V58C46 55.2386 43.7614 53 41 53H19C16.2386 53 14 55.2386 14 58V60Z" fill="#FEDB49"/>
</g>
<defs>
<clipPath id="clip0">
<rect width="60" height="60" fill="white"/>
</clipPath>
</defs>
</svg>
