<svg width="60" height="60" viewBox="0 0 60 60" fill="none" xmlns="http://www.w3.org/2000/svg">
<g clip-path="url(#clip0)">
<path d="M23 14C23 15.6569 21.6569 17 20 17C18.3431 17 17 15.6569 17 14C17 12.3431 18.3431 11 20 11C21.6569 11 23 12.3431 23 14Z" fill="#FEDB49"/>
<path fill-rule="evenodd" clip-rule="evenodd" d="M39.7777 13.3714L39.7804 13.3747L39 14L39.7804 14.6253L39.7777 14.6286L39.7717 14.6361L39.7508 14.6617C39.733 14.6835 39.7075 14.7144 39.6744 14.754C39.6082 14.8331 39.5117 14.9467 39.386 15.0897C39.1347 15.3757 38.7665 15.7802 38.2911 16.2636C37.3414 17.2295 35.9585 18.516 34.2202 19.8036C30.7586 22.3677 25.8007 25 20 25C14.1993 25 9.24141 22.3677 5.77977 19.8036C4.0415 18.516 2.65858 17.2295 1.70884 16.2636C1.23348 15.7802 0.865279 15.3757 0.613982 15.0897C0.488299 14.9467 0.391752 14.8331 0.32556 14.754C0.292461 14.7144 0.266942 14.6835 0.249154 14.6617L0.228287 14.6361L0.222236 14.6286L0.219125 14.6247L0.999994 14L0.219626 13.3747L0.222236 13.3714L0.228287 13.3639L0.249154 13.3383C0.266942 13.3165 0.292461 13.2856 0.32556 13.246C0.391752 13.1669 0.488299 13.0533 0.613982 12.9103C0.865279 12.6243 1.23348 12.2198 1.70884 11.7364C2.65858 10.7705 4.0415 9.48405 5.77977 8.19644C9.24141 5.63226 14.1993 3 20 3C25.8007 3 30.7586 5.63226 34.2202 8.19644C35.9585 9.48405 37.3414 10.7705 38.2911 11.7364C38.7665 12.2198 39.1347 12.6243 39.386 12.9103C39.5117 13.0533 39.6082 13.1669 39.6744 13.246C39.7075 13.2856 39.733 13.3165 39.7508 13.3383L39.7717 13.3639L39.7777 13.3714ZM3.13489 14.8614C2.80636 14.5273 2.53401 14.235 2.32174 14C2.53401 13.765 2.80636 13.4727 3.13489 13.1386C4.02891 12.2295 5.33349 11.016 6.97022 9.80356C10.2586 7.36774 14.8007 5 20 5C15.0294 5 11 9.02944 11 14C11 18.9706 15.0294 23 20 23C14.8007 23 10.2586 20.6323 6.97022 18.1964C5.33349 16.984 4.02891 15.7705 3.13489 14.8614ZM29 14C29 9.02944 24.9706 5 20 5C25.1993 5 29.7414 7.36774 33.0298 9.80356C34.6665 11.016 35.9711 12.2295 36.8651 13.1386C37.1936 13.4727 37.466 13.765 37.6782 14C37.466 14.235 37.1936 14.5273 36.8651 14.8614C35.9711 15.7705 34.6665 16.984 33.0298 18.1964C29.7429 20.6311 25.2035 22.9978 20.0073 23C24.9745 22.9961 29 18.9681 29 14ZM27 14C27 17.866 23.866 21 20 21C16.134 21 13 17.866 13 14C13 10.134 16.134 7 20 7C23.866 7 27 10.134 27 14Z" fill="#FEDB49"/>
<path d="M0.219626 13.3747C0.219626 13.3747 0.219125 13.3753 0.999994 14L0.316865 14.5463C0.220371 14.6234 0.219125 14.6247 0.219125 14.6247C-0.0730501 14.2595 -0.0725487 13.7399 0.219626 13.3747Z" fill="#FEDB49"/>
<path d="M39.7804 14.6253C39.7804 14.6253 39.7809 14.6247 39 14C39.7809 13.3753 39.7804 13.3747 39.7804 13.3747C40.0725 13.7399 40.0725 14.2601 39.7804 14.6253Z" fill="#FEDB49"/>
<path d="M59.1214 25.8787C59.4204 26.1778 59.6432 26.5243 59.7895 26.894C59.9318 27.2534 60.002 27.6347 60 28.0157V38C60 39.6569 58.6569 41 57 41C55.3431 41 54 39.6569 54 38V35.2427L37.1214 52.1213C36.0558 53.1868 34.3653 53.2966 33.1709 52.3779L22.1225 43.8791L7.97555 56.2577C6.72865 57.3488 4.83336 57.2224 3.74231 55.9755C2.65126 54.7286 2.77762 52.8333 4.02453 51.7423L20.0245 37.7423C21.1017 36.7997 22.6947 36.7494 23.8292 37.6221L34.7413 46.0161L49.7574 31H47C45.3431 31 44 29.6569 44 28C44 26.3431 45.3431 25 47 25L57.0045 25C57.7708 25.0011 58.5367 25.294 59.1214 25.8787Z" fill="#FEDB49"/>
</g>
<defs>
<clipPath id="clip0">
<rect width="60" height="60" fill="white"/>
</clipPath>
</defs>
</svg>
