<svg width="48" height="48" viewBox="0 0 48 48" fill="none" xmlns="http://www.w3.org/2000/svg">
<path d="M7 42H17C19.7614 42 22 39.7614 22 37V27C22 24.2386 19.7614 22 17 22H11C9.89543 22 9 21.1046 9 20V19C9 19 9 12.5 16 12.5H17C18.1046 12.5 19 11.6046 19 10.5V8C19 6.89543 18.1046 6 17 6H16C2 6 2 19 2 19V37C2 39.7614 4.23858 42 7 42Z" fill="#41DB95"/>
<path d="M31 42H41C43.7614 42 46 39.7614 46 37V27C46 24.2386 43.7614 22 41 22H35C33.8954 22 33 21.1046 33 20V19C33 19 33 12.5 40 12.5H41C42.1046 12.5 43 11.6046 43 10.5V8C43 6.89543 42.1046 6 41 6H40C26 6 26 19 26 19V37C26 39.7614 28.2386 42 31 42Z" fill="#41DB95"/>
</svg>
