<svg width="160" height="161" viewBox="0 0 160 161" fill="none" xmlns="http://www.w3.org/2000/svg">
<path fill-rule="evenodd" clip-rule="evenodd" d="M124.859 54.0206L135.07 64.0871L128.73 97.1488C134.268 97.4145 140.447 94.0689 145.554 87.2978C151.354 79.6062 155.347 67.923 154.685 54.0978C154.349 47.0753 152.912 43.3429 151.282 41.5488C149.88 40.005 147.964 39.522 145.082 40.2551C142.09 41.0162 138.496 43.0202 134.573 45.8879C131.36 48.2372 128.059 51.0657 124.859 54.0206ZM155.163 38.0232C158.054 41.2053 159.57 46.4877 159.922 53.8468C160.638 68.7847 156.343 81.6995 149.74 90.4548C143.208 99.1161 133.978 104.154 124.996 101.866L122.603 101.257L129.393 65.8529L117.305 53.9369L119.27 52.071C123.149 48.3884 127.34 44.681 131.479 41.6555C135.574 38.6612 139.818 36.184 143.79 35.1736C147.872 34.1352 152.045 34.5905 155.163 38.0232ZM101.599 63.2494L83.9537 66.7786L63.7305 63.2618L64.6288 58.0961L83.8864 61.445L100.57 58.1081L101.599 63.2494ZM101.599 76.9815L83.9543 80.5105L63.7311 76.9937L64.6295 71.8281L83.8871 75.1771L100.571 71.84L101.599 76.9815ZM101.599 91.5717L83.9543 95.1009L63.7311 91.5838L64.6295 86.4182L83.8871 89.7673L100.571 86.4304L101.599 91.5717Z" fill="white"/>
<path fill-rule="evenodd" clip-rule="evenodd" d="M37.435 98.1852L27.0882 64.1189L40.7456 52.0676C35.1339 47.2981 26.4071 42.0738 18.8993 40.3994C14.6252 39.4462 11.3024 39.7627 9.11506 41.2732C7.03699 42.7084 5.24301 45.7541 5.24316 52.0958C5.2435 66.0021 9.49647 78.698 16.0652 87.2374C21.9491 94.8866 29.461 98.9835 37.435 98.1852ZM11.9094 90.4343C4.53717 80.8503 0.000362854 66.9858 1.05638e-08 52.096C-0.000170739 44.866 2.06962 39.767 6.13556 36.959C10.0924 34.2264 15.1938 34.2012 20.0405 35.282C29.7564 37.4488 40.6865 44.5416 46.5065 50.2192L48.5289 52.1922L33.0847 65.8202L44.1231 102.164L41.419 102.814C29.8027 105.605 19.2918 100.032 11.9094 90.4343Z" fill="white"/>
<path fill-rule="evenodd" clip-rule="evenodd" d="M45.2523 42.1981C55.956 36.2356 70.147 30.2019 83.0138 30.3163C96.9601 30.4405 111.012 36.8488 121.258 43.2899C126.452 46.5546 130.884 49.9636 134.079 52.8681C135.664 54.3094 137.041 55.7141 138.07 56.9866C138.579 57.6154 139.097 58.3263 139.515 59.0804C139.834 59.6567 140.539 61.0174 140.524 62.746L140.519 63.2631L140.449 63.6224C140.448 63.661 140.432 63.851 140.413 64.287C140.398 64.6259 140.385 64.9617 140.37 65.3506C140.356 65.7403 140.339 66.1836 140.316 66.7368C140.23 68.7777 140.084 71.5274 139.746 74.7271C139.073 81.0944 137.626 89.389 134.277 97.6577C130.92 105.945 125.578 114.386 117.029 120.746C108.427 127.145 96.9902 131.129 82.0154 131.129H81.8728L81.7304 131.122C52.4861 129.636 37.1685 112.484 29.6756 95.6263C25.9737 87.2977 24.1414 79.0084 23.3348 72.5897C22.9308 69.3747 22.7754 66.562 22.7856 64.3749C22.7905 63.2888 22.8366 62.2894 22.9291 61.4353C22.9749 61.011 23.0394 60.5542 23.1354 60.1043C23.2112 59.7489 23.3837 59.0081 23.7854 58.2329L23.7975 58.2096L23.8097 58.1865C24.2889 57.2826 24.9477 56.555 25.3253 56.155C25.7951 55.6573 26.3453 55.1382 26.9319 54.6189C28.1117 53.5748 29.6408 52.3531 31.4241 51.0372C34.9989 48.3996 39.7919 45.2401 45.2523 42.1981ZM33.3843 63.992C33.3834 63.9923 33.393 63.9803 33.4148 63.9553C33.396 63.9794 33.3849 63.9918 33.3843 63.992ZM34.0483 63.33C34.1469 63.239 34.2566 63.14 34.3778 63.0326C35.2393 62.2702 36.4924 61.2603 38.0946 60.078C41.2907 57.72 45.6821 54.8196 50.7199 52.0133C61.0127 46.2795 73.0728 41.4637 82.9137 41.5512C93.8253 41.6483 105.761 46.8186 115.279 52.8019C119.968 55.7493 123.862 58.7641 126.52 61.1809C127.744 62.2939 128.627 63.2081 129.185 63.8706C129.172 64.1767 129.157 64.5655 129.141 64.9822C129.125 65.4007 129.108 65.8472 129.09 66.266C129.01 68.1872 128.876 70.676 128.573 73.5461C127.963 79.3179 126.68 86.4864 123.863 93.44C121.054 100.375 116.797 106.915 110.323 111.732C103.926 116.49 94.9617 119.869 82.1582 119.894C58.2534 118.628 46.1602 105.052 39.9426 91.063C36.7829 83.9542 35.1846 76.7761 34.4824 71.1887C34.132 68.4008 34.0131 66.0758 34.0208 64.4268C34.0227 63.998 34.0331 63.6324 34.0483 63.33Z" fill="white"/>
</svg>
