<svg width="60" height="60" viewBox="0 0 60 60" fill="none" xmlns="http://www.w3.org/2000/svg">
<path d="M54.4035 27.6291C52.6053 29.6523 50.8438 31.8318 49.6144 34.8389C49.0549 36.2275 47.7246 37.1288 46.2291 37.1288C44.7246 37.1288 43.3943 36.2275 42.8256 34.8298C41.4034 31.3351 39.2475 28.9534 37.1557 26.6543C36.6329 26.075 36.1099 25.4956 35.5962 24.8978C35.5687 24.907 35.5502 24.9162 35.5229 24.9254C33.4862 25.5414 31.9173 28.2452 32.8623 30.4431C33.5045 31.9512 38.0091 31.6662 37.6238 34.9124C37.3027 37.5701 40.7704 38.269 41.9998 38.1404C43.2292 37.9932 45.1191 40.1636 44.1649 41.12C43.2201 42.0765 41.431 42.1132 41.7062 44.5778C41.7796 45.2951 43.9449 45.2032 43.9449 46.2883C43.9449 47.3826 42.8257 48.6242 43.6879 49.8841C43.8715 50.1599 44.0641 50.3715 44.266 50.537C40.1192 54.3626 34.5871 56.7076 28.5229 56.7076C15.7064 56.7076 5.28439 46.2607 5.28439 33.4135C5.28439 29.5144 6.24777 25.8357 7.94498 22.5987C7.93579 26.783 10.1652 30.2592 11.211 31.3075C14.6238 34.7193 19.5688 33.6433 20.2017 36.5033C20.8439 39.3542 16.8072 39.3634 17.0733 41.5428C17.3484 43.7315 22.6054 44.311 21.4311 46.3249C19.8806 49.001 22.477 49.1941 21.7247 52.4955C21.3211 54.298 23.9173 54.6474 24.8807 53.2772C25.6146 52.2289 25.4678 50.9414 26.9449 49.3689C28.7522 47.4376 32.9449 47.125 32.4769 43.9338C31.6788 38.6368 26.5412 37.8091 24.3027 36.5675C21.7614 35.1698 22.3853 31.8131 21.8348 30.213C21.0642 27.9415 18.4494 30.8476 17.0549 29.5233C14.7614 27.353 17.4678 24.2814 19.3943 24.3458C23.4585 24.4746 24.7062 28.4382 26.2016 28.3002C27.6603 28.1714 28.6053 26.1299 28.8622 25.0448C29.4035 22.6813 27.9447 23.7389 27.3576 22.5065C26.5686 20.8604 30.1282 19.2879 31.5044 18.074C31.7154 17.8901 31.8713 17.7153 31.9539 17.5498C32.3669 16.7405 31.8256 16.1244 30.908 15.5634C29.0733 14.4505 25.7247 13.5678 25.5688 11.8298C25.4769 10.7629 27.5137 10.248 29.8347 10.156C30.22 10.1745 30.5961 10.2112 30.9816 10.248C31.1742 9.15357 31.4861 8.07759 31.9081 7.04769C30.798 6.90053 29.6696 6.82691 28.5228 6.82691C13.899 6.82691 2 18.7544 2 33.4132C1.9999 48.0725 13.899 60 28.5228 60C43.1466 60 55.0457 48.0724 55.0457 33.4136C55.0457 31.4272 54.8255 29.4868 54.4035 27.6291ZM44.9811 0.0590557C37.4939 0.768468 32.3658 8.04073 33.6726 15.4648C34.9996 23.006 41.9361 25.3273 45.3785 33.7924C45.6887 34.5553 46.7602 34.5591 47.0702 33.7961C50.8862 24.4073 59 22.5751 59 12.8053C58.9999 5.32171 52.5956 -0.662416 44.9811 0.0590557ZM46.2251 19.5679C42.4991 19.5679 39.4786 16.5402 39.4786 12.8053C39.4786 9.07054 42.4991 6.04289 46.2251 6.04289C49.9511 6.04289 52.9714 9.07054 52.9714 12.8053C52.9714 16.5402 49.9509 19.5679 46.2251 19.5679Z" fill="#FEDB49"/>
</svg>
