<svg width="312" height="312" viewBox="0 0 312 312" fill="none" xmlns="http://www.w3.org/2000/svg">
<path fill-rule="evenodd" clip-rule="evenodd" d="M136.816 38.0503C143.378 36.9129 150.122 36.3203 157.004 36.3203C158.709 36.3203 160.405 36.3567 162.093 36.4287C162.228 35.7506 162.323 35.0819 162.366 34.4269C162.903 26.4581 154.356 24.1492 154.805 17.4892C154.917 15.8234 155.628 14.5158 156.688 13.4947C158.888 11.2191 162.843 10.0541 167.392 10.1076C167.968 10.0965 168.482 10.1089 168.908 10.1375C169.368 10.1683 169.924 10.229 170.543 10.3246C175.081 10.8813 178.499 12.4011 180.309 14.6913C181.313 15.8389 181.909 17.2459 181.793 18.9582C181.778 19.1765 181.753 19.3928 181.717 19.6073C181.635 20.3386 181.4 21.0358 181.034 21.6883C178.582 26.7786 171.125 30.7555 170.838 35.0134C170.8 35.5878 170.866 36.3135 171.014 37.1482C176.474 37.7977 181.819 38.8219 187.022 40.1942C188.288 39.3317 189.845 38.3618 191.711 37.2575C197.11 34.0631 206.393 16.011 204.63 12.6427C199.074 2.024 201.07 -3.29552 214.956 2.18688C228.735 7.62751 226.678 12.5147 215.327 16.7574C211.727 18.1028 203.794 33.0939 207.258 43.5801C207.849 45.3691 208.32 46.9254 208.672 48.272C215.394 51.5698 221.754 55.4912 227.677 59.9601C232.841 56.4279 240.347 48.1976 240.069 45.9039C239.013 37.1644 241.757 33.6572 249.85 40.1774C257.88 46.6478 255.205 49.829 246.33 50.8476C243.899 51.1265 236.616 58.2266 234.458 65.4805C235.035 65.9878 235.608 66.5007 236.178 67.021C237.078 63.0242 237.314 59.0501 240.891 56.249C242.473 55.0104 244.167 54.532 245.855 54.5592C249.5 54.4895 253.419 56.6981 256.67 60.3492C257.097 60.797 257.459 61.2149 257.743 61.576C258.048 61.9649 258.396 62.4541 258.76 63.0221C261.549 67.0642 262.66 70.9878 261.908 74.248C261.604 75.9592 260.768 77.5529 259.142 78.8261C258.935 78.988 258.722 79.1395 258.503 79.2814C257.785 79.8 256.986 80.1705 256.132 80.4003C254.085 81.0796 251.765 81.2564 249.428 81.289C252.698 85.4525 255.692 89.8423 258.382 94.4269C259.112 94.4333 259.888 94.446 260.709 94.4651C267.121 94.6166 287.015 84.8039 288.037 81.2167C291.257 69.9079 296.55 66.6446 303.369 78.0201C310.137 89.3092 305.101 92.1942 293.366 89.8925C289.645 89.1623 272.951 97.1991 268.213 107.35C267.575 108.72 266.979 109.935 266.422 111.005C270.231 120.748 272.77 131.124 273.838 141.927C277.057 143.139 280.367 143.968 283.363 143.933C292.61 143.823 294.496 133.773 302.225 133.682C304.158 133.659 305.732 134.358 307.007 135.484C309.835 137.808 311.542 142.256 311.895 147.498C311.961 148.16 311.992 148.754 311.999 149.248C312.005 149.779 311.986 150.424 311.932 151.147C311.704 156.421 310.261 160.496 307.782 162.787C306.55 164.049 304.98 164.863 302.992 164.886C302.74 164.89 302.488 164.879 302.239 164.857C301.386 164.83 300.559 164.625 299.772 164.261C293.671 161.903 288.4 153.681 283.459 153.74C281.479 153.763 278.041 154.978 274.373 156.567C274.07 168.638 271.935 180.258 268.236 191.167C274.013 194.352 281.644 197.103 283.458 196.12C292.026 191.476 296.626 192.927 292.914 204.031C289.23 215.051 284.988 213.541 280.69 204.671C279.709 202.648 272.653 199.022 265.571 198.255C261.489 208.128 256.095 217.324 249.602 225.629C252.503 228.75 255.441 231.206 256.724 231.143C265.529 230.714 268.835 233.698 261.747 241.295C254.712 248.834 251.725 245.942 251.34 237.029C251.281 235.67 249.22 232.663 246.181 229.805C244.053 232.285 241.823 234.675 239.5 236.967C243.303 237.595 247.041 237.873 249.517 241.12C250.687 242.657 251.064 244.336 250.918 246.031C250.735 249.683 248.177 253.702 244.172 257.111C243.679 257.558 243.221 257.938 242.828 258.236C242.636 258.383 242.421 258.538 242.188 258.701C244.958 264.077 248.591 269.13 250.482 269.323C261.095 270.404 264.071 274.488 253.198 282.095C242.407 289.644 239.783 285.727 242.188 275.236C242.67 273.138 239.957 267.1 235.506 262.283C233.3 263.041 231.243 263.267 229.428 262.928C227.679 262.69 226.09 261.917 224.887 260.338C224.733 260.136 224.592 259.93 224.46 259.716C223.973 259.016 223.646 258.23 223.468 257.382C223.277 256.69 223.148 255.964 223.068 255.214C221.062 254.583 219.583 253.993 218.561 253.411C212.745 256.998 206.591 260.093 200.156 262.636C199.728 264.006 199.177 265.587 198.504 267.402C196.283 273.392 200.419 293.807 203.937 295.402C215.03 300.434 216.83 305.981 202.442 310.359C188.165 314.705 186.687 309.467 192.923 298.863C194.901 295.5 191.643 278.405 182.278 272.156C180.498 270.967 179.018 269.917 177.818 268.982C173.52 269.751 169.142 270.286 164.695 270.574C164.13 271.851 162.823 273.664 160.701 276.249C157.855 279.716 155.999 294.152 157.996 295.996C164.289 301.81 164.238 305.884 153.603 305.561C143.048 305.241 143.245 301.444 149.828 295.821C151.917 294.039 153.608 281.996 148.748 275.764C146.818 273.288 145.632 271.505 145.101 270.226C141.833 269.897 138.603 269.433 135.425 268.843C134.311 270.158 132.746 271.756 130.689 273.717C126.426 277.785 121.001 296.658 123.062 299.503C129.561 308.468 128.613 313.886 115.569 311.392C102.623 308.918 103.691 303.897 113.03 297.684C114.441 296.745 116.246 292.691 117.248 287.702C115.534 288.207 113.559 288.17 111.554 287.619C111.162 287.529 110.817 287.429 110.537 287.328C110.234 287.221 109.875 287.069 109.482 286.875C106.565 285.586 104.664 283.626 104.061 281.256C103.692 280.051 103.67 278.686 104.213 277.171C104.281 276.978 104.357 276.79 104.439 276.604C104.692 275.962 105.04 275.376 105.466 274.853C107.79 271.686 111.919 269.614 114.333 267.127C113.393 264.991 112.848 263.369 112.672 262.164C107.445 260.03 102.405 257.532 97.5862 254.7C96.4814 255.737 94.3264 256.97 90.8771 258.652C86.6146 260.73 77.1351 273.925 77.772 276.626C79.779 285.143 77.4949 289.082 68.8755 283.931C60.3216 278.819 62.5744 275.216 71.1138 272.741C73.8216 271.957 81.8477 261.015 81.2578 252.744C80.8809 247.458 81.1105 244.789 82.0762 243.816C75.9942 238.773 70.4293 233.129 65.4706 226.972C64.5918 227.46 63.7806 227.999 63.0647 228.596C57.3051 233.393 61.3304 240.747 56.5166 244.756C55.3127 245.76 53.96 246.12 52.5737 246.055C49.5905 246.023 46.2114 244.067 43.2707 240.915C42.8865 240.528 42.5583 240.167 42.2988 239.856C42.0192 239.521 41.6967 239.102 41.3563 238.615C38.7653 235.145 37.5591 231.815 37.9301 229.091C38.0519 227.658 38.6174 226.339 39.8545 225.309C40.0119 225.177 40.1751 225.055 40.344 224.941C40.8943 224.522 41.5215 224.23 42.2052 224.058C47.2636 222.44 54.8421 224.973 57.9196 222.409C58.5688 221.869 59.3009 220.911 60.0649 219.705C57.7975 216.399 55.6951 212.97 53.7715 209.435C52.654 210.461 49.5894 209.944 43.3876 207.981C38.1208 206.314 20.8974 210.869 19.7485 214.021C16.1264 223.956 11.4881 225.786 6.84924 213.401C2.24565 201.11 6.63946 199.576 16.1048 204.544C19.1063 206.12 33.5413 202.484 38.3134 194.005C40.9861 189.256 42.7973 186.844 44.2238 186.25C42.0149 178.643 40.5575 170.722 39.9368 162.568C33.652 161.624 23.617 162.136 22.2586 163.848C16.7857 170.749 12.3592 171.27 11.3012 160.94C10.2513 150.689 14.3971 150.348 21.3678 155.926C23.2269 157.415 32.923 157.615 39.5978 154.325C39.5964 154.076 39.5955 153.823 39.5955 153.571C39.5955 147.366 40.0794 141.271 41.0125 135.318C39.9665 134.23 38.7595 132.854 37.3541 131.172C36.1554 129.736 33.466 128.087 30.2636 126.566C25.6958 127.488 22.0908 130.76 17.399 129.114C15.7733 128.544 14.6516 127.526 13.9014 126.27C13.1058 125.041 12.642 123.531 12.4919 121.853C12.4195 121.883 12.3535 121.918 12.2938 121.955C2.97738 127.84 -2.33163 126.553 0.999062 113.756C4.27172 101.18 9.11501 102.41 14.5929 111.824C16.2375 108.326 18.44 105.955 20.9538 105.024C22.3429 104.428 23.8869 104.281 25.5574 104.867C25.77 104.941 25.9776 105.026 26.1812 105.119C26.8878 105.399 27.5228 105.809 28.0803 106.328C31.7173 109.332 33.7822 115.191 36.6902 118.019C38.2983 117.81 39.8428 117.426 41.258 116.825C43.1505 116.022 44.7631 115.395 46.1286 114.937C48.4087 108.417 51.2498 102.159 54.5941 96.222C50.7936 93.5135 46.9274 91.4354 45.5903 91.8042C37.0932 94.1461 33.2126 91.9568 38.4666 82.996C43.6806 74.1035 47.2282 76.2728 49.5553 84.8859C49.9493 86.3447 53.2008 89.2478 57.4001 91.5011C61.3267 85.2337 65.8301 79.3625 70.8355 73.9629C70.7332 73.3105 70.6314 72.6194 70.5289 71.8867C70.32 70.3928 69.3605 68.269 67.992 65.9404C66.4308 65.7299 64.9687 65.2216 63.6889 63.993C62.5465 62.8964 62.0293 61.5841 61.9334 60.1936C61.8478 59.3805 61.9018 58.523 62.0829 57.6392C58.8933 53.812 55.6655 50.8333 54.1197 50.8452C43.0968 50.9295 39.2685 47.0376 48.8636 37.9254C58.3858 28.8827 61.8236 32.6428 61.4186 43.7803C61.3676 45.1789 62.9005 48.0416 65.4015 51.0868C65.5925 50.8463 65.7905 50.607 65.9952 50.3693C66.3381 49.9451 66.6605 49.5799 66.9413 49.2881C67.2436 48.974 67.6265 48.6081 68.0734 48.2174C71.2435 45.2676 74.4327 43.7148 77.2006 43.7995C78.6474 43.7709 80.0323 44.1971 81.2062 45.3238C81.3555 45.4672 81.4967 45.6173 81.6301 45.774C82.1127 46.2793 82.4774 46.8748 82.7287 47.5391C84.5194 51.502 83.7644 57.4113 84.9823 60.9929C91.6691 55.7961 98.9315 51.3054 106.658 47.6329C104.512 42.7735 101.665 38.1011 100.138 37.736C91.5659 35.6854 89.2281 31.8955 98.1639 26.5864C107.032 21.3176 109.088 24.929 106.958 33.5926C106.533 35.3146 108.593 40.6773 112.07 45.2274C115.202 43.9282 118.405 42.7609 121.668 41.7328C121.877 41.3402 122.096 40.9333 122.327 40.5114C125 35.6207 123.884 17.6118 121.006 15.837C111.929 10.2413 111.034 5.27014 124.141 3.16136C137.148 1.0687 137.799 5.73756 131.052 14.1297C128.94 16.7582 129.65 31.4791 136.816 38.0503Z" fill="#F2F2F2"/>
</svg>
