<svg width="230" height="48" viewBox="0 0 230 48" fill="none" xmlns="http://www.w3.org/2000/svg">
<path d="M78.0243 32.0001C82.1613 32.0001 84.3453 29.4171 84.3453 24.4191C84.3453 19.4001 82.1613 16.8381 78.0243 16.8381H73.0473C72.8583 16.8381 72.7533 16.9431 72.7533 17.1321V31.7061C72.7533 31.8951 72.8583 32.0001 73.0473 32.0001H78.0243ZM76.0713 29.0601V19.7781H77.7933C79.7253 19.7781 80.8173 20.9121 80.8173 24.4191C80.8173 27.9051 79.7253 29.0601 77.7933 29.0601H76.0713Z" fill="#444243"/>
<path d="M89.7494 16.0611C89.8754 16.2081 89.9804 16.1871 90.1484 16.1031L94.6844 13.6671C94.8314 13.5831 94.8524 13.4361 94.7264 13.2891L93.1724 11.4621C93.0464 11.3151 92.9204 11.3151 92.7944 11.4201L88.9304 14.6751C88.8044 14.7801 88.7624 14.9061 88.8884 15.0531L89.7494 16.0611ZM93.5924 17.0901C93.5504 16.9641 93.4664 16.8381 93.2984 16.8381H89.4764C89.3084 16.8381 89.2244 16.9431 89.1824 17.0901L84.8984 31.7061C84.8564 31.8741 84.9404 32.0001 85.0874 32.0001H87.9434C88.1114 32.0001 88.1954 31.8951 88.2374 31.7481L88.9304 29.0391H93.6764L94.3694 31.7481C94.4114 31.8741 94.4954 32.0001 94.6634 32.0001H97.6874C97.8344 32.0001 97.9184 31.8531 97.8764 31.7061L93.5924 17.0901ZM91.3034 19.8831L92.8994 26.0991H89.7074L91.3034 19.8831Z" fill="#444243"/>
<path d="M102.284 32.0001C102.473 32.0001 102.578 31.8951 102.578 31.7061V23.0331L104.069 27.6321C104.111 27.7791 104.195 27.8841 104.363 27.8841H106.925C107.093 27.8841 107.177 27.7791 107.219 27.6321L108.71 23.0331V31.7061C108.71 31.8951 108.815 32.0001 109.004 32.0001H111.524C111.713 32.0001 111.818 31.8951 111.818 31.7061V17.1321C111.818 16.9431 111.713 16.8381 111.524 16.8381H108.248C108.08 16.8381 107.996 16.9431 107.954 17.0901L105.728 24.3351L103.502 17.0901C103.46 16.9431 103.376 16.8381 103.208 16.8381H99.7639C99.5749 16.8381 99.4699 16.9431 99.4699 17.1321V31.7061C99.4699 31.8951 99.5749 32.0001 99.7639 32.0001H102.284Z" fill="#444243"/>
<path d="M124.382 19.7781C124.571 19.7781 124.676 19.6731 124.676 19.4841V17.1321C124.676 16.9431 124.571 16.8381 124.382 16.8381H115.142C114.953 16.8381 114.848 16.9431 114.848 17.1321V31.7061C114.848 31.8951 114.953 32.0001 115.142 32.0001H124.382C124.571 32.0001 124.676 31.8951 124.676 31.7061V29.3541C124.676 29.1651 124.571 29.0601 124.382 29.0601H118.166V25.8891H123.332C123.521 25.8891 123.626 25.7841 123.626 25.5951V23.2431C123.626 23.0541 123.521 22.9491 123.332 22.9491H118.166V19.7781H124.382Z" fill="#444243"/>
<path d="M134.964 26.2461C136.875 25.5111 137.904 23.9571 137.904 21.7731C137.904 18.6861 136.245 16.8381 132.444 16.8381H127.383C127.194 16.8381 127.089 16.9431 127.089 17.1321V31.7061C127.089 31.8951 127.194 32.0001 127.383 32.0001H130.113C130.302 32.0001 130.407 31.8951 130.407 31.7061V26.7291H131.541L134.334 31.7901C134.418 31.9581 134.502 32.0001 134.67 32.0001H137.883C138.093 32.0001 138.177 31.7901 138.072 31.6221L134.964 26.2461ZM132.234 19.7781C133.704 19.7781 134.481 20.2821 134.481 21.7731C134.481 23.2851 133.704 23.7891 132.234 23.7891H130.407V19.7781H132.234Z" fill="#444243"/>
<path d="M139.684 24.4191C139.684 29.2281 141.448 32.1471 145.795 32.1471C150.142 32.1471 151.906 29.2281 151.906 24.4191C151.906 19.6101 150.142 16.6911 145.795 16.6911C141.448 16.6911 139.684 19.6101 139.684 24.4191ZM143.212 24.4191C143.212 20.5551 144.094 19.4211 145.795 19.4211C147.496 19.4211 148.378 20.5551 148.378 24.4191C148.378 28.2831 147.496 29.4171 145.795 29.4171C144.094 29.4171 143.212 28.2831 143.212 24.4191Z" fill="#444243"/>
<path d="M165.196 17.1321C165.196 16.9431 165.091 16.8381 164.902 16.8381H162.172C161.983 16.8381 161.878 16.9431 161.878 17.1321V27.1911C161.878 28.7031 161.185 29.4171 159.757 29.4171C158.329 29.4171 157.636 28.7031 157.636 27.1911V17.1321C157.636 16.9431 157.531 16.8381 157.342 16.8381H154.612C154.423 16.8381 154.318 16.9431 154.318 17.1321V27.3171C154.318 30.2781 155.851 32.1471 159.757 32.1471C163.663 32.1471 165.196 30.2781 165.196 27.3171V17.1321Z" fill="#444243"/>
<path d="M172.02 15.7881C172.272 15.9561 172.503 15.9561 172.776 15.7881L176.304 13.6041C176.493 13.4781 176.493 13.3101 176.367 13.1001L175.422 11.5671C175.317 11.3781 175.107 11.3781 174.918 11.5041L172.461 13.1421L169.983 11.5041C169.794 11.3781 169.584 11.3991 169.479 11.5671L168.429 13.1001C168.282 13.3311 168.303 13.4781 168.492 13.6041L172.02 15.7881ZM167.652 31.2861C168.681 31.7901 170.13 32.1471 172.02 32.1471C175.065 32.1471 177.396 30.5721 177.396 27.6321C177.396 22.3821 170.718 23.4531 170.718 21.1221C170.718 19.9881 171.516 19.6311 172.65 19.6311C173.679 19.6311 174.918 19.9251 175.989 20.3451C176.199 20.4291 176.325 20.3451 176.388 20.1561L177.018 17.8881C177.081 17.6571 177.039 17.5521 176.808 17.4471C175.779 17.0061 174.204 16.6911 172.671 16.6911C169.794 16.6911 167.484 18.2241 167.484 21.2061C167.484 26.4141 174.162 25.4061 174.162 27.7161C174.162 28.7661 173.385 29.2071 172.02 29.2071C170.55 29.2071 169.542 28.8081 168.471 28.3881C168.261 28.3041 168.135 28.3881 168.072 28.5771L167.442 30.8451C167.379 31.0761 167.421 31.1811 167.652 31.2861Z" fill="#444243"/>
<path d="M186.025 24.0411L190.183 17.2791C190.33 17.0481 190.225 16.8381 189.973 16.8381H187.012C186.844 16.8381 186.781 16.8801 186.676 17.0481L182.917 23.4951V17.1321C182.917 16.9431 182.812 16.8381 182.623 16.8381H179.893C179.704 16.8381 179.599 16.9431 179.599 17.1321V31.7061C179.599 31.8951 179.704 32.0001 179.893 32.0001H182.623C182.812 32.0001 182.917 31.8951 182.917 31.7061V24.9441L186.865 31.7901C186.97 31.9581 187.033 32.0001 187.201 32.0001H190.393C190.645 32.0001 190.75 31.7691 190.645 31.6011L186.025 24.0411Z" fill="#444243"/>
<path d="M199.621 16.8381C199.474 16.8381 199.348 16.9011 199.306 17.0271L196.786 23.5791L194.329 17.0481C194.287 16.9221 194.182 16.8381 194.035 16.8381H190.801C190.57 16.8381 190.528 17.0061 190.612 17.1951L195.064 26.7711V31.7061C195.064 31.8951 195.169 32.0001 195.358 32.0001H198.088C198.277 32.0001 198.382 31.8951 198.382 31.7061V26.5821L202.834 17.1951C202.918 17.0061 202.876 16.8381 202.645 16.8381H199.621Z" fill="#444243"/>
<path d="M204.117 32.1471C205.377 32.1471 206.091 31.4121 206.091 30.1731C206.091 28.9341 205.377 28.1991 204.117 28.1991C202.857 28.1991 202.143 28.9341 202.143 30.1731C202.143 31.4121 202.857 32.1471 204.117 32.1471Z" fill="#444243"/>
<path d="M210.77 24.4191C210.77 20.8071 212.282 19.8411 213.983 19.8411C215.054 19.8411 216.188 20.2401 216.965 20.6811C217.133 20.7861 217.301 20.7441 217.364 20.5761L218.246 18.2661C218.33 18.0561 218.309 17.9091 218.12 17.8041C216.797 17.1111 215.474 16.6911 213.773 16.6911C209.846 16.6911 207.242 19.6521 207.242 24.4191C207.242 29.1861 209.846 32.1471 213.773 32.1471C215.474 32.1471 216.797 31.7271 218.12 31.0341C218.309 30.9291 218.33 30.7821 218.246 30.5721L217.364 28.2621C217.301 28.0941 217.133 28.0521 216.965 28.1571C216.188 28.5981 215.054 28.9971 213.983 28.9971C212.282 28.9971 210.77 28.0311 210.77 24.4191Z" fill="#444243"/>
<path d="M228.786 32.0001C228.975 32.0001 229.08 31.8951 229.08 31.7061V29.3541C229.08 29.1651 228.975 29.0601 228.786 29.0601H223.053L228.954 19.8201C229.038 19.6941 229.08 19.6101 229.08 19.4631V17.1321C229.08 16.9431 228.975 16.8381 228.786 16.8381H219.546C219.357 16.8381 219.252 16.9431 219.252 17.1321V19.4841C219.252 19.6731 219.357 19.7781 219.546 19.7781H225.279L219.378 29.0181C219.315 29.1231 219.252 29.2281 219.252 29.3751V31.7061C219.252 31.8951 219.357 32.0001 219.546 32.0001H228.786Z" fill="#444243"/>
<path d="M17.6713 47.3223C19.5971 47.3223 34.8716 30.9419 35.3403 18.5978C35.5645 9.3398 28.6253 0 17.5694 0C11.3434 0 1.64278 4.58815 0.185639 16.176C-1.82174 28.05 15.5824 47.3223 17.6713 47.3223Z" fill="#499AD5"/>
<path d="M17.6814 27.1915C22.69 27.1915 26.7503 23.1198 26.7503 18.097C26.7503 13.0742 22.69 9.00244 17.6814 9.00244C12.6728 9.00244 8.61255 13.0742 8.61255 18.097C8.61255 23.1198 12.6728 27.1915 17.6814 27.1915Z" fill="#FEDB49"/>
<path d="M8.84697 20.059C9.97813 20.059 10.8951 19.1395 10.8951 18.0051C10.8951 16.8708 9.97813 15.9512 8.84697 15.9512C7.71581 15.9512 6.79883 16.8708 6.79883 18.0051C6.79883 19.1395 7.71581 20.059 8.84697 20.059Z" fill="#444243"/>
<path d="M26.4856 18.7817C27.6168 18.7817 28.5338 17.8621 28.5338 16.7278C28.5338 15.5934 27.6168 14.6738 26.4856 14.6738C25.3545 14.6738 24.4375 15.5934 24.4375 16.7278C24.4375 17.8621 25.3545 18.7817 26.4856 18.7817Z" fill="#444243"/>
<path d="M8.81631 11.3735C10.3244 11.3735 13.0553 12.9165 11.8631 14.1121C10.6709 15.3077 10.6912 13.5399 8.61252 13.5399C7.49165 13.5399 7.17576 15.369 5.83071 14.0099C4.91364 13.1005 6.79874 11.3735 8.81631 11.3735Z" fill="#444243"/>
<path d="M26.4243 10.0962C27.9324 10.0962 30.6633 11.6392 29.4711 12.8348C28.2789 14.0304 28.2993 12.2625 26.2205 12.2625C25.0997 12.2625 24.7838 14.0917 23.4387 12.7326C22.5217 11.8231 24.4068 10.0962 26.4243 10.0962Z" fill="#444243"/>
<path d="M3.33434 29.5726C2.89618 30.2164 6.43202 41.4875 17.6815 41.4875C30.0009 41.4875 31.9879 30.3697 32.1815 29.5931C32.1815 28.8675 24.4373 23.4619 17.7223 23.4619C11.588 23.4619 3.78268 28.9289 3.33434 29.5726Z" fill="white"/>
<path d="M0.216249 15.9512C0.216249 15.9512 2.71274 21.551 3.90494 23.0429C5.09714 24.5348 8.61261 27.0077 8.61261 27.0077L6.78865 28.0295C6.78865 28.0295 3.89475 25.8632 2.8554 24.6676C1.81604 23.4721 0.0226439 20.1919 0.0226439 20.1919C0.0226439 20.1919 -0.0283049 18.5774 0.0226439 17.7905C0.0735927 17.0037 0.216249 15.9512 0.216249 15.9512Z" fill="white"/>
<path d="M35.1163 16.0332C35.1163 16.0332 32.6707 21.7761 31.5091 23.2169C30.3373 24.6577 26.9033 27.0591 26.9033 27.0591L28.6865 28.0503C28.6865 28.0503 31.5193 25.9452 32.5383 24.7905C33.5572 23.6256 35.1163 20.7746 35.1163 20.7746C35.1163 20.7746 35.1876 19.4769 35.2182 18.547C35.2284 17.7704 35.1163 16.0332 35.1163 16.0332Z" fill="white"/>
</svg>
