<svg width="180" height="40" viewBox="0 0 180 40" fill="none" xmlns="http://www.w3.org/2000/svg">
<path d="M0 8.81793C0 8.3817 0.381702 8 0.817934 8H13.5232C13.8503 8 14.1775 8.27264 14.1775 8.59982V8.70888C14.1775 8.73614 14.1639 8.7634 14.1503 8.79067C14.1366 8.81793 14.123 8.8452 14.123 8.87246C13.6322 10.1812 13.3596 11.6534 13.3596 13.1257C13.3596 14.2163 13.4686 15.2523 13.7413 16.2339C13.9049 16.9427 14.1775 17.5971 14.4502 18.2514C16.4132 22.6138 20.7755 25.6128 25.8467 25.6128C27.6462 25.6128 29.282 24.8494 30.4271 23.6498C31.4632 22.5047 32.1175 21.0324 32.1175 19.3965C32.1175 15.9612 29.282 13.1802 25.8467 13.1802C22.3569 13.1802 19.5759 15.9612 19.5759 19.3965C19.5759 21.0324 20.2302 22.5592 21.2663 23.6498C18.1581 22.2866 15.7589 19.6147 14.8319 16.2884C16.1951 11.4899 20.6119 8 25.8467 8C31.0815 8 35.4983 11.4899 36.8616 16.2339C37.0251 16.8882 37.1887 17.5426 37.2433 18.2514C37.2978 18.6331 37.2978 19.0148 37.2978 19.3965C37.2978 24.8494 33.4808 29.3753 28.355 30.5204C26.7737 30.9021 25.0288 31.1748 23.3384 31.1748C23.1546 31.1748 22.9769 31.181 22.8013 31.1871C22.456 31.1992 22.1185 31.2109 21.757 31.1748C9.86974 30.4114 0.436231 20.7598 0 8.81793Z" fill="#16181E"/>
<path d="M43.5686 13.2348C43.5686 11.6535 43.3505 10.1267 42.9688 8.65437C42.8597 8.27267 42.5326 8.00003 42.0963 8.05455H38.1157C37.7885 8.05455 37.5159 8.3272 37.5159 8.65437C37.5159 8.71826 37.5346 8.76343 37.5501 8.80085C37.5611 8.82732 37.5704 8.8499 37.5704 8.87249C38.0612 10.2357 38.3338 11.708 38.3338 13.2348C38.3338 14.3254 38.2248 15.3614 37.9521 16.343C38.2248 17.3245 38.3338 18.3605 38.3338 19.4511C38.3338 22.9955 36.9161 26.1582 34.0806 28.8301C35.4264 28.1339 36.2193 27.5168 36.9971 26.9114C37.1332 26.8055 37.2688 26.7 37.4068 26.5944C41.1693 23.3772 43.5686 18.5786 43.5686 13.2348Z" fill="#16181E"/>
<path d="M61.8902 8.92699L59.709 11.3263H56.819L54.7469 8.92699V8H57.0371L58.3458 8.92699L59.6545 8H61.8902V8.92699Z" fill="#16181E"/>
<path d="M50.3301 20.5417C50.3301 25.94 53.4928 28.9936 58.5094 28.9936C60.9632 28.9936 62.7627 28.2848 64.0168 27.3578V24.3587H62.381C61.563 25.1221 60.527 25.831 58.7821 25.831C56.2737 25.831 54.965 24.1951 54.965 20.4326C54.965 16.8882 56.4373 15.1978 59.0002 15.1978C60.4725 15.1978 61.5085 15.7431 62.1083 16.2884H63.8532V13.1257C62.5991 12.4168 61.1813 11.9261 58.8366 11.9261C53.7654 11.9261 50.3301 15.0888 50.3301 20.5417Z" fill="#16181E"/>
<path fill-rule="evenodd" clip-rule="evenodd" d="M69.0942 23.4862C69.3234 25.5677 70.303 26.1036 72.033 26.1036C73.4507 26.1036 74.4868 25.7219 75.1956 25.1766H76.5043V27.7395C75.4137 28.3393 73.9415 28.9937 71.3241 28.9937C66.9618 28.9937 64.7261 26.5944 64.7261 22.6138C64.7261 18.5786 67.3435 16.0703 71.106 16.0703C75.032 16.0703 76.9951 18.1424 76.9951 22.3957C76.9951 22.7066 76.9732 22.9957 76.9572 23.2074C76.9479 23.3295 76.9406 23.4264 76.9406 23.4862H69.0942ZM73.0145 21.196H69.0884C69.3065 19.1785 70.179 18.6877 71.1605 18.6332C72.3056 18.6332 72.9599 19.2875 73.0145 21.196Z" fill="#16181E"/>
<path d="M78.1403 27.9576V25.1766H79.6126C80.1033 25.6129 81.1394 26.1036 82.5026 26.1036C83.6477 26.1036 84.3566 25.831 84.3566 25.1766C84.3566 24.5223 83.9204 24.3042 82.1754 24.0315C79.5035 23.7044 78.0312 22.7774 78.0312 20.16C78.0312 17.4335 80.1579 16.0703 83.3206 16.0703C85.3381 16.0703 86.4832 16.3975 87.5738 16.8882V19.6692H86.1561C85.6108 19.2875 84.6292 18.9058 83.3751 18.9058C82.1754 18.9058 81.7392 19.233 81.7392 19.8328C81.7392 20.3781 82.2845 20.5962 83.8658 20.8143C86.8104 21.196 88.1736 22.0685 88.1736 24.7404C88.1736 27.4123 86.4287 28.9937 82.6117 28.9937C80.4305 28.9391 79.1218 28.4484 78.1403 27.9576Z" fill="#16181E"/>
<path d="M97.6069 16.2338L93.6808 20.9233V14.3799C93.6808 12.4713 93.4082 12.1442 92.0995 12.1442H89.373V28.83H93.6808V25.0675L94.7169 23.9224L97.6069 28.7755H101.642V27.7394L97.716 21.196L101.151 17.2699V16.2338H97.6069Z" fill="#16181E"/>
<path d="M106.713 15.4159V14.6525L107.477 12.0352H111.566V13.0712L109.167 15.4159H106.713Z" fill="#16181E"/>
<path fill-rule="evenodd" clip-rule="evenodd" d="M109.494 27.5759C108.622 28.5574 107.422 28.9391 105.895 28.9391C103.659 28.9391 101.915 27.685 101.915 25.2312C101.915 22.6138 103.932 21.3051 106.822 21.3051C107.749 21.3051 108.513 21.4141 109.221 21.5232V20.6507C109.221 19.5601 108.676 19.0694 107.095 19.0694C105.841 19.0694 104.859 19.4511 104.096 19.8873H102.787V16.9973C103.932 16.5065 105.623 16.0158 107.858 16.0158C111.566 16.0158 113.42 17.2699 113.42 20.3236V28.721H111.075C110.203 28.7755 109.712 28.4484 109.494 27.5759ZM109.221 23.5408C108.785 23.4862 108.294 23.4317 107.804 23.4317C106.659 23.4317 105.95 23.8679 105.95 24.904C105.95 25.9946 106.604 26.4308 107.531 26.4308C108.185 26.4308 108.731 26.1036 109.221 25.7219V23.5408Z" fill="#16181E"/>
<path fill-rule="evenodd" clip-rule="evenodd" d="M125.198 32.6471V27.794C125.907 28.3393 126.889 28.6665 128.307 28.6665C131.088 28.6665 133.705 26.9761 133.705 22.1776C133.705 17.5971 131.36 16.0703 128.961 16.0703C127.216 16.0703 126.016 16.7247 125.089 17.5971C124.926 16.452 124.544 16.2339 123.89 16.2339H120.891V32.6471H125.198ZM125.198 25.4493V19.6692C125.744 19.3966 126.453 19.233 126.998 19.233C128.307 19.233 129.343 19.8873 129.343 22.5593C129.343 25.3402 128.252 25.94 126.943 25.94C126.234 25.94 125.689 25.7765 125.198 25.4493Z" fill="#16181E"/>
<path fill-rule="evenodd" clip-rule="evenodd" d="M134.632 22.5592C134.632 18.5241 137.522 16.0157 141.339 16.0157C145.101 16.0157 147.991 18.5241 147.991 22.5592C147.991 26.5398 145.101 28.9391 141.339 28.9391C137.522 28.9936 134.632 26.5944 134.632 22.5592ZM143.629 22.6137C143.629 20.1054 142.702 18.9603 141.284 18.9603C139.867 18.9603 138.94 20.1054 138.94 22.6137C138.94 25.0675 139.867 26.1581 141.284 26.1581C142.648 26.1581 143.629 25.1221 143.629 22.6137Z" fill="#16181E"/>
<path d="M155.353 15.4159L157.534 12.9621V12.0352H155.298L153.99 13.0167L152.681 12.0352H150.391V12.9621L152.463 15.4159H155.353Z" fill="#16181E"/>
<path d="M148.864 25.1766V27.9576C149.845 28.4484 151.154 28.9391 153.335 28.9937C157.207 28.9937 158.952 27.4123 158.952 24.7404C158.952 22.0685 157.589 21.196 154.644 20.8143C153.063 20.5962 152.517 20.3781 152.517 19.8328C152.517 19.233 152.954 18.9058 154.153 18.9058C155.462 18.9058 156.389 19.2875 156.934 19.6692H158.297V16.8882C157.207 16.3975 156.062 16.0703 154.044 16.0703C150.882 16.0703 148.755 17.4335 148.755 20.16C148.755 22.7774 150.227 23.7043 152.899 24.0315C154.644 24.3042 155.08 24.5223 155.08 25.1766C155.08 25.831 154.371 26.1036 153.226 26.1036C151.863 26.1036 150.827 25.6129 150.336 25.1766H148.864Z" fill="#16181E"/>
<path d="M159.497 16.2338H160.86V13.0712H165.168V16.2338H167.513V19.0148H165.168V24.7404C165.168 25.8855 165.604 26.2126 166.695 26.2126H167.513V28.6664C166.968 28.83 166.15 28.9936 165.059 28.9936C162.496 28.9936 160.86 28.0666 160.86 25.3402V19.0148H159.497V16.2338Z" fill="#16181E"/>
<path fill-rule="evenodd" clip-rule="evenodd" d="M172.366 28.9391C173.893 28.9391 175.092 28.5574 175.965 27.5759C176.183 28.4483 176.674 28.7755 177.546 28.721H179.891V20.3235C179.891 17.2699 178.037 16.0157 174.329 16.0157C172.093 16.0157 170.403 16.5065 169.258 16.9973V19.8873H170.566C171.33 19.4511 172.311 19.0694 173.566 19.0694C175.147 19.0694 175.692 19.5601 175.692 20.6507V21.5232C174.983 21.4141 174.22 21.3051 173.293 21.3051C170.403 21.3051 168.385 22.6137 168.385 25.2311C168.385 27.6849 170.185 28.9391 172.366 28.9391ZM175.747 23.5407V25.7764C175.256 26.1581 174.711 26.4308 174.056 26.4308C173.129 26.4308 172.475 25.9945 172.475 24.904C172.475 23.8679 173.184 23.4317 174.329 23.4317C174.82 23.4317 175.31 23.4862 175.747 23.5407Z" fill="#16181E"/>
</svg>
