<svg width="128" height="172" fill="none" xmlns="http://www.w3.org/2000/svg">
  <g clip-path="url(#img-pin-brazil__clip0)">
    <ellipse opacity=".8" cx="64" cy="156.124" rx="59" ry="14" fill="url(#img-pin-brazil__paint0_radial)"/>
    <ellipse cx="64.683" cy="156" rx="39" ry="4" fill="url(#img-pin-brazil__paint1_radial)"/>
    <path d="M64.178 155.514c6.357 0 56.771-53.83 58.318-94.396C123.236 30.693 100.333 0 63.842 0 43.293 0 11.275 15.078 6.466 53.159-.16 92.18 57.284 155.514 64.178 155.514z" fill="#499AD5"/>
    <path d="M64.212 89.36c16.531 0 29.932-13.381 29.932-29.888 0-16.506-13.401-29.887-29.932-29.887-16.532 0-29.933 13.381-29.933 29.887 0 16.507 13.401 29.887 29.933 29.887z" fill="#FEDB49"/>
    <path d="M35.053 65.92c3.733 0 6.76-3.023 6.76-6.75 0-3.728-3.027-6.75-6.76-6.75-3.734 0-6.76 3.022-6.76 6.75 0 3.727 3.026 6.75 6.76 6.75zm58.217-4.198c3.733 0 6.76-3.022 6.76-6.75 0-3.727-3.027-6.75-6.76-6.75-3.734 0-6.76 3.023-6.76 6.75 0 3.728 3.026 6.75 6.76 6.75zM34.952 37.376c4.977 0 13.99 5.07 10.056 9-3.935 3.928-3.868-1.881-10.729-1.881-3.7 0-4.742 6.011-9.182 1.545-3.026-2.99 3.195-8.664 9.855-8.664zm58.116-4.198c4.977 0 13.991 5.071 10.056 9-3.935 3.929-3.868-1.88-10.729-1.88-3.7 0-4.742 6.01-9.181 1.544-3.027-2.989 3.195-8.664 9.854-8.664z" fill="#444243"/>
    <path d="M6.566 52.42s8.24 18.403 12.175 23.305c3.935 4.903 15.538 13.03 15.538 13.03l-6.02 3.358s-9.552-7.12-12.982-11.048c-3.43-3.93-9.35-14.709-9.35-14.709s-.168-5.306 0-7.891c.168-2.586.64-6.045.64-6.045zm115.19.268s-8.072 18.873-11.906 23.608c-3.868 4.735-15.202 12.626-15.202 12.626l5.886 3.258s9.35-6.918 12.713-10.713c3.363-3.828 8.509-13.197 8.509-13.197s.235-4.265.336-7.32c.034-2.553-.336-8.262-.336-8.262z" fill="#fff"/>
    <path d="M112.07 97.218c-.673 2.552-7.197 39.088-47.858 39.088-37.13.034-48.8-37.006-47.354-39.122 1.446-2.116 27.208-20.081 47.488-20.081 22.164 0 47.758 17.73 47.724 20.115z" fill="#079247"/>
    <path d="M64.918 81.434l-39.989 25.489 39.989 25.488 39.988-25.488-39.988-25.489z" fill="#F6C315"/>
    <path d="M64.884 123.713c9.287 0 16.816-7.517 16.816-16.79s-7.529-16.79-16.816-16.79c-9.287 0-16.816 7.517-16.816 16.79s7.529 16.79 16.816 16.79z" fill="#2C286C"/>
    <path d="M66.565 110.549l.202.504.538.034-.437.335.134.538-.47-.303-.471.303.134-.538-.437-.335.538-.034.269-.504zm12.612 1.78l.168.437.471.033-.37.302.1.471-.403-.235-.403.235.1-.471-.37-.302.472-.033.235-.437zm-1.816 1.411l.202.503.538.034-.437.336.134.537-.47-.302-.472.302.135-.537-.437-.336.538-.034.269-.503zm-.673-1.814l.236.605.639.033-.505.403.168.638-.538-.336-.538.336.168-.638-.504-.403.639-.033.235-.605zm-.134 3.123l.201.504.539.033-.438.336.135.538-.47-.303-.472.303.135-.538-.438-.336.539-.033.269-.504zm-1.581.84l.168.436.471.034-.37.302.1.47-.403-.235-.403.235.1-.47-.37-.302.472-.034.235-.436zm-1.614 1.511l.202.504.538.033-.438.336.135.537-.471-.302-.47.302.134-.537-.438-.336.539-.033.269-.504zm0 1.88l.168.437.47.034-.37.302.102.47-.404-.235-.404.235.101-.47-.37-.302.471-.034.236-.437zm-.034-3.391l.168.436.471.034-.37.302.101.47-.404-.235-.403.235.1-.47-.37-.302.472-.034.235-.436zm-1.984.369l.168.437.47.033-.37.302.102.471-.404-.235-.404.235.101-.471-.37-.302.471-.033.236-.437zm-1.278-16.119l.235.605.64.033-.505.403.168.638-.538-.336-.538.336.168-.638-.505-.403.64-.033.235-.605zm-.27 17.664l.203.504.538.033-.438.336.135.537-.471-.302-.47.302.134-.537-.438-.336.539-.033.269-.504zm-.941-12.56l.168.437.471.034-.37.302.1.47-.403-.235-.403.235.1-.47-.37-.302.472-.034.235-.437zm-.437 10.612l.168.437.47.033-.37.302.102.471-.404-.235-.403.235.1-.471-.37-.302.471-.033.236-.437zm-3.363-6.75l.201.504.538.034-.437.335.135.538-.471-.302-.47.302.134-.538-.438-.335.538-.034.27-.504zm-.101 4.769l.235.604.64.034-.505.403.168.638-.538-.336-.538.336.168-.638-.538-.403.639-.034.269-.604zm.033 6.078l.101.235h.236l-.202.168.067.235-.202-.134-.201.134.067-.235-.202-.168h.235l.101-.235zm-1.042-8.026l.134.336.337.034-.27.235.101.335-.302-.201-.303.201.1-.335-.268-.235.336-.034.135-.336zm-1.245-1.074l.168.436.471.034-.37.302.101.47-.37-.269-.403.235.1-.47-.37-.302.471-.033.202-.403zm-4.372-3.997l.202.504.538.034-.437.335.134.538-.47-.302-.471.302.134-.538-.437-.335.538-.034.27-.504zm-.504 8.463l.235.604.64.034-.505.403.168.638-.538-.336-.538.336.168-.638-.505-.403.64-.034.235-.604zm-1.85-3.325l.202.504.538.034-.437.335.134.538-.47-.303-.472.303.135-.538-.437-.335.538-.034.269-.504zm-.605 1.881l.168.436.47.034-.37.302.102.47-.404-.235-.404.235.101-.47-.37-.302.471-.034.235-.436zm-1.245-4.299l.135.336.336.034-.269.235.1.336-.302-.202-.303.202.101-.336-.269-.235.337-.034.134-.336zm-1.547.672l.236.605.639.033-.505.403.168.638-.538-.336-.538.336.168-.638-.504-.403.639-.033.235-.605zm-1.379-6.985l.236.605.639.033-.505.403.168.638-.538-.336-.538.336.168-.638-.504-.403.639-.033.235-.605zm-.37 8.597l.202.504.538.033-.437.336.134.537-.47-.302-.471.302.134-.537-.437-.336.538-.033.27-.504z" fill="#fff"/>
    <path d="M54.828 101.717c10.022 0 19.204 3.661 26.233 9.739.235-.806.404-1.646.504-2.519-7.331-5.944-16.647-9.503-26.77-9.503-1.75 0-3.498.1-5.18.302-.37.772-.672 1.578-.908 2.418 2.018-.269 4.036-.437 6.121-.437z" fill="#fff"/>
    <path d="M50.49 100.844c0 .168.067.303.134.37a.272.272 0 00.303.101.355.355 0 00.303-.168.52.52 0 00.067-.403.538.538 0 00-.135-.37c-.067-.1-.201-.134-.336-.1a.354.354 0 00-.303.167c0 .101-.033.236-.033.403zm-.303.034a.899.899 0 01.135-.604c.134-.168.302-.235.504-.269a.59.59 0 01.538.168.751.751 0 01.236.571.9.9 0 01-.135.604c-.135.168-.303.235-.505.269a.593.593 0 01-.538-.168.81.81 0 01-.235-.571zm2.455-.269h.37a.255.255 0 00.168-.067c.034-.033.068-.067.034-.168 0-.067-.034-.1-.067-.134-.034-.034-.101-.034-.169-.034h-.37l.034.403zm-.303.84l-.033-1.511.74-.034c.168 0 .269.034.37.101a.425.425 0 01.134.302c0 .101 0 .168-.033.235-.034.067-.101.101-.169.135.068.033.101.067.135.1.034.034.034.135.067.235v.168c0 .101.034.135.067.168v.034h-.336c0-.034-.033-.034-.033-.067v-.269c0-.101-.034-.168-.068-.202-.033-.033-.1-.033-.168-.033h-.336l.033.571-.37.067zm2.22-.336h.236c.134 0 .235-.033.302-.101.067-.067.101-.201.101-.369a.895.895 0 00-.067-.369c-.034-.068-.135-.135-.27-.135h-.268l-.034.974zm-.303.269l.034-1.511h.572c.235 0 .403.067.504.201.101.134.169.302.169.571 0 .134-.034.269-.068.369-.033.101-.1.202-.202.235l-.201.101c-.068.034-.169.034-.337.034h-.47zm1.917.033l.068-1.51 1.076.066v.269l-.774-.034v.336l.707.034v.268l-.707-.033-.033.369.807.034v.269l-1.144-.068zm1.75.101l.167-1.477.471.033.169 1.175.403-1.108.47.034-.167 1.477-.303-.033.135-1.209-.438 1.175-.302-.033-.169-1.243-.134 1.209h-.303zm4.002.504l.302-1.478 1.076.235-.067.269-.773-.168-.068.302.707.135-.068.235-.706-.135-.067.37.807.168-.067.268-1.076-.201zm3.968.101l.303.067c.067.033.134.033.168 0a.445.445 0 00.1-.135c.035-.067 0-.134 0-.168-.033-.033-.066-.067-.134-.1l-.302-.067-.135.403zm-.067.268l-.135.504-.302-.067.403-1.444.64.168c.167.033.268.1.302.201.067.101.067.235.034.37-.034.134-.101.268-.202.302-.101.067-.236.067-.37.033l-.37-.067zm1.782.235l.337.101c.067.034.134.034.168 0 .033-.034.067-.067.1-.134.034-.067 0-.101 0-.168a.465.465 0 00-.134-.101l-.37-.101-.1.403zm-.538.705l.437-1.444.707.202c.168.034.269.101.302.201.068.101.068.202.034.336-.034.101-.067.168-.135.202-.067.033-.134.067-.201.067.067.033.1.101.1.134 0 .067 0 .135-.033.235l-.034.168c-.033.101-.033.135 0 .168v.034l-.336-.101v-.067c0-.034 0-.067.034-.101l.033-.168c.034-.101.034-.168 0-.201a.447.447 0 00-.134-.101l-.303-.101-.168.571-.303-.034zm2.287 0c-.067.168-.067.303-.033.403.033.101.1.202.235.236.135.033.235.033.336-.034.101-.067.169-.168.236-.336a.581.581 0 00.033-.403.407.407 0 00-.235-.235c-.135-.034-.236-.034-.336.034-.101.067-.169.201-.236.335zm-.302-.1a.761.761 0 01.37-.47c.168-.101.37-.101.571 0 .202.067.37.201.437.369.068.168.068.369 0 .604a.763.763 0 01-.37.471c-.168.1-.37.1-.571.033-.202-.067-.37-.201-.438-.369a1.032 1.032 0 010-.638zm2.791 1.746a.617.617 0 01-.236.067c-.067 0-.168 0-.235-.033-.202-.068-.336-.202-.37-.403-.067-.202-.033-.403.034-.605.1-.235.235-.369.403-.436a.825.825 0 01.572 0c.168.067.303.167.37.302.067.134.101.268.034.436l-.303-.134c0-.067 0-.134-.034-.201-.033-.068-.1-.101-.201-.135a.584.584 0 00-.337 0 .536.536 0 00-.235.302.561.561 0 00-.034.403c.034.101.101.202.236.235.1.034.168.034.269 0 .067-.033.168-.1.202-.167l-.303-.135.1-.235.572.235-.302.739-.202-.067v-.168zm1.412-.034l.337.168a.362.362 0 00.168.034c.034 0 .1-.034.1-.101.034-.067.034-.101 0-.168-.033-.067-.066-.101-.134-.101l-.336-.167-.135.335zm-.638.638l.672-1.343.64.336c.134.067.235.168.268.269.034.1.034.201-.033.335a.397.397 0 01-.169.168c-.067.034-.134.067-.201.034a.256.256 0 01.067.168c0 .067 0 .134-.067.235l-.068.168c-.033.067-.033.134-.033.168l-.034.033-.303-.134v-.067c0-.034.034-.067.034-.101l.067-.134c.034-.101.034-.135.034-.202 0-.033-.067-.067-.135-.134l-.302-.134-.27.537-.168-.202zm1.681.84l.74-1.31.942.538-.135.235-.672-.37-.169.269.64.336-.135.235-.64-.336-.201.336.706.403-.134.235-.942-.571zm1.682.47l.269.168a.212.212 0 000 .201.39.39 0 00.168.168.47.47 0 00.202.068c.067 0 .1-.034.134-.101s-.033-.202-.235-.403l-.034-.034c-.1-.101-.168-.168-.202-.235-.033-.067-.033-.101-.033-.168s.033-.134.067-.201c.067-.135.168-.202.303-.202.134 0 .269.034.437.135.134.1.235.201.303.302a.475.475 0 01-.034.369l-.27-.168a.213.213 0 000-.201c-.033-.067-.066-.101-.167-.168a.473.473 0 00-.202-.067c-.067 0-.1.033-.135.067-.033.067 0 .168.135.269l.067.067.168.168c.034.033.068.067.068.1.033.068.067.135.033.202a.474.474 0 01-.067.201c-.067.135-.202.202-.336.235-.135.034-.27-.033-.438-.134-.168-.101-.269-.201-.302-.336.033 0 .033-.168.1-.302zm1.58 1.007l.27.168c-.034.068-.034.135-.034.202.033.067.067.134.168.168.067.033.135.067.202.067s.1-.034.134-.067c.068-.067 0-.202-.201-.403l-.034-.034a1.107 1.107 0 01-.202-.268c-.034-.068-.034-.135-.034-.168a.48.48 0 01.068-.202.36.36 0 01.302-.201c.135 0 .27.033.438.134.134.101.235.202.269.336.033.134 0 .235-.068.369l-.235-.168c.034-.067.034-.134.034-.201a.589.589 0 00-.135-.168.556.556 0 00-.168-.067.253.253 0 00-.135.067c-.033.067 0 .168.101.302l.068.067.168.168c.033.034.067.067.067.101a.424.424 0 01.034.201c0 .068-.034.135-.068.202-.1.134-.201.201-.336.201a.812.812 0 01-.437-.134.627.627 0 01-.303-.369c-.033-.034 0-.168.067-.303zm1.917 1.008a.624.624 0 00-.134.369c0 .101.067.202.168.303.1.067.202.1.336.067a.693.693 0 00.337-.235.627.627 0 00.134-.37c0-.1-.067-.201-.168-.302a.39.39 0 00-.336-.067c-.135 0-.236.101-.337.235zm-.235-.202a.722.722 0 01.504-.335c.202-.034.37.033.572.168.168.134.27.302.303.503a.643.643 0 01-.202.571.723.723 0 01-.504.336c-.202.034-.37 0-.572-.134a.8.8 0 01-.303-.504c0-.202.034-.403.202-.605z" fill="#079247"/>
  </g>
  <defs>
    <radialGradient id="img-pin-brazil__paint0_radial" cx="0" cy="0" r="1" gradientUnits="userSpaceOnUse" gradientTransform="matrix(0 14 -59 0 64 156.124)">
      <stop offset=".089" stop-color="#C4C4C4" stop-opacity=".56"/>
      <stop offset=".813" stop-color="#C4C4C4" stop-opacity="0"/>
    </radialGradient>
    <radialGradient id="img-pin-brazil__paint1_radial" cx="0" cy="0" r="1" gradientUnits="userSpaceOnUse" gradientTransform="matrix(0 4 -39 0 64.683 156)">
      <stop stop-color="#8A8A8A"/>
      <stop offset="1" stop-color="#C4C4C4" stop-opacity="0"/>
    </radialGradient>
    <clipPath id="img-pin-brazil__clip0">
      <path fill="#fff" d="M0 0h128v172H0z"/>
    </clipPath>
  </defs>
</svg>
