<svg width="128" height="172" fill="none" xmlns="http://www.w3.org/2000/svg">
  <g clip-path="url(#img-pin-germany__clip0)">
    <ellipse opacity=".8" cx="63" cy="156.124" rx="59" ry="14" fill="url(#img-pin-germany__paint0_radial)"/>
    <ellipse cx="63.683" cy="156" rx="39" ry="4" fill="url(#img-pin-germany__paint1_radial)"/>
    <path d="M64.607 156.872c6.403 0 57.184-54.3 58.742-95.22C124.094 30.961 101.024 0 64.268 0 43.569 0 11.318 15.21 6.474 53.623-.199 92.985 57.662 156.872 64.607 156.872z" fill="#499AD5"/>
    <path d="M64.64 90.14c16.652 0 30.15-13.498 30.15-30.148S81.292 29.843 64.64 29.843c-16.651 0-30.15 13.498-30.15 30.149 0 16.65 13.498 30.148 30.15 30.148z" fill="#FEDB49"/>
    <path d="M35.27 66.496a6.809 6.809 0 100-13.618 6.809 6.809 0 000 13.618zm58.64-4.235a6.809 6.809 0 100-13.618 6.809 6.809 0 000 13.618zM35.167 37.702c5.014 0 14.093 5.115 10.13 9.079-3.964 3.963-3.896-1.897-10.807-1.897-3.727 0-4.777 6.063-9.249 1.558-3.049-3.015 3.219-8.74 9.926-8.74zm58.54-4.234c5.014 0 14.093 5.115 10.129 9.078-3.964 3.964-3.896-1.897-10.807-1.897-3.726 0-4.776 6.064-9.248 1.559-3.049-3.015 3.218-8.74 9.926-8.74z" fill="#444243"/>
    <path d="M6.576 52.878s8.3 18.563 12.263 23.509C22.803 81.333 34.49 89.53 34.49 89.53l-6.064 3.388s-9.62-7.182-13.076-11.145c-3.455-3.963-9.418-14.837-9.418-14.837s-.17-5.352 0-7.96c.17-2.609.644-6.098.644-6.098zm116.028.271s-8.131 19.037-11.993 23.814C106.715 81.739 95.299 89.7 95.299 89.7l5.928 3.285s9.418-6.978 12.806-10.806c3.387-3.861 8.571-13.312 8.571-13.312s.237-4.302.338-7.385c.034-2.574-.338-8.333-.338-8.333z" fill="#fff"/>
    <path d="M112.847 98.067c-.677 2.574-7.249 39.429-48.206 39.429-37.4.034-49.156-37.329-47.699-39.463C18.4 95.899 44.35 77.776 64.776 77.776c22.325 0 48.105 17.886 48.071 20.29z" fill="#fff"/>
    <path d="M107.088 113.649c-6.098 11.043-18.294 23.847-42.448 23.847-22.358 0-35.57-13.38-42.244-24.559 8.13 2.981 23.95 7.791 41.431 7.893 16.701.068 33.64-4.234 43.261-7.181z" fill="#FCCF0D"/>
    <path d="M112.847 98.067c-.271 1.05-1.558 7.892-5.793 15.582-9.62 2.947-26.56 7.249-43.26 7.181-17.48-.068-33.301-4.878-41.432-7.893-4.505-7.52-6.03-14.058-5.454-14.938.44-.644 3.117-2.744 7.216-5.386 8.537 2.98 23.375 7.181 39.67 7.249 16.6.068 33.47-4.167 43.091-7.114 3.76 2.575 5.962 4.607 5.962 5.319z" fill="#DD2227"/>
    <path d="M106.918 92.782c-9.655 2.947-26.492 7.181-43.091 7.114-16.295-.068-31.133-4.269-39.67-7.25 9.418-6.063 26.39-14.87 40.618-14.87 15.753 0 33.233 8.909 42.143 15.006z" fill="#060707"/>
  </g>
  <defs>
    <radialGradient id="img-pin-germany__paint0_radial" cx="0" cy="0" r="1" gradientUnits="userSpaceOnUse" gradientTransform="matrix(0 14 -59 0 63 156.124)">
      <stop offset=".089" stop-color="#C4C4C4" stop-opacity=".56"/>
      <stop offset=".813" stop-color="#C4C4C4" stop-opacity="0"/>
    </radialGradient>
    <radialGradient id="img-pin-germany__paint1_radial" cx="0" cy="0" r="1" gradientUnits="userSpaceOnUse" gradientTransform="matrix(0 4 -39 0 63.683 156)">
      <stop stop-color="#8A8A8A"/>
      <stop offset="1" stop-color="#C4C4C4" stop-opacity="0"/>
    </radialGradient>
    <clipPath id="img-pin-germany__clip0">
      <path fill="#fff" d="M0 0h128v172H0z"/>
    </clipPath>
  </defs>
</svg>
