<svg width="2080" height="1200" viewBox="0 0 2080 1200" fill="none" xmlns="http://www.w3.org/2000/svg">
<path opacity="0.5" fill-rule="evenodd" clip-rule="evenodd" d="M1471.08 1193.4C1469.16 1189.57 1467.63 1184.22 1467.63 1181.54C1467.63 1178.86 1464.56 1173.51 1460.73 1170.06C1454.99 1164.71 1451.16 1163.56 1438.13 1163.94C1426.26 1164.33 1420.13 1162.8 1412.09 1158.21C1406.34 1154.76 1395.23 1151.32 1386.42 1150.56C1372.25 1149.03 1371.1 1148.26 1370.33 1141.38C1369.95 1136.4 1367.27 1133.34 1363.05 1132.2C1359.61 1131.43 1353.1 1127.61 1348.5 1124.16C1335.47 1113.84 1325.52 1114.98 1313.64 1127.99C1297.55 1145.97 1274.57 1148.64 1223.24 1137.55C1183.78 1129.14 1163.87 1119.96 1146.25 1101.21C1124.79 1079.03 1113.3 1068.7 1110.24 1068.7C1108.71 1068.7 1104.11 1071.38 1099.9 1074.44C1090.32 1082.09 1076.91 1080.18 1061.21 1069.47C1038.61 1053.78 1035.16 1051.87 1028.65 1051.87C1024.43 1051.87 1017.92 1047.66 1011.41 1040.78C1005.28 1034.66 998.003 1029.69 994.939 1029.69C991.492 1029.69 985.363 1025.86 981.532 1021.65C975.786 1015.53 971.19 1013.24 961.23 1012.86C950.122 1012.09 947.44 1013.24 941.694 1019.74C936.715 1025.48 931.735 1027.77 921.009 1028.92C904.155 1030.83 899.558 1027.01 899.175 1010.94C898.792 1001.76 898.026 1000.62 892.663 1001.38C889.216 1001.76 881.938 999.47 876.958 996.41C861.636 986.847 858.188 990.672 858.954 1015.53C859.338 1027.39 857.805 1044.22 855.507 1053.02C852.06 1067.55 852.06 1069.85 856.273 1077.12C862.785 1087.83 862.402 1098.54 855.507 1105.42C848.612 1111.92 844.015 1112.31 826.012 1106.95C807.242 1101.21 802.645 1101.6 802.645 1108.48C802.645 1115.37 788.089 1130.67 781.96 1130.67C775.449 1130.67 769.32 1147.5 769.32 1165.47C769.32 1178.86 768.554 1181.16 761.659 1186.13C752.082 1193.01 745.57 1191.87 735.994 1182.69C730.248 1176.95 726.034 1175.8 716.075 1175.8C709.18 1175.8 698.072 1175.04 691.56 1173.89C680.834 1171.98 678.153 1172.74 663.214 1181.92C644.444 1193.4 634.101 1194.54 618.779 1186.89C613.033 1183.83 595.03 1178.86 578.942 1175.8C556.341 1171.21 548.297 1168.53 544.85 1163.56C542.168 1160.12 537.955 1155.53 535.656 1152.85C530.294 1147.11 530.294 1137.93 535.656 1133.73C542.551 1127.99 540.636 1122.63 526.846 1114.22C519.568 1109.63 509.609 1100.83 504.246 1094.71C498.883 1088.59 491.988 1083.24 489.307 1083.24C483.178 1083.24 467.089 1067.55 467.089 1061.05C466.706 1049.58 454.449 1031.22 442.574 1025.1C434.913 1020.89 428.401 1014.39 425.337 1007.88C422.272 1002.15 415.76 994.497 411.163 991.055C402.736 984.935 401.97 984.935 394.309 989.525C387.031 993.732 385.499 993.732 378.604 990.29C362.899 982.257 356.004 971.547 353.705 953.57C352.173 940.948 349.492 933.298 342.214 922.588C332.637 908.053 326.508 903.845 313.101 900.785C301.993 898.49 291.65 888.928 289.352 879.365C288.203 874.393 283.223 865.978 278.243 860.623C273.264 854.885 267.901 846.47 266.752 842.263C265.603 838.055 261.772 831.935 258.325 829.258C254.877 826.58 250.28 819.313 247.599 813.193C241.853 798.275 234.192 794.45 210.443 792.538C179.032 790.243 172.903 786.035 165.242 763.086C163.327 756.966 158.73 751.228 153.368 748.551C143.025 742.813 135.747 727.131 134.981 709.153C134.598 698.826 132.683 693.853 126.937 687.733C121.574 681.996 118.893 675.876 117.744 666.313C116.977 659.046 113.913 649.866 111.232 646.041C108.55 642.216 105.869 635.331 105.869 630.358C105.869 623.091 103.187 618.883 92.4619 609.321C76.3736 594.786 72.5431 588.283 72.16 577.191C72.16 567.628 76.3736 561.891 83.6517 561.891C87.0992 561.891 89.7805 557.301 93.228 547.356C95.9094 539.324 102.804 527.849 108.933 520.964C120.425 508.341 120.425 504.516 109.316 500.309C103.187 498.014 102.421 496.484 103.187 485.009C104.337 472.004 102.421 469.709 91.6958 469.709C89.0144 469.709 82.8856 466.266 78.672 461.676C74.4584 457.469 63.3498 447.141 54.1564 439.109C30.4071 417.689 24.6612 408.126 24.6612 386.707C25.0443 364.904 18.5324 348.074 7.80682 340.424C-1.76955 333.539 -2.53566 326.272 5.50849 318.622C8.57293 315.562 10.8713 311.354 10.8713 309.442C8.95599 296.054 16.234 286.109 25.8104 289.169C35.7698 292.229 47.2615 304.852 47.2615 312.884C47.2615 317.474 50.3259 322.829 55.6887 327.802C60.2853 332.009 64.1159 337.747 64.1159 340.424C64.1159 345.397 89.0144 320.917 127.32 278.842C140.344 264.307 159.113 257.804 171.754 262.394C183.629 266.984 190.524 265.454 203.931 256.657C210.826 252.067 218.104 249.007 220.019 249.772C221.934 250.537 228.063 249.389 233.426 247.094C241.853 243.652 244.535 243.652 251.047 246.712C255.26 248.624 259.857 253.214 261.389 256.657C266.752 269.279 280.159 262.012 283.606 244.799C285.905 231.794 290.501 229.882 316.932 229.499C341.831 229.117 347.576 225.674 353.705 207.697C358.302 194.309 366.346 189.337 377.455 193.544C388.18 197.752 394.309 194.692 394.309 184.747C394.309 175.567 401.97 167.535 410.014 167.535C418.442 167.535 421.506 170.977 424.187 181.305C427.635 194.309 432.615 195.074 434.913 183.217C436.062 177.862 439.893 170.977 443.34 167.535C447.171 164.475 450.235 159.12 450.235 156.06C450.235 153 453.299 148.792 456.747 146.497C465.557 140.76 496.968 135.787 528.761 135.405L555.192 135.022L556.724 125.842C557.49 120.87 560.172 115.515 562.47 114.75C564.768 113.602 571.28 110.542 577.026 107.865C585.453 104.04 590.816 103.275 605.755 104.805C622.61 106.717 625.291 106.335 637.549 99.0672C662.83 84.1498 675.854 78.7948 688.495 76.8823C717.99 73.0573 720.289 70.3798 702.285 58.1398C696.156 53.9324 691.177 48.5774 691.177 46.2824C691.177 43.9874 690.027 42.0749 688.495 42.0749C683.898 42.0749 677.003 25.6274 678.919 18.7425C681.6 10.3275 691.177 0 696.539 0C698.838 0 706.116 3.05999 712.244 6.88498C721.055 12.24 727.184 13.77 740.974 13.77C753.997 13.77 762.042 15.6825 772.001 20.6549C791.537 30.5999 799.964 45.1349 790.388 52.7849C784.642 57.3749 785.025 61.1998 791.537 61.1998C802.646 61.1998 805.327 71.1448 798.815 91.0348C797.283 96.3897 797.666 97.1547 804.561 97.1547C808.774 97.1547 815.669 99.4497 819.5 102.51C828.31 108.63 834.822 107.1 845.165 96.0073C852.06 88.7398 852.826 88.7398 873.511 90.2698L894.962 92.1823L896.877 78.7948C898.409 69.2323 897.643 63.1123 894.196 55.8449C888.067 43.2224 888.45 40.1624 896.494 32.5124C902.623 26.7749 904.921 26.3924 918.328 28.3049C926.372 29.4524 940.162 30.2174 948.972 30.2174C959.698 29.8349 965.827 31.3649 968.125 34.0424C970.04 36.3374 973.871 38.2499 976.169 38.2499C978.468 38.2499 984.98 41.6924 989.959 45.8999C1001.07 55.0799 1006.43 76.4998 1001.07 89.1223C998.003 96.0072 998.77 97.9197 1007.2 107.1C1012.56 112.837 1018.69 120.487 1020.99 123.93C1024.82 129.667 1026.35 130.05 1033.24 126.99C1040.52 123.93 1041.29 124.312 1048.18 132.345C1053.55 138.847 1058.91 141.525 1068.1 143.055C1087.26 145.732 1097.6 149.557 1104.11 156.442C1109.09 161.797 1112.54 162.562 1126.33 162.18C1147.01 161.032 1155.82 164.857 1164.63 178.245C1170.38 187.042 1174.21 189.337 1183.02 190.867C1196.43 193.162 1201.02 198.899 1203.7 217.642C1206 232.942 1210.22 232.942 1219.03 218.407C1226.3 206.932 1236.65 205.784 1251.59 214.582L1261.16 220.319L1263.84 213.052C1266.52 205.784 1266.91 205.784 1286.83 207.314L1307.13 209.227L1324.75 227.204C1343.52 246.712 1346.58 255.509 1337.39 265.454C1334.71 268.514 1330.11 276.164 1327.05 282.284C1322.45 291.464 1318.24 295.672 1304.06 302.174C1294.49 306.764 1284.53 313.649 1281.46 317.474C1276.48 323.594 1276.48 324.742 1279.93 330.479C1282.23 333.922 1289.51 338.129 1296.4 340.042C1309.81 343.867 1317.09 351.134 1317.09 361.462C1317.09 364.904 1319 369.494 1321.3 371.407C1323.6 373.319 1328.58 377.909 1331.64 381.734C1335.09 385.177 1340.45 389.384 1343.9 390.531C1347.35 391.679 1350.8 396.269 1351.95 400.859C1353.1 405.066 1357.31 411.569 1361.91 415.394C1368.03 420.749 1370.33 425.721 1371.48 436.814C1373.01 449.436 1374.55 452.496 1385.65 461.676C1397.91 472.004 1397.91 472.004 1407.49 467.414C1412.85 465.119 1418.21 462.824 1420.13 462.824C1422.05 462.824 1425.11 458.616 1427.02 453.644C1428.94 448.671 1434.3 441.404 1438.9 437.196C1447.33 429.546 1469.93 419.984 1473.76 422.279C1477.21 424.574 1495.59 417.306 1495.59 413.864C1495.59 412.334 1496.36 408.126 1497.51 404.684C1499.04 399.711 1497.89 398.181 1493.68 398.181C1483.33 398.181 1475.67 389.001 1473.37 373.701C1472.23 365.669 1468.39 355.724 1465.33 351.899C1452.69 336.217 1461.88 314.797 1480.65 314.797C1487.93 314.797 1492.91 317.092 1500.19 324.742C1508.62 333.157 1511.68 334.687 1522.41 334.687C1536.2 334.687 1554.58 341.189 1554.58 345.779C1554.58 347.309 1558.41 348.457 1563.39 348.074C1571.44 347.309 1572.97 348.839 1578.33 358.402C1583.31 367.582 1585.61 369.877 1593.65 370.259C1611.66 371.789 1616.25 373.702 1618.94 382.117C1620.85 387.089 1623.91 390.531 1627.75 390.914C1631.58 391.296 1635.41 395.504 1638.09 400.859C1641.15 406.979 1643.45 409.274 1646.51 408.126C1661.84 401.624 1680.99 398.564 1688.65 401.241C1696.31 403.919 1697.08 403.536 1701.67 393.974C1706.65 383.264 1712.4 380.586 1722.74 383.264C1732.32 385.559 1737.68 398.181 1739.6 423.426L1741.13 446.376L1730.79 452.879C1725.04 456.321 1718.53 461.676 1716.61 463.971C1714.7 466.649 1711.25 468.561 1708.95 468.561C1701.67 468.561 1705.12 476.211 1715.46 484.244C1730.79 495.719 1743.81 510.254 1750.32 522.876C1756.84 535.881 1765.65 543.531 1773.69 543.531C1780.2 543.531 1795.91 528.231 1798.59 519.051C1800.89 511.401 1813.53 504.516 1825.02 504.516C1834.59 504.516 1843.41 513.696 1846.47 526.701C1848 533.586 1850.3 535.499 1863.71 539.324C1874.82 542.384 1882.48 546.974 1890.9 555.771C1900.48 565.334 1903.93 567.246 1908.52 565.716C1911.97 564.569 1921.55 564.186 1930.36 564.951C1943.38 566.481 1946.83 568.011 1951.81 574.513C1956.41 581.016 1959.47 582.546 1967.9 582.546C1973.64 582.546 1980.54 584.076 1982.84 585.988C1990.5 591.726 2000.84 616.206 2003.14 632.653C2006.2 659.046 2013.1 674.728 2023.44 678.936C2028.42 680.848 2033.02 683.908 2033.78 685.056C2034.55 686.203 2040.3 688.498 2046.04 689.263C2060.21 691.558 2062.9 695.383 2067.88 719.481C2070.17 730.573 2074 745.108 2075.92 751.993C2081.67 768.441 2081.28 780.298 2075.15 782.21C2072.47 782.975 2064.04 786.8 2056.38 790.625C2040.68 798.275 2033.78 798.658 2013.48 794.068C2000.84 791.008 1998.54 791.39 1993.56 795.98C1990.5 798.658 1987.82 802.865 1987.82 804.778C1987.82 810.898 1965.98 830.788 1952.96 836.525C1943 840.733 1940.7 843.41 1939.17 851.443C1936.1 866.743 1922.31 877.07 1899.33 881.278C1888.61 883.19 1877.88 885.868 1875.2 887.398C1869.07 890.458 1859.88 911.878 1854.51 934.445C1852.22 944.39 1848.77 957.395 1846.47 963.133C1844.17 968.87 1842.26 976.902 1842.26 981.492C1842.26 1001 1821.95 1018.21 1798.97 1018.59C1780.97 1018.59 1774.07 1023.57 1776.37 1035.04C1778.67 1044.99 1771.39 1053.78 1759.13 1056.46C1744.19 1059.52 1733.47 1067.17 1722.74 1080.94C1711.25 1096.24 1707.42 1098.15 1672.56 1106.19C1653.03 1110.78 1652.26 1110.78 1640.77 1105.04C1629.28 1099.3 1628.51 1099.3 1616.64 1103.89C1601.7 1109.63 1595.57 1108.1 1576.8 1095.48C1564.92 1087.06 1560.71 1085.91 1553.05 1087.44C1533.51 1091.27 1520.49 1103.89 1520.49 1119.96C1520.49 1123.02 1516.28 1130.67 1510.53 1136.4C1501.72 1146.35 1500.95 1148.64 1500.95 1164.33C1500.95 1179.63 1500.19 1181.92 1491.38 1190.72C1480.65 1202.19 1475.29 1202.96 1471.08 1193.4Z" fill="black" fill-opacity="0.1"/>
</svg>
