<svg width="16" height="16" viewBox="0 0 16 16" fill="none" xmlns="http://www.w3.org/2000/svg">
<path fill-rule="evenodd" clip-rule="evenodd" d="M1 16C0.447715 16 0 15.5523 0 15V1C0 0.447715 0.447715 0 1 0H15C15.5523 0 16 0.447715 16 1V15C16 15.5523 15.5523 16 15 16H1ZM6.144 12.064C9.916 12.064 11.98 8.936 11.98 6.228C11.98 6.14002 11.98 6.05198 11.976 5.964C12.376 5.676 12.724 5.312 13 4.9C12.632 5.064 12.236 5.172 11.82 5.224C12.244 4.972 12.568 4.568 12.724 4.088C12.328 4.324 11.888 4.492 11.42 4.584C11.044 4.184 10.512 3.936 9.924 3.936C8.792 3.936 7.872 4.856 7.872 5.988C7.872 6.148 7.892 6.304 7.924 6.456C6.22 6.372 4.708 5.552 3.696 4.312C3.52 4.616 3.42 4.968 3.42 5.344C3.42 6.056 3.784 6.684 4.332 7.052C3.996 7.04 3.68 6.948 3.404 6.796V6.824C3.404 7.816 4.112 8.648 5.048 8.836C4.876 8.884 4.696 8.908 4.508 8.908C4.376 8.908 4.248 8.896 4.124 8.872C4.384 9.688 5.144 10.28 6.04 10.296C5.336 10.848 4.452 11.176 3.492 11.176C3.328 11.176 3.164 11.168 3.004 11.148C3.908 11.724 4.988 12.064 6.144 12.064Z" fill="white"/>
</svg>
