<svg width="128" height="172" fill="none" xmlns="http://www.w3.org/2000/svg">
  <g clip-path="url(#img-pin-australia__clip0)">
    <ellipse opacity=".8" cx="64" cy="157.124" rx="59" ry="14" fill="url(#img-pin-australia__paint0_radial)"/>
    <ellipse cx="64.683" cy="157" rx="39" ry="4" fill="url(#img-pin-australia__paint1_radial)"/>
    <path d="M64.178 156.94c6.405 0 57.205-54.324 58.764-95.262C123.688 30.975 100.609 0 63.84 0 43.133 0 10.87 15.216 6.025 53.646-.651 93.026 57.23 156.94 64.178 156.94z" fill="#499AD5"/>
    <path d="M64.212 90.179c16.658 0 30.161-13.504 30.161-30.161 0-16.658-13.503-30.162-30.16-30.162-16.658 0-30.162 13.504-30.162 30.162 0 16.657 13.503 30.161 30.161 30.161z" fill="#FEDB49"/>
    <path d="M34.83 66.524a6.812 6.812 0 100-13.623 6.812 6.812 0 000 13.623zm58.662-4.236a6.812 6.812 0 100-13.624 6.812 6.812 0 000 13.624zm-58.763-24.57c5.015 0 14.098 5.118 10.133 9.083-3.965 3.965-3.898-1.898-10.811-1.898-3.728 0-4.778 6.066-9.252 1.559-3.05-3.016 3.22-8.744 9.93-8.744zm58.56-4.236c5.016 0 14.098 5.118 10.133 9.083-3.965 3.965-3.897-1.898-10.81-1.898-3.729 0-4.78 6.066-9.253 1.559-3.05-3.016 3.22-8.744 9.93-8.744z" fill="#444243"/>
    <path d="M6.126 52.9s8.303 18.572 12.268 23.52S34.05 89.569 34.05 89.569l-6.067 3.389s-9.624-7.185-13.08-11.15c-3.457-3.965-9.422-14.843-9.422-14.843s-.17-5.355 0-7.964c.17-2.61.644-6.1.644-6.1zm116.07.272s-8.133 19.046-11.997 23.824c-3.897 4.778-15.318 12.742-15.318 12.742l5.931 3.287s9.421-6.98 12.81-10.81c3.389-3.864 8.574-13.319 8.574-13.319s.237-4.303.339-7.387c.034-2.576-.339-8.337-.339-8.337z" fill="#fff"/>
    <path d="M112.447 97.996c-.282 1.694-3.106 16.944-15.532 27.958a21.345 21.345 0 01-3.954 3.107c-6.213 4.518-14.685 7.625-25.699 8.189h-5.93c-11.297-.564-20.334-4.801-27.112-10.166-.847-.565-1.694-1.412-2.259-1.977-.282 0-.282-.283-.565-.283l-1.977-1.976c-5.93-6.213-9.601-13.274-11.578-18.075 0-.282-.283-.564-.283-.847-.282-.565-.564-1.412-.564-1.977-.283-1.412-.565-2.541-.565-3.106v-.565l.565-.565c.564-.565 1.412-1.13 2.541-1.977 1.695-1.13 3.954-2.541 6.496-4.236.847-.564 1.976-1.13 2.824-1.694.564-.283.847-.565 1.412-.847v-1.412h2.259c1.694-.848 3.671-1.977 5.648-2.825.565-.282 1.412-.564 1.977-.847 5.083-2.259 10.731-4.236 16.097-5.365l1.977-1.13h6.495v.282c9.885 0 20.334 3.672 28.806 7.625.847.565 1.977.847 2.824 1.412 9.602 5.084 16.097 10.167 16.097 11.297z" fill="#222160"/>
    <path d="M32.243 87.83l-.283-.283h-1.694v1.13c-.565.282-.847.565-1.412.847-1.13.565-1.977 1.13-2.824 1.695l2.541 1.412 1.695-.847 1.977-1.13 2.259-1.13.565-.282-2.824-1.412zm19.486 9.884l-3.954-2.26-5.93-3.106-1.695.847-1.977 1.13-2.26 1.13-.846.565 2.824 1.412.282.282 1.695.847 18.074 9.037h6.777v-3.389l-12.99-6.495zm-17.227-2.26l-2.26-1.129-1.976-1.13-1.695-.847-5.93 3.107-3.954 1.977-2.26 1.412c0 .565.283 1.694.566 3.106.282.565.282 1.13.564 1.977 0 .282.283.565.283.847l12.426-6.213 1.694-.847.283-.282 3.106-1.412-.847-.565zm-5.648-5.93c-1.13.565-1.977 1.13-2.824 1.695l2.541 1.412 1.695-.847 1.977-1.13 2.259-1.13h-5.648zm3.389-1.694v3.106l2.259-1.13.565-.282-2.824-1.694zm25.981-10.167l-1.977 1.13-16.097 8.19-1.694.564-.283.283-3.106 1.412.565.282 2.259 1.13 1.977 1.13 1.694.847 5.93-3.107 3.954-1.977 13.273-6.495v-3.389h-6.495zm-25.981 12.99l2.259-1.129.565-.282-2.824-1.412v2.824zm0-2.823v1.977h2.259l.565-.283-2.824-1.694z" fill="#fff"/>
    <path d="M30.266 87.546v1.13c-.565.283-.847.565-1.412.847-1.13.565-1.977 1.13-2.824 1.695-2.542 1.694-4.801 3.106-6.496 4.236-1.13.847-1.976 1.412-2.541 1.977H64.72v-9.885H30.266zm7.907-2.824c-1.977.848-3.953 1.977-5.648 2.825h-2.26v20.051h9.885V83.875c-.847.283-1.412.565-1.977.847z" fill="#fff"/>
    <path d="M32.525 87.546l-.282 20.051h5.93V84.722c-1.976.848-3.953 1.977-5.648 2.825zm-3.67 1.977c-1.13.565-1.978 1.13-2.825 1.695-2.542 1.694-4.8 3.106-6.495 4.236H64.72v-5.93H28.854zm20.615 8.19h-4.52l19.769 9.885v-2.26l-15.25-7.625zm11.014-20.05l-1.13.564-18.64 9.32h4.237l19.486-9.885.283-.282h-4.236v.282zm-35.302 20.05l-8.19 3.954c.283.565.283 1.13.566 1.977L29.7 97.431h-4.518v.282z" fill="#CB2026"/>
    <path fill-rule="evenodd" clip-rule="evenodd" d="M38.173 125.107l.848 5.648-3.954-4.236-.847.847c-.848-.565-1.695-1.412-2.26-1.977v-.282h-.565c-.564-.847-1.412-1.695-1.976-2.259l1.976-1.13-3.106-4.801 5.366 1.977 1.694-5.366 1.695 5.366 5.366-1.977-3.107 4.801 4.8 2.824-5.93.565zm59.588-.282l-.847 1.412a21.337 21.337 0 01-3.954 3.106v-.565l-2.541-.282 2.259-1.412-1.412-2.259 2.541.847.848-2.542.847 2.542 2.26-.847zm-1.976-36.149l.282 2.542-1.977-1.977-1.977 1.977.283-2.542-2.542-.282 2.26-1.412-1.413-2.26 2.542.848v-.283c.847.565 1.977.847 2.824 1.412l-.282.283 2.259 1.412-2.26.282zM79.687 99.408l.847 2.541 2.542-.847-1.412 2.259 2.26 1.412-2.542.283.282 2.542-1.977-1.977-1.977 1.977.283-2.542-2.542-.283 2.26-1.412-1.413-2.259 2.542.847.847-2.541zm27.959-3.954l.847 2.542 2.542-.848-1.412 2.26 2.259 1.412-2.542.282.283 2.542-1.977-1.977-1.977 1.977.282-2.542-2.541-.282 2.259-1.412-1.412-2.26 2.542.848.847-2.542zm-7.343 12.143l.565 1.695h1.694l-1.129 1.129.282 1.695-1.412-.847-1.412.847.282-1.695-1.412-1.129h1.695l.847-1.695z" fill="#fff"/>
  </g>
  <defs>
    <radialGradient id="img-pin-australia__paint0_radial" cx="0" cy="0" r="1" gradientUnits="userSpaceOnUse" gradientTransform="matrix(0 14 -59 0 64 157.124)">
      <stop offset=".089" stop-color="#C4C4C4" stop-opacity=".56"/>
      <stop offset=".813" stop-color="#C4C4C4" stop-opacity="0"/>
    </radialGradient>
    <radialGradient id="img-pin-australia__paint1_radial" cx="0" cy="0" r="1" gradientUnits="userSpaceOnUse" gradientTransform="matrix(0 4 -39 0 64.683 157)">
      <stop stop-color="#8A8A8A"/>
      <stop offset="1" stop-color="#C4C4C4" stop-opacity="0"/>
    </radialGradient>
    <clipPath id="img-pin-australia__clip0">
      <path fill="#fff" d="M0 0h128v172H0z"/>
    </clipPath>
  </defs>
</svg>
