<svg width="122" height="28" viewBox="0 0 122 28" fill="none" xmlns="http://www.w3.org/2000/svg">
<path d="M1.85802 2.24073L5.19812 5.24992L1.85802 8.2591C1.76053 8.33854 1.82552 8.49983 1.95431 8.49983H3.00389C3.06768 8.49983 3.1074 8.48659 3.14832 8.45168L6.64971 5.24992L3.14832 2.04815C3.1074 2.01324 3.06888 2 3.00389 2H1.95431C1.82552 2 1.76173 2.16009 1.85802 2.24073Z" fill="white"/>
<path d="M70.5668 6.75146C69.9794 6.75146 69.646 7.10054 69.646 7.68796C69.646 8.27537 69.9794 8.6088 70.5668 8.6088C71.1543 8.6088 71.4877 8.27537 71.4877 7.68796C71.4877 7.10054 71.1543 6.75146 70.5668 6.75146Z" fill="white"/>
<path d="M34.2534 15.5814C34.1271 15.5814 34.0946 15.5971 33.9995 15.6765L30.6183 18.7411V11.4865C30.6183 11.3902 30.5702 11.3433 30.4751 11.3433H29.6662C29.5711 11.3433 29.5229 11.3914 29.5229 11.4865V22.6615C29.5229 22.7566 29.5711 22.8047 29.6662 22.8047H30.4751C30.5702 22.8047 30.6183 22.7566 30.6183 22.6615V19.042L34.2209 22.6771C34.316 22.7734 34.3798 22.8047 34.4906 22.8047H35.5859C35.7292 22.8047 35.7761 22.6615 35.681 22.5664L31.9038 18.8675L35.3801 15.8197C35.4908 15.7247 35.3958 15.5814 35.3007 15.5814H34.2534Z" fill="white"/>
<path d="M6.4758 15.8031C5.93653 15.5973 5.28531 15.4697 4.49205 15.4697C2.1905 15.4697 1 17.0093 1 19.1856C1 21.3763 2.2218 22.9158 4.49205 22.9158C5.30096 22.9158 5.98347 22.7882 6.55525 22.5186C6.6347 22.4873 6.6347 22.4079 6.6034 22.3284L6.33376 21.7254C6.30247 21.6616 6.22302 21.6459 6.14357 21.6772C5.4767 21.8987 5.17456 21.9625 4.54019 21.9625C3.3822 21.9625 2.14355 21.2162 2.14355 19.1844C2.14355 17.3114 3.15951 16.4062 4.54019 16.4062C5.03252 16.4062 5.39726 16.4219 6.06413 16.6445C6.14357 16.6758 6.22302 16.6602 6.25432 16.5964L6.52396 15.9933C6.55525 15.9307 6.55525 15.8344 6.4758 15.8031Z" fill="white"/>
<path fill-rule="evenodd" clip-rule="evenodd" d="M15.607 21.5827C14.9401 21.8848 14.4322 21.9955 13.5908 21.9955C12.2884 21.9955 11.4795 21.0903 11.4313 19.552H16.1619C16.2883 19.552 16.3364 19.4726 16.3364 19.3618V18.9646C16.3364 16.5993 15.2892 15.4727 13.4475 15.4727C11.6384 15.4727 10.3047 16.7426 10.3047 19.2342C10.3047 21.5983 11.4313 22.9164 13.6377 22.9164C14.6067 22.9164 15.2098 22.7575 15.9717 22.3927C16.0511 22.3615 16.0511 22.2977 16.0199 22.2339L15.7815 21.6465C15.7502 21.5827 15.6864 21.5514 15.607 21.5827ZM11.4313 18.6938C11.5746 16.9628 12.5749 16.3441 13.4632 16.3441C14.3371 16.3441 15.2254 16.8521 15.2254 18.6938H11.4313Z" fill="white"/>
<path d="M20.0727 21.6447C20.104 21.5653 20.1834 21.5496 20.2785 21.5809C21.1042 21.8662 21.8975 21.9938 22.5643 21.9938C23.691 21.9938 24.4529 21.6291 24.4529 21.0573C24.4529 20.3267 23.5802 19.9776 22.6281 19.6285L22.5511 19.5998C21.3815 19.1641 20.1196 18.694 20.1196 17.3583C20.1196 15.8982 21.7073 15.4697 23.2155 15.4697C24.0882 15.4697 24.9296 15.5973 25.4062 15.755C25.4857 15.7863 25.517 15.8657 25.4857 15.9452L25.2955 16.5639C25.2642 16.659 25.2004 16.6746 25.1209 16.659C24.6768 16.5314 23.8198 16.3737 23.0253 16.3737C22.0889 16.3737 21.2318 16.5964 21.2318 17.3258C21.2318 17.977 22.0889 18.3261 23.041 18.7065L23.1141 18.7357C24.2853 19.2042 25.5651 19.7161 25.5651 20.9129C25.5651 22.4524 24.0882 22.9134 22.5968 22.9134C21.5171 22.9134 20.4386 22.6907 19.9295 22.4536C19.8344 22.4055 19.8344 22.3429 19.85 22.2791L20.0727 21.6447Z" fill="white"/>
<path fill-rule="evenodd" clip-rule="evenodd" d="M41.8788 22.9147C39.5774 22.9147 38.8311 21.3595 38.8311 19.1844C38.8311 17.0093 39.5774 15.4697 41.8788 15.4697C44.1803 15.4697 44.911 17.0093 44.911 19.1844C44.911 21.3595 44.1803 22.9147 41.8788 22.9147ZM41.8788 16.2955C40.6414 16.2955 39.9746 17.2801 39.9746 19.1844C39.9746 21.1055 40.6414 22.0889 41.8788 22.0889C43.1174 22.0889 43.7674 21.1211 43.7674 19.1844C43.7674 17.2645 43.1174 16.2955 41.8788 16.2955Z" fill="white"/>
<path d="M51.2582 21.0576C50.6708 21.0576 50.3374 21.4068 50.3374 21.9943C50.3374 22.5806 50.6708 22.9141 51.2582 22.9153C51.8456 22.9153 52.179 22.5818 52.179 21.9943C52.179 21.4068 51.8456 21.0576 51.2582 21.0576Z" fill="white"/>
<path fill-rule="evenodd" clip-rule="evenodd" d="M62.4617 11.4865C62.4617 11.3914 62.5099 11.3433 62.6038 11.3433H63.4139C63.509 11.3433 63.5572 11.3902 63.5572 11.4865V22.6618C63.5572 22.7569 63.509 22.8051 63.4139 22.8051H62.8734C62.794 22.8051 62.7627 22.7738 62.7458 22.6943L62.6182 22.1707C61.8562 22.6943 61.158 22.917 60.4755 22.917C58.5386 22.917 57.6021 21.5364 57.6021 19.2023C57.6021 16.9008 58.5867 15.472 60.65 15.472C61.3169 15.472 61.92 15.7104 62.4605 16.1076V11.4865H62.4617ZM60.7957 21.9625C61.3518 21.9625 61.9862 21.7723 62.4629 21.4701V16.9141C61.9706 16.5963 61.3518 16.3748 60.7957 16.3748C59.557 16.3748 58.7481 17.3426 58.7481 19.2156C58.7468 21.233 59.557 21.9625 60.7957 21.9625Z" fill="white"/>
<path fill-rule="evenodd" clip-rule="evenodd" d="M109.135 16.5019C110.087 16.5019 110.564 17.0423 110.564 17.9788H110.561V18.6132H108.974C107.085 18.6132 106.005 19.1524 106.005 20.899C106.005 22.1051 106.688 22.9152 107.926 22.9152C108.911 22.9152 109.562 22.6925 110.72 22.1846L110.848 22.6925C110.865 22.772 110.896 22.8033 110.975 22.8033H111.516C111.611 22.8033 111.659 22.7551 111.659 22.66V17.9463C111.659 16.4537 110.785 15.5811 109.294 15.5811H106.818C106.738 15.5811 106.675 15.6292 106.675 15.7243V16.3755C106.675 16.4537 106.738 16.5019 106.818 16.5019H109.135ZM107.134 20.8208C107.134 19.8687 107.722 19.4714 108.833 19.4714H110.564V21.4876C109.674 21.7886 108.848 22.0269 108.15 22.0269C107.452 22.0269 107.134 21.5033 107.134 20.8208Z" fill="white"/>
<path d="M114.72 12.2658C114.625 12.2658 114.577 12.2177 114.577 12.1382V11.487C114.577 11.3919 114.625 11.3438 114.72 11.3438H118.371C118.466 11.3438 118.514 11.3907 118.514 11.487V20.4078C118.514 21.3443 118.99 21.8836 119.943 21.8836H121.229C121.324 21.8836 121.372 21.9318 121.372 22.0112V22.6624C121.372 22.7575 121.324 22.8057 121.229 22.8057H119.784C118.292 22.8057 117.419 21.933 117.419 20.4403V12.2658H114.72Z" fill="white"/>
<path fill-rule="evenodd" clip-rule="evenodd" d="M82.0267 15.5817H82.5504C82.6455 15.5817 82.6936 15.6298 82.6924 15.7249V23.7091C82.6924 25.2017 81.8197 26.0743 80.327 26.0743H77.8364C77.7413 26.0743 77.6931 26.0262 77.6931 25.9311V25.2799C77.6931 25.2005 77.7413 25.1523 77.8364 25.1523H80.1524C81.1046 25.1523 81.597 24.6119 81.597 23.6754V22.2321C80.9939 22.6763 80.2162 22.9146 79.565 22.9146C77.6293 22.9146 76.7554 21.534 76.7554 19.2C76.7554 16.8985 77.6606 15.4697 79.7239 15.4697C80.4221 15.4697 81.1046 15.7237 81.7559 16.216L81.8835 15.6924C81.8991 15.613 81.9316 15.5817 82.0267 15.5817ZM77.899 19.2169C77.899 21.2319 78.6296 21.9625 79.8671 21.9625C80.4233 21.9625 81.1371 21.7723 81.5982 21.4714V16.9154C81.1215 16.5976 80.4233 16.3761 79.8671 16.3761C78.6296 16.3761 77.899 17.3439 77.899 19.2169Z" fill="white"/>
<path d="M67.3124 16.5031C67.2173 16.5031 67.1692 16.455 67.1692 16.3599V15.7243C67.1692 15.6292 67.2173 15.5811 67.3124 15.5811H71.1688C71.2639 15.5811 71.3121 15.6292 71.3121 15.7243V21.7561C71.3121 21.8512 71.3434 21.8837 71.4228 21.8837H73.8192C73.9143 21.8837 73.9625 21.9318 73.9625 22.0269V22.6613C73.9625 22.7564 73.9143 22.8045 73.8192 22.8045H67.3112C67.2161 22.8045 67.168 22.7564 67.168 22.6613V22.0269C67.168 21.9318 67.2161 21.8837 67.3112 21.8837H70.1048C70.1843 21.8837 70.2156 21.8524 70.2156 21.7561V16.5019H67.3124V16.5031Z" fill="white"/>
<path d="M86.5824 16.5031C86.4873 16.5031 86.4392 16.455 86.4392 16.3599V15.7243C86.4392 15.6292 86.4873 15.5811 86.5824 15.5811H90.4391C90.5342 15.5811 90.5824 15.6292 90.5824 15.7243V21.7561C90.5824 21.8512 90.6137 21.8837 90.6931 21.8837H93.0897C93.1848 21.8837 93.2329 21.9318 93.2329 22.0269V22.6613C93.2329 22.7564 93.1848 22.8045 93.0897 22.8045H86.5812C86.4861 22.8045 86.438 22.7564 86.438 22.6613V22.0269C86.438 21.9318 86.4861 21.8837 86.5812 21.8837H89.375C89.4545 21.8837 89.4858 21.8524 89.4858 21.7561V16.5019H86.5824V16.5031Z" fill="white"/>
<path d="M89.8359 6.75146C89.2485 6.75146 88.915 7.10054 88.915 7.68796C88.915 8.27537 89.2485 8.6088 89.8359 8.6088C90.4233 8.6088 90.7567 8.27537 90.7567 7.68796C90.7567 7.10054 90.4233 6.75146 89.8359 6.75146Z" fill="white"/>
<path d="M98.9477 16.5011H102.201C102.296 16.5011 102.345 16.453 102.345 16.3748V15.7236C102.345 15.6285 102.296 15.5803 102.201 15.5803H98.9477V13.0778C98.9477 12.9827 98.8995 12.9346 98.8044 12.9346H97.9943C97.8992 12.9346 97.8523 12.9815 97.8523 13.0778V15.5803H95.694C95.5989 15.5803 95.5508 15.6285 95.5508 15.7236V16.3748C95.5508 16.4542 95.5989 16.5011 95.694 16.5011H97.8523V20.4373C97.8523 21.9299 98.7262 22.8025 100.218 22.8025H102.201C102.296 22.8025 102.345 22.7544 102.345 22.6593V22.0081C102.345 21.9287 102.296 21.8805 102.201 21.8805H100.392C99.44 21.8805 98.9477 21.3412 98.9477 20.4048V16.5011Z" fill="white"/>
</svg>
