<svg width="180" height="40" viewBox="0 0 180 40" fill="none" xmlns="http://www.w3.org/2000/svg">
<path d="M98.8042 27.4433L103.281 2H108.686L104.177 27.4433H98.8042Z" fill="#16181E"/>
<path fill-rule="evenodd" clip-rule="evenodd" d="M15.1814 14.1582L2.21819 7.29507C1.04819 6.67539 1.14142 6.00909 3.42003 5.60658L21.9934 2.32171C23.3841 2.07562 24.0797 1.95253 24.7574 2.01693C25.4356 2.08137 26.0959 2.3335 27.417 2.83792L39.0124 7.26323C41.0181 8.02959 41.0238 8.75274 39.7787 9.1109L20.4993 14.6494C17.6533 15.4657 17.6533 15.4657 15.1814 14.1582ZM19.0246 9.98414L14.3298 10.8142C13.7863 10.9108 13.7397 11.0711 14.1911 11.3099L17.4407 13.0302C17.7184 13.1767 17.8631 13.253 18.0147 13.2708C18.1797 13.2902 18.3527 13.2403 18.7142 13.136L23.5875 11.7261C24.1185 11.5726 24.1071 11.3838 23.6864 11.2235L20.8347 10.1354C20.4313 9.98107 20.2213 9.90077 20.0052 9.87776C19.7706 9.85279 19.5288 9.89536 19.0246 9.98414Z" fill="#16181E"/>
<path d="M125.8 10.1875L125.039 14.3798H127.879L126.562 21.6908C126.423 22.3139 126.354 23.111 126.354 23.6659C126.354 26.5414 128.398 27.8581 131.725 27.8581C132.8 27.8581 134.117 27.6159 134.775 27.3385L135.295 23.3543C134.878 23.4578 134.324 23.5624 133.769 23.5624C132.66 23.5624 131.968 23.2156 131.968 22.0717C131.968 21.8296 132.002 21.4475 132.037 21.1371L133.284 14.3798H136.853L137.615 10.1875H133.943L134.74 5.61328H129.334L128.537 10.1875H125.8Z" fill="#16181E"/>
<path fill-rule="evenodd" clip-rule="evenodd" d="M82.3101 17.3604L81.1333 24.0825C80.9252 25.2604 80.7865 26.6806 80.7865 27.4435H75.8654C75.8654 26.958 75.9348 26.1962 76.0042 25.6061H75.9348C74.6534 27.1308 72.8512 27.8585 70.6681 27.8585C68.2428 27.8585 65.332 26.7147 65.332 23.2843C65.332 17.7413 71.431 16.5633 77.1821 16.5633C77.2515 16.1472 77.2515 15.9391 77.2515 15.7663C77.2515 14.4155 76.2475 13.8253 74.5488 13.8253C72.9899 13.8253 71.2923 14.4837 70.0098 15.4547L67.7232 12.2676C69.7676 10.603 72.6784 9.66724 75.3117 9.66724C79.4346 9.66724 82.5182 11.4001 82.5182 15.2466C82.5182 15.8709 82.45 16.6668 82.3101 17.3604ZM76.3851 19.8891C73.6141 19.8891 70.3918 20.27 70.3918 22.3837C70.3918 23.7698 71.5345 24.1518 72.6784 24.1518C74.7921 24.1518 76.3168 22.6612 76.6977 20.7214L76.8706 19.8891H76.3851Z" fill="#16181E"/>
<path d="M47.6953 27.4439L48.4571 23.1118L58.2628 14.4158H50.4674L51.1939 10.1884H65.8172L65.0895 14.3465L55.1099 23.1471H63.7376L62.9758 27.4439H47.6953Z" fill="#16181E"/>
<path d="M89.7594 23.9085C88.2346 23.9085 86.6405 23.216 85.7741 21.9334L82.3096 25.0864C83.8684 26.9239 86.4324 28.0666 89.6206 28.0666C93.5013 28.0666 97.4172 26.1609 97.4172 21.9687C97.4172 19.0238 95.407 17.6366 92.1846 16.7713C90.6599 16.3552 89.9322 16.0084 89.9322 15.2113C89.9322 14.1027 91.1101 13.6866 92.3233 13.6866C93.8822 13.6866 95.0261 14.3802 95.6844 15.2807L99.1842 12.3358C97.7981 10.5689 95.3035 9.66833 92.6349 9.66833C88.4779 9.66833 84.8394 11.8855 84.8394 15.6627C84.8394 18.3643 86.5711 19.5423 89.7594 20.5133C91.3876 20.9988 92.2187 21.4138 92.2187 22.3496C92.2187 23.3195 91.2489 23.9085 89.7594 23.9085Z" fill="#16181E"/>
<path fill-rule="evenodd" clip-rule="evenodd" d="M123.93 17.3604L122.753 24.0825C122.545 25.2604 122.406 26.6806 122.406 27.4435H117.485C117.485 26.958 117.554 26.1962 117.625 25.6061H117.554C116.273 27.1308 114.471 27.8585 112.289 27.8585C109.862 27.8585 106.953 26.7147 106.953 23.2843C106.953 17.7413 113.051 16.5633 118.802 16.5633C118.871 16.1472 118.871 15.9391 118.871 15.7662C118.871 14.4155 117.867 13.8253 116.168 13.8253C114.609 13.8253 112.912 14.4837 111.629 15.4547L109.343 12.2676C111.387 10.603 114.298 9.66724 116.931 9.66724C121.054 9.66724 124.138 11.4001 124.138 15.2466C124.138 15.8709 124.07 16.6668 123.93 17.3604ZM118.006 19.8891C115.233 19.8891 112.01 20.27 112.01 22.3837C112.01 23.7698 113.154 24.1518 114.298 24.1518C116.412 24.1518 117.936 22.6612 118.317 20.7214L118.49 19.8891H118.006Z" fill="#16181E"/>
<path d="M140.561 27.6853C138.69 27.6853 137.373 26.4721 137.373 24.7404C137.373 22.7302 138.898 21.2065 140.873 21.2065C142.675 21.2065 143.992 22.488 143.992 24.1856C143.992 26.0912 142.536 27.6853 140.561 27.6853Z" fill="#16181E"/>
<path d="M156.084 14.1733C157.436 14.1733 158.614 14.8998 159.098 15.6628L162.598 12.3358C161.316 10.5348 158.822 9.66724 156.223 9.66724C149.848 9.66724 145.62 14.727 145.62 20.3394C145.62 24.9136 148.981 27.9279 154.006 27.9279C156.951 27.9279 159.169 26.8886 160.97 25.2945L158.337 21.7607C157.505 22.6271 156.396 23.3195 154.733 23.3195C152.135 23.3195 150.991 21.5526 150.991 19.6128C150.991 16.702 153.104 14.1733 156.084 14.1733Z" fill="#16181E"/>
<path d="M161.802 27.4439L162.564 23.1118L172.37 14.4158H164.574L165.302 10.1884H179.924L179.195 14.3465L169.217 23.1471H177.845L177.083 27.4439H161.802Z" fill="#16181E"/>
<path d="M19.587 21.3262L17.3926 30.6942C17.4048 30.6951 17.4168 30.6967 17.4288 30.6983C17.4471 30.7008 17.4655 30.7033 17.4847 30.7033L18.3306 30.7749C18.426 30.7803 18.5209 30.7904 18.6157 30.8006C18.8022 30.8205 18.9885 30.8404 19.1777 30.8238C19.4776 30.81 19.7756 30.812 20.073 30.814C20.3406 30.8158 20.6077 30.8176 20.8753 30.8079C21.4345 30.7405 21.9903 30.6953 22.5428 30.6504L22.5638 30.6487C22.8965 30.5931 23.2282 30.5371 23.5588 30.4813C23.8496 30.4322 24.1396 30.3833 24.4285 30.3349C24.6548 30.2621 24.8811 30.2019 25.1073 30.1439L25.4439 30.0597C25.5508 30.0393 25.6747 30.0006 25.8077 29.9517C26.0138 29.8741 26.223 29.8106 26.431 29.7474C26.7351 29.6551 27.0367 29.5635 27.3223 29.4298C27.5679 29.332 27.8112 29.2354 28.0522 29.1399C28.2016 29.0834 28.3449 29.0131 28.4873 28.9434C28.5768 28.8995 28.6661 28.8558 28.756 28.8158C28.8455 28.7715 28.9357 28.7302 29.0255 28.689C29.1661 28.6245 29.3059 28.5603 29.4405 28.4861C29.5952 28.4016 29.7493 28.3182 29.9021 28.2355L30.0966 28.1302C30.1159 28.1188 30.1375 28.112 30.1375 28.112L31.7396 27.1262L32.2217 26.8283L31.1222 25.7334C30.6731 25.2854 30.8777 24.5201 31.4895 24.3541L39.1985 22.2757C39.3062 22.0568 39.3642 21.7747 39.4581 21.3177L39.4589 21.3137L41.6534 10.5313C41.9194 9.22259 41.0428 9.59213 40.796 9.69673L21.8554 17.6889C20.2909 18.3484 20.2909 18.3484 19.587 21.3262Z" fill="#16181E"/>
<path d="M2.77274 24.1642C2.43959 23.8424 2.22696 23.4171 2.17011 22.9566L0.33154 8.14118C0.175894 6.87898 1.01693 7.50569 1.31207 7.72563L13.3664 16.6973C14.1506 17.2806 14.5731 17.5949 14.8117 18.0138C15.0902 18.5028 15.1182 19.1346 15.1788 20.5041L15.6393 30.4212C15.4165 30.3848 15.1959 30.3314 14.9776 30.2723C14.7475 30.215 14.5183 30.1569 14.2911 30.0994L14.1612 30.0665C13.8849 30.013 13.6177 29.9289 13.3551 29.8391C13.1626 29.7785 12.9719 29.7179 12.7826 29.6577L12.5625 29.5878C12.2965 29.5139 12.0429 29.4104 11.7916 29.3047L11.6798 29.2619C11.4622 29.1787 11.247 29.0965 11.0344 29.0159C10.0429 28.6077 9.10825 28.162 8.24752 27.7128C7.39475 27.2546 6.60452 26.8112 5.92344 26.3791C5.23554 25.9561 4.64428 25.5593 4.16105 25.2284C3.7663 24.9514 3.44491 24.7269 3.20335 24.5581L3.11953 24.4996L2.77274 24.1642Z" fill="#16181E"/>
<path d="M41.8897 24.4401L35.6941 26.1115C35.0823 26.2764 34.8788 27.0416 35.3279 27.4896L36.0829 28.2435C36.0829 28.2435 36.0772 28.248 36.0706 28.2532C36.0658 28.257 36.0606 28.2611 36.0568 28.2639C35.4416 28.7745 34.7014 29.2873 33.8919 29.8387C33.0664 30.3629 32.159 30.9143 31.1494 31.3885C30.1522 31.891 29.0572 32.3152 27.9077 32.6972C27.5056 32.8244 27.089 32.9332 26.6727 33.0419C26.4937 33.0887 26.314 33.1357 26.1362 33.1838L25.85 33.2424C25.6543 33.2824 25.4577 33.3226 25.2607 33.3624L24.8207 33.4556C24.727 33.4761 24.6145 33.489 24.5017 33.502C24.4392 33.5092 24.3766 33.5164 24.317 33.525C23.9725 33.5682 23.6257 33.6114 23.2777 33.6546L23.0162 33.6876L22.9798 33.6921H22.9673L22.3647 33.7148L21.3982 33.7592C21.3337 33.7619 21.2692 33.7653 21.2046 33.7686C20.946 33.7821 20.687 33.7956 20.4295 33.7683C20.1717 33.7505 19.9131 33.7375 19.6545 33.7245C19.2674 33.705 18.88 33.6855 18.4943 33.65L17.6873 33.5307C17.319 33.4763 16.9519 33.422 16.5863 33.368C15.9644 33.2146 15.3436 33.0713 14.7284 32.9326L12.9444 32.3572C12.3765 32.1294 11.8185 31.906 11.2716 31.687L11.2503 31.6784C10.7079 31.418 10.1792 31.1645 9.66296 30.9178C9.27289 30.702 8.89032 30.4911 8.51736 30.2854L8.19392 30.1071C7.73343 29.8171 7.28771 29.5363 6.86133 29.2668C6.44404 28.9768 6.0438 28.6994 5.66404 28.4368L5.32265 28.1794C5.0757 27.9932 4.83804 27.8141 4.61115 27.642C3.96532 27.1224 3.41272 26.6528 2.96473 26.2582C2.54657 25.8859 2.22448 25.5737 2.00598 25.3619L1.96415 25.3213C1.85272 25.2178 1.76176 25.1223 1.70263 25.0598C1.64237 24.9984 1.61167 24.9666 1.61167 24.9666L1.6094 24.9643C1.31946 24.6641 0.848726 24.6016 0.484878 24.8369C0.0721366 25.1041 -0.0461142 25.6556 0.221087 26.0695C0.221087 26.0695 0.246102 26.107 0.291583 26.1786L0.324551 26.2294C0.368718 26.2978 0.42661 26.3874 0.509892 26.5038C0.71342 26.8029 1.01814 27.2065 1.41838 27.7125C1.48916 27.7973 1.56142 27.8866 1.63622 27.9791C1.77891 28.1554 1.93087 28.3432 2.09946 28.5334C2.18977 28.6311 2.28196 28.7328 2.37668 28.8372C2.55739 29.0364 2.74747 29.246 2.95109 29.4578C3.05465 29.5614 3.15979 29.6678 3.26709 29.7765C3.48849 30.0007 3.71911 30.2343 3.96418 30.4709C4.03185 30.5328 4.10009 30.5954 4.169 30.6587C4.4787 30.9432 4.80205 31.2401 5.14896 31.534C5.58558 31.8797 6.03926 32.2401 6.50999 32.6142L8.03815 33.6876C8.58506 34.0252 9.1513 34.3698 9.73801 34.7097C10.3463 35.0156 10.9671 35.3271 11.5993 35.6444C11.9677 35.7924 12.3396 35.9414 12.7147 36.0917L12.7295 36.0976C13.021 36.2145 13.3144 36.3321 13.6096 36.4505C14.31 36.6666 15.0229 36.8837 15.7449 37.0941C16.2677 37.2084 16.7975 37.3128 17.3297 37.4178C17.544 37.46 17.7587 37.5024 17.9735 37.5455C18.4799 37.6234 18.9925 37.668 19.5061 37.7126C19.757 37.7344 20.0082 37.7562 20.2589 37.782C20.5792 37.8228 20.8994 37.8192 21.2196 37.8156C21.2825 37.8149 21.3455 37.8142 21.4085 37.8138L22.5569 37.8047L23.1299 37.7968L23.2732 37.7934L23.3084 37.7922L23.421 37.7831L23.4858 37.7752L24.79 37.6387C24.8519 37.6312 24.9114 37.6256 24.9708 37.62C25.0814 37.6096 25.1923 37.5991 25.3187 37.5762L25.8963 37.4739C26.2806 37.4045 26.6638 37.3351 27.0436 37.2658C27.7735 37.0918 28.4774 36.9099 29.1675 36.6984C29.3712 36.6266 29.5754 36.5587 29.7785 36.4911C30.2513 36.3337 30.7185 36.1782 31.1607 35.9809C31.4015 35.8807 31.6403 35.7817 31.8772 35.6836L32.109 35.5875C32.2976 35.4999 32.4824 35.4079 32.6656 35.3167C32.7795 35.26 32.8928 35.2035 33.0061 35.1486C34.1875 34.5699 35.2415 33.9127 36.1955 33.2862C37.1335 32.6358 37.9613 31.9979 38.6594 31.3896C38.7449 31.3184 38.8241 31.2486 38.9036 31.1785L38.9698 31.1201L39.8715 32.0195C40.3206 32.4675 41.0859 32.2606 41.2496 31.6489L42.8994 25.4475C43.0631 24.8347 42.5015 24.2752 41.8897 24.4401Z" fill="#16181E"/>
</svg>
