<svg width="260" height="260" viewBox="0 0 260 260" fill="none" xmlns="http://www.w3.org/2000/svg">
<path fill-rule="evenodd" clip-rule="evenodd" d="M114.013 31.7085C119.482 30.7607 125.102 30.2669 130.836 30.2669C132.257 30.2669 133.671 30.2972 135.077 30.3573C135.19 29.7922 135.269 29.2349 135.305 28.6891C135.753 22.0484 128.63 20.1243 129.004 14.5743C129.098 13.1862 129.69 12.0965 130.574 11.2456C132.407 9.34926 135.702 8.37841 139.493 8.423C139.973 8.41373 140.401 8.42406 140.757 8.44791C141.14 8.4736 141.603 8.5242 142.119 8.60386C145.9 9.06773 148.749 10.3342 150.257 12.2427C151.095 13.1991 151.591 14.3716 151.494 15.7985C151.482 15.9804 151.461 16.1607 151.431 16.3394C151.362 16.9488 151.167 17.5299 150.862 18.0736C148.818 22.3155 142.604 25.6296 142.365 29.1778C142.333 29.6565 142.388 30.2613 142.512 30.9569C147.061 31.4981 151.515 32.3516 155.852 33.4952C156.907 32.7764 158.204 31.9682 159.759 31.0479C164.258 28.3859 171.994 13.3425 170.525 10.5356C165.895 1.68667 167.558 -2.74626 179.13 1.8224C190.613 6.35626 188.898 10.4289 179.439 13.9645C176.439 15.0857 169.828 27.5782 172.715 36.3168C173.208 37.8076 173.6 39.1045 173.893 40.2267C179.495 42.9749 184.795 46.2427 189.731 49.9668C194.034 47.0232 200.289 40.1647 200.057 38.2533C199.177 30.9703 201.464 28.0477 208.208 33.4811C214.9 38.8732 212.671 41.5242 205.275 42.373C203.249 42.6054 197.18 48.5221 195.381 54.5671C195.862 54.9898 196.34 55.4173 196.815 55.8508C197.565 52.5202 197.762 49.2084 200.743 46.8742C202.061 45.842 203.472 45.4433 204.879 45.466C207.917 45.4079 211.182 47.2484 213.891 50.291C214.248 50.6642 214.549 51.0124 214.785 51.3134C215.04 51.6374 215.33 52.0451 215.633 52.5184C217.957 55.8869 218.883 59.1565 218.257 61.8733C218.003 63.2994 217.306 64.6274 215.952 65.6884C215.779 65.8234 215.602 65.9496 215.419 66.0678C214.821 66.5 214.155 66.8088 213.443 67.0002C211.737 67.5664 209.804 67.7137 207.856 67.7409C210.582 71.2105 213.077 74.8686 215.319 78.6891C215.927 78.6944 216.573 78.705 217.258 78.7209C222.6 78.8472 239.179 70.6699 240.031 67.6806C242.715 58.2566 247.125 55.5372 252.807 65.0168C258.447 74.4243 254.25 76.8285 244.472 74.9104C241.37 74.3019 227.459 80.9992 223.511 89.4582C222.979 90.6 222.483 91.6128 222.019 92.5039C225.192 100.624 227.308 109.27 228.199 118.273C230.881 119.282 233.639 119.974 236.136 119.944C243.842 119.853 245.413 111.478 251.854 111.402C253.465 111.382 254.777 111.965 255.84 112.904C258.196 114.84 259.618 118.547 259.912 122.915C259.967 123.467 259.994 123.962 259.999 124.373C260.004 124.815 259.988 125.353 259.943 125.956C259.753 130.351 258.551 133.747 256.485 135.656C255.458 136.708 254.15 137.386 252.493 137.405C252.283 137.408 252.073 137.399 251.866 137.381C251.155 137.359 250.466 137.187 249.81 136.884C244.726 134.92 240.333 128.068 236.216 128.116C234.566 128.136 231.701 129.149 228.644 130.472C228.391 140.531 226.612 150.215 223.53 159.306C228.345 161.96 234.703 164.253 236.215 163.433C243.355 159.563 247.188 160.772 244.095 170.026C241.025 179.209 237.49 177.951 233.908 170.559C233.091 168.874 227.211 165.852 221.309 165.212C217.908 173.44 213.412 181.103 208.001 188.024C210.419 190.625 212.867 192.672 213.937 192.619C221.274 192.262 224.029 194.749 218.123 201.079C212.26 207.361 209.771 204.952 209.45 197.524C209.401 196.392 207.683 193.886 205.151 191.504C203.378 193.571 201.519 195.563 199.583 197.473C202.753 197.996 205.868 198.228 207.931 200.934C208.906 202.214 209.22 203.614 209.098 205.026C208.946 208.069 206.814 211.418 203.477 214.259C203.066 214.632 202.684 214.948 202.356 215.197C202.196 215.319 202.018 215.449 201.823 215.584C204.132 220.064 207.159 224.275 208.735 224.436C217.579 225.336 220.059 228.74 210.998 235.079C202.006 241.37 199.819 238.106 201.823 229.363C202.225 227.615 199.964 222.583 196.255 218.569C194.417 219.201 192.702 219.389 191.19 219.106C189.733 218.909 188.408 218.264 187.405 216.948C187.277 216.78 187.16 216.608 187.05 216.43C186.644 215.847 186.372 215.192 186.223 214.485C186.064 213.909 185.957 213.304 185.89 212.678C184.219 212.152 182.986 211.661 182.134 211.175C177.288 214.165 172.159 216.744 166.797 218.863C166.44 220.005 165.981 221.323 165.42 222.835C163.57 227.827 167.015 244.839 169.948 246.168C179.192 250.362 180.691 254.984 168.702 258.633C156.804 262.254 155.572 257.889 160.769 249.052C162.417 246.25 159.703 232.004 151.898 226.797C150.415 225.806 149.182 224.931 148.182 224.151C144.6 224.792 140.951 225.238 137.246 225.479C136.775 226.543 135.686 228.054 133.918 230.207C131.545 233.097 129.999 245.127 131.663 246.663C136.908 251.508 136.865 254.903 128.002 254.634C119.207 254.367 119.371 251.203 124.857 246.518C126.597 245.032 128.007 234.996 123.957 229.803C122.348 227.74 121.36 226.254 120.918 225.188C118.194 224.914 115.502 224.528 112.854 224.036C111.926 225.132 110.621 226.463 108.908 228.098C105.355 231.488 100.834 247.215 102.552 249.586C107.968 257.056 107.177 261.571 96.3071 259.494C85.5193 257.432 86.4088 253.248 94.192 248.07C95.3672 247.288 96.8713 243.909 97.7069 239.752C96.2779 240.173 94.6324 240.142 92.962 239.683C92.6348 239.608 92.3474 239.524 92.114 239.44C91.862 239.351 91.5622 239.224 91.2351 239.063C88.8042 237.988 87.2197 236.355 86.7174 234.38C86.4097 233.376 86.392 232.238 86.8439 230.976C86.9005 230.815 86.9641 230.659 87.0322 230.503C87.2435 229.968 87.5336 229.48 87.8882 229.044C89.8247 226.405 93.2662 224.679 95.2779 222.606C94.4944 220.826 94.0399 219.475 93.8931 218.47C89.5373 216.692 85.3371 214.61 81.3218 212.25C80.4012 213.114 78.6054 214.142 75.7309 215.543C72.1788 217.275 64.2792 228.271 64.81 230.522C66.4825 237.619 64.5791 240.901 57.3962 236.609C50.268 232.349 52.1454 229.346 59.2615 227.284C61.518 226.631 68.2064 217.512 67.7148 210.62C67.4007 206.215 67.5921 203.991 68.3969 203.18C63.3285 198.978 58.6911 194.274 54.5588 189.144C53.8265 189.55 53.1505 189.999 52.5539 190.497C47.7543 194.494 51.1087 200.623 47.0972 203.963C46.0939 204.8 44.9666 205.1 43.8115 205.046C41.3254 205.02 38.5095 203.389 36.059 200.762C35.7388 200.44 35.4653 200.139 35.249 199.88C35.016 199.601 34.7473 199.251 34.4636 198.846C32.3044 195.954 31.2993 193.179 31.6084 190.909C31.7099 189.715 32.1812 188.616 33.2121 187.757C33.3432 187.648 33.4792 187.546 33.62 187.451C34.0786 187.102 34.6013 186.858 35.171 186.715C39.3863 185.367 45.7017 187.477 48.2663 185.341C48.8073 184.891 49.4174 184.093 50.0541 183.088C48.1645 180.332 46.4126 177.475 44.8096 174.529C43.8783 175.385 41.3245 174.954 36.1563 173.317C31.7673 171.928 17.4145 175.725 16.4571 178.351C13.4386 186.63 9.57339 188.155 5.7077 177.834C1.87137 167.591 5.53288 166.314 13.4207 170.453C15.9219 171.767 27.9511 168.737 31.9278 161.67C34.1551 157.713 35.6644 155.704 36.8532 155.208C35.0124 148.869 33.7979 142.268 33.2806 135.473C28.0433 134.686 19.6808 135.113 18.5488 136.54C13.9881 142.291 10.2994 142.725 9.41767 134.117C8.54279 125.574 11.9976 125.29 17.8065 129.938C19.3558 131.179 27.4358 131.346 32.9982 128.604C32.997 128.396 32.9963 128.186 32.9963 127.976C32.9963 122.805 33.3995 117.726 34.1771 112.765C33.3054 111.858 32.2996 110.712 31.1284 109.31C30.1295 108.113 27.8884 106.739 25.2197 105.472C21.4132 106.24 18.409 108.967 14.4992 107.595C13.1444 107.12 12.2097 106.272 11.5845 105.225C10.9215 104.201 10.535 102.943 10.4099 101.544C10.3496 101.569 10.2946 101.599 10.2448 101.63C2.48115 106.533 -1.94303 105.461 0.832552 94.7963C3.55976 84.3169 7.59584 85.3413 12.1607 93.1865C13.5312 90.2715 15.3667 88.296 17.4615 87.5198C18.6191 87.0235 19.9058 86.9008 21.2979 87.3891C21.475 87.4509 21.648 87.5216 21.8176 87.5993C22.4065 87.8324 22.9357 88.1742 23.4003 88.6069C26.4311 91.1104 28.1518 95.9929 30.5752 98.3489C31.9153 98.175 33.2024 97.8553 34.3817 97.3546C35.9588 96.6852 37.3026 96.1624 38.4405 95.7809C40.3406 90.3474 42.7082 85.1329 45.4951 80.185C42.328 77.9279 39.1062 76.1962 37.9919 76.5035C30.911 78.4551 27.6771 76.6307 32.0555 69.1633C36.4005 61.7529 39.3569 63.5607 41.2961 70.7383C41.6244 71.9539 44.334 74.3732 47.8334 76.2509C51.1056 71.0281 54.8584 66.1354 59.0296 61.6358C58.9444 61.092 58.8595 60.5162 58.7741 59.9056C58.6 58.6607 57.8004 56.8908 56.66 54.9504C55.359 54.7749 54.1406 54.3513 53.0741 53.3275C52.1221 52.4137 51.6911 51.3201 51.6112 50.1613C51.5398 49.4837 51.5848 48.7691 51.7358 48.0327C49.0777 44.8433 46.3879 42.3611 45.0997 42.371C35.914 42.4412 32.7237 39.198 40.7197 31.6045C48.6549 24.0689 51.5197 27.2023 51.1821 36.4836C51.1397 37.6491 52.4171 40.0347 54.5013 42.5724C54.6604 42.3719 54.8254 42.1725 54.996 41.9744C55.2817 41.6209 55.5504 41.3165 55.7844 41.0734C56.0363 40.8117 56.3554 40.5068 56.7278 40.1812C59.3696 37.723 62.0272 36.429 64.3338 36.4996C65.5395 36.4757 66.6936 36.8309 67.6719 37.7699C67.7963 37.8893 67.9139 38.0144 68.0251 38.145C68.4273 38.5661 68.7312 39.0623 68.9406 39.6159C70.4328 42.9183 69.8037 47.8428 70.8186 50.8274C76.3909 46.4967 82.4429 42.7545 88.8821 39.6941C87.0932 35.6446 84.7208 31.7509 83.4483 31.4466C76.3049 29.7378 74.3567 26.5796 81.8033 22.1553C89.1933 17.7647 90.907 20.7742 89.1314 27.9938C88.7777 29.4288 90.4941 33.8978 93.3918 37.6895C96.0021 36.6069 98.6707 35.6341 101.39 34.7773C101.564 34.4501 101.747 34.1111 101.939 33.7595C104.166 29.6839 103.237 14.6765 100.838 13.1975C93.2741 8.53445 92.5287 4.39178 103.451 2.63447C114.29 0.89058 114.832 4.7813 109.21 11.7748C107.45 13.9652 108.042 26.2326 114.013 31.7085Z" fill="#499AD5"/>
</svg>
