<svg width="447" height="40" viewBox="0 0 447 40" fill="none" xmlns="http://www.w3.org/2000/svg">
<path d="M280.678 0.67L281.178 1.87L271.183 6.91L270.223 5.87L273.765 0.67H280.678ZM62.3807 32.59C64.6318 34.09 66.8829 35.34 69.3741 35.34C72.5057 35.34 74.5867 33.8 74.5867 31.18C74.5867 25.02 62.0906 26.47 62.0906 16.4C62.0906 10.49 66.6328 7.95 71.3351 7.95C74.6267 7.95 76.9979 8.66 79.1189 9.82V16.52H76.8378L74.2465 10.91C70.5047 10.03 67.8834 11.32 67.8834 14.78C67.8834 21.1 80.5396 19.6 80.5396 29.55C80.5396 35.46 76.2075 38.5 70.7548 38.5C66.5928 38.5 63.7514 36.67 61.6704 33.84L62.3807 32.59ZM214.926 32.59C217.177 34.09 219.418 35.34 221.919 35.34C225.041 35.34 227.122 33.8 227.122 31.18C227.122 25.02 214.636 26.47 214.636 16.4C214.636 10.49 219.168 7.95 223.88 7.95C227.162 7.95 229.543 8.66 231.664 9.82V16.52H229.373L226.792 10.91C223.04 10.03 220.418 11.32 220.418 14.78C220.418 21.1 233.085 19.6 233.085 29.55C233.085 35.46 228.753 38.5 223.29 38.5C219.128 38.5 216.296 36.67 214.215 33.84L214.926 32.59ZM22.321 21.73H10.3651V34.46L13.9869 35.8V38H0V35.8L3.6618 34.46V6.24L0 4.91V2.71H13.9869V4.91L10.3651 6.24V18.02H22.321V6.24L18.6192 4.91V2.71H32.606V4.91L28.9843 6.24V34.46L32.606 35.8V38H18.6192V35.8L22.321 34.46V21.73ZM423.558 11.65L421.307 10.66V8.45H433.343V10.66L430.682 11.65L434.344 18.65L436.095 22.31H436.305L437.926 18.69L441.217 11.9L437.966 10.61V8.45H447V10.61L444.549 11.9L437.425 25.39V34.76L441.007 35.8V38H427.6V35.8L431.182 34.76V26.06L423.558 11.65ZM398.286 11.86L395.615 10.66V8.45H403.489L412.943 23.14L415.274 27.01L415.485 26.93L415.394 22.43L415.234 11.99L411.523 10.61V8.45H420.937V10.61L418.436 11.99L418.266 37.92L415.314 38.29L403.569 20.1L401.318 16.27L401.067 16.36L401.157 20.94L401.318 34.46L405.029 35.84V38H395.615V35.84L398.116 34.46L398.286 11.86ZM384.619 11.7L381.748 10.66V8.45H393.704V10.66L390.872 11.7V34.76L393.704 35.8V38H381.748V35.8L384.619 34.76V11.7ZM378.296 11.95L369.842 38.09H365.59L357.136 11.7L354.765 10.66V8.45H366.55V10.66L363.719 11.7L368.051 25.22L369.422 30.18H369.632L370.963 25.22L375.045 11.95L371.673 10.61V8.45H380.587V10.61L378.296 11.95ZM342.439 38.5C335.985 38.5 329.652 33.13 329.652 23.23C329.652 13.32 335.985 7.95 342.439 7.95C348.852 7.95 355.175 13.32 355.175 23.23C355.175 33.13 348.852 38.5 342.439 38.5ZM342.439 10.74C339.067 10.74 336.316 14.98 336.316 23.23C336.316 31.47 339.067 35.71 342.439 35.71C345.77 35.71 348.512 31.47 348.512 23.23C348.512 14.98 345.77 10.74 342.439 10.74V10.74ZM300.418 6.12L296.546 4.91V2.71H306.041L319.237 21.89L321.568 25.76L321.778 25.68L321.698 21.19L321.528 6.24L316.996 4.87V2.71H328.692V4.87L325.57 6.24L325.4 37.92L322.029 38.29L306.541 15.61L304.29 11.78L304.04 11.86L304.12 16.44L304.29 34.46L308.832 35.84V38H296.546V35.84L300.248 34.46L300.418 6.12ZM263.31 35.8L266.191 34.76V11.7L263.31 10.66V8.45H284.51V17.07H282.219L279.968 11.36H272.434V21.64L280.008 20.81V25.18L272.434 24.39V35.09H280.508L282.929 28.97H285.22V38H263.31V35.8ZM238.447 11.7L235.576 10.66V8.45H247.532V10.66L244.7 11.7V22.93L244.871 23.02L247.452 19.6L253.695 11.95L251.274 10.61V8.45H260.858V10.61L257.937 11.95L251.274 19.6L260.608 34.8L262.729 35.8V38H250.944V35.8L253.195 34.76L246.952 24.52L244.7 27.1V34.76L247.532 35.8V38H235.576V35.8L238.447 34.76V11.7ZM198.348 22.14C201.349 22.14 203.22 20.23 203.22 16.48C203.22 12.94 201.719 11.36 198.888 11.36H196.937V22.14H198.348ZM196.937 34.71L200.179 35.8V38H187.812V35.8L190.684 34.76V11.7L187.812 10.66V8.45H200.809C205.761 8.45 209.553 10.7 209.553 16.02C209.553 19.98 207.052 22.56 203.1 23.56V23.77C210.213 25.02 209.343 36.55 216.046 38.84L215.626 40C201.929 39.96 203.01 25.06 198.228 25.06H196.937V34.71ZM192.025 0L198.848 2.62L205.261 0L206.382 0.96L201.099 6.62H196.227L190.934 0.96L192.025 0ZM181.229 0.67L181.729 1.87L171.735 6.91L170.784 5.87L174.326 0.67H181.229ZM167.412 28.8L165.662 34.51L169.073 35.84V38H160.369V35.84L162.45 34.51L170.784 8.37H176.027L184.361 34.76L186.482 35.8V38H174.866V35.8L177.737 34.76L175.867 28.8H167.412ZM174.986 25.89L172.865 19.27L171.654 14.86H171.444L170.284 19.27L168.243 25.89H174.986ZM146.132 35.09C150.754 35.09 153.746 30.51 153.746 22.85C153.746 15.15 150.754 11.36 146.132 11.36H143.921V35.09H146.132ZM134.796 38V35.8L137.678 34.76V11.7L134.796 10.66V8.45H147.503C155.126 8.45 160.409 13.24 160.409 22.81C160.409 32.3 155.126 38 147.503 38H134.796ZM119.769 38.5C113.316 38.5 106.983 33.13 106.983 23.23C106.983 13.32 113.316 7.95 119.769 7.95C126.182 7.95 132.515 13.32 132.515 23.23C132.515 33.13 126.182 38.5 119.769 38.5ZM119.769 10.74C116.397 10.74 113.646 14.98 113.646 23.23C113.646 31.47 116.397 35.71 119.769 35.71C123.101 35.71 125.852 31.47 125.852 23.23C125.852 14.98 123.101 10.74 119.769 10.74V10.74ZM92.1554 34.71L96.0273 35.8V38H83.0409V35.8L85.9123 34.76V11.7L83.0409 10.66V8.45H95.9472C101.15 8.45 105.112 10.95 105.112 16.98C105.112 21.77 101.82 25.64 93.9062 25.64L93.486 24.18C97.3179 23.35 98.5685 21.02 98.5685 17.02C98.5685 13.03 97.0678 11.36 94.1163 11.36H92.1554V34.71ZM46.8931 38.5C40.4399 38.5 34.1068 33.13 34.1068 23.23C34.1068 13.32 40.4399 7.95 46.8931 7.95C53.3062 7.95 59.6293 13.32 59.6293 23.23C59.6293 33.13 53.3062 38.5 46.8931 38.5V38.5ZM46.8931 10.74C43.5214 10.74 40.7701 14.98 40.7701 23.23C40.7701 31.47 43.5214 35.71 46.8931 35.71C50.2247 35.71 52.9661 31.47 52.9661 23.23C52.9661 14.98 50.2247 10.74 46.8931 10.74V10.74Z" fill="black"/>
</svg>
