<svg width="129" height="60" viewBox="0 0 129 60" fill="none" xmlns="http://www.w3.org/2000/svg">
<path fill-rule="evenodd" clip-rule="evenodd" d="M5.4084 45.0658L2.29841 37.9209L0.5625 46.9183H1.5373L2.6398 41.1602H2.66194L5.4084 47.2688L8.16763 41.1602H8.19062L9.29142 46.9183H10.2679L8.53031 37.9209L5.4084 45.0658Z" fill="black"/>
<path fill-rule="evenodd" clip-rule="evenodd" d="M11.6078 46.9176H12.5613V38.4045H11.6078V46.9176Z" fill="black"/>
<path fill-rule="evenodd" clip-rule="evenodd" d="M14.5824 38.0444L21.2579 44.9989V38.4068H22.2105V47.3018L15.5359 40.3575V46.9174H14.5824V38.0444Z" fill="black"/>
<path fill-rule="evenodd" clip-rule="evenodd" d="M24.2427 46.9176H25.1962V38.4045H24.2427V46.9176Z" fill="black"/>
<path fill-rule="evenodd" clip-rule="evenodd" d="M31.0429 40.0652C30.7032 39.4785 30.2937 39.139 29.5675 39.139C28.8072 39.139 28.1483 39.6808 28.1483 40.4606C28.1483 41.1938 28.9094 41.5316 29.4875 41.7932L30.0553 42.0413C31.1672 42.5256 32.1105 43.0801 32.1105 44.4339C32.1105 45.924 30.9067 47.0653 29.4202 47.0653C28.0461 47.0653 27.0245 46.184 26.7521 44.8632L27.6834 44.6024C27.8077 45.4728 28.4778 46.184 29.3964 46.184C30.3167 46.184 31.1561 45.4838 31.1561 44.5254C31.1561 43.5314 30.3737 43.1919 29.5786 42.8321L29.0567 42.6052C28.058 42.1547 27.1948 41.6459 27.1948 40.4259C27.1948 39.1059 28.3185 38.2593 29.5896 38.2593C30.544 38.2593 31.3502 38.7436 31.804 39.5809L31.0429 40.0652Z" fill="black"/>
<path fill-rule="evenodd" clip-rule="evenodd" d="M35.4365 46.9178H34.4829V39.286H32.4176V38.4064H37.5257V39.286H35.4365V46.9178Z" fill="black"/>
<path fill-rule="evenodd" clip-rule="evenodd" d="M38.7287 38.4049H43.1668V39.2863H39.6822V41.8144H43.0647V42.6958H39.6822V46.0366H43.1668V46.918H38.7287V38.4049Z" fill="black"/>
<path fill-rule="evenodd" clip-rule="evenodd" d="M45.9719 46.9178H45.0176V38.4064H46.2554C47.879 38.4064 49.3884 38.8348 49.3884 40.755C49.3884 42.0631 48.56 42.9885 47.243 43.1011L49.9673 46.9178H48.7976L46.2103 43.1807H45.9719V46.9178ZM45.9719 42.3459H46.2673C47.3452 42.3459 48.4357 42.1418 48.4357 40.821C48.4357 39.4215 47.4022 39.286 46.2554 39.286H45.9719V42.3459Z" fill="black"/>
<path fill-rule="evenodd" clip-rule="evenodd" d="M55.2806 40.0652C54.9401 39.4785 54.5314 39.139 53.8052 39.139C53.0441 39.139 52.3852 39.6808 52.3852 40.4606C52.3852 41.1938 53.1471 41.5316 53.7252 41.7932L54.2931 42.0413C55.4049 42.5256 56.3474 43.0801 56.3474 44.4339C56.3474 45.924 55.1436 47.0653 53.6571 47.0653C52.283 47.0653 51.2622 46.184 50.989 44.8632L51.9195 44.6024C52.0455 45.4728 52.7146 46.184 53.6341 46.184C54.5544 46.184 55.3939 45.4838 55.3939 44.5254C55.3939 43.5314 54.6106 43.1919 53.8163 42.8321L53.2944 42.6052C52.2949 42.1547 51.4317 41.6459 51.4317 40.4259C51.4317 39.1059 52.5554 38.2593 53.8274 38.2593C54.7809 38.2593 55.5863 38.7436 56.0417 39.5809L55.2806 40.0652Z" fill="black"/>
<path fill-rule="evenodd" clip-rule="evenodd" d="M59.6746 46.9178H58.7203V39.286H56.654V38.4064H61.763V39.286H59.6746V46.9178Z" fill="black"/>
<path fill-rule="evenodd" clip-rule="evenodd" d="M65.0782 44.8971L67.5174 38.4066H68.5518L65.0782 47.4252L61.6047 38.4066H62.6374L65.0782 44.8971Z" fill="black"/>
<path fill-rule="evenodd" clip-rule="evenodd" d="M77.9167 42.6729C77.9167 45.1231 75.8965 47.0653 73.4574 47.0653C71.0148 47.0653 68.9946 45.1231 68.9946 42.6729C68.9946 40.2337 71.0148 38.2593 73.4574 38.2593C75.8965 38.2593 77.9167 40.2337 77.9167 42.6729ZM69.9489 42.661C69.9489 44.5804 71.5146 46.1831 73.4574 46.1831C75.3976 46.1831 76.9641 44.5804 76.9641 42.661C76.9641 40.7307 75.4189 39.139 73.4574 39.139C71.4916 39.139 69.9489 40.7307 69.9489 42.661Z" fill="black"/>
<path fill-rule="evenodd" clip-rule="evenodd" d="M2.13972 59.6491H1.1862V51.1368H2.59349C3.33076 51.1368 4.09272 51.1597 4.71676 51.589C5.35272 52.0292 5.6822 52.7751 5.6822 53.5286C5.6822 54.2187 5.39784 54.918 4.86405 55.36C4.28513 55.8332 3.547 55.9238 2.83187 55.9238H2.13972V59.6491ZM2.13972 55.0442H2.77568C3.83136 55.0442 4.72868 54.7267 4.72868 53.5075C4.72868 52.119 3.60319 52.0174 2.49218 52.0174H2.13972V55.0442Z" fill="black"/>
<path fill-rule="evenodd" clip-rule="evenodd" d="M8.07671 59.6491H7.1232V51.1368H8.36021C9.98459 51.1368 11.494 51.5652 11.494 53.4855C11.494 54.7944 10.6648 55.7198 9.34778 55.8332L12.0721 59.6491H10.9032L8.31509 55.912H8.07671V59.6491ZM8.07671 55.0772H8.37213C9.4508 55.0772 10.5397 54.8731 10.5397 53.5523C10.5397 52.1528 9.50699 52.0174 8.36021 52.0174H8.07671V55.0772Z" fill="black"/>
<path fill-rule="evenodd" clip-rule="evenodd" d="M14.1505 56.2062C14.1505 56.8378 14.1284 57.5608 14.526 58.1027C14.8997 58.6225 15.6259 58.9155 16.2508 58.9155C16.8646 58.9155 17.5338 58.6327 17.9314 58.1594C18.3843 57.6167 18.3502 56.8716 18.3502 56.2062V51.1372H19.3037V56.4661C19.3037 57.3915 19.2365 58.1247 18.5546 58.8257C17.9646 59.4573 17.1132 59.796 16.2508 59.796C15.4446 59.796 14.6153 59.492 14.0364 58.9265C13.2872 58.2153 13.197 57.4372 13.197 56.4661V51.1372H14.1505V56.2062ZM17.2724 49.8961C17.2724 50.4481 16.8408 50.8883 16.284 50.8883C15.7289 50.8883 15.2854 50.4481 15.2854 49.8961C15.2854 49.3533 15.7289 48.9131 16.284 48.9131C16.8297 48.9131 17.2724 49.3533 17.2724 49.8961ZM15.797 49.8961C15.797 50.156 16.0235 50.3803 16.284 50.3803C16.5454 50.3803 16.7608 50.156 16.7608 49.8961C16.7608 49.6353 16.5454 49.4211 16.284 49.4211C16.0235 49.4211 15.797 49.6353 15.797 49.8961Z" fill="black"/>
<path fill-rule="evenodd" clip-rule="evenodd" d="M25.1624 57.7987L22.0524 50.6521L20.3148 59.6495H21.2913L22.3921 53.8914H22.4151L25.1624 60L27.9208 53.8914H27.9446L29.0454 59.6495H30.0219L28.2843 50.6521L25.1624 57.7987Z" fill="black"/>
<path fill-rule="evenodd" clip-rule="evenodd" d="M29.9986 51.137H31.0994L33.2789 54.9308L35.4592 51.137H36.56L33.7565 55.9908V59.6492H32.8021V55.9908L29.9986 51.137Z" fill="black"/>
<path fill-rule="evenodd" clip-rule="evenodd" d="M41.0447 52.7965C40.7041 52.2098 40.2946 51.8703 39.5684 51.8703C38.8082 51.8703 38.1501 52.413 38.1501 53.1919C38.1501 53.926 38.9103 54.2646 39.4892 54.5237L40.0571 54.7726C41.169 55.2569 42.1114 55.8114 42.1114 57.1652C42.1114 58.6554 40.9076 59.7967 39.4211 59.7967C38.047 59.7967 37.0254 58.9161 36.753 57.5954L37.6844 57.3337C37.8095 58.2041 38.4795 58.9161 39.399 58.9161C40.3176 58.9161 41.1587 58.2151 41.1587 57.2567C41.1587 56.2627 40.3746 55.9232 39.5803 55.5634L39.0576 55.3365C38.059 54.8852 37.1957 54.3772 37.1957 53.1589C37.1957 51.8373 38.3195 50.9906 39.5914 50.9906C40.5449 50.9906 41.3511 51.4749 41.8049 52.3114L41.0447 52.7965Z" fill="black"/>
<path fill-rule="evenodd" clip-rule="evenodd" d="M44.689 58.7677H47.0498V59.6491H43.7347V51.1368H44.689V58.7677Z" fill="black"/>
<path fill-rule="evenodd" clip-rule="evenodd" d="M48.8672 56.2062C48.8672 56.8379 48.8434 57.5609 49.241 58.1028C49.6164 58.6226 50.3426 58.9155 50.9667 58.9155C51.5796 58.9155 52.2496 58.6328 52.6464 58.1595C53.1002 57.6168 53.0661 56.8717 53.0661 56.2062V51.1373H54.0205V56.4662C54.0205 57.3916 53.9524 58.1248 53.2713 58.8258C52.6804 59.4574 51.8291 59.7961 50.9667 59.7961C50.1604 59.7961 49.3321 59.4921 48.7531 58.9266C48.0031 58.2154 47.9129 57.4373 47.9129 56.4662V51.1373H48.8672V56.2062Z" fill="black"/>
<path fill-rule="evenodd" clip-rule="evenodd" d="M60.9453 57.2331L59.9118 59.6495H58.868L62.8183 50.7291L66.6664 59.6495H65.6108L64.6011 57.2331H60.9453ZM62.7962 52.944L61.3319 56.3535H64.2265L62.7962 52.944Z" fill="black"/>
<path fill-rule="evenodd" clip-rule="evenodd" d="M80.0402 55.4042C80.0402 57.8536 78.0199 59.7967 75.5791 59.7967C73.14 59.7967 71.118 57.8536 71.118 55.4042C71.118 52.9658 73.14 50.9906 75.5791 50.9906C78.0199 50.9906 80.0402 52.9658 80.0402 55.4042ZM72.0724 55.3924C72.0724 57.3126 73.638 58.9153 75.5791 58.9153C77.521 58.9153 79.0875 57.3126 79.0875 55.3924C79.0875 53.462 77.5423 51.8703 75.5791 51.8703C73.615 51.8703 72.0724 53.462 72.0724 55.3924Z" fill="black"/>
<path fill-rule="evenodd" clip-rule="evenodd" d="M81.5632 51.137H82.9697C84.5259 51.137 85.8302 51.7017 85.8302 53.4399C85.8302 54.1282 85.5706 54.7149 84.9899 55.1002C86.0116 55.3482 86.6135 56.2626 86.6135 57.2777C86.6135 58.9711 85.2394 59.6492 83.5486 59.6492H81.5632V51.137ZM82.5159 54.8851H82.8786C83.9581 54.8851 84.8776 54.7606 84.8776 53.4399C84.8776 52.1529 84.0594 52.0175 82.8905 52.0175H82.5159V54.8851ZM82.5159 58.7679H83.4686C84.5362 58.7679 85.6608 58.5096 85.6608 57.21C85.6608 55.8901 84.388 55.6979 83.3443 55.6979H82.5159V58.7679Z" fill="black"/>
<path fill-rule="evenodd" clip-rule="evenodd" d="M94.7642 52.9998C94.084 52.2997 93.1416 51.8704 92.154 51.8704C90.2461 51.8704 88.7035 53.5188 88.7035 55.3925C88.7035 57.2678 90.258 58.9154 92.177 58.9154C93.1416 58.9154 94.084 58.4641 94.7642 57.7868V58.9594C94.0278 59.492 93.1194 59.7959 92.2102 59.7959C89.7923 59.7959 87.7491 57.8435 87.7491 55.4272C87.7491 52.988 89.7574 50.9907 92.2102 50.9907C93.1645 50.9907 94.004 51.2608 94.7642 51.8247V52.9998Z" fill="black"/>
<path fill-rule="evenodd" clip-rule="evenodd" d="M101.701 54.5914V51.1371H102.654V59.6494H101.701V55.472H97.3186V59.6494H96.3651V51.1371H97.3186V54.5914H101.701Z" fill="black"/>
<path fill-rule="evenodd" clip-rule="evenodd" d="M113.03 55.4042C113.03 57.8536 111.01 59.7967 108.569 59.7967C106.13 59.7967 104.109 57.8536 104.109 55.4042C104.109 52.9658 106.13 50.9906 108.569 50.9906C111.01 50.9906 113.03 52.9658 113.03 55.4042ZM105.062 55.3924C105.062 57.3126 106.628 58.9153 108.569 58.9153C110.511 58.9153 112.077 57.3126 112.077 55.3924C112.077 53.462 110.532 51.8703 108.569 51.8703C106.607 51.8703 105.062 53.462 105.062 55.3924Z" fill="black"/>
<path fill-rule="evenodd" clip-rule="evenodd" d="M114.553 51.137H116.165C117.448 51.137 118.492 51.3063 119.502 52.164C120.478 52.9996 120.921 54.14 120.921 55.4041C120.921 56.6461 120.468 57.7409 119.525 58.5774C118.504 59.4799 117.481 59.6492 116.141 59.6492H114.553V51.137ZM116.2 58.7679C117.243 58.7679 118.117 58.6222 118.901 57.8882C119.605 57.2329 119.969 56.3413 119.969 55.3922C119.969 54.422 119.593 53.4847 118.855 52.8421C118.072 52.1529 117.21 52.0175 116.2 52.0175H115.506V58.7679H116.2Z" fill="black"/>
<path fill-rule="evenodd" clip-rule="evenodd" d="M123.408 56.2063C123.408 56.8379 123.385 57.5609 123.781 58.1028C124.156 58.6226 124.882 58.9156 125.508 58.9156C126.122 58.9156 126.79 58.6328 127.188 58.1595C127.641 57.6168 127.608 56.8717 127.608 56.2063V51.1382H128.562V56.4662C128.562 57.3916 128.494 58.1248 127.812 58.8258C127.222 59.4574 126.37 59.7961 125.508 59.7961C124.702 59.7961 123.873 59.4921 123.294 58.9266C122.544 58.2154 122.453 57.4373 122.453 56.4662V51.1382H123.408V56.2063Z" fill="black"/>
<path fill-rule="evenodd" clip-rule="evenodd" d="M60.6677 28.4445C60.4847 20.1447 54.7747 12.2912 49.3099 7.98761C42.9315 2.96271 37.7664 0.948523 31.8103 0.0426025C37.3807 1.16019 42.8132 2.85265 49.7177 8.68017C54.0638 12.3462 59.6419 18.36 60.6677 28.4445Z" fill="black"/>
<path fill-rule="evenodd" clip-rule="evenodd" d="M7.72093 11.1447C5.84284 13.4958 4.13843 16.6115 2.89716 19.8364C1.48902 23.4957 1.03355 27.2523 1.15019 30.7388H1.48136C1.45752 27.4775 1.9164 24.1738 2.92951 21.1208C5.60957 13.0496 10.3456 7.07141 18.7655 2.56213C14.1427 5.0496 10.7075 7.56417 7.72093 11.1447Z" fill="black"/>
<path fill-rule="evenodd" clip-rule="evenodd" d="M51.1748 8.16803C49.8578 7.10802 47.0509 5.25384 38.3705 3.69346C29.5547 2.10937 21.7929 2.34305 20.1575 2.02979L19.5667 2.26177C20.8445 2.78077 25.8181 2.42517 32.1684 3.1914C38.5152 3.95592 48.1363 5.51461 51.815 8.78016L51.1748 8.16803Z" fill="black"/>
<path fill-rule="evenodd" clip-rule="evenodd" d="M57.0769 15.7904C55.593 14.0599 50.2618 12.0313 32.6252 11.5114C14.717 10.9831 9.1449 11.9102 7.55202 11.3819C7.55202 11.3819 7.95896 10.8663 8.09859 10.7266C8.10114 11.1262 19.3696 10.4345 27.9079 10.6165C36.2247 10.7935 53.5046 11.326 56.6053 14.9692C56.8215 15.3163 57.0769 15.7904 57.0769 15.7904Z" fill="black"/>
<path fill-rule="evenodd" clip-rule="evenodd" d="M41.3496 2.01041C41.3005 1.98839 41.2641 1.974 41.2641 1.974C41.2641 1.974 41.298 1.98839 41.3496 2.01041Z" fill="black"/>
<path fill-rule="evenodd" clip-rule="evenodd" d="M42.1167 2.33452C41.9379 2.25663 41.5275 2.08307 41.3505 2.01025C41.5514 2.09831 42.0622 2.35992 42.0622 2.76632C42.0622 4.91258 35.0845 7.94361 21.0917 16.0283C11.0704 21.8211 4.7474 26.7478 2.45045 30.7398H3.1426C7.36872 24.6202 19.3217 17.9798 27.1235 13.5349C37.9987 7.33825 42.8131 4.83131 42.8131 3.13292C42.8131 2.7316 42.3457 2.43358 42.1167 2.33452Z" fill="black"/>
<path fill-rule="evenodd" clip-rule="evenodd" d="M14.7707 30.3742C14.7707 30.4961 14.7741 30.6172 14.775 30.7391H15.6076C15.5863 30.0321 15.571 29.326 15.571 28.6182C15.571 15.1429 19.6813 3.18133 24.5911 0.668457C24.5911 0.668457 24.3365 0.679464 24.0854 0.826781C19.2906 3.63005 14.7707 13.3031 14.7707 30.3742Z" fill="black"/>
<path fill-rule="evenodd" clip-rule="evenodd" d="M4.0515 24.1408C3.51004 26.2473 3.17802 28.4723 3.07671 30.7388H3.51941C3.71948 27.7721 4.28478 24.2644 5.53626 20.5925C8.10905 13.1978 13.9587 4.62883 21.2795 1.66724C13.3917 4.8007 6.70602 13.8337 4.0515 24.1408Z" fill="black"/>
<path fill-rule="evenodd" clip-rule="evenodd" d="M21.2794 1.66689C21.78 1.46792 22.2857 1.29097 22.7957 1.14111C22.2831 1.28843 21.7774 1.46538 21.2794 1.66689Z" fill="black"/>
<path fill-rule="evenodd" clip-rule="evenodd" d="M40.8297 1.81986C38.8605 1.39145 33.8052 1.92654 27.2915 3.07799C20.725 4.2379 12.1366 6.73977 9.88132 8.84878C11.183 7.46874 13.7311 5.568 24.6778 3.21853C33.6758 1.28816 38.6528 1.22297 39.992 1.54131C40.3751 1.65053 40.8297 1.81986 40.8297 1.81986Z" fill="black"/>
<path fill-rule="evenodd" clip-rule="evenodd" d="M44.961 3.65527C48.437 5.69571 51.3478 8.78769 51.3478 14.6821C51.3478 19.2007 49.6885 24.2256 46.1878 30.7389H47.1872C49.9805 25.3652 52.005 20.038 52.005 15.7176C52.005 10.4691 50.2155 6.4704 44.961 3.65527Z" fill="black"/>
<path fill-rule="evenodd" clip-rule="evenodd" d="M2.54378 20.9311C2.60389 20.733 2.65046 20.5924 2.65046 20.5924C2.65046 20.5924 2.58865 20.7152 2.54378 20.9311Z" fill="black"/>
<path fill-rule="evenodd" clip-rule="evenodd" d="M3.4467 23.5679C2.41997 22.424 2.4387 21.4284 2.54342 20.9314C2.45913 21.2125 2.34335 21.6121 2.28461 21.9237C2.23863 23.2428 2.64728 25.0902 7.8167 27.598C10.1179 28.7147 12.9376 29.7493 16.0382 30.739H19.3551C11.3439 28.3625 5.87221 26.2687 3.4467 23.5679Z" fill="black"/>
<path fill-rule="evenodd" clip-rule="evenodd" d="M15.7177 4.23621C15.7177 4.23621 14.668 4.84495 13.9052 5.43253C11.6916 7.136 8.72043 10.4642 8.72043 15.401C8.72043 18.7817 9.76163 23.6906 14.3317 30.7399H15.9578C11.7172 24.5305 9.62031 19.1771 9.62031 14.6788C9.62031 9.17643 12.9108 5.87025 15.7177 4.23621Z" fill="black"/>
<path fill-rule="evenodd" clip-rule="evenodd" d="M48.1722 5.69592C48.6089 6.04728 49.1972 6.60692 49.1972 7.40024C49.1972 10.3881 42.8274 14.9524 29.5633 23.1971C24.9439 26.0698 21.1451 28.5564 18.0309 30.7391H19.8307C22.5567 28.8638 25.7688 26.77 29.5633 24.4197C48.4676 12.7096 49.8213 9.83352 49.8213 7.84558C49.8213 6.94135 49.1521 6.31991 48.1722 5.69592Z" fill="black"/>
<path fill-rule="evenodd" clip-rule="evenodd" d="M24.6781 0.649411C25.2323 0.585065 25.5192 0.657877 26.5698 0.877161C29.3776 1.45881 37.1419 3.1826 44.581 6.43121C50.1889 8.88058 55.6469 12.6558 57.4526 16.5013C56.4225 14.2882 53.2674 9.07955 40.9313 4.5872C33.2265 1.78139 27.8809 0.880548 25.3047 0.543579C25.3047 0.543579 24.8152 0.603692 24.6781 0.649411Z" fill="black"/>
<path fill-rule="evenodd" clip-rule="evenodd" d="M28.0552 0.140949C29.8865 0.0884563 35.4441 2.09418 42.8126 9.69036C48.4519 15.5026 53.5081 22.8279 55.6357 30.7399H56.4811C55.3368 26.0376 53.0058 21.1041 49.1799 15.8269C43.0748 7.40439 32.8918 -0.1884 28.0552 0.140949Z" fill="black"/>
<path fill-rule="evenodd" clip-rule="evenodd" d="M21.513 6.33173C19.4519 10.9003 16.6092 20.0755 16.1171 30.7391H18.6303C19.0543 22.0363 21.0516 13.3742 22.4972 8.4399C23.9113 3.60635 25.4761 0.413617 26.4313 0.339111C26.2746 0.355198 25.9196 0.383137 25.7085 0.457643C24.3982 1.01305 22.8471 3.37775 21.513 6.33173Z" fill="black"/>
<path fill-rule="evenodd" clip-rule="evenodd" d="M51.8544 8.83084C50.4531 7.66415 45.6191 7.33057 34.9236 7.84449C25.7639 8.2839 9.25957 10.6207 6.81363 12.3834C6.81363 12.3834 7.21376 11.8525 7.43001 11.6036C11.5821 9.39556 28.3614 7.69209 32.1192 7.40677C38.6168 6.91486 48.9598 6.55588 51.2781 8.23818C51.5888 8.49302 51.8544 8.83084 51.8544 8.83084Z" fill="black"/>
<path fill-rule="evenodd" clip-rule="evenodd" d="M24.9808 6.22463C23.742 3.84807 23.6518 2.63059 23.6518 2.07941C23.6518 1.75176 23.7803 0.862771 24.6785 0.649414C23.3725 0.922883 22.7025 1.71281 22.7025 2.90151C22.7025 4.60244 23.1904 6.62425 26.6434 12.6744C29.2307 17.2108 33.6637 23.7622 37.625 30.7395H40.0854C38.5419 27.9676 36.6724 24.8874 34.4129 21.4407C32.9239 19.17 27.4684 10.9989 24.9808 6.22463Z" fill="black"/>
<path fill-rule="evenodd" clip-rule="evenodd" d="M29.4283 20.7831C9.43853 15.5177 7.73497 13.3317 7.73497 11.7527C7.73497 11.4885 7.78009 11.1803 8.23897 10.5894C8.00996 10.7892 7.55193 11.3818 7.55193 11.3818C7.38762 11.6544 7.20628 12.0558 7.20628 12.3944C7.20628 14.9158 11.2502 16.8775 29.4385 21.8168C41.6707 25.14 50.1928 27.9805 55.0719 30.7389H56.8078C51.4919 26.9687 40.6159 23.7303 29.4283 20.7831Z" fill="black"/>
<path fill-rule="evenodd" clip-rule="evenodd" d="M38.5438 1.7421C35.1256 0.262999 31.79 -0.0705823 30.3802 0.0115431C37.2515 0.266386 44.6182 5.13211 50.2286 11.99C54.8693 17.6626 57.6465 24.3088 58.4535 30.7392H59.5262C58.6587 19.3161 50.2184 6.79748 38.5438 1.7421Z" fill="black"/>
<path fill-rule="evenodd" clip-rule="evenodd" d="M32.9509 0.0888672C33.9751 0.245498 35.9605 0.567227 35.9605 2.78038C35.9605 4.60323 34.6868 7.85607 24.6783 20.7388C21.7156 24.5529 19.388 27.8583 17.5542 30.7386H18.7759C20.5859 27.9599 22.6572 25.0626 24.9022 22.0841C33.0556 11.2799 36.6041 6.26098 36.6041 2.89383C36.6041 0.734018 34.3386 0.192159 32.9509 0.0888672Z" fill="black"/>
<path fill-rule="evenodd" clip-rule="evenodd" d="M57.2166 20.5649C55.9728 21.2786 52.0327 22.8797 40.9864 26.13C36.6556 27.4025 30.88 29.1043 25.3743 30.74H35.4262C40.6084 29.2126 45.9685 27.5964 48.5473 26.6955C52.9351 25.1656 56.4359 24.004 57.9751 23.0642C58.961 22.4631 59.4999 22.1177 59.4582 21.5157C59.2207 20.7156 58.6579 19.2026 58.6579 19.2026C58.6886 19.7233 58.3327 19.9265 57.2166 20.5649Z" fill="black"/>
</svg>
