<svg width="160" height="160" viewBox="0 0 160 160" fill="none" xmlns="http://www.w3.org/2000/svg">
<path fill-rule="evenodd" clip-rule="evenodd" d="M81.5319 30.0033C78.0784 27.2468 73.2971 24.4607 68.7862 23.428C65.9252 22.7731 62.2851 22.629 59.2646 24.7702C56.0977 27.0152 54.8848 30.8357 54.8849 35.1702C54.8851 43.7089 57.4111 51.797 61.698 57.5177C65.5406 62.6455 71.1912 66.2551 77.7394 65.6257C82.4349 71.4057 89.6595 76.0405 100.547 76.5891L100.622 76.5928H100.697C108.589 76.5928 114.616 74.5107 119.149 71.1665C121.699 69.2855 123.707 67.0561 125.291 64.69C130.924 65.4424 136.076 61.8972 139.441 57.2312C143.224 51.9848 145.566 44.4381 145.174 35.8805C144.986 31.7778 144.176 28.1595 142.069 25.734C139.577 22.8643 136.218 22.6211 133.458 23.3552C130.893 24.0378 128.371 25.6313 126.183 27.3037C124.72 28.4229 123.261 29.6919 121.864 30.9947C121.703 30.8923 121.541 30.7902 121.378 30.6884C115.978 27.3223 108.573 23.9733 101.223 23.9084C94.5259 23.8494 87.1475 26.9251 81.5319 30.0033ZM76.4127 33.0881C75.5405 33.6644 74.7434 34.2199 74.0366 34.7371C73.0969 35.4247 72.2911 36.0632 71.6693 36.6089C71.3602 36.8802 71.0703 37.1515 70.8227 37.4116C70.6237 37.6206 70.2765 38.0009 70.024 38.4733L70.0176 38.4853L70.0112 38.4975C69.7995 38.9026 69.7086 39.2898 69.6687 39.4755C69.6181 39.7106 69.5841 39.9493 69.5599 40.171C69.5112 40.6174 69.4869 41.1397 69.4843 41.7073C69.4789 42.8503 69.5608 44.3202 69.7737 46.0003C70.1988 49.3547 71.1644 53.6866 73.1152 58.0391C73.3875 58.6467 73.6795 59.255 73.9921 59.8613C71.0573 59.1713 68.3404 57.1771 66.08 54.1606C62.6218 49.5459 60.3828 42.685 60.3826 35.17C60.3825 31.743 61.327 30.097 62.421 29.3215C63.5725 28.5052 65.3218 28.3341 67.572 28.8493C70.474 29.5136 73.7219 31.2121 76.4127 33.0881ZM128.25 59.0708C130.007 54.7595 130.766 50.4371 131.12 47.1173C131.298 45.4452 131.375 44.0082 131.421 42.9416C131.433 42.6525 131.442 42.4208 131.449 42.2172L131.451 42.1818C131.458 41.9934 131.464 41.8281 131.472 41.6613C131.482 41.4335 131.49 41.3342 131.491 41.314L131.528 41.1263L131.53 40.856C131.538 39.9526 131.167 39.2416 130.998 38.9404C130.778 38.5463 130.505 38.1748 130.237 37.8462C129.695 37.1812 128.969 36.4471 128.134 35.6939C127.624 35.2341 127.054 34.7502 126.431 34.2514C126.438 34.2453 126.445 34.2392 126.452 34.2331C127.45 33.3355 128.452 32.4894 129.438 31.7353C131.45 30.197 133.294 29.122 134.828 28.7137C136.306 28.3204 137.289 28.5795 138.008 29.4076C138.056 29.4628 138.104 29.5214 138.151 29.5836C138.926 30.6043 139.589 32.5835 139.753 36.1266L139.754 36.1393C140.093 43.5554 138.045 49.8226 135.07 53.9486C135.045 53.9836 135.02 54.0185 134.994 54.0532C134.974 54.081 134.953 54.1087 134.933 54.1363C133.206 56.4719 131.25 58.0195 129.312 58.7512C128.957 58.8851 128.603 58.9917 128.25 59.0708Z" fill="white"/>
<path d="M138.647 105.297C141.659 104.207 144.943 105.388 146.677 107.932C147.224 108.749 147.589 109.657 147.863 110.566C148.046 111.383 148.046 112.201 147.863 112.928C147.498 115.198 145.947 117.106 143.757 118.105L139.377 120.285L138.374 120.739L106.529 135.273C102.15 137.181 97.1312 137.544 92.4777 136.182L87.733 134.183L70.1228 126.916L45.3955 116.652C44.3918 116.379 43.3881 116.107 42.3844 116.016C40.6508 115.834 38.9171 115.925 37.1835 116.198L19.9383 120.285L12 122.193V87.0391H12.365L16.9272 86.3124L41.3807 82.4972C41.5667 82.4972 41.7422 82.5077 41.9143 82.518C42.2487 82.538 42.5705 82.5572 42.9319 82.4972C44.3715 82.313 45.686 82.1299 46.9054 81.96L46.9066 81.9598C56.506 80.6225 60.2101 80.1065 72.6776 86.3124C75.2325 87.5841 77.8786 88.4925 80.7072 88.9466C82.5957 89.2682 85.2355 89.6101 88.1732 89.9904C96.0219 91.0068 105.997 92.2984 109.449 94.2152C109.905 94.4877 110.362 94.851 110.818 95.2144L111.365 95.7594C111.457 95.7594 111.457 95.8502 111.457 95.8502C111.913 96.3952 112.278 96.9403 112.551 97.5761C112.916 98.3028 113.099 99.2112 113.099 100.21C113.099 103.39 111.73 105.206 109.54 106.206C104.367 108.603 91.1735 106.921 86.5768 106.335L86.2731 106.296L84.7219 106.115C84.3569 106.115 84.0832 106.206 83.9007 106.478C83.5357 106.841 83.627 107.659 84.2657 107.932L85.3606 108.658L94.9413 114.563C95.1623 114.709 95.4428 114.797 95.6868 114.873C95.7194 114.883 95.7513 114.893 95.7824 114.903C95.8067 114.911 95.8306 114.918 95.8537 114.926C95.9906 114.971 96.1046 115.017 96.2187 115.062C96.3328 115.108 96.4468 115.153 96.5837 115.198C96.6749 115.244 96.7662 115.267 96.8574 115.289C96.9487 115.312 97.0399 115.335 97.1312 115.38C97.1768 115.38 97.2224 115.403 97.268 115.426C97.3137 115.448 97.3593 115.471 97.4049 115.471C97.6786 115.562 97.9524 115.653 98.2261 115.653C98.3173 115.743 98.4998 115.743 98.5911 115.743C98.7867 115.743 98.9561 115.77 99.1133 115.794C99.2495 115.815 99.3765 115.834 99.5035 115.834H101.146C101.283 115.834 101.42 115.812 101.557 115.789C101.693 115.766 101.83 115.743 101.967 115.743C102.15 115.653 102.241 115.653 102.423 115.653C102.515 115.653 102.629 115.63 102.743 115.607C102.857 115.584 102.971 115.562 103.062 115.562C103.153 115.562 103.222 115.539 103.29 115.516C103.359 115.494 103.427 115.471 103.518 115.471C103.61 115.426 103.724 115.403 103.838 115.38C103.952 115.357 104.066 115.335 104.157 115.289C104.203 115.289 104.271 115.267 104.339 115.244C104.408 115.221 104.476 115.198 104.522 115.198C104.522 115.198 104.704 115.108 104.978 115.017H105.069C105.617 114.926 106.438 114.653 107.533 114.29L108.263 114.108C108.401 114.069 108.544 114.03 108.69 113.989C109.218 113.844 109.79 113.686 110.362 113.473L111.092 113.2L111.73 113.018C111.783 112.966 111.805 112.944 111.832 112.934C111.839 112.932 111.846 112.93 111.854 112.929C111.865 112.928 111.876 112.928 111.89 112.928C111.897 112.928 111.905 112.928 111.913 112.928C111.958 112.928 112.004 112.905 112.05 112.882C112.095 112.859 112.141 112.837 112.187 112.837L112.551 112.746L113.19 112.564L114.285 112.201L114.65 112.11C114.741 112.065 114.855 112.042 114.969 112.019C115.084 111.996 115.198 111.974 115.289 111.928C115.517 111.837 115.745 111.769 115.973 111.701C116.201 111.633 116.429 111.565 116.658 111.474L117.661 111.202L118.3 111.02L119.03 110.747C119.258 110.657 119.486 110.588 119.714 110.52C119.942 110.452 120.17 110.384 120.399 110.293C120.641 110.213 120.883 110.15 121.118 110.09C121.413 110.013 121.695 109.94 121.95 109.839L122.406 109.657C122.458 109.605 122.481 109.583 122.507 109.574C122.527 109.567 122.55 109.567 122.588 109.567C122.68 109.476 122.68 109.476 122.771 109.476L123.775 109.203L124.322 109.022C124.778 108.84 125.052 108.749 125.326 108.658H125.691L138.647 105.297Z" fill="white"/>
</svg>
