<svg width="206" height="40" viewBox="0 0 206 40" fill="none" xmlns="http://www.w3.org/2000/svg">
<path fill-rule="evenodd" clip-rule="evenodd" d="M128.234 31.5973C125.695 27.9214 123.661 25.1064 122.129 23.1512C120.597 21.1972 119.524 20.0876 118.912 19.8249C119.524 19.3295 120.568 18.1988 122.041 16.4334C123.515 14.668 125.345 12.2979 127.533 9.32183L133.485 9.32173H139.13C140.122 11.8018 141.1 14.5151 142.063 17.4617C143.026 20.409 143.885 23.3256 144.645 26.2147C145.695 23.4138 146.702 20.5905 147.664 17.7462C148.626 14.9018 149.459 12.0939 150.158 9.32173H155.674C154.913 11.8599 154.091 14.4493 153.201 17.0897C152.31 19.7308 151.362 22.3636 150.356 24.9894C149.348 27.6151 148.292 30.1974 147.182 32.735C146.073 35.2732 144.936 37.695 143.77 39.9999H137.731C138.313 38.9497 138.926 37.7749 139.568 36.4767C140.209 35.1786 140.808 33.9175 141.362 32.6915C140.808 30.7081 140.217 28.6877 139.59 26.6301C138.962 24.5733 138.313 22.5381 137.643 20.5253C136.971 18.5125 136.287 16.5579 135.586 14.6608C134.943 12.9211 134.301 11.2798 133.659 9.73647C131.634 12.4581 129.92 14.6172 128.517 16.2148C127.044 17.8926 126.016 18.9652 125.433 19.4311C126.016 19.7814 127.102 20.9633 128.693 22.9767C130.283 24.9895 132.26 27.8632 134.623 31.5973H128.234ZM118.912 0V19.8249V31.5973H113.484V0H118.912ZM182.783 31.5533C183.352 31.4082 183.856 31.2471 184.294 31.0726L183.069 26.4334C182.368 26.7256 181.566 26.9736 180.662 27.1775C179.757 27.382 178.838 27.4843 177.904 27.4843C176.912 27.4843 176.051 27.3967 175.322 27.2216C174.593 27.0458 173.988 26.7038 173.507 26.1931C173.026 25.6831 172.668 24.9678 172.434 24.048C172.2 23.1295 172.083 21.9259 172.083 20.4379C172.083 18.8917 172.2 17.6588 172.434 16.7403C172.668 15.8205 173.026 15.1135 173.507 14.6169C173.988 14.1215 174.593 13.793 175.322 13.6326C176.051 13.4728 176.912 13.3916 177.904 13.3916C178.809 13.3916 179.721 13.4868 180.639 13.676C181.559 13.8665 182.368 14.0921 183.069 14.3542L184.294 9.71564C183.885 9.56991 183.404 9.43121 182.85 9.30017C182.295 9.1685 181.713 9.05984 181.098 8.97163C180.487 8.88407 179.865 8.8112 179.24 8.75303C178.611 8.69487 178.036 8.66547 177.511 8.66547C175.818 8.66547 174.294 8.84827 172.937 9.21261C171.581 9.57758 170.421 10.2046 169.458 11.0937C168.495 11.9847 167.757 13.18 167.248 14.6827C166.737 16.1861 166.482 18.0742 166.482 20.3504C166.482 22.6258 166.737 24.5293 167.248 26.0614C167.757 27.5929 168.495 28.8118 169.458 29.7157C170.421 30.6207 171.581 31.2625 172.937 31.6415C174.294 32.0199 175.818 32.2104 177.511 32.2104C178.036 32.2104 178.604 32.181 179.219 32.1228C179.83 32.064 180.435 31.9911 181.033 31.9042C181.632 31.8166 182.215 31.699 182.783 31.5533ZM205.563 10.4154V9.32173H186.351V14.0485H197.247C196.693 14.9523 195.978 16.0613 195.103 17.3742C194.228 18.687 193.265 20.0951 192.215 21.5972C191.164 23.1006 190.062 24.6244 188.911 26.1712C187.757 27.7174 186.657 29.162 185.607 30.503V31.5972H205.257V26.8711H194.097C194.826 25.9373 195.686 24.7919 196.678 23.4355C197.67 22.0785 198.691 20.65 199.742 19.1466C200.792 17.6445 201.828 16.1348 202.849 14.6167C203.87 13.0999 204.776 11.7001 205.563 10.4154ZM159.044 25.3391C159.714 25.3391 160.275 25.3762 160.728 25.449C161.18 25.5219 161.538 25.6676 161.8 25.8862C162.062 26.1055 162.252 26.4116 162.369 26.8054C162.485 27.1991 162.544 27.7315 162.544 28.4027C162.544 29.132 162.485 29.7156 162.369 30.1534C162.252 30.5912 162.062 30.9338 161.8 31.1818C161.538 31.4298 161.18 31.5973 160.728 31.6855C160.275 31.7724 159.714 31.8166 159.044 31.8166C158.4 31.8166 157.868 31.7724 157.446 31.6855C157.022 31.5973 156.679 31.4298 156.418 31.1818C156.156 30.9338 155.964 30.5912 155.848 30.1534C155.731 29.7156 155.674 29.132 155.674 28.4027C155.674 27.7315 155.731 27.1991 155.848 26.8054C155.964 26.4116 156.156 26.1055 156.418 25.8862C156.679 25.6676 157.022 25.5219 157.446 25.449C157.868 25.3762 158.4 25.3391 159.044 25.3391ZM89.0652 31.5974H94.4919V14.0921C95.8047 13.7419 97.1317 13.5674 98.474 13.5674C99.4372 13.5674 100.225 13.6543 100.839 13.8288C101.451 14.0046 101.938 14.3254 102.305 14.7927C102.668 15.2593 102.918 15.894 103.047 16.6962C103.179 17.499 103.245 18.5127 103.245 19.738V31.5974H108.671V19.1685C108.671 17.1557 108.496 15.4779 108.147 14.1356C107.796 12.7939 107.249 11.722 106.505 10.9192C105.761 10.117 104.82 9.54051 103.682 9.19023C102.545 8.8406 101.187 8.66547 99.613 8.66547C98.7373 8.66547 97.8175 8.71596 96.8549 8.81887C95.8917 8.92114 94.9521 9.05984 94.0317 9.23434C93.1144 9.40883 92.2234 9.61401 91.3631 9.84667C90.5027 10.0806 89.7351 10.3286 89.0652 10.5907V31.5974ZM78.6932 31.5973V9.32183H84.1199V31.5973H78.6932ZM81.4513 0.0441012C82.0342 0.0441012 82.5219 0.0728643 82.9169 0.131669C83.3107 0.189835 83.6309 0.313836 83.8789 0.503034C84.1269 0.69351 84.3014 0.962606 84.4049 1.31288C84.5059 1.66251 84.5577 2.13039 84.5577 2.71333C84.5577 3.99744 84.3314 4.82135 83.8789 5.18632C83.4257 5.55129 82.6165 5.73282 81.4513 5.73282C80.2541 5.73282 79.4289 5.55129 78.9776 5.18632C78.5245 4.82135 78.3001 3.99744 78.3001 2.71333C78.3001 2.13039 78.3493 1.66251 78.4529 1.31288C78.5539 0.962606 78.7296 0.69351 78.9776 0.503034C79.225 0.313836 79.5459 0.189835 79.9403 0.131669C80.334 0.0728643 80.837 0.0441012 81.4513 0.0441012ZM68.5621 17.7244C67.6142 20.5253 66.6158 23.3256 65.5649 26.1271C64.7768 23.2386 63.9082 20.3432 62.9616 17.44C62.0117 14.5368 61.0427 11.8312 60.0507 9.32173H54.4042C55.8059 12.6768 57.1252 16.2517 58.3652 20.0434C59.6052 23.8369 60.7794 27.688 61.8884 31.5972H68.5851C70.0725 27.9507 71.5087 24.2383 72.8957 20.4595C74.2802 16.6813 75.5138 12.9689 76.5934 9.32173H71.0792C70.3492 12.1226 69.51 14.9235 68.5621 17.7244ZM42.5889 32.2104C40.8094 32.2104 39.2549 32.0199 37.928 31.6415C36.601 31.2625 35.4984 30.6207 34.6234 29.7157C33.749 28.8118 33.0913 27.5929 32.6541 26.0614C32.2162 24.5293 31.9983 22.6258 31.9983 20.3504C31.9983 18.0742 32.2162 16.1861 32.6541 14.6827C33.0913 13.18 33.7547 11.9847 34.6457 11.0937C35.5349 10.2046 36.6432 9.57758 37.9714 9.21261C39.2984 8.84827 40.8382 8.66547 42.5889 8.66547C44.3677 8.66547 45.9286 8.84827 47.2715 9.21261C48.6125 9.57758 49.7292 10.2046 50.6189 11.0937C51.5099 11.9847 52.1734 13.18 52.6106 14.6827C53.0484 16.1861 53.2664 18.0742 53.2664 20.3504C53.2664 22.6258 53.0484 24.5293 52.6106 26.0614C52.1734 27.5929 51.5099 28.8118 50.6189 29.7157C49.7292 30.6207 48.6125 31.2625 47.2715 31.6415C45.9286 32.0199 44.3677 32.2104 42.5889 32.2104ZM42.5889 13.0419C41.6256 13.0419 40.8311 13.1289 40.2041 13.3046C39.577 13.4798 39.0663 13.8288 38.6726 14.3542C38.2789 14.8796 37.9995 15.6236 37.8404 16.5862C37.6806 17.5488 37.5994 18.8336 37.5994 20.4379C37.5994 21.9841 37.6806 23.2388 37.8404 24.2021C37.9995 25.164 38.2789 25.9157 38.6726 26.4552C39.0663 26.9953 39.577 27.3596 40.2041 27.5495C40.8311 27.7393 41.6256 27.8339 42.5889 27.8339C43.5515 27.8339 44.3607 27.7393 45.0184 27.5495C45.6748 27.3596 46.199 26.9953 46.5921 26.4552C46.9877 25.9157 47.2638 25.164 47.4243 24.2021C47.5841 23.2388 47.6653 21.9841 47.6653 20.4379C47.6653 18.8336 47.5841 17.5488 47.4243 16.5862C47.2638 15.6236 46.9877 14.8796 46.5921 14.3542C46.199 13.8288 45.6748 13.4798 45.0184 13.3046C44.3607 13.1289 43.5515 13.0419 42.5889 13.0419ZM19.9197 31.5974H26.9654V1.09434H21.2333V23.1071C19.2198 19.373 17.1335 15.6453 14.9757 11.9253C12.8159 8.20588 10.6273 4.59578 8.40934 1.09434H0.838867V31.5974H6.48349V8.62135C8.87658 12.4443 11.1962 16.273 13.4435 20.1094C15.6883 23.9464 17.8481 27.7757 19.9197 31.5974Z" fill="black"/>
</svg>
