<svg width="66" height="60" viewBox="0 0 66 60" fill="none" xmlns="http://www.w3.org/2000/svg">
<path d="M66 0H0V60H66V0Z" fill="black"/>
<path d="M2.31056 29.0586V6.57356H6.87528V24.754H11.6706V29.0594H2.31056V29.0586ZM13.9806 29.0586V6.57356H18.5477V29.0586H13.9806ZM30.0661 29.0586H21.1223V6.57356H29.0197C32.4574 6.57356 34.51 9.22392 34.51 12.7085C34.51 15.1681 33.1832 16.7036 31.7854 17.2602C33.398 17.7872 35.0044 19.4126 35.0044 22.6626C35.0044 27.3175 32.861 29.0579 30.0661 29.0579V29.0586ZM28.0246 10.3216H25.7344V15.4738H28.0775C29.045 15.4738 29.8371 14.6114 29.8371 13.1182C29.8371 11.4787 29.0995 10.3216 28.0246 10.3216ZM28.0507 19.1921H25.7344V25.2238H28.1036C29.1247 25.2238 30.1064 24.6375 30.1064 22.2686C30.1064 20.7206 29.3656 19.196 28.0491 19.196L28.0507 19.1921ZM10.4212 35.0974V53.4545H5.85493V35.0974H2.2V30.9694H14.0762V35.0974H10.4212ZM20.8458 53.4545L20.218 49.561H16.9919L16.4201 53.4545H12.3087L16.5062 30.9694H21.36L26.0187 53.4545H20.8458ZM18.3897 39.3427L17.4199 46.4283H19.7039L18.3897 39.3427ZM58.6319 53.4545L58.0041 49.561H54.7819L54.2109 53.4545H50.0979L54.2946 30.9694H59.1476L63.8 53.4545H58.6319ZM56.1758 39.3427L55.206 46.4283H57.4899L56.1766 39.3435L56.1758 39.3427ZM32.5277 35.0974V53.4545H27.9599V35.0974H24.3049V30.9694H36.1827V35.0974H32.5262H32.5277ZM37.7985 53.4545V30.9694H48.0888V35.2147H42.3664V39.8993H47.4713V44.0273H42.3664V49.1506H48.6267V53.4545H37.7993H37.7985ZM36.8239 29.0555V6.57043H47.1143V10.8157H41.3918V15.5004H46.4967V19.6284H41.3918V24.7516H47.6521V29.0555H36.8247H36.8239ZM54.4494 10.3138V15.5707H56.0526C57.6479 15.5707 58.3318 14.029 58.3318 12.7515C58.3318 11.8211 57.6921 10.6984 56.3022 10.3138H54.4494ZM49.7062 6.54541H57.4599C61.1267 6.54541 62.6106 10.1183 62.6106 13.0517C62.6106 13.6435 62.6296 13.9469 62.4906 14.8679C62.2521 16.4198 61.6732 17.3908 60.5265 18.6675C59.9066 19.3649 59.026 19.6893 58.3105 20.02L63.1911 29.0579H58.3579L54.451 21.4V29.0586H49.707V6.54541H49.7062Z" fill="white"/>
</svg>
