<svg width="44" height="40" viewBox="0 0 44 40" fill="none" xmlns="http://www.w3.org/2000/svg">
<path d="M32.3041 21.4804L22.0728 40L11.1092 21.0556C9.98287 27.0629 8.94218 32.611 7.89293 38.2193H0C2.56959 25.428 5.13919 12.7827 7.66595 0.13731L8.24411 0C12.8908 8.03261 17.5589 16.0652 22.3255 24.3338C26.7923 16.091 31.1435 8.04977 35.4989 0H36.257C38.8266 12.6711 41.3961 25.3422 44 38.2793H35.8073C35.8073 38.2793 35.5632 37.3911 35.4518 36.859C34.5268 32.5381 33.7002 28.2 32.8394 23.8661C32.7152 23.2439 32.5482 22.626 32.3041 21.4804Z" fill="black"/>
</svg>
