<svg width="154" height="56" viewBox="0 0 154 56" fill="none" xmlns="http://www.w3.org/2000/svg">
<path d="M0 27.83L76.8016 0L153.603 27.83L76.8016 56L0 27.83Z" fill="#424242"/>
<path d="M122.769 42.9636H127.7V45.5709H122.769V42.9636Z" stroke="black" stroke-width="0.11" stroke-miterlimit="3.864"/>
<path d="M123.393 14.7368L121.636 13.2631L118.462 12.2429V17.5141H116.648V16.6073C116.648 12.9797 114.21 11.8461 111.206 12.2429H110.98C108.542 12.2429 105.652 13.4898 105.652 17.0607V17.5141H103.498V6.74491H98.6801V8.67203H96.583V7.36839L92.0486 9.06879V12.2996H90.8016V14.4534H88.5911C87.6275 12.6396 85.587 12.1295 83.7733 12.1295H83.6032C82.6963 12.1295 81.6761 12.2996 80.8259 12.753C78.2186 11.1093 76.6316 12.6963 75.838 14.34L75.7813 14.2834V12.4696H69.4332V32.3643H64.332V40.8664C64.332 42.34 62.2348 42.3967 62.2348 40.8664V28.8502H68.6963V17.1741C68.6963 13.5465 65.8056 12.3562 63.3117 12.3562H62.6882V11.166H62.6316L66.3158 6.34814H62.3482L60.0243 11.166V13.0931C58.7773 13.8299 57.8137 15.0769 57.8137 17.1741V18.5911H55.4899V17.5141C55.8299 11.336 50.502 11.2226 48.8016 14.7935V6.34814H36.6154V41.2631H31.6275V6.40482H26.0162V45.5708H48.8016V43.9838C49.8785 46.8745 55.4899 46.5911 55.4899 40.583V40.4696H57.8137V40.8097C56.7935 44.6073 60.5911 45.7975 63.0283 45.7975C63.0283 45.7975 68.9797 46.251 68.6963 41.4899V37.749H69.4332V45.6275H75.838V16.5506H75.8947C76.3481 15.9271 77.3117 15.9271 78.3886 16.7206V22.2753H82.753V17.5141C82.753 16.0405 84.8502 15.9838 84.8502 17.5141V23.4089C80.4858 26.1295 78.332 26.9797 78.3886 30.3239V42.6235C78.3886 45.7975 82.2996 47.2145 84.8502 44.0405V45.6275H89.2712V38.5992H92.2186V42.7935C92.2186 46.5911 95.7894 46.1943 98.9069 44.834V45.6275H103.725V39.4494H105.879V40.753C105.879 44.3805 108.826 45.7975 111.887 45.9109C112.964 45.9676 115.798 45.9676 116.818 43.9271V39.4494H118.632V45.5708H130.478V17.4575C130.308 11.3927 124.696 11.2793 123.393 14.7368Z" fill="black"/>
<path fill-rule="evenodd" clip-rule="evenodd" d="M36.5842 6.31689H48.8328V14.6598C49.7087 12.9448 51.4337 12.1174 52.9181 12.4675C54.4404 12.8266 55.6913 14.418 55.5211 17.5149V18.5598H57.7826V17.174C57.7826 15.0735 58.7449 13.8184 59.9931 13.0753V11.1588L62.3286 6.31689H66.3789L62.6947 11.1347H62.7195V12.325H63.3118C64.563 12.325 65.9162 12.6235 66.9576 13.3795C68.0004 14.1366 68.7276 15.3506 68.7276 17.174V28.8813H62.266V40.8663C62.266 41.2413 62.3943 41.5162 62.584 41.6965C62.7741 41.8772 63.0281 41.9651 63.283 41.9616C63.5379 41.9582 63.7923 41.8635 63.9827 41.6807C64.1728 41.4984 64.3008 41.2268 64.3008 40.8663V32.3331H69.402V12.4384H75.8126V14.2704L75.8292 14.287C76.2273 13.4759 76.8205 12.6804 77.6383 12.2856C78.4687 11.8847 79.5237 11.9002 80.8273 12.7169C81.6801 12.2667 82.6987 12.0983 83.6033 12.0983H83.7733C85.585 12.0983 87.6343 12.6061 88.6098 14.4222H90.7705V12.2683H92.0174V9.04711L96.6142 7.32333V8.64078H98.649V6.71366H103.529V17.4829H105.621V17.0606C105.621 15.2655 106.348 14.0517 107.383 13.2876C108.417 12.5245 109.757 12.2116 110.98 12.2116H111.204C112.71 12.0132 114.078 12.1972 115.072 12.8903C116.067 13.5848 116.679 14.786 116.679 16.6072V17.4829H118.43V12.2L121.651 13.2352L123.379 14.6848C124.048 12.969 125.778 12.141 127.367 12.4958C128.972 12.854 130.424 14.414 130.509 17.4565L130.509 17.4574L130.509 45.6019H118.6V39.4805H116.849V43.9344L116.846 43.941C116.33 44.9725 115.356 45.4864 114.381 45.7356C113.406 45.9847 112.425 45.9703 111.885 45.942M36.5842 6.31689V41.2319Z" fill="black"/>
<path d="M24.0323 5.38452H29.0202V39.7327H34.6882V44.0404H24.0323V5.38452Z" fill="white" stroke="black" stroke-width="1.093" stroke-miterlimit="3.864"/>
<path d="M46.7044 13.093C48.0081 9.57885 53.166 9.74889 53.166 15.8137V38.8258C52.9959 45.2307 47.4979 45.5708 46.7044 41.9999V43.927H41.7733V5.38452H46.7044V13.093Z" fill="white" stroke="black" stroke-width="1.093" stroke-miterlimit="3.864" stroke-linecap="round" stroke-linejoin="round"/>
<path d="M48.5749 39.4494C48.5749 40.9231 46.6478 40.9797 46.6478 39.4494V15.6437C46.6478 14.1133 48.5749 14.17 48.5749 15.6437V39.4494Z" fill="black" stroke="black" stroke-width="0.11" stroke-miterlimit="3.864"/>
<path d="M61.8947 30.8905H66.2591V39.2225C66.2591 42.8501 63.3684 44.2104 60.8744 44.2104H60.7044C58.2672 44.2104 55.3765 42.7934 55.3765 39.2225V15.5869C55.3765 11.9594 58.2672 10.7124 60.7044 10.7124H60.8744C63.3684 10.7124 66.2591 11.9594 66.2591 15.5869V27.3197H59.7975V39.4492C59.7975 40.9796 61.8947 40.9229 61.8947 39.4492V30.8905Z" fill="white" stroke="black" stroke-width="1.093" stroke-miterlimit="3.864"/>
<path d="M59.8542 24.3158V15.6437C59.8542 14.1133 61.9513 14.17 61.9513 15.6437V24.3158H59.8542Z" fill="black" stroke="black" stroke-width="0.11" stroke-miterlimit="3.864"/>
<path d="M59.4575 9.12542H62.0081L64.8987 5.72461H61.1012L59.4575 9.12542Z" fill="white" stroke="black" stroke-width="1.093" stroke-miterlimit="3.864"/>
<path d="M73.2307 14.9634C74.1376 13.3764 75.1578 14.2833 76.6315 15.7569C78.0485 17.2306 81.2226 13.3197 78.502 11.3359C75.7813 9.40877 74.0809 11.1092 73.2307 12.8096L73.1741 12.6962V10.9958H68.2996V43.927H73.2307V14.9634Z" fill="white" stroke="black" stroke-width="1.093" stroke-miterlimit="3.864"/>
<path d="M75.7247 38.9959V28.6235C75.668 25.2226 77.8219 24.3724 82.1863 21.6518V15.4737C82.2429 13.8299 80.0891 14 80.0891 15.4737V20.5749H75.7247V15.3603C75.7247 11.7328 78.6154 10.5425 81.0527 10.5425H81.2227C83.7166 10.5425 86.6073 11.7894 86.6073 15.3603V43.9271H82.1863V42.3401C79.6357 45.5141 75.7814 44.4939 75.7247 40.923V38.9959V38.9959Z" fill="white" stroke="black" stroke-width="1.093" stroke-miterlimit="3.864"/>
<path d="M80.3158 28.7366C80.3158 27.263 81.7328 26.4694 82.1862 26.186V39.3925C82.1862 40.8662 80.3158 40.9229 80.3158 39.3925V28.7366Z" fill="black" stroke="black" stroke-width="0.11" stroke-miterlimit="3.864"/>
<path d="M93.749 14.6802H94.996V10.9959H93.749L93.8057 5.95142L89.2713 7.48178V10.9959H88.0243V14.6802H89.2713V41.4332C89.2713 44.9474 93.1255 44.3806 95.166 43.417V40.413C94.3158 40.413 93.8624 39.5627 93.8624 38.2591C93.749 37.4089 93.749 24.1457 93.749 14.6802Z" fill="white" stroke="black" stroke-width="1.093" stroke-miterlimit="3.864"/>
<path d="M96.6964 10.9958H101.174V43.927H96.6964V10.9958ZM96.6964 5.44116H101.457V9.52213H96.6964V5.44116Z" fill="white" stroke="black" stroke-width="1.093" stroke-miterlimit="3.864"/>
<path d="M114.381 30.8908V39.2228C114.381 42.8503 111.547 44.1539 109.109 44.1539H108.939C106.445 44.1539 103.498 42.7936 103.498 39.2228V15.5871C103.498 11.9596 106.389 10.7126 108.883 10.7126H109.053C111.49 10.7126 114.381 11.9596 114.381 15.5871V30.8908Z" fill="white" stroke="black" stroke-width="1.093" stroke-miterlimit="3.864"/>
<path d="M109.96 39.3363C109.96 40.81 107.862 40.8667 107.862 39.3363V15.5307C107.862 14.0003 109.96 14.057 109.96 15.5307V39.3363Z" fill="black" stroke="black" stroke-width="0.11" stroke-miterlimit="3.864"/>
<path d="M123.506 44.0404V15.6437C123.506 14.17 121.522 14.1133 121.522 15.6437V44.0404H116.591V10.9959H121.522V13.1497C122.826 9.69225 127.984 9.80561 127.984 15.8704V43.9837L123.506 44.0404Z" fill="white" stroke="black" stroke-width="1.093" stroke-miterlimit="3.864"/>
<path d="M34.6882 5.38452H39.336V9.52217H34.6882V5.38452ZM34.6882 10.9959H39.2226V44.0404H34.6882V10.9959Z" fill="white" stroke="black" stroke-width="1.093" stroke-miterlimit="3.864"/>
</svg>
