<svg width="184" height="48" viewBox="0 0 184 48" fill="none" xmlns="http://www.w3.org/2000/svg">
<path fill-rule="evenodd" clip-rule="evenodd" d="M91.6843 7.59473V13.3228H91.7123V18.1527V29.0189C91.7123 32.7817 93.7619 34.7753 97.609 34.7753C99.8838 34.7753 101.372 34.1574 102.186 33.4276L101.007 29.2155C100.698 29.5525 99.9115 29.8614 99.097 29.8614C97.8899 29.8614 97.1881 28.8789 97.1881 27.5309V18.1244H101.428V13.3228H97.1881V7.59473H91.6843ZM11.5731 12.8175C5.22722 12.8175 0.734253 17.7034 0.734253 23.7687C0.734253 30.4796 5.56384 34.7759 11.8817 34.8036C15.139 34.8036 18.4246 33.8211 20.5024 31.9116L18.0313 28.2614C16.7113 29.5534 14.2685 30.2829 12.4993 30.2829C8.96141 30.2829 6.88354 28.1491 6.49031 25.5937H22.0468V24.3023C22.0468 17.5068 17.8627 12.8175 11.5731 12.8175ZM6.46231 21.7752C6.68723 19.6973 8.14725 17.3105 11.5731 17.3105C15.195 17.3105 16.599 19.7816 16.7676 21.7752H6.46231ZM37.7152 34.2427L32.9416 27.1949L28.1404 34.2427H22.0468L29.4881 23.5161L22.468 13.3511H28.6456L32.9699 19.7533L37.2663 13.3511H43.4156L36.4518 23.5161L43.8928 34.2427H37.7152ZM103.927 31.5186L106.314 27.5312C107.886 28.9915 110.947 30.4235 113.559 30.4235C115.945 30.4235 117.069 29.5248 117.069 28.2054C117.069 26.8617 115.164 26.477 112.848 26.0093C109.26 25.2846 104.686 24.3607 104.686 19.36C104.686 15.8502 107.718 12.7895 113.249 12.7895C116.76 12.7895 119.567 13.9969 121.646 15.6535L119.427 19.557C118.163 18.265 115.777 17.1419 113.221 17.1419C111.228 17.1419 109.936 18.0126 109.936 19.1637C109.936 20.3137 111.692 20.667 113.884 21.1081C117.527 21.841 122.375 22.8165 122.375 28.0934C122.375 31.9402 119.09 34.7479 113.277 34.7479C109.627 34.7759 106.117 33.5405 103.927 31.5186ZM155.313 12.8175C148.911 12.8175 144.221 17.3665 144.221 23.7687C144.221 30.2272 148.883 34.7759 155.313 34.7476C159.609 34.7476 162.221 32.8387 163.596 30.9291L160.002 27.5595C159.02 28.9915 157.504 29.8617 155.594 29.8617C152.252 29.8617 149.922 27.4192 149.922 23.7687C149.922 20.1182 152.253 17.7034 155.594 17.7034C157.504 17.7034 159.02 18.4896 160.002 19.9499L163.596 16.5803C162.192 14.6708 159.609 12.8175 155.313 12.8175ZM166.18 34.2141V30.1149L175.615 18.1247H166.18V13.3228H183.112V17.2542L173.508 29.4125H183.309V34.2141H166.18ZM120.466 38.9596C123.05 44.2674 128.497 47.6926 134.394 47.6926C140.263 47.6926 145.738 44.2674 148.321 38.9596C148.911 37.7248 148.405 36.2082 147.142 35.5907C146.805 35.422 146.44 35.338 146.047 35.338C145.092 35.338 144.193 35.8993 143.772 36.7694C142.003 40.3916 138.409 42.6384 134.394 42.6384C130.379 42.6384 126.785 40.3916 125.015 36.7694C124.594 35.8713 123.724 35.338 122.741 35.338C122.375 35.338 121.982 35.422 121.646 35.5907C121.028 35.8713 120.578 36.3762 120.354 37.0224C120.129 37.6682 120.185 38.3418 120.466 38.9596ZM51.3058 31.7436V40.0833H45.7741V13.3231H51.3338V15.9905C52.9624 13.9406 55.2649 12.7892 57.8483 12.7892C63.2678 12.7892 67.1989 16.8046 67.1989 23.8527C67.1989 30.9008 63.2678 34.9439 57.8483 34.9439C55.3212 34.9725 53.0747 33.9337 51.3058 31.7436ZM61.4425 23.881C61.4425 20.2588 59.2523 17.7597 56.0794 17.7597H55.7984C53.2433 17.9 51.3058 20.0902 51.3058 22.6176V25.145C51.3058 27.6158 53.159 29.7503 55.6018 30.0026C55.7421 30.0309 55.9108 30.0309 56.0511 30.0309C59.2803 30.0306 61.4425 27.5312 61.4425 23.881ZM70.2315 16.1028C72.8426 13.8003 76.1841 12.8175 79.5537 12.8175C84.4679 12.8175 88.9323 14.7271 88.9606 20.7641V34.2701H83.2882V32.0516C81.8282 33.7931 79.3008 34.7756 76.5211 34.7756C73.1232 34.7756 69.1361 32.5291 69.1361 27.8398C69.1361 22.898 73.1235 21.0727 76.5211 21.0727C79.3851 21.0727 81.8842 21.9712 83.2882 23.6278V20.9884C83.2882 18.8545 81.4353 17.4785 78.5989 17.4785C76.3528 17.4785 74.2186 18.349 72.4496 19.9496L70.2315 16.1028ZM78.7679 31.0414C79.7787 31.0414 80.7894 30.8451 81.6319 30.4796C82.6427 30.0306 83.2605 29.0195 83.2882 27.9242C83.2882 26.8291 82.6427 25.8466 81.6599 25.369C80.8177 24.9481 79.8067 24.7515 78.7679 24.7515C76.5777 24.7515 74.7524 25.9306 74.7524 27.9242C74.7524 29.9183 76.5497 31.0414 78.7679 31.0414Z" fill="black"/>
</svg>
