<svg width="279" height="32" viewBox="0 0 279 32" fill="none" xmlns="http://www.w3.org/2000/svg">
<g clip-path="url(#clip0)">
<path d="M23.9923 21.685C23.7505 23.278 23.2259 24.8149 22.4434 26.2233C21.7746 27.4477 20.8813 28.5353 19.8103 29.4294C18.771 30.3008 17.5637 30.9493 16.2633 31.3346C14.8931 31.7548 13.468 31.9688 12.0349 31.9696C10.3435 31.9963 8.66382 31.6856 7.0939 31.0558C5.64165 30.4429 4.32548 29.5479 3.22168 28.4227C2.43517 27.6652 1.79003 26.7735 1.31655 25.7896C0.87176 24.7998 0.549278 23.7596 0.356244 22.6918C0.157997 21.623 0.038925 20.541 0 19.4546C0 18.293 0 17.1468 0 15.9851C0 14.8234 0 13.6463 0 12.5311C0.0198196 11.4434 0.139064 10.3599 0.356244 9.29392C0.543149 8.22466 0.865863 7.18364 1.31655 6.19615C1.77867 5.20091 2.4251 4.30221 3.22168 3.54755C4.32548 2.42228 5.64165 1.52728 7.0939 0.914445C8.66382 0.28463 10.3435 -0.0260338 12.0349 0.000602098C13.4694 -0.0181634 14.8975 0.196313 16.2633 0.635646C17.5637 1.02096 18.771 1.66942 19.8103 2.54078C20.8924 3.43819 21.7961 4.53107 22.4743 5.76246C23.2569 7.17085 23.7814 8.70776 24.0232 10.3007H16.1084C15.8836 9.43043 15.4594 8.6244 14.8693 7.94639C14.5081 7.58101 14.0715 7.29886 13.5899 7.11962C13.1084 6.94038 12.5935 6.86838 12.0813 6.90864C11.4534 6.89266 10.8296 7.01425 10.2536 7.26488C9.77006 7.48182 9.34525 7.81104 9.01452 8.22519C8.83162 8.47392 8.67095 8.73825 8.53437 9.01512C8.34208 9.41433 8.2215 9.84424 8.17812 10.2852C8.04152 11.0057 7.96382 11.7361 7.94579 12.4691C7.94579 13.383 7.86834 14.5446 7.86834 16.0161C7.86834 17.4875 7.86834 18.6492 7.94579 19.563C7.98375 20.2947 8.06131 21.0237 8.17812 21.747C8.25963 22.1799 8.37883 22.6049 8.53437 23.0171C8.68926 23.2959 8.85963 23.5747 9.01452 23.807C9.33839 24.228 9.76509 24.5587 10.2536 24.7673C10.8296 25.0179 11.4534 25.1395 12.0813 25.1235C12.5935 25.1638 13.1084 25.0918 13.5899 24.9126C14.0715 24.7333 14.5081 24.4512 14.8693 24.0858C15.4594 23.4078 15.8836 22.6018 16.1084 21.7315H24.0077L23.9923 21.685Z" fill="#010101"/>
<path d="M23.9922 30.8538V24.9835L36.2594 6.76864H24.5188V0H45.7076V5.87028L33.3939 24.0852H45.7076V30.8538H23.9922Z" fill="#010101"/>
<path d="M46.8539 30.8074V0H68.5538V6.76864H54.7067V11.9264H66.5402V18.6951H54.7067V24.0852H68.5538V30.8538H46.8539V30.8074Z" fill="#010101"/>
<path d="M94.8383 21.6843C94.5965 23.2773 94.072 24.8142 93.2895 26.2226C92.6206 27.447 91.7274 28.5347 90.6563 29.4288C89.617 30.3001 88.4098 30.9486 87.1094 31.3339C85.7392 31.7541 84.3141 31.9681 82.8809 31.9689C81.1896 31.9956 79.5099 31.6849 77.94 31.0551C76.4877 30.4422 75.1716 29.5473 74.0678 28.422C73.2727 27.6565 72.6221 26.7541 72.1472 25.7579C71.7024 24.7682 71.3799 23.7279 71.1868 22.6601C70.9959 21.5701 70.8872 20.4673 70.8616 19.361C70.8616 18.1993 70.8616 17.0531 70.8616 15.8915C70.8616 14.7298 70.8616 13.5372 70.8616 12.422C70.8981 11.3697 71.0277 10.3227 71.2488 9.29322C71.4357 8.22396 71.7584 7.18294 72.2091 6.19545C72.6741 5.19341 73.326 4.28923 74.1297 3.53137C75.2335 2.40609 76.5497 1.51109 78.0019 0.898258C79.5536 0.281786 81.2114 -0.0234596 82.8809 -9.6174e-05C84.3155 -0.0188617 85.7436 0.195615 87.1094 0.634947C88.4098 1.02026 89.617 1.66872 90.6563 2.54008C91.7385 3.43749 92.6422 4.53037 93.3204 5.76176C94.103 7.17015 94.6275 8.70706 94.8693 10.3H86.97C86.7452 9.42973 86.321 8.6237 85.7309 7.94569C85.3696 7.58031 84.933 7.29816 84.4515 7.11892C83.97 6.93968 83.4551 6.86768 82.9429 6.90794C82.315 6.89196 81.6912 7.01355 81.1152 7.26418C80.6316 7.48112 80.2068 7.81035 79.8761 8.22449C79.6932 8.47322 79.5325 8.73755 79.3959 9.01443C79.2037 9.41363 79.0831 9.84354 79.0397 10.2845C78.9031 11.005 78.8254 11.7354 78.8074 12.4684C78.8074 13.3823 78.7299 14.544 78.7299 16.0154C78.7299 17.4868 78.7299 18.6485 78.8074 19.5623C78.8294 20.2983 78.8914 21.0325 78.9932 21.7618C79.0747 22.1947 79.1939 22.6197 79.3495 23.0319C79.5044 23.3106 79.6747 23.5894 79.8296 23.8218C80.1535 24.2428 80.5802 24.5735 81.0687 24.7821C81.6447 25.0327 82.2685 25.1543 82.8964 25.1383C83.4087 25.1786 83.9235 25.1066 84.405 24.9274C84.8866 24.7481 85.3232 24.466 85.6844 24.1006C86.2745 23.4226 86.6987 22.6165 86.9235 21.7463H94.8229L94.8383 21.6843Z" fill="#010101"/>
<path d="M112.139 30.8538V18.6331H103.822V30.8538H95.9845V0H103.822V11.8645H112.139V0H119.977V30.8538H112.139Z" fill="#010101"/>
<path d="M147.392 21.6844C147.15 23.2774 146.626 24.8143 145.843 26.2227C145.174 27.4471 144.281 28.5348 143.21 29.4289C142.171 30.3002 140.963 30.9487 139.663 31.334C138.293 31.7542 136.868 31.9682 135.435 31.969C133.743 31.9957 132.064 31.685 130.494 31.0552C129.041 30.4424 127.725 29.5474 126.621 28.4221C125.826 27.6567 125.176 26.7542 124.701 25.758C124.256 24.7683 123.934 23.728 123.741 22.6602C123.55 21.5702 123.441 20.4674 123.415 19.3611C123.415 18.1994 123.415 17.0533 123.415 15.8916C123.415 14.7299 123.415 13.5373 123.415 12.4221C123.436 11.3712 123.551 10.3242 123.756 9.29333C123.943 8.22406 124.266 7.18305 124.716 6.19555C125.181 5.19351 125.833 4.28934 126.637 3.53147C127.741 2.40619 129.057 1.5112 130.509 0.89836C132.075 0.275861 133.75 -0.0294936 135.435 5.7071e-06C136.869 -0.0187598 138.297 0.195716 139.663 0.635049C140.963 1.02036 142.171 1.66882 143.21 2.54018C144.292 3.43759 145.196 4.53047 145.874 5.76187C146.657 7.17025 147.181 8.70716 147.423 10.3001H139.524C139.299 9.42983 138.875 8.6238 138.285 7.9458C137.923 7.58041 137.487 7.29826 137.005 7.11902C136.524 6.93979 136.009 6.86778 135.497 6.90804C134.869 6.89206 134.245 7.01365 133.669 7.26429C133.185 7.48122 132.761 7.81045 132.43 8.22459C132.247 8.47332 132.086 8.73765 131.95 9.01453C131.757 9.41373 131.637 9.84364 131.593 10.2846C131.457 11.0051 131.379 11.7355 131.361 12.4685C131.361 13.3824 131.284 14.5441 131.284 16.0155C131.284 17.4869 131.284 18.6486 131.361 19.5624C131.399 20.2941 131.477 21.0231 131.593 21.7464C131.675 22.1793 131.794 22.6043 131.95 23.0165C132.105 23.2953 132.275 23.5741 132.43 23.8064C132.754 24.2274 133.18 24.5581 133.669 24.7667C134.245 25.0173 134.869 25.1389 135.497 25.123C136.009 25.1632 136.524 25.0912 137.005 24.912C137.487 24.7327 137.923 24.4506 138.285 24.0852C138.875 23.4072 139.299 22.6012 139.524 21.7309H147.423L147.392 21.6844ZM164.585 30.7764L158.978 19.3301H156.329V30.7764H148.585V5.7071e-06H161.084C162.675 -0.040866 164.258 0.249224 165.731 0.851893C167.01 1.36616 168.173 2.1296 169.154 3.09778C170.045 3.98171 170.751 5.03495 171.229 6.19555C171.701 7.37218 171.938 8.62978 171.926 9.89739C171.935 10.8733 171.773 11.8432 171.446 12.7628C171.14 13.5836 170.734 14.3639 170.238 15.0862C169.764 15.7339 169.212 16.3216 168.596 16.8364C168.018 17.2784 167.401 17.6672 166.753 17.9981L173.646 30.8383H164.554L164.585 30.7764ZM164.182 9.85093C164.183 9.04045 163.866 8.26197 163.299 7.68248C162.975 7.35806 162.588 7.10394 162.162 6.93604C161.735 6.76813 161.279 6.69005 160.821 6.70669H156.438V12.9022H160.836C161.296 12.9341 161.757 12.8631 162.186 12.6943C162.614 12.5255 163 12.2631 163.315 11.9264C163.591 11.6563 163.81 11.3334 163.959 10.9768C164.108 10.6203 164.184 10.2374 164.182 9.85093ZM198.8 20.5847C198.85 22.9058 198.162 25.1828 196.834 27.0871C195.506 28.9914 193.607 30.4244 191.411 31.1791C189.92 31.7095 188.348 31.9819 186.765 31.9845C185.18 31.9926 183.607 31.7199 182.118 31.1791C180.713 30.6836 179.422 29.9091 178.323 28.9022C177.174 27.8499 176.265 26.5623 175.658 25.1269C175.051 23.6916 174.761 22.1423 174.807 20.5847V5.7071e-06H182.552V20.3988C182.459 21.6416 182.847 22.8724 183.636 23.8374C184.034 24.2499 184.518 24.5704 185.053 24.7764C185.588 24.9824 186.162 25.069 186.734 25.03C187.304 25.0532 187.873 24.9593 188.406 24.7542C188.939 24.5491 189.424 24.2371 189.832 23.8374C190.641 22.8827 191.042 21.6471 190.947 20.3988V5.7071e-06H198.691V20.6002L198.8 20.5847Z" fill="#010101"/>
<path d="M219.648 30.8538L209.797 15.334V30.8538H202.238V0H208.836L218.687 15.5198V0H226.246V30.8538H219.648Z" fill="#010101"/>
<path d="M253.661 21.6844C253.419 23.2774 252.895 24.8143 252.112 26.2227C251.444 27.4471 250.55 28.5347 249.479 29.4288C248.44 30.3002 247.233 30.9487 245.932 31.334C244.562 31.7542 243.137 31.9682 241.704 31.969C240.012 31.9957 238.333 31.685 236.763 31.0552C235.311 30.4423 233.994 29.5473 232.891 28.4221C232.096 27.6566 231.445 26.7542 230.97 25.758C230.525 24.7683 230.203 23.728 230.01 22.6602C229.819 21.5702 229.71 20.4674 229.684 19.3611C229.684 18.1994 229.684 17.0532 229.684 15.8916C229.684 14.7299 229.684 13.5373 229.684 12.4221C229.706 11.3712 229.82 10.3242 230.025 9.29332C230.212 8.22405 230.535 7.18304 230.986 6.19554C231.451 5.1935 232.102 4.28933 232.906 3.53146C234.01 2.40618 235.326 1.51119 236.778 0.898352C238.345 0.275853 240.019 -0.0295019 241.704 -2.52491e-06C243.138 -0.018768 244.567 0.195708 245.932 0.635041C247.233 1.02036 248.44 1.66882 249.479 2.54017C250.561 3.43758 251.465 4.53047 252.143 5.76186C252.926 7.17024 253.45 8.70715 253.692 10.3001H245.793C245.568 9.42982 245.144 8.6238 244.554 7.94579C244.193 7.58041 243.756 7.29825 243.274 7.11902C242.793 6.93978 242.278 6.86778 241.766 6.90803C241.138 6.89205 240.514 7.01364 239.938 7.26428C239.455 7.48121 239.03 7.81044 238.699 8.22459C238.516 8.47331 238.355 8.73764 238.219 9.01452C238.027 9.41372 237.906 9.84363 237.863 10.2846C237.726 11.0051 237.648 11.7355 237.63 12.4685C237.63 13.3824 237.553 14.544 237.553 16.0155C237.553 17.4869 237.553 18.6486 237.63 19.5624C237.668 20.2941 237.746 21.0231 237.863 21.7464C237.944 22.1793 238.063 22.6043 238.219 23.0165C238.374 23.2953 238.544 23.5741 238.699 23.8064C239.023 24.2274 239.45 24.5581 239.938 24.7667C240.514 25.0173 241.138 25.1389 241.766 25.1229C242.278 25.1632 242.793 25.0912 243.274 24.912C243.756 24.7327 244.193 24.4506 244.554 24.0852C245.144 23.4072 245.568 22.6012 245.793 21.7309H253.692L253.661 21.6844Z" fill="#010101"/>
<path d="M270.962 30.8538V18.6331H262.645V30.8538H254.807V0H262.645V11.8645H270.962V0H278.8V30.8538H270.962Z" fill="#010101"/>
</g>
<defs>
<clipPath id="clip0">
<rect width="278.8" height="32" fill="white"/>
</clipPath>
</defs>
</svg>
