<svg width="160" height="160" viewBox="0 0 160 160" fill="none" xmlns="http://www.w3.org/2000/svg">
<path fill-rule="evenodd" clip-rule="evenodd" d="M79.8117 134.052C80.6651 133.268 81.6285 132.339 82.6882 131.267C87.056 126.845 92.5649 120.478 97.995 113.033C103.546 105.424 108.7 97.1135 112.535 88.9144C116.378 80.6975 118.829 72.7324 119.123 65.7665C119.656 44.583 104.018 24.013 79.7905 23.9472C66.2392 23.9103 44.5924 34.091 41.2445 60.33L41.2188 60.5312L41.1847 60.731C40.2046 66.4747 41.4716 74.0715 44.969 83.0015C48.4027 91.7687 53.6217 100.9 59.347 109.28C65.056 117.636 71.0856 124.978 75.9441 130.152C77.3921 131.694 78.6925 132.997 79.8117 134.052ZM130.981 66.1706L130.98 66.187C130.258 84.0578 118.985 104.438 107.557 120.106C101.8 127.998 95.9103 134.822 91.0995 139.692C88.6983 142.123 86.5327 144.101 84.7622 145.489C83.8808 146.18 83.0517 146.761 82.3087 147.181C81.6711 147.541 80.7301 148.003 79.7386 148C78.6779 147.997 77.6655 147.461 76.9824 147.049C76.1784 146.563 75.2724 145.89 74.3023 145.086C72.3537 143.47 69.963 141.172 67.3236 138.361C62.0369 132.73 55.623 124.907 49.573 116.052C43.527 107.203 37.7988 97.2569 33.9324 87.3848C30.0892 77.5717 27.9905 67.5924 29.4836 58.758C33.791 25.2018 61.7941 11.9511 79.8225 12.0001C111.814 12.0871 131.697 39.3725 130.981 66.1543L130.981 66.1706Z" fill="white"/>
<path d="M40.3922 96.2877C39.1807 98.0698 48.8349 129.355 79.8167 129.439C113.745 129.532 119.3 98.7127 119.839 96.5603C119.844 94.5481 98.5566 79.4984 80.0629 79.4481C63.1688 79.4022 41.6318 94.5056 40.3922 96.2877Z" fill="white"/>
<path d="M31.9061 58.4875C31.9061 58.4875 38.7399 74.0364 42.0123 78.183C45.2846 82.3295 54.948 89.2141 54.948 89.2141L49.9171 92.0344C49.9171 92.0344 41.9632 86.0047 39.1097 82.6812C36.2561 79.3576 31.3414 70.2471 31.3414 70.2471C31.3414 70.2471 31.213 65.769 31.3592 63.5872C31.5054 61.4054 31.9061 58.4875 31.9061 58.4875Z" fill="white"/>
<path d="M128.022 58.9754C128.022 58.9754 121.245 74.8841 118.035 78.8713C114.797 82.8585 105.321 89.4927 105.321 89.4927L110.225 92.255C110.225 92.255 118.042 86.4382 120.857 83.2434C123.672 80.0203 127.987 72.1251 127.987 72.1251C127.987 72.1251 128.193 68.5265 128.284 65.9478C128.318 63.794 128.022 58.9754 128.022 58.9754Z" fill="white"/>
<path d="M60.3036 70.5506C62.7354 70.6109 64.7554 68.6691 64.8155 66.2134C64.8756 63.7577 62.953 61.718 60.5213 61.6576C58.0895 61.5973 56.0695 63.5391 56.0094 65.9948C55.9493 68.4505 57.8719 70.4902 60.3036 70.5506Z" fill="white"/>
<path d="M98.2906 68.7261C100.722 68.7865 102.742 66.8446 102.802 64.3889C102.863 61.9332 100.94 59.8936 98.5082 59.8332C96.0765 59.7729 94.0565 61.7147 93.9964 64.1704C93.9363 66.6261 95.8589 68.6658 98.2906 68.7261Z" fill="white"/>
<path d="M60.698 51.7454C63.94 51.8258 69.729 55.3119 67.1027 57.8365C64.4764 60.3611 64.6139 56.5352 60.1451 56.4243C57.7354 56.3645 56.9595 60.3074 54.1399 57.2935C52.2166 55.2757 56.3606 51.6377 60.698 51.7454Z" fill="white"/>
<path d="M98.6192 49.9196C101.861 50 107.65 53.4861 105.024 56.0107C102.398 58.5354 102.535 54.7094 98.0663 54.5985C95.6567 54.5387 94.8807 58.4816 92.0611 55.4677C90.1378 53.4499 94.2819 49.8119 98.6192 49.9196Z" fill="white"/>
</svg>
