<svg width="204" height="60" viewBox="0 0 204 60" fill="none" xmlns="http://www.w3.org/2000/svg">
<path d="M19.7706 59.9181C18.8707 59.551 18.4779 59.2978 18.0723 58.842C17.388 58.0951 17.1091 57.4242 17.1091 56.4873C17.1091 55.6265 17.1978 55.7404 15.9685 55.0062C15.0687 54.4745 14.9673 54.4112 13.7253 53.4997C11.1273 51.588 8.35179 48.5244 6.6789 45.7519C5.94384 44.5113 4.6258 41.5869 4.14421 40.1184C3.54856 38.2954 3.39648 37.6877 3.16836 36.2319C3.0543 35.5103 2.96558 35.3077 2.8135 35.3077C2.36993 35.3077 1.30536 34.6874 0.874468 34.1937C-0.354855 32.7505 -0.266141 30.4844 1.07724 29.2437C1.39408 28.9526 1.77428 28.6614 1.93904 28.5854C2.21785 28.4588 2.21785 28.4209 2.11646 27.3574C1.93904 25.4838 2.17983 22.2303 2.6741 19.9895C2.99093 18.5463 3.94144 15.7865 4.44838 14.8117C4.66382 14.3939 4.66382 14.3813 4.41036 14.0268C3.44717 12.7355 4.66382 10.596 6.248 10.7859C6.71692 10.8492 6.72959 10.8366 7.50267 9.8238C8.55457 8.43124 10.7724 6.25377 12.2045 5.19036C17.8188 1.03799 24.3457 -0.671065 31.1766 0.240431C33.1791 0.506284 34.7506 0.898734 36.6262 1.59502C37.2852 1.83555 38.5399 2.17736 39.4017 2.34194C44.9527 3.41801 49.325 5.67143 52.975 9.35539C54.3944 10.7859 54.7112 11.1531 55.535 12.2924L56.0546 13.014L56.4982 12.8241C57.1825 12.5456 58.5639 12.5963 59.2737 12.9254C61.5802 14.0015 62.0491 17.1031 60.1735 18.7868C59.8313 19.1033 59.4764 19.3565 59.4131 19.3565C59.2737 19.3565 59.261 19.3312 59.7552 21.3821C61.3267 28.0537 60.1101 35.371 56.4982 40.8653C56.1687 41.3844 55.8898 41.8274 55.8898 41.8528C55.8898 41.8907 55.7378 42.0933 55.5603 42.3085C55.3829 42.5111 54.9774 43.2073 54.6605 43.8403C53.6593 45.8406 52.1892 48.094 51.15 49.2207L50.7571 49.6511L51.1753 49.3473C51.4161 49.1827 51.733 48.9548 51.885 48.8536C52.1385 48.6763 54.3564 46.866 54.4958 46.7014C54.5338 46.6634 55.0154 46.2457 55.5603 45.7519C58.1457 43.4732 62.4167 38.9031 64.2543 36.4471C64.4317 36.2066 64.7106 35.8394 64.888 35.6369C65.2302 35.2191 66.5989 33.4214 66.9157 32.953C67.0171 32.8011 67.4987 32.1175 67.9676 31.4339C68.69 30.4084 68.7914 30.1805 68.6266 30.0919C68.2464 29.8641 67.4607 28.4842 67.2959 27.7119C67.0805 26.6991 67.1819 25.2813 67.5367 24.4964C69.0956 20.977 73.8354 20.4832 76.18 23.5849C76.7503 24.3444 77.0545 25.3572 77.0545 26.5219C77.0545 28.5854 76.104 30.0793 74.2283 31.0034C73.4552 31.3832 73.3031 31.4085 72.1499 31.4085C71.3261 31.4085 70.7431 31.3452 70.4516 31.2186L69.9954 31.0287L69.6912 31.4972C67.8282 34.2696 64.1909 38.941 61.8971 41.473C60.7438 42.7389 58.1711 45.3215 56.7009 46.6888C55.649 47.6636 52.5821 50.1575 51.5302 50.8918C51.188 51.1323 50.6811 51.4868 50.3896 51.6893C49.908 52.0311 48.1717 53.1199 46.6763 54.006C46.3214 54.2213 45.2061 54.8036 44.2049 55.2973C39.5031 57.6014 36.246 58.5635 32.0004 58.8674C30.1754 58.994 29.5164 58.9813 27.6915 58.8167C26.5128 58.7154 25.1568 58.5255 24.6752 58.4116L23.8261 58.1837L23.3064 58.7787C23.0276 59.0952 22.5334 59.475 22.2039 59.6269C21.6082 59.8928 20.1508 60.07 19.7706 59.9181ZM31.5188 57.0823C36.1066 56.7279 40.2635 55.3606 43.7107 53.0819C44.2303 52.7401 44.7372 52.4109 44.8513 52.335C44.9653 52.2717 45.0794 52.1831 45.1174 52.1451C45.1554 52.1071 45.4723 51.8539 45.8145 51.588C47.1578 50.5246 50.4656 47.0812 50.1361 47.0812C50.0981 47.0812 49.8066 47.3091 49.4644 47.5876C49.1349 47.8661 48.7927 48.1446 48.7294 48.1953C48.6533 48.2459 48.2731 48.5244 47.8802 48.8282C47.4874 49.1194 47.1198 49.3599 47.0691 49.3599C47.0311 49.3599 46.841 49.4739 46.6509 49.6005C45.637 50.3221 43.622 51.1829 41.5182 51.7906C38.5019 52.6641 34.4084 52.9047 31.1133 52.3983C29.6432 52.1831 27.9703 51.7906 27.6408 51.588C27.5774 51.5501 26.7663 51.4235 25.8285 51.3222C23.3064 51.031 21.9124 50.7778 20.2902 50.3094C16.4755 49.1954 13.2184 47.2584 10.3162 44.372C8.57992 42.625 7.60406 41.3717 6.248 39.1056C5.80443 38.384 5.44958 37.8776 5.44958 38.0042C5.44958 38.498 6.2987 40.7894 7.04643 42.3338C8.04763 44.3974 8.69398 45.4861 9.59379 46.6381C9.75855 46.8533 9.93597 47.0812 9.98667 47.1445C10.671 48.094 12.8382 50.3727 13.8267 51.1956C14.5364 51.7906 16.0446 52.8667 16.9571 53.4237L17.9202 54.0187L18.2878 53.7149C18.8961 53.2085 19.3523 53.0313 20.2141 52.9426C21.849 52.7907 23.129 53.4617 23.8134 54.8289C24.0288 55.2594 24.2063 55.7911 24.2063 56.0189C24.2063 56.3607 24.2696 56.462 24.4977 56.5127C25.5496 56.7405 27.2099 56.9937 28.2998 57.0697C29.0095 57.133 29.6812 57.1836 29.7826 57.1836C29.884 57.1963 30.6697 57.1456 31.5188 57.0823ZM37.6401 50.9551C43.0897 50.3347 48.3872 47.7648 52.2526 43.8657C53.1524 42.9668 53.4692 42.549 53.8241 41.7768C54.4451 40.4349 55.0661 38.4726 55.4716 36.523C55.8138 34.9532 55.8265 34.7001 55.8138 31.6364C55.8138 28.6108 55.7885 28.3069 55.4716 26.8384C54.8886 24.1672 54.0649 21.8505 53.0003 19.9262C52.7722 19.5084 52.506 18.9767 52.4047 18.7615C52.2019 18.3311 51.9991 18.1665 52.1512 18.5716C52.468 19.4072 52.9876 22.3569 53.1017 23.99C53.5833 30.5983 51.6316 36.7383 47.4493 41.8274C43.8881 46.1697 39.0342 49.1194 33.3818 50.3854C32.4693 50.5879 31.5569 50.7652 31.3541 50.7652C31.1513 50.7778 31.5315 50.8538 32.1905 50.9424C33.8761 51.1576 35.7771 51.1576 37.6401 50.9551ZM23.129 49.1321C22.9262 49.0055 22.3813 48.6763 21.925 48.4105C18.9975 46.6888 15.8418 43.6125 13.8774 40.5615C12.9649 39.1309 11.1526 35.2191 11.1526 34.6494C11.1526 34.5608 11.0386 34.1177 10.8865 33.662C10.4429 32.2441 10.1134 29.6109 10.1007 27.4587C10.1007 23.4583 10.8992 20.0148 12.6608 16.4448C13.2564 15.2421 14.6632 12.9001 14.942 12.6469C14.98 12.6089 15.2461 12.3051 15.525 11.9506C15.7911 11.6088 16.4501 10.8746 16.9824 10.3175L17.9329 9.33007L16.7416 10.0517C13.6493 11.9126 10.6964 14.7737 8.6813 17.8374C7.07178 20.306 5.82978 23.319 5.13274 26.4586C4.75254 28.2436 4.73987 28.4335 5.06937 28.5348C5.22146 28.5854 5.63968 28.9146 6.00721 29.2817C6.99574 30.2438 7.32525 31.5098 6.94504 32.8264C6.75494 33.4847 6.19731 34.3329 5.71572 34.6621C5.2975 34.9659 5.2975 35.0292 5.89315 36.2572C8.04763 40.7387 11.8623 44.6506 16.3614 46.9799C18.3258 48.0054 19.8466 48.5624 22.4953 49.2334C22.7108 49.284 23.015 49.3346 23.1924 49.3473C23.5092 49.3599 23.5092 49.3473 23.129 49.1321ZM32.444 48.9422C34.9787 48.4105 37.1585 47.6129 39.0849 46.5495C39.6298 46.2457 40.2001 45.9292 40.3649 45.8532C41.0619 45.4608 42.8616 44.0935 43.9134 43.1314C47.5507 39.7892 49.8953 35.7255 51.0866 30.6869C51.4415 29.1931 51.4922 28.788 51.5429 26.3447C51.5936 24.585 51.5555 23.2937 51.4541 22.6101C51.15 20.5086 50.3262 17.5968 49.6925 16.3562C49.5531 16.065 49.4264 15.7359 49.4264 15.6219C49.4264 15.3561 47.2339 13.1027 46.0806 12.1658C45.5863 11.7734 45.1554 11.4189 45.1174 11.3683C45.0794 11.3303 44.5598 10.9758 43.9641 10.5834C41.0239 8.67177 37.4627 7.29187 34.0155 6.73484C32.1272 6.43101 28.3251 6.43101 26.4241 6.73484C24.257 7.07665 22.7361 7.54506 21.887 8.14006C21.4815 8.43124 21.0252 8.74773 20.8731 8.84901C19.6692 9.68454 17.1725 12.2418 16.184 13.6597C15.5503 14.5712 15.0687 15.3308 14.7139 15.9764C14.4984 16.3688 14.2703 16.7866 14.2069 16.9132C13.5732 18.0652 12.8382 20.1414 12.3693 22.0404C11.5708 25.2813 11.5835 29.4336 12.4073 32.6618C13.3705 36.4471 14.8279 39.3208 17.2739 42.2452C18.5159 43.7391 20.0367 45.119 21.6336 46.233C23.167 47.3091 24.8019 48.1826 26.7409 48.9802C27.6661 49.3599 27.7295 49.3599 29.339 49.3093C30.4162 49.2713 31.4935 49.1447 32.444 48.9422ZM57.5247 35.2951C58.1964 33.548 58.678 31.4465 58.8934 29.3577C59.0582 27.6866 59.0709 27.1042 58.9441 25.4332C58.7794 23.3063 58.716 22.9899 58.2218 21.0529L57.8922 19.7616L57.3473 19.6983C55.6237 19.5084 54.2423 17.9513 54.2423 16.2043C54.2423 15.4953 54.5211 14.4826 54.8126 14.1661C55.0027 13.9635 54.9647 13.8749 54.255 12.9507C51.6062 9.44401 48.007 6.76016 43.7867 5.13972C42.0251 4.46876 41.759 4.44344 42.5701 4.97515C44.6232 6.35505 47.4367 9.19082 48.8181 11.2543C49.3123 11.9759 49.7812 12.6342 49.8573 12.7102C49.946 12.7735 50.3516 13.2419 50.7698 13.723C54.6478 18.2045 56.7897 23.3823 57.2966 29.4589C57.4994 31.7883 57.2459 34.9026 56.7009 37.0168C56.5869 37.4725 57.1192 36.3458 57.5247 35.2951ZM4.6258 22.2683C6.69157 16.4068 10.595 11.5582 15.8418 8.34262C17.3626 7.4058 19.4791 6.41835 21.19 5.836C21.9884 5.57015 22.9262 5.19036 23.2558 5.01313C23.5853 4.82323 23.8894 4.67132 23.9274 4.67132C23.9655 4.67132 24.2823 4.53206 24.6372 4.36748C26.6269 3.43067 29.4404 2.70907 32.1778 2.43055C34.5098 2.19002 34.5098 2.17736 32.1018 1.69629C29.9853 1.27852 27.8309 1.08863 26.2974 1.18991C25.1441 1.27852 24.4597 1.36714 22.2672 1.74693C20.2775 2.08874 16.3361 3.7345 14.321 5.07642C12.1918 6.46899 10.2148 8.26666 8.65596 10.2163L7.71812 11.3936L7.99694 11.8367C8.36447 12.4444 8.3011 13.5711 7.84486 14.1281C7.40129 14.6851 7.14782 14.8117 6.37474 14.8877L5.6777 14.9636L5.31017 15.7865C4.14421 18.3691 3.29509 22.4455 3.29509 25.3572C3.29509 26.9017 3.44718 26.8511 3.8147 25.1673C4.00481 24.3065 4.37234 23.0025 4.6258 22.2683ZM45.485 9.27943C43.7867 7.5324 41.5308 5.86132 38.9074 4.44344L38.0837 4.00035L35.7898 3.93705C33.2297 3.87376 32.2412 3.97503 29.7826 4.55738C28.9208 4.77259 28.1984 4.94983 28.1857 4.96249C28.173 4.97515 29.2249 4.98781 30.5176 5.00047C34.0155 5.01313 37.0191 5.57015 40.0734 6.77282C41.6069 7.38048 43.9261 8.58315 45.0541 9.35539C45.5483 9.68454 45.9665 9.93774 45.9919 9.91242C46.0299 9.87444 45.8018 9.59593 45.485 9.27943Z" fill="black"/>
<path d="M19.7706 59.918C18.8707 59.5508 18.4779 59.2976 18.0723 58.8419C16.8557 57.5 16.7796 55.8162 17.8695 54.2338C18.4018 53.4615 19.1622 53.0438 20.1888 52.9425C21.8744 52.7906 23.1417 53.4615 23.8387 54.8668C24.2063 55.6137 24.2316 55.7529 24.1556 56.4745C23.9021 58.652 22.7615 59.8294 20.7844 59.9433C20.3282 59.9686 19.8719 59.956 19.7706 59.918Z" fill="black"/>
<path d="M1.9517 35.0039C-0.190109 34.0037 -0.671699 30.8641 1.06456 29.2564C1.36872 28.9778 1.73625 28.6867 1.87566 28.6107C2.26854 28.4082 3.53588 28.2942 4.35965 28.3955C6.18463 28.6234 7.48999 30.8135 6.97038 32.7378C6.76761 33.4594 6.22265 34.3076 5.72838 34.6494C4.72718 35.3457 3.04162 35.5102 1.9517 35.0039Z" fill="black"/>
<path d="M71.1994 31.3831C70.1348 31.2439 68.5886 30.2184 67.9296 29.2057C66.789 27.4586 66.9284 24.9394 68.2591 23.3189C70.5657 20.5085 75.1281 21.1035 76.6489 24.4203C77.0798 25.3318 77.1812 26.9522 76.8771 27.9524C76.1547 30.383 73.9368 31.7249 71.1994 31.3831Z" fill="black"/>
<path d="M56.6122 19.5465C55.5857 19.1667 54.8759 18.4831 54.4957 17.483C54.1916 16.6854 54.1662 15.8372 54.4324 14.9637C54.5845 14.4573 54.7872 14.1661 55.3322 13.6724C56.232 12.8495 56.7136 12.647 57.8035 12.647C58.8808 12.647 59.6538 12.9761 60.4016 13.7484C61.6943 15.1029 61.6309 17.445 60.2748 18.6983C59.5651 19.3439 59.413 19.4199 58.4118 19.5971C57.3853 19.7744 57.2205 19.7617 56.6122 19.5465Z" fill="black"/>
<path d="M19.7959 57.3988C19.0608 56.7784 19.2129 55.6011 20.1 55.234C20.6957 54.9808 21.2026 55.0947 21.6082 55.5884C22.6474 56.8164 21.0252 58.4369 19.7959 57.3988Z" fill="white"/>
<path d="M2.83884 32.9151C1.69823 32.2188 2.24319 30.4971 3.58657 30.4971C4.91728 30.4971 5.31016 32.396 4.09351 33.0163C3.68796 33.2189 3.28241 33.1936 2.83884 32.9151Z" fill="white"/>
<path d="M71.2627 28.1424C70.7938 27.9145 70.3756 27.3069 70.2615 26.7372C70.1474 26.1801 70.591 25.256 71.1233 24.9268C72.2132 24.2685 73.734 24.9142 73.9621 26.1422C74.0762 26.7372 73.7213 27.636 73.2271 27.9778C72.7201 28.3449 71.795 28.4209 71.2627 28.1424Z" fill="white"/>
<path d="M57.0431 17.2551C56.2193 16.6728 56.3207 15.4195 57.2459 14.989C58.133 14.5713 59.0582 15.1663 59.0582 16.1537C59.0582 16.6095 58.9821 16.7867 58.6907 17.0905C58.2598 17.521 57.5247 17.5969 57.0431 17.2551Z" fill="white"/>
<path d="M200.422 28.6827C200.072 28.8095 199.74 29.0976 199.559 29.4203L199.385 29.7314V37.3952V45.059L199.513 45.2895C199.659 45.5661 200.002 45.9003 200.288 46.0443C200.44 46.125 200.614 46.1538 200.987 46.1538C201.57 46.1538 201.821 46.0501 202.188 45.6525C202.654 45.1512 202.625 45.8081 202.608 37.3088C202.59 29.8928 202.59 29.7257 202.474 29.501C202.31 29.1725 201.908 28.8095 201.588 28.7C201.273 28.5963 200.69 28.5848 200.422 28.6827Z" fill="black"/>
<path d="M140.424 29.1846C140.101 29.3352 139.755 29.6596 139.584 29.9667C139.461 30.1869 139.455 30.2795 139.437 31.9771L139.42 33.7615H138.674C138.262 33.7615 137.828 33.7904 137.71 33.8194C137.399 33.9063 137.017 34.2134 136.811 34.5436C136.659 34.7811 136.635 34.8912 136.618 35.291C136.588 35.9978 136.853 36.4844 137.434 36.8031C137.74 36.9711 137.787 36.9769 138.591 36.9942L139.426 37.0174V39.6593C139.426 42.5213 139.443 42.6893 139.761 43.5467C139.943 44.0566 140.471 44.8619 140.877 45.2442C141.3 45.644 141.975 46.0785 142.475 46.2697C143.221 46.5536 143.773 46.6347 144.76 46.6115C145.588 46.5941 145.635 46.5883 145.935 46.4261C146.505 46.1133 146.769 45.6556 146.769 44.9893C146.763 44.3404 146.505 43.8827 145.958 43.5699C145.712 43.4251 145.624 43.4135 144.836 43.3787C144.161 43.3497 143.92 43.315 143.708 43.2223C143.368 43.0717 143.033 42.7414 142.868 42.3996C142.751 42.1447 142.745 42.0404 142.727 39.5724L142.71 37.0116L144.167 36.9942L145.624 36.9769L145.935 36.8089C146.505 36.496 146.769 36.0383 146.769 35.3663C146.769 34.8622 146.599 34.4567 146.252 34.1612C145.817 33.7846 145.718 33.7615 144.143 33.7615H142.721L142.704 31.9771C142.686 30.3433 142.674 30.1811 142.569 29.9667C142.422 29.6712 142.099 29.3584 141.805 29.2135C141.453 29.0455 140.765 29.0281 140.424 29.1846Z" fill="black"/>
<path d="M153.631 32.6204C150.598 33.0266 150.461 33.0501 149.852 33.3621C149.465 33.5564 149.266 33.7095 148.873 34.1157C148.464 34.5336 148.344 34.7102 148.122 35.1753C147.035 37.477 148.082 40.0731 150.444 40.9266L150.9 41.0915L152.948 41.1091C155.191 41.1327 155.219 41.1386 155.424 41.4918C155.641 41.8567 155.532 42.3512 155.191 42.5573C155.066 42.6338 154.275 42.7456 151.998 43.0047C150.33 43.1989 148.873 43.3814 148.76 43.4167C148.447 43.505 148.071 43.8406 147.883 44.1879C147.735 44.4646 147.712 44.5647 147.712 44.9767C147.712 45.3947 147.73 45.483 147.889 45.7714C148.105 46.1659 148.441 46.4484 148.851 46.5662C149.141 46.6545 149.255 46.6486 151.992 46.3366C153.552 46.16 155.009 45.9951 155.225 45.9775C157.462 45.7597 159.112 43.4992 158.708 41.2092C158.594 40.5793 158.429 40.1555 158.105 39.6374C157.644 38.9016 156.932 38.3247 156.096 38.0127C155.68 37.8537 155.68 37.8537 153.575 37.8243C151.702 37.8008 151.446 37.7831 151.287 37.6889C150.945 37.5005 150.803 36.9472 151.008 36.6175C151.213 36.2996 151.298 36.2761 154.007 35.9229C155.43 35.7345 156.728 35.5402 156.898 35.4932C157.502 35.3107 157.985 34.6219 157.985 33.9391C157.985 33.3209 157.598 32.6969 157.046 32.432C156.654 32.2378 156.437 32.2495 153.631 32.6204Z" fill="black"/>
<path d="M77.1431 33.2456C76.6824 33.3602 76.2561 33.6409 76.02 33.9846C75.7896 34.3226 75.6513 34.8612 75.7032 35.2507C75.7493 35.6288 76.0257 36.196 76.2561 36.3908L76.4289 36.534L76.2734 36.9178C75.9221 37.7944 75.9048 38.0121 75.9048 41.6327C75.9048 44.8237 75.9105 44.9326 76.0257 45.1846C76.2734 45.7346 76.786 46.0955 77.3793 46.1471C78.0359 46.1987 78.6637 45.8549 78.9748 45.2706C79.1015 45.0472 79.1015 44.9841 79.1303 41.776C79.1591 38.837 79.1706 38.4876 79.2627 38.2527C79.424 37.8459 79.6198 37.548 79.8963 37.296C81.1692 36.1273 83.1794 36.6543 83.7323 38.2985C83.8475 38.6365 83.8533 38.7683 83.8533 41.7072C83.8533 45.2591 83.8418 45.1847 84.3371 45.6716C84.7115 46.0497 85.0859 46.1872 85.61 46.1471C86.2263 46.0955 86.762 45.7174 86.9924 45.1617C87.0673 44.9899 87.0788 44.4915 87.0788 42.0223C87.0788 40.4067 87.1076 38.923 87.1364 38.7224C87.2861 37.6741 88.0695 36.8663 89.112 36.6887C90.1084 36.5225 91.1452 37.0725 91.5945 38.0178L91.773 38.3959L91.8018 41.6614C91.8249 44.6003 91.8421 44.9498 91.9285 45.1445C92.1935 45.7289 92.7061 46.0955 93.3282 46.1471C93.9963 46.1987 94.5838 45.8778 94.9006 45.2763L95.0561 44.9841L95.0734 41.9192C95.0849 40.0057 95.0676 38.6537 95.0331 38.3272C94.7739 36.0986 93.2302 34.2883 91.0242 33.6352C90.3273 33.4289 89.1235 33.3774 88.4035 33.5206C87.4244 33.7211 86.5546 34.1279 85.8462 34.7294L85.4891 35.0273L85.0341 34.6607C84.4869 34.2253 83.5999 33.7727 82.9605 33.6065C82.6495 33.5263 82.2463 33.4748 81.7164 33.4576C80.8467 33.4232 80.288 33.5034 79.6026 33.7612C79.3895 33.8414 79.1706 33.9216 79.1187 33.9388C79.0554 33.956 78.946 33.893 78.8077 33.7555C78.514 33.4576 78.0474 33.2571 77.6097 33.2342C77.4196 33.2284 77.2065 33.2284 77.1431 33.2456Z" fill="black"/>
<path d="M97.8013 33.2907C96.7224 33.5883 96.1533 34.8484 96.6335 35.8576C96.7757 36.1493 97.084 36.4993 97.3448 36.6569L97.493 36.7502L97.2737 37.2111C97.1492 37.4619 96.9773 37.9053 96.8884 38.197L96.7224 38.722L96.7046 44.3225C96.6927 48.1261 96.7046 49.993 96.7461 50.133C96.918 50.6988 97.5405 51.1714 98.2044 51.2239C98.7439 51.2647 99.1292 51.1247 99.5145 50.7397C100.001 50.2613 100.012 50.1971 100.012 47.7003V45.5826L100.505 45.8101C100.771 45.9385 101.257 46.1135 101.583 46.201C102.123 46.341 102.277 46.3527 103.243 46.3527C104.21 46.3527 104.364 46.341 104.891 46.201C109.165 45.075 111.157 40.3147 108.916 36.581C107.992 35.0409 106.391 33.9266 104.571 33.5591C104.05 33.4483 103.818 33.4366 103.065 33.4599C102.022 33.4891 101.334 33.6408 100.516 34.02L100.012 34.2533L99.9295 34.0958C99.7931 33.845 99.4137 33.5183 99.0995 33.3782C98.7379 33.2207 98.1807 33.1857 97.8013 33.2907ZM103.978 36.7969C105.644 37.1877 106.741 38.792 106.45 40.4255C106.142 42.1815 104.393 43.3949 102.68 43.0449C100.866 42.6715 99.7161 40.9972 100.078 39.2646C100.178 38.792 100.51 38.1561 100.854 37.7828C101.666 36.9077 102.846 36.5343 103.978 36.7969Z" fill="black"/>
<path d="M71.6712 33.7564C71.2904 33.9024 70.9846 34.1827 70.7942 34.5564L70.6154 34.9243V40.1566C70.6154 45.2896 70.6212 45.3948 70.7365 45.6517C70.8808 45.9729 71.1981 46.3174 71.5096 46.4868C71.6942 46.586 71.8385 46.6152 72.2308 46.6152C72.7962 46.6152 73.0442 46.5101 73.3904 46.1364C73.8519 45.6459 73.8173 46.1422 73.8346 40.2208L73.8462 34.936L73.6673 34.5681C73.3846 33.9783 72.9058 33.6922 72.2308 33.6922C72.0231 33.6922 71.775 33.7214 71.6712 33.7564Z" fill="black"/>
<path d="M115.63 33.7196C113.124 34.1794 111.122 36.0068 110.497 38.409C110.296 39.179 110.25 40.3571 110.382 41.1214C110.818 43.6212 112.613 45.5636 115.108 46.2417C115.607 46.3739 115.768 46.3911 116.668 46.3911C117.569 46.3911 117.729 46.3739 118.228 46.236C118.532 46.1555 119.014 45.9831 119.289 45.8509C119.639 45.6843 119.8 45.6383 119.817 45.69C119.863 45.8279 120.368 46.3222 120.568 46.4256C121.062 46.6784 121.801 46.6784 122.289 46.4256C122.581 46.2704 122.954 45.8682 123.098 45.5349C123.264 45.1671 123.275 44.4947 123.126 44.1556C122.943 43.7189 122.616 43.3626 122.243 43.173C122.237 43.173 122.335 42.9431 122.467 42.6673C122.593 42.3914 122.765 41.9144 122.851 41.6099C122.983 41.1042 123 40.9547 123 40.018C123 39.0813 122.983 38.9319 122.851 38.4262C122.358 36.6102 121.136 35.1161 119.456 34.3001C118.532 33.8461 117.97 33.7196 116.84 33.6967C116.318 33.6852 115.774 33.6967 115.63 33.7196ZM117.351 36.9723C118.555 37.2596 119.49 38.2193 119.748 39.4376C119.96 40.4375 119.605 41.5524 118.842 42.2937C117.615 43.4833 115.67 43.4718 114.46 42.2592C113.892 41.6903 113.514 40.8111 113.514 40.0468C113.514 39.6387 113.663 39.0411 113.869 38.6216C114.099 38.1561 114.667 37.5584 115.131 37.2998C115.785 36.9263 116.628 36.8056 117.351 36.9723Z" fill="black"/>
<path d="M129.751 33.8083C128.47 34.0769 127.4 34.655 126.47 35.5835C125.64 36.4185 125.09 37.3879 124.763 38.5908C124.628 39.093 124.61 39.2565 124.616 40.1733C124.616 41.0843 124.634 41.2536 124.768 41.7617C125.394 44.0975 127.137 45.8376 129.476 46.4624C129.985 46.5968 130.155 46.6143 131.067 46.6143C131.985 46.6201 132.149 46.6026 132.652 46.4683C133.441 46.2522 134.038 45.9953 134.652 45.5865C135.365 45.1194 135.927 44.5529 136.055 44.1792C136.43 43.0755 135.658 41.9719 134.511 41.9719C134.02 41.9719 133.722 42.1003 133.26 42.5033C132.137 43.4901 130.581 43.6361 129.388 42.8653C127.119 41.3996 127.494 38.0652 130.032 37.1484C130.388 37.0141 130.546 36.9966 131.096 36.9966C132.049 36.9966 132.605 37.2185 133.377 37.9193C134.044 38.5266 135.008 38.5207 135.646 37.9076C136.108 37.4638 136.272 36.8098 136.067 36.2083C135.821 35.4667 134.488 34.4623 133.143 34.001C132.19 33.6798 130.769 33.598 129.751 33.8083Z" fill="black"/>
<path d="M164.371 33.7992C162.668 34.1672 161.233 35.1485 160.306 36.5738C159.921 37.1638 159.805 37.3916 159.589 38.0108C158.953 39.8158 159.175 41.9129 160.166 43.5426C161.053 44.9913 162.423 46.0019 164.12 46.4634C164.622 46.5977 164.785 46.6152 165.701 46.6152C166.616 46.6152 166.779 46.5977 167.281 46.4634C168.43 46.1538 169.462 45.5813 170.191 44.8511C170.663 44.378 170.803 44.0333 170.763 43.4725C170.722 43.0286 170.57 42.7132 170.232 42.3977C169.876 42.0764 169.602 41.9713 169.13 41.9655C168.646 41.9655 168.354 42.094 167.887 42.497C166.552 43.6712 164.674 43.6303 163.449 42.4036C162.895 41.8486 162.493 40.914 162.493 40.1663C162.493 40.0553 162.534 39.7749 162.581 39.553C162.954 37.7655 164.703 36.6322 166.447 37.0411C166.984 37.1697 167.403 37.3916 167.876 37.8122C168.348 38.227 168.651 38.3555 169.165 38.3555C170.004 38.3496 170.693 37.7071 170.763 36.8601C170.803 36.2876 170.663 35.9605 170.168 35.4581C169.445 34.7396 168.453 34.173 167.392 33.8809C166.61 33.6648 165.17 33.6297 164.371 33.7992Z" fill="black"/>
<path d="M176.373 33.8037C173.914 34.3224 171.991 36.1874 171.39 38.6469C171.221 39.3404 171.181 40.4419 171.297 41.1471C171.647 43.2802 172.929 45.0112 174.858 45.9612C175.703 46.375 176.443 46.5615 177.399 46.6081C179.561 46.7072 181.578 45.7689 182.86 44.067C183.74 42.9014 184.154 41.6425 184.154 40.1564C184.154 38.7401 183.828 37.6619 183.041 36.4905C182.114 35.1034 180.511 34.0601 178.856 33.7745C178.174 33.6522 177.026 33.6696 176.373 33.8037ZM178.745 37.1432C180.103 37.6386 180.966 38.9266 180.873 40.3312C180.779 41.8115 179.754 42.9713 178.268 43.2802C177.288 43.4842 176.193 43.1404 175.447 42.3944C174.205 41.153 174.205 39.1481 175.441 37.9125C175.831 37.522 176.437 37.1723 176.962 37.0383C177.457 36.9159 178.25 36.9625 178.745 37.1432Z" fill="black"/>
<path d="M190.234 33.805C187.463 34.4005 185.458 36.6075 185.121 39.4392C184.883 41.4359 185.609 43.4327 187.085 44.8515C187.899 45.628 188.822 46.1535 189.915 46.4512C190.432 46.5914 190.6 46.6089 191.483 46.6147C192.523 46.6206 192.814 46.5797 193.604 46.317C196.457 45.3594 198.293 42.4752 197.962 39.48C197.648 36.6075 195.539 34.3129 192.733 33.7816C192.076 33.6532 190.873 33.6649 190.234 33.805ZM192.128 37.022C193.18 37.2088 194.133 38.0321 194.534 39.0889C194.696 39.5209 194.754 40.3441 194.65 40.8287C194.499 41.5761 193.941 42.3818 193.273 42.8314C192.733 43.1933 192.221 43.3393 191.541 43.3393C190.6 43.3393 189.857 43.0123 189.223 42.3234C187.8 40.782 188.218 38.3123 190.066 37.3373C190.728 36.987 191.39 36.8877 192.128 37.022Z" fill="black"/>
<path fill-rule="evenodd" clip-rule="evenodd" d="M143.671 51.0829H146.119V52.2792H145.477V57.43H146.119V58.6152H143.317V57.43H143.959V53.83H143.937L142.121 58.6152H141.146L139.207 53.83H139.185V57.43H139.861V58.6152H137.147V57.43H137.778V52.2792H137.147V51.0829H139.639L141.711 56.0786H141.733L143.671 51.0829ZM149.764 51.0829H152.91L154.926 57.43H155.535V58.6152H152.566V57.43H153.264L152.943 56.3334H150.65L150.284 57.43H150.993V58.6152H148.113V57.43H148.8L150.506 52.2792H149.764V51.0829ZM151.857 52.4454H151.846L150.96 55.2257H152.677L151.857 52.4454ZM158.825 54.7937C158.825 56.3777 159.356 57.4522 160.697 57.4522C161.084 57.4522 161.439 57.3746 161.76 57.2528V55.9346H160.597V54.7383H163.289V58.2054C162.358 58.5377 161.572 58.726 160.575 58.726C157.983 58.726 157.218 56.9426 157.218 54.7937C157.218 52.6669 157.927 50.9722 160.575 50.9722C161.472 50.9722 162.258 51.0829 163.289 51.3931V53.1654H162.092V52.3125C161.494 52.1906 161.118 52.1685 160.697 52.1685C159.301 52.1685 158.825 53.2983 158.825 54.7937ZM167.21 51.0829H170.356L172.372 57.43H172.981V58.6152H170.012V57.43H170.71L170.389 56.3334H168.096L167.73 57.43H168.439V58.6152H165.559V57.43H166.246L167.952 52.2792H167.21V51.0829ZM169.303 52.4454H169.292L168.406 55.2257H170.123L169.303 52.4454ZM175.329 51.0829H180.569V52.1906L177.013 57.4079V57.43H179.516V56.7654H180.702V58.6152H175.141V57.5076L178.741 52.3014V52.2792H176.526V52.9439H175.329V51.0829ZM182.839 57.43H183.471V52.2792H182.839V51.0829H185.631V52.2792H184.999V57.43H185.631V58.6152H182.839V57.43ZM192.222 51.0829H194.935V52.2792H194.293V58.6152H192.731L189.685 53.8411H189.663V57.43H190.338V58.6152H187.625V57.43H188.256V52.2792H187.625V51.0829H189.74L192.875 56.0676H192.897V52.2792H192.222V51.0829ZM196.929 51.0829H202.711V52.9439H201.526V52.2792H199.089V54.1291H202.158V55.3254H199.089V57.43H201.526V56.7654H202.711V58.6152H196.929V57.43H197.561V52.2792H196.929V51.0829Z" fill="black"/>
</svg>
