<svg width="233" height="56" viewBox="0 0 233 56" fill="none" xmlns="http://www.w3.org/2000/svg">
<path d="M188.506 47.4816C189.365 46.5059 189.829 45.2447 189.806 43.9451C189.805 40.1432 189.803 36.3476 189.801 32.5585V23.0857C189.801 22.9682 189.801 22.8507 189.802 22.7332C189.804 21.7123 189.806 20.692 189.648 19.6773C189.552 18.9736 189.294 18.3017 188.895 17.7141C188.496 17.1265 187.966 16.6391 187.348 16.2899C186.729 15.9407 186.038 15.7392 185.329 15.7012C184.619 15.6632 183.911 15.7896 183.258 16.0706C182.494 16.4 181.736 16.7431 180.978 17.0859C179.553 17.7309 178.13 18.3749 176.668 18.9247C173.738 20.0316 173.275 24.1119 175.616 26.0872C177.151 27.3835 178.814 27.3502 180.511 26.4503C181.218 26.0749 181.423 26.1872 181.423 27.0257C181.397 30.5752 181.394 34.1248 181.391 37.6743C181.389 39.7629 181.388 41.8514 181.381 43.9399C181.376 45.4555 181.872 46.7449 182.979 47.7816C184.636 49.3288 187.025 49.1973 188.506 47.4816Z" fill="black"/>
<path fill-rule="evenodd" clip-rule="evenodd" d="M232.978 14.2934C232.852 11.6621 232.044 9.26404 230.406 7.15898C228.464 4.66623 225.844 3.18391 222.946 2.14892C218.149 0.438555 213.159 0 208.113 0C203.818 0.00888055 199.531 0.360845 195.292 1.05253C185.253 2.63133 175.524 5.21705 166.457 9.94468C162.76 11.8743 159.362 14.1829 156.681 17.4422C153.656 21.1261 151.943 25.2011 152.417 30.0726C152.674 32.6326 153.441 35.1152 154.674 37.3737C156.253 40.3243 158.358 42.8591 160.804 45.1624C164.116 48.2952 167.944 50.8339 172.119 52.667C178.16 55.3352 184.455 56.435 191.054 55.8439C197.807 55.2387 203.96 52.9845 209.599 49.2831C214.279 46.1858 218.501 42.4481 222.144 38.1789C225.405 34.3915 228.253 30.3428 230.346 25.7958C232.018 22.1523 233.176 18.3684 232.978 14.2934ZM220.193 27.1308C217.615 32.6505 214.153 37.7121 209.943 42.1153C207.136 45.0835 204.074 47.7201 200.498 49.7111C197.138 51.5794 193.547 52.7371 189.689 53.0073C182.33 53.523 176.068 51.0022 170.626 46.1816C167.197 43.1433 164.56 39.5559 163.1 35.1827C160.907 28.6096 162.318 22.754 166.757 17.551C170.278 13.4233 174.865 10.8148 179.719 8.62375C186.261 5.67302 193.217 3.74542 200.344 2.9085C202.081 2.7015 203.833 2.55765 205.186 2.63309C209.246 2.6173 212.829 2.99796 216.215 4.50484C220.712 6.5029 222.972 10.0201 223.135 14.8811C223.281 19.221 221.991 23.2522 220.193 27.1308Z" fill="black"/>
<path d="M50.6215 35.2757C52.266 33.9039 53.9036 32.5391 55.5341 31.1813C55.7017 31.0413 55.8676 30.8997 56.0334 30.7582C56.4908 30.3679 56.9471 29.9786 57.4325 29.6271C58.5572 28.8149 59.8888 29.1219 60.5907 30.306C61.0925 31.1568 60.9872 31.9146 60.2205 32.5689C60.0065 32.7512 59.7929 32.9342 59.5793 33.1172L59.578 33.1184L59.5743 33.1215C58.546 34.0025 57.5168 34.8844 56.4359 35.6967C55.7833 36.1861 55.8394 36.5738 56.1815 37.1966C57.2132 39.0844 58.2235 40.9841 59.2337 42.8834L59.2394 42.894C59.7358 43.8273 60.2322 44.7605 60.731 45.6923C61.1574 46.4869 61.1504 47.2711 60.6644 48.0184C60.2152 48.7078 59.4818 48.8393 58.7344 48.7885C57.8834 48.7323 57.3922 48.171 57.0149 47.4658C56.5432 46.586 56.0679 45.7075 55.5927 44.8291C54.691 43.1626 53.7895 41.4964 52.9129 39.8226C52.562 39.1648 52.3549 39.2139 51.7812 39.6069C50.7039 40.3436 50.2863 41.2313 50.4021 42.5434C50.494 43.5986 50.4687 44.6678 50.4435 45.7351V45.7363C50.4355 46.0755 50.4274 46.4153 50.4232 46.7536C50.4074 48.0412 49.5915 48.8253 48.33 48.806C47.1019 48.7867 46.2948 48.0043 46.293 46.7693C46.286 38.8169 46.286 30.8673 46.293 22.9207C46.293 21.6384 47.1124 20.8683 48.3985 20.8753C49.6512 20.8753 50.4197 21.6191 50.4249 22.8891C50.4324 24.8998 50.4319 26.9114 50.4314 28.9227C50.431 30.6823 50.4306 32.4422 50.4355 34.2004C50.4351 34.2678 50.4304 34.3366 50.4256 34.4066C50.4068 34.6804 50.3867 34.9726 50.6215 35.2757Z" fill="black"/>
<path fill-rule="evenodd" clip-rule="evenodd" d="M36.7169 40.3908H32.7727C32.385 40.389 32.1288 40.4294 32.085 40.9399C31.9867 42.2906 32.278 43.4677 33.5061 44.1922C34.7904 44.9483 36.1239 44.9184 37.4222 44.1799C37.8241 43.9366 38.1508 43.5869 38.3662 43.1695C39.0048 42.0485 40.1926 41.731 41.2752 42.3608C42.3121 42.966 42.5367 43.9677 41.9033 45.1535C40.5119 47.762 37.5766 49.0777 34.1834 48.6146C32.7064 48.4186 31.3291 47.7611 30.2481 46.736C29.1671 45.7109 28.4375 44.3706 28.1636 42.9064C27.6872 40.3414 27.6872 37.7107 28.1636 35.1457C28.9075 31.2618 32.1113 28.8375 35.8923 29.0726C39.5873 29.3006 42.3296 32.139 42.656 36.1035C42.7193 36.862 42.7281 37.6242 42.6823 38.384C42.6121 39.6102 41.805 40.368 40.5769 40.3908C39.7183 40.4025 38.8604 40.3986 38.0028 40.3947H38.0017C37.5735 40.3928 37.145 40.3908 36.7169 40.3908ZM32.1262 35.6074L32.1183 35.6544V35.6562C32.0411 36.121 32.1744 36.3596 32.7061 36.3368C33.322 36.3134 33.938 36.3185 34.5539 36.3237C34.8152 36.3259 35.0765 36.328 35.3378 36.328C35.5973 36.3286 35.858 36.3249 36.1185 36.3213C36.6825 36.3134 37.2457 36.3055 37.7942 36.3403C38.596 36.3912 38.6539 36.007 38.496 35.3808C38.1556 34.0335 36.9889 33.1739 35.4098 33.1476C33.7939 33.1196 32.5359 33.9581 32.185 35.3123C32.1592 35.4092 32.1426 35.5087 32.1262 35.6074Z" fill="black"/>
<path fill-rule="evenodd" clip-rule="evenodd" d="M84.0646 40.3823C84.9607 40.4048 85.8586 40.4005 86.7563 40.3962C87.1152 40.3945 87.4746 40.3928 87.8334 40.3928C88.2721 40.3928 88.7107 40.3953 89.1494 40.3978C90.0264 40.4029 90.9032 40.408 91.7793 40.3928C92.9723 40.3647 93.797 39.5297 93.8479 38.3333C93.8742 37.6913 93.8724 37.0475 93.8479 36.4037C93.697 32.5233 90.9494 29.4535 87.3316 29.1114C83.4839 28.7465 80.117 31.1147 79.3555 34.9529C78.8453 37.63 78.8411 40.3789 79.3432 43.0574C79.8696 46.0063 82.4522 48.2587 85.3875 48.6271C88.8422 49.0621 91.774 47.7009 93.1268 45.0362C93.6865 43.931 93.4057 42.9224 92.3758 42.3452C92.1447 42.2037 91.8876 42.11 91.6197 42.0696C91.3517 42.0291 91.0784 42.0429 90.8158 42.1099C90.5533 42.177 90.3068 42.296 90.0911 42.46C89.8754 42.6239 89.6947 42.8295 89.5598 43.0645C88.6422 44.5327 87.1035 45.0801 85.3963 44.5485C83.9208 44.0924 83.1961 42.9118 83.2225 41.1594C83.2295 40.5068 83.4909 40.3682 84.0646 40.3823ZM83.2611 35.6809C83.4049 34.2881 84.6471 33.225 86.2578 33.1549C87.9913 33.0812 89.4054 34.032 89.6475 35.4231C89.7598 36.0686 89.6142 36.4019 88.8562 36.344C88.3012 36.302 87.7429 36.3118 87.1842 36.3215C86.9269 36.3261 86.6694 36.3306 86.4122 36.33C86.168 36.33 85.9237 36.3284 85.6794 36.3268C85.0794 36.3228 84.4787 36.3188 83.8804 36.3388C83.3821 36.3546 83.2084 36.1914 83.2611 35.6809Z" fill="black"/>
<path fill-rule="evenodd" clip-rule="evenodd" d="M140.137 40.3965C139.25 40.4031 138.363 40.4096 137.476 40.3805C136.823 40.3594 136.543 40.5226 136.555 41.2383C136.572 42.9943 137.3 44.1257 138.818 44.5608C140.515 45.0467 142.02 44.4924 142.897 43.0486C143.034 42.8151 143.215 42.611 143.431 42.4481C143.647 42.2852 143.893 42.1667 144.155 42.0997C144.417 42.0326 144.689 42.0182 144.957 42.0574C145.224 42.0965 145.482 42.1884 145.713 42.3277C146.708 42.882 146.996 43.8644 146.484 44.959C145.317 47.45 142.569 48.8744 139.315 48.6779C135.997 48.4797 133.198 46.1343 132.647 42.8574C132.191 40.2909 132.196 37.6634 132.662 35.0985C133.63 30.0744 138.948 27.5255 143.334 29.9183C145.831 31.2831 146.943 33.5583 147.178 36.3124C147.219 36.9549 147.222 37.5992 147.187 38.2421C147.142 39.5384 146.315 40.3471 145.02 40.391H141.16C140.819 40.3915 140.478 40.394 140.137 40.3965ZM136.676 35.2441C136.634 35.4136 136.604 35.586 136.586 35.7599C136.534 36.1598 136.678 36.3458 137.116 36.33C137.692 36.3195 138.274 36.323 138.858 36.3265C139.15 36.3282 139.443 36.33 139.736 36.33H142.094C143.032 36.3265 143.19 36.1019 142.908 35.1775C142.525 33.9267 141.29 33.1408 139.767 33.1496C138.244 33.1583 137.027 33.9846 136.676 35.2441Z" fill="black"/>
<path d="M0 26.7889C0 23.1155 2.24053 20.8754 5.88467 20.8754C6.76086 20.8754 7.63706 20.8738 8.51325 20.8723L8.51646 20.8723C10.271 20.8691 12.0255 20.866 13.78 20.8754C15.0872 20.8859 15.7311 21.4543 15.8855 22.6296C16.0609 23.9926 15.2872 24.9101 13.9028 24.9101C12.1885 24.9206 10.4741 24.9171 8.75872 24.9136C7.90057 24.9118 7.04175 24.9101 6.18294 24.9101C4.76002 24.9101 4.20033 25.4486 4.18629 26.8397C4.18072 27.3508 4.18373 27.862 4.18674 28.3734C4.19131 29.1487 4.19588 29.9242 4.1705 30.699C4.1512 31.3376 4.33192 31.5761 5.00566 31.5603C6.69877 31.52 8.39715 31.5165 10.0938 31.5603C11.6255 31.6042 12.3361 32.4655 12.1711 33.9513C12.0536 35.0039 11.4114 35.6021 10.2815 35.6179C8.52699 35.6459 6.77246 35.6547 5.01794 35.6179C4.36175 35.6038 4.16699 35.8126 4.17226 36.4669C4.20033 39.8256 4.20033 43.1861 4.17226 46.5484C4.16349 48.15 3.43009 48.8464 1.9212 48.771C0.629874 48.7307 0.0245633 48.0658 0 46.6905V26.7889Z" fill="black"/>
<path d="M111.951 42.7144C111.95 42.0422 111.949 41.3699 111.949 40.698C111.949 40.0047 111.953 39.3118 111.957 38.6198V38.6139C111.964 37.2928 111.972 35.9745 111.947 34.6635C111.884 31.7006 109.947 29.5394 107.035 29.2254C105.523 29.057 103.997 29.057 102.485 29.2254C99.4886 29.5745 97.6305 31.4743 97.5428 34.5074C97.4416 37.944 97.4593 41.3916 97.4771 44.837V44.8399C97.4806 45.5142 97.4841 46.1884 97.4866 46.8624C97.5007 48.0833 98.3639 48.8289 99.6061 48.8148C100.81 48.8008 101.608 48.0044 101.608 46.7659V40.5437C101.608 39.9589 101.606 39.3742 101.603 38.7894C101.599 37.62 101.594 36.4505 101.608 35.281C101.627 33.8706 102.187 33.3303 103.591 33.3303C104.496 33.3198 105.401 33.3198 106.307 33.3303C107.096 33.3391 107.545 33.7829 107.721 34.5162C107.791 34.889 107.821 35.2684 107.809 35.6476C107.814 37.317 107.813 38.9863 107.812 40.6556C107.811 42.6964 107.81 44.7373 107.821 46.7782C107.828 48.0605 108.681 48.8341 109.949 48.8025C111.165 48.7727 111.949 47.9851 111.949 46.7448C111.955 45.4034 111.953 44.0589 111.951 42.7144Z" fill="black"/>
<path d="M119.846 38.8929V41.5242C119.846 43.0785 120.669 44.1801 122.103 44.5713C123.757 45.0239 125.296 44.4906 126.094 43.189C126.857 41.9452 128.212 41.6733 129.287 42.5505C130.021 43.1469 130.216 43.9538 129.814 44.8309C129.151 46.3212 127.928 47.4908 126.41 48.0868C121.589 50.034 116.079 47.364 115.751 41.7119C115.63 39.7575 115.639 37.7972 115.779 35.8441C116.013 32.7707 117.606 30.5288 120.546 29.5289C123.559 28.5009 126.373 28.9605 128.714 31.3059C129.123 31.7245 129.462 32.206 129.719 32.7321C130.284 33.8548 130.003 34.8635 128.975 35.4318C128.744 35.5709 128.487 35.6625 128.22 35.7013C127.953 35.7401 127.68 35.7252 127.419 35.6576C127.158 35.59 126.912 35.471 126.698 35.3075C126.483 35.144 126.303 34.9394 126.168 34.7056C125.908 34.2842 125.562 33.9221 125.154 33.6426C124.745 33.3631 124.282 33.1725 123.795 33.083C123.308 32.9936 122.808 33.0073 122.327 33.1233C121.845 33.2393 121.394 33.4551 121.001 33.7565C120.257 34.3161 119.841 35.0494 119.852 36.0037C119.858 36.5998 119.854 37.2021 119.851 37.8054C119.849 38.1679 119.846 38.5308 119.846 38.8929Z" fill="black"/>
<path d="M72.7828 30.8513L69.951 39.961L69.7738 39.9785L69.718 39.8214C69.6337 39.5845 69.5481 39.3439 69.472 39.1014C69.1482 38.0739 68.8261 37.0457 68.504 36.0173L68.5037 36.0163L68.499 36.0014L68.4983 35.9993C67.9584 34.2755 67.4183 32.5515 66.8701 30.8303C66.4367 29.4672 65.3805 28.8848 64.1032 29.2673C62.8785 29.6339 62.4118 30.5882 62.8434 31.981C64.3897 36.9724 65.9483 41.9602 67.5192 46.9445C67.9298 48.2497 68.6684 48.8075 69.851 48.804C71.0335 48.8005 71.7336 48.2462 72.16 46.92C72.608 45.5264 73.0412 44.1294 73.4743 42.7326L73.4785 42.7191C73.5799 42.3921 73.6813 42.065 73.7829 41.738C74.811 38.4202 75.841 35.1018 76.8726 31.7828C77.1411 30.9145 77.0007 30.1602 76.2445 29.5935C75.8745 29.3282 75.4343 29.178 74.9792 29.1618C74.5241 29.1455 74.0744 29.264 73.6864 29.5023C73.1811 29.8198 72.9583 30.3075 72.7828 30.8513Z" fill="black"/>
<path d="M14.4169 38.698V31.2478C14.4169 29.5357 14.7678 29.1638 16.4503 29.1743C16.9417 29.1743 17.4339 29.1937 17.9263 29.2132C18.7807 29.247 19.6353 29.2808 20.4857 29.2129C23.0596 29.0076 25.7669 31.1232 25.9634 34.5352C25.9762 34.7691 25.9719 35.0029 25.9677 35.2368C25.9655 35.3537 25.9634 35.4708 25.9634 35.5877C25.9634 36.9823 25.23 37.7507 23.9106 37.7612C22.5912 37.7717 21.8297 37.0121 21.7876 35.6298C21.7839 35.5175 21.7847 35.4045 21.7856 35.2916C21.7871 35.0818 21.7887 34.872 21.7613 34.6668C21.6086 33.509 19.712 32.6669 18.7646 33.3318C18.5387 33.4895 18.5633 33.7184 18.587 33.9396C18.5945 34.0087 18.6018 34.0771 18.6014 34.1422C18.5926 38.319 18.5838 42.4976 18.6014 46.6762C18.6014 47.5252 18.3154 48.1707 17.5732 48.5549C17.2122 48.7546 16.8018 48.8476 16.3899 48.8231C15.978 48.7985 15.5815 48.6575 15.2467 48.4163C14.5993 47.9848 14.4133 47.3305 14.4151 46.5884C14.4209 43.9583 14.4215 41.3281 14.4169 38.698Z" fill="black"/>
</svg>
