<svg width="170" height="60" viewBox="0 0 170 60" fill="none" xmlns="http://www.w3.org/2000/svg">
<path d="M92.188 29.0103C92.5306 27.9632 92.7905 27.0052 93.189 25.2211C93.2402 25.2173 93.2918 25.2126 93.343 25.2078C92.5023 32.8937 90.0731 38.1804 87.1852 38.1804C83.618 38.1804 80.721 29.6376 80.721 19.0977C80.721 8.55031 83.618 0 87.1852 0C89.9708 0 92.2557 4.5832 93.1682 11.8644C92.4576 7.58849 91.1673 5.28089 89.5771 5.28089C87.2784 5.28089 85.409 11.4208 85.409 18.9858C85.409 26.5535 87.2715 32.9001 89.5745 32.9001C90.4039 32.9001 91.3122 31.6661 92.188 29.0103Z" fill="black"/>
<path d="M8.59605 46.8703C10.296 46.8703 11.8468 47.3416 13.6559 48.3976V46.1385C11.6534 45.3003 10.1239 44.9322 8.61683 44.9322C3.94372 44.9322 0.5625 48.2032 0.5625 52.6826C0.5625 55.7608 2.9747 60 8.4879 60C10.7909 60 12.3635 59.4621 13.8061 58.7101V56.4079C12.1483 57.4837 10.3397 58.0631 8.68182 58.0631C5.15035 58.0631 2.73763 55.7816 2.73763 52.4882C2.73763 49.2583 5.23613 46.8703 8.59605 46.8703Z" fill="black"/>
<path d="M18.6087 45.1256V47.0204H27.372L18.0275 59.8067H31.2711V57.9134H21.9249L31.2711 45.1256H18.6087Z" fill="black"/>
<path d="M44.8807 47.0204H38.6568V51.4561H44.6655V53.3499H38.6568V57.9134H45.0741V59.8067H36.5456V45.1256H44.8807V47.0204Z" fill="black"/>
<path d="M57.778 46.8703C59.4806 46.8703 61.0303 47.3416 62.8395 48.3976V46.1385C60.8375 45.3003 59.308 44.9322 57.7999 44.9322C53.1273 44.9322 49.7456 48.2032 49.7456 52.6826C49.7456 55.7608 52.1583 60 57.672 60C59.975 60 61.5476 59.4621 62.9902 58.7101V56.4079C61.3319 57.4837 59.5238 58.0631 57.8654 58.0631C54.3339 58.0631 51.9217 55.7816 51.9217 52.4882C51.9217 49.2583 54.4202 46.8703 57.778 46.8703Z" fill="black"/>
<path d="M80.9283 59.8067H78.8176V53.4133H70.5917V59.8067H68.4805V45.1256H70.5917V51.5185H78.8176V45.1256H80.9283V59.8067Z" fill="black"/>
<path d="M89.4327 59.8067H87.3226V45.1256H89.4327V59.8067Z" fill="black"/>
<path d="M109.396 59.8067H107.586L97.7683 48.5063V59.8067H95.7861V45.1256H97.4674L107.413 56.4915V45.1256H109.396V59.8067Z" fill="black"/>
<path d="M120.27 59.9372H120.701L126.926 45.1256H124.836L120.441 55.4365L116.029 45.1256H113.919L120.27 59.9372Z" fill="black"/>
<path d="M139.888 47.0204H133.665V51.4561H139.672V53.3499H133.665V57.9134H140.082V59.8067H131.553V45.1256H139.888V47.0204Z" fill="black"/>
<path d="M149.299 46.8276C150.289 46.8276 151.495 47.1722 152.743 48.3555V45.966C151.709 45.2768 150.592 44.9322 149.471 44.9322C146.779 44.9322 145.013 46.4617 145.013 48.8514C145.013 51.0069 146.833 52.1067 148.525 53.1288C149.993 54.0161 151.365 54.8449 151.365 56.255C151.365 57.0747 150.612 58.1073 148.975 58.1073C147.532 58.1073 146.176 57.3532 145.098 55.9759V58.6457C146.328 59.5702 147.62 60 149.213 60C151.581 60 153.326 58.324 153.326 56.0191C153.326 53.39 151.314 52.2541 149.554 51.2609C148.187 50.4894 146.973 49.8039 146.973 48.5712C146.973 47.5375 147.941 46.8276 149.299 46.8276Z" fill="black"/>
<path d="M169.563 47.0204H164.479V59.8067H162.369V47.0204H157.287V45.1256H169.563V47.0204Z" fill="black"/>
<path d="M79.8362 20.0094C74.6602 19.078 72.8473 17.9756 72.8473 16.8641C72.8473 15.5391 75.9068 14.3845 80.0924 13.7241C80.0993 13.6422 80.1084 13.5591 80.1169 13.4765C73.2554 14.4112 68.1614 16.503 68.1614 18.9219C68.1614 20.8381 71.4436 23.2203 80.0807 24.3408C79.9433 22.9173 79.8618 21.4596 79.8362 20.0094Z" fill="black"/>
<path d="M102.363 16.7895C102.104 14.5555 94.3775 13.3391 94.3775 13.3391C103.259 14.1097 107.321 16.8428 107.321 18.8298C107.321 22.0907 98.6111 24.7705 87.8463 24.794C87.4483 24.794 87.3216 24.7895 87.1459 24.7833C87.0367 24.7795 86.9086 24.775 86.6849 24.7705C86.5006 23.4956 86.3749 22.0614 86.3237 20.4711C86.4664 20.4788 86.5774 20.4853 86.6707 20.4908C87.0181 20.511 87.1206 20.517 87.695 20.517C95.7956 20.4935 102.363 18.8298 102.363 16.7895Z" fill="black"/>
</svg>
