<svg width="380" height="40" viewBox="0 0 380 40" fill="none" xmlns="http://www.w3.org/2000/svg">
<path d="M229.648 39.9199C229.341 39.8575 228.777 39.718 228.394 39.6088C228.011 39.4996 227.258 39.3603 226.721 39.2993C226.183 39.2378 225.306 39.025 224.771 38.8256C222.54 37.9933 221.431 37.5019 221.431 37.3455C221.431 37.2538 221.243 37.1793 221.013 37.1793C220.783 37.1793 220.365 37.0052 220.084 36.7924C219.803 36.5797 218.966 36.0077 218.224 35.5212C212.45 31.7361 208.71 24.9274 209.277 19.2345C209.698 15.0174 210.35 13.1119 212.348 10.2634C212.978 9.36647 213.665 8.36547 213.875 8.03896C214.32 7.34849 220.198 2.6924 220.625 2.6924C220.783 2.6924 221.437 2.41609 222.077 2.07833C224.891 0.594362 226.506 0.273057 231.946 0.11405C234.237 0.0459879 235.358 0.0913596 235.358 0.247997C235.358 0.376553 235.784 0.481677 236.305 0.481677C237.22 0.481677 240.913 1.74991 242.814 2.71688C244.067 3.3544 244.949 3.14058 245.666 2.02567C246.193 1.20626 247.072 0.849975 247.431 1.31092C247.661 1.60624 247.747 14.0683 247.521 14.3538C247.288 14.6485 246.464 14.7056 245.479 14.4959C244.984 14.3904 244.819 14.1052 244.558 12.896C244.234 11.3991 243.257 8.94287 242.833 8.56172C242.705 8.44638 242.6 8.20486 242.6 8.02534C242.6 7.49568 240.103 4.72485 239.011 4.04309C236.939 2.74942 235.876 2.47036 233.071 2.4834C229.906 2.49757 228.618 2.8636 226.796 4.26456C224.854 5.75694 223.471 8.07647 222.722 11.093C220.751 19.0385 221.829 29.986 224.97 33.9355C226.044 35.2859 227.974 36.6094 229.507 37.047C231.622 37.6505 235.542 37.4748 237.587 36.6851C239.525 35.9369 240.619 35.2168 242.042 33.7538C243.3 32.4595 244.656 29.7456 244.97 27.8944C245.319 25.8352 245.481 25.6477 246.847 25.7262L248.031 25.7943L248.016 27.3437C248.008 28.196 247.832 29.3898 247.625 29.9967C247.17 31.3318 245.915 33.931 245.652 34.0843C245.548 34.1448 245.259 34.4934 245.009 34.8582C244.76 35.2229 244.147 35.881 243.647 36.3206C242.647 37.2009 238.978 39.1689 238.337 39.1689C238.115 39.1689 237.464 39.3244 236.891 39.5143C235.849 39.8598 230.76 40.1448 229.647 39.9199H229.648ZM302.068 39.7119C296.518 38.3348 294.067 37.1915 290.718 34.4161C286.71 31.0945 284.494 27.4368 283.55 22.5887C282.634 17.876 284.354 12.3172 288.039 8.08613C289.588 6.30845 293.404 3.32879 294.727 2.86379C295.165 2.71009 295.522 2.5093 295.522 2.41732C295.522 2.32562 295.66 2.25017 295.828 2.25017C295.995 2.25017 296.465 2.06907 296.872 1.84768C299.649 0.335541 306.84 -0.497108 310.061 0.320406C310.781 0.503139 311.444 0.593404 311.535 0.521276C311.626 0.449432 312.228 0.600703 312.873 0.858019C313.518 1.11534 314.645 1.55877 315.377 1.84331C317.751 2.76566 321.897 5.50135 323.649 7.30077C326.043 9.76096 328.123 13.5905 328.657 16.5247C329.905 23.3778 327.476 29.552 321.591 34.4867C319.01 36.6506 314.656 38.7368 311.121 39.5039C308.753 40.0176 303.762 40.1323 302.068 39.7119V39.7119ZM309.731 36.9904C314.557 35.179 316.513 30.3053 316.489 20.1569C316.464 9.6752 314.469 4.55194 309.772 2.90273C308.213 2.35558 304.012 2.28762 303.166 2.79582C302.868 2.97439 302.415 3.12357 302.158 3.12744C301.419 3.13974 299.325 4.8813 298.465 6.202C296.802 8.75428 295.818 13.9632 295.807 20.2675C295.801 23.701 296.381 28.6663 297.01 30.5674C298.299 34.4652 300.77 36.8368 304.157 37.4267C305.751 37.7042 308.376 37.4986 309.731 36.9904V36.9904ZM0.757174 38.9699C0.565913 38.9208 0.317336 38.7722 0.204781 38.6383C-0.126216 38.245 -0.037876 37.0316 0.33979 36.7841C0.531284 36.6586 1.8262 36.5632 3.21738 36.572C4.60857 36.5815 5.89333 36.5163 6.07242 36.4286C6.47018 36.2335 6.53827 4.0948 6.14197 3.59803C5.96083 3.37086 5.19631 3.28115 3.29121 3.26337C1.85942 3.25016 0.531277 3.15996 0.339785 3.06316C-0.0470498 2.86785 -0.124343 1.63214 0.223087 1.19777C0.398004 0.979116 3.02263 0.931469 12.4049 0.976655L24.3638 1.03431L24.4482 2.07219C24.5322 3.10704 24.5295 3.11052 23.5206 3.26083C22.964 3.34402 21.5845 3.36435 20.455 3.30624C19.2159 3.2429 18.2857 3.29303 18.1098 3.4331C17.7693 3.70328 17.6874 36.5003 18.0272 36.5397C19.9017 36.757 22.1937 36.6646 24.2109 36.2908C27.1235 35.751 27.539 35.5954 29.697 34.237C32.4176 32.5246 33.8782 29.6697 34.0024 25.8218C34.0543 24.2127 34.2933 23.9144 35.5298 23.9144C37.0536 23.9144 36.9675 23.1514 36.8078 35.2411L36.759 38.9409L18.932 38.9995C9.12715 39.0316 0.948521 39.0184 0.757258 38.9693L0.757174 38.9699ZM40.2166 38.9463C39.4737 38.8441 39.3979 38.7484 39.3216 37.8149L39.2382 36.7952L40.6643 36.6863C43.4443 36.4744 44.9765 35.1188 46.76 31.2934C48.3031 27.9836 49.5714 25.348 50.098 24.3569C50.3887 23.8098 50.8173 22.9642 51.0503 22.4778C51.5883 21.3552 53.9586 16.4799 55.7795 12.7507C56.5514 11.17 57.3505 9.56327 57.5554 9.18013C57.7603 8.79699 57.9279 8.41782 57.9279 8.33738C57.9279 8.25703 58.2198 7.67528 58.5765 7.04446C58.9333 6.41365 59.4544 5.35034 59.7346 4.68161C60.0148 4.0129 60.5308 2.94345 60.8812 2.30508L61.5183 1.14452H63.7278C66.1118 1.14452 66.2251 1.19271 66.8438 2.47099C67.0498 2.89648 67.4944 3.74209 67.8317 4.35003C68.1691 4.95806 68.9035 6.40051 69.4639 7.5555C70.0242 8.71069 70.5968 9.85471 70.7363 10.0978C70.8758 10.341 71.3818 11.3358 71.8608 12.3086C72.3398 13.2812 72.8979 14.3258 73.1009 14.6298C73.3039 14.9337 74.3515 16.9234 75.4289 19.0512C80.0406 28.1592 83.202 34.2462 83.7136 35.0023C83.932 35.325 84.1106 35.7444 84.1106 35.9341C84.1106 36.5174 85.1137 36.7484 87.3757 36.686L89.5422 36.6265V37.7318V38.8373L88.0102 38.9477C87.1676 39.0082 81.7482 39.0309 75.967 38.9978L65.4558 38.9373L65.2827 38.3897C65.1875 38.0886 65.1844 37.6055 65.2761 37.316C65.4319 36.8233 65.6096 36.7799 68.0712 36.6335C69.6458 36.5399 70.7487 36.3741 70.8213 36.2201C70.987 35.8688 67.7251 29.2915 67.0485 28.6125C66.8402 28.4036 64.9215 28.3362 59.1782 28.3362C50.365 28.3362 50.8758 28.209 49.8691 30.6575C49.5192 31.5086 48.9939 32.6257 48.7017 33.1398C48.3144 33.8215 48.2199 34.3193 48.3528 34.9786C48.6048 36.2294 49.3728 36.5829 51.8902 36.6072L53.8892 36.6261L53.9742 37.6783C54.0318 38.3931 53.9425 38.7648 53.6956 38.837C53.1874 38.9855 41.2078 39.0826 40.2166 38.9462L40.2166 38.9463ZM65.485 25.6236C65.6347 25.4113 65.341 24.6084 64.6474 23.3345C64.0599 22.2554 62.725 19.5818 61.6809 17.3932C60.6368 15.2047 59.6633 13.2896 59.5175 13.1376C59.0379 12.6377 58.5335 12.848 58.1926 13.6903C57.7716 14.7303 54.9525 20.4816 54.4271 21.3724C53.5571 22.8475 52.6356 24.9044 52.6356 25.3713C52.6356 25.6443 52.7923 25.9188 52.9838 25.9814C53.1753 26.0448 56.0145 26.0627 59.2932 26.023C64.1986 25.9634 65.2952 25.8928 65.485 25.6237V25.6236ZM159.302 38.8481C158.926 38.5488 158.975 37.0964 159.372 36.7811C159.556 36.6351 160.214 36.5115 160.834 36.5064C162.179 36.4951 163.45 35.9865 164.4 35.0788C165.118 34.3922 165.416 33.8668 167.409 29.7731C168.06 28.4357 168.699 27.2468 168.829 27.1313C168.959 27.0158 169.065 26.7409 169.065 26.5203C169.065 26.2999 169.187 25.9467 169.337 25.7356C169.738 25.1686 170.81 23.0305 172.135 20.1566C172.78 18.7583 173.543 17.1969 173.832 16.6868C174.121 16.1767 174.358 15.6904 174.358 15.6061C174.358 15.5219 175.126 13.8996 176.066 12.0015C178.173 7.74487 178.071 7.94631 178.913 6.33964C179.295 5.61014 180.01 4.14282 180.501 3.07886L181.395 1.14455H183.691C186.106 1.14455 186.372 1.24059 186.755 2.24982C186.87 2.55383 187.194 3.20052 187.475 3.68679C187.756 4.17325 188.794 6.16277 189.783 8.10823C190.771 10.0536 191.919 12.292 192.334 13.0823C193.459 15.2232 193.45 15.2062 194.824 17.9458C195.525 19.3442 196.217 20.6872 196.362 20.9303C196.507 21.1734 196.872 21.8823 197.172 22.5054C197.473 23.1287 197.959 24.0738 198.252 24.6056C198.545 25.1376 199.072 26.1696 199.422 26.8992C199.773 27.6287 200.222 28.524 200.42 28.8889C200.619 29.2536 201.295 30.5468 201.923 31.7627C202.551 32.9786 203.249 34.3 203.474 34.6994C203.699 35.0987 203.883 35.569 203.883 35.7444C203.883 36.3837 205.055 36.7069 207.225 36.6658L209.314 36.6261L209.399 37.7891L209.483 38.9521L197.421 38.8945L185.36 38.8368L185.272 37.9924C185.137 36.6895 185.543 36.4658 187.849 36.5725C191.068 36.7216 191.259 36.563 190.216 34.6092C189.493 33.2527 189.303 32.884 188.698 31.652C187.838 29.9022 187.428 29.118 187.197 28.7782C187.006 28.4978 185.772 28.4374 179.229 28.3877C170.662 28.3225 170.688 28.3187 170.3 29.7406C170.196 30.1231 169.88 30.8341 169.599 31.3204C168.023 34.0494 167.934 35.459 169.285 36.3083C169.918 36.7066 170.294 36.7658 171.604 36.6733C172.464 36.6128 173.331 36.643 173.53 36.7404C173.929 36.9357 173.962 38.465 173.575 38.7724C173.24 39.0383 159.633 39.11 159.302 38.848L159.302 38.8481ZM185.447 25.5308C185.494 25.2644 184.899 23.8266 184.124 22.3354C183.348 20.8443 182.714 19.5352 182.714 19.4264C182.714 19.3176 182.535 18.9152 182.316 18.5319C182.097 18.1488 181.376 16.7192 180.714 15.3551C180.052 13.9909 179.368 12.8717 179.195 12.8679C178.908 12.8585 177.421 15.0566 177.421 15.4862C177.421 15.5857 177.246 15.9561 177.032 16.3091C176.818 16.6622 175.683 18.8741 174.51 21.2247C172.785 24.6809 172.442 25.5599 172.715 25.8211C172.996 26.09 174.079 26.1331 179.206 26.0795C185.297 26.0161 185.361 26.0105 185.447 25.5308V25.5308ZM113.48 38.4216C113.389 38.1322 113.355 37.61 113.405 37.261C113.494 36.6415 113.537 36.6259 115.183 36.6139C117.189 36.5988 118.091 36.168 118.841 34.8647C119.311 34.0475 119.346 33.0462 119.346 20.274V6.56075L118.722 5.63406C117.938 4.46971 116.511 3.59376 115.124 3.42455C114.535 3.35365 113.91 3.20429 113.733 3.09473C113.374 2.87134 113.3 1.57559 113.623 1.16088C113.781 0.957823 115.958 0.893161 122.439 0.899023L131.045 0.90849L131.966 1.74201C132.473 2.20049 133.336 3.12444 133.884 3.79514C136.082 6.48496 136.909 7.45675 137.237 7.73326C137.573 8.01695 139.407 10.1078 139.958 10.8351C140.111 11.0374 140.565 11.5516 140.967 11.9776C141.368 12.4036 142.622 13.833 143.752 15.1541C144.882 16.4752 146.183 17.9773 146.643 18.4922C147.102 19.0072 147.719 19.717 148.012 20.0697C150.105 22.583 150.538 23.032 150.867 23.032C151.458 23.032 151.408 5.80573 150.815 4.89548C150.22 3.98201 148.383 3.28711 146.503 3.26462L144.971 3.24666L144.887 2.0861L144.803 0.925401L151.085 0.905585C154.54 0.894245 157.742 0.885736 158.202 0.885736C158.662 0.885736 159.163 0.895208 159.316 0.905585C159.469 0.916924 159.595 1.41243 159.595 2.00742C159.595 3.16487 159.349 3.37626 158.184 3.22218C157.23 3.09597 155.117 4.02523 154.372 4.89861L153.745 5.63351V22.2917V38.9496H151.54C150.327 38.9496 149.134 38.8882 148.889 38.814C148.644 38.7393 147.493 37.5704 146.331 36.2165C145.17 34.8624 143.857 33.3566 143.413 32.8703C142.072 31.4014 140.097 29.0248 140.097 28.8801C140.097 28.8054 139.673 28.3297 139.155 27.8229C138.636 27.316 137.241 25.7574 136.054 24.3592C134.867 22.9608 133.819 21.7671 133.724 21.7063C133.629 21.6458 132.799 20.7004 131.88 19.6062C128.728 15.8543 124.696 11.2054 124.497 11.0949C124.387 11.0344 124.096 10.6859 123.85 10.321C123.604 9.95643 123.149 9.40929 122.838 9.10537C122.36 8.63668 122.233 8.60293 121.998 8.88416C121.824 9.09336 121.72 13.784 121.718 21.5934C121.714 32.8252 121.758 34.0565 122.195 34.8951C122.83 36.1139 123.878 36.5835 126.138 36.6611C128.062 36.7273 128.41 36.9178 128.27 37.8307C128.222 38.1422 128.169 38.5215 128.152 38.6734C128.127 38.8867 126.47 38.9496 120.883 38.9496H113.646L113.48 38.4237L113.48 38.4216ZM254.3 38.3979C253.993 37.7574 254.366 36.7465 254.918 36.7213C255.114 36.7118 256.175 36.7118 257.278 36.7364C260.799 36.7894 260.426 38.78 260.426 19.9371C260.426 1.01466 260.881 3.13586 256.824 3.13586C254.78 3.13586 254.292 3.07158 254.264 2.80424C254.244 2.62188 254.206 2.34832 254.178 2.19631C254.15 2.0443 254.211 1.721 254.314 1.47777C254.496 1.04755 254.813 1.03262 266.111 0.92514L277.72 0.814535L277.869 1.28529C277.951 1.54422 277.977 2.04167 277.926 2.39058L277.835 3.02525L275.132 3.13586C273.645 3.19636 272.308 3.34581 272.16 3.46748C271.994 3.60417 271.86 9.8621 271.81 19.8582C271.744 32.9037 271.799 36.0951 272.092 36.3754C272.367 36.6382 273.111 36.7383 275.145 36.786L277.835 36.8493V37.8442V38.8391L266.2 38.8968L254.566 38.9544L254.3 38.3994L254.3 38.3979ZM333.037 38.8044C332.719 38.5522 332.825 36.9956 333.171 36.8257C333.349 36.7387 334.076 36.6505 334.785 36.6307C335.495 36.6108 336.463 36.413 336.936 36.1913C338.732 35.3491 338.688 35.7497 338.7 20.4074C338.707 12.3578 338.603 6.28462 338.453 5.97162C337.797 4.60327 335.922 3.45753 334.1 3.31205C333.285 3.24682 333.264 3.21612 333.264 2.0495V0.85358L342.038 0.89331C349.995 0.930162 350.846 0.968935 351.171 1.31559C352.102 2.30893 357.343 8.38025 358.325 9.60358C358.934 10.3615 359.686 11.2134 359.997 11.4965C360.307 11.7796 361.564 13.191 362.79 14.633C364.015 16.0749 366.126 18.5544 367.481 20.1429C368.836 21.7313 370.12 23.031 370.336 23.031C370.667 23.031 370.728 21.6513 370.727 14.2436C370.727 6.03584 370.691 5.41109 370.203 4.77508C369.549 3.92401 367.999 3.3261 366.178 3.22315C365.408 3.17967 364.657 3.04685 364.508 2.92849C364.212 2.69358 364.179 1.5073 364.459 1.14808C364.569 1.0061 367.269 0.92403 371.829 0.92403C379.7 0.92403 379.363 0.864468 379.363 2.24143C379.363 2.89833 378.736 3.48424 378.275 3.25831C377.735 2.99334 375.47 3.63587 374.43 4.34911L373.374 5.07359L373.226 21.9556C373.144 31.2407 373.05 38.8625 373.017 38.8928C372.984 38.9231 371.906 38.9486 370.622 38.9486C368.29 38.9486 368.287 38.9486 367.558 38.1895C367.157 37.7721 366.829 37.3631 366.829 37.2808C366.829 37.1985 366.355 36.6694 365.776 36.1054C364.816 35.1705 362.71 32.7539 362.372 32.1985C362.295 32.0727 361.567 31.2272 360.753 30.3194C359.939 29.4117 358.873 28.1927 358.385 27.6109C356.429 25.2789 352.959 21.2899 351.579 19.7852C350.774 18.9087 350.116 18.1259 350.116 18.0458C350.116 17.9654 349.759 17.5375 349.322 17.0944C348.467 16.2269 344.929 12.1428 343.579 10.464C342.577 9.21882 341.819 8.54113 341.612 8.70562C341.528 8.77368 341.458 14.6071 341.458 21.6707C341.458 36.2213 341.359 35.5419 343.614 36.3337C344.486 36.64 345.312 36.7525 346.31 36.7012L347.749 36.6275V37.7328V38.8382L340.488 38.8978C336.494 38.9309 333.142 38.8883 333.037 38.8061V38.8044Z" fill="black"/>
</svg>
