<svg width="226" height="40" viewBox="0 0 226 40" fill="none" xmlns="http://www.w3.org/2000/svg">
<path d="M21.7819 12.5531L25.7908 0H31.2166L25.5256 18.8302H15.9081L23.69 24.1301L18.4952 39.7518H13.0715L17.6215 25.5532L0 12.5531H21.7819Z" fill="black"/>
<path d="M160.403 13.8704C158.687 12.8133 156.189 12.1555 153.628 12.1555C148.664 12.1555 144.442 14.1052 141.469 16.9372C138.175 20.0734 136.277 24.2042 136.067 28.2573C135.691 35.448 140.722 40 148.087 40C153.164 40 156.785 37.933 159.535 34.9904L154.766 30.5522C152.959 32.274 151.227 33.2687 148.899 33.2687C145.807 33.2687 143.664 31.1635 143.842 27.7598C143.974 25.2367 145.127 22.864 146.858 21.1822C148.344 19.766 150.517 18.7971 152.578 18.7971C154.204 18.7971 156.041 18.8509 158.192 20.3739L160.403 13.8704Z" fill="black"/>
<path d="M187.389 39.7514H179.983L188.559 12.5527H195.965L187.389 39.7514Z" fill="black"/>
<path fill-rule="evenodd" clip-rule="evenodd" d="M95.8649 39.7518H104.033L100.345 30.582C103.093 29.817 104.831 28.6341 106.036 27.4876C107.842 25.8054 108.76 23.5123 108.895 20.9892C109.005 18.8477 108.457 16.8082 107.12 15.3938C105.42 13.5964 102.53 12.5531 98.102 12.5531H88.0246L79.4106 39.7518H86.8545L89.4536 31.3833H92.7385L95.8649 39.7518ZM91.2855 25.1062L93.3797 18.8288H97.4249C98.9913 18.8288 100.041 19.2986 100.62 19.9099C101.092 20.3692 101.291 21.0048 101.255 21.7316C101.204 22.6503 100.822 23.2274 100.179 23.8401C99.2137 24.7573 97.5453 25.1062 95.5236 25.1062H91.2855Z" fill="black"/>
<path fill-rule="evenodd" clip-rule="evenodd" d="M127.149 39.7522L126.081 35.5661H115.774L112.987 39.7522H104.933L121.168 12.5535H128.421L134.936 39.7522H127.149ZM119.009 29.2905H125.003L123.34 21.6404L119.009 29.2905Z" fill="black"/>
<path d="M206.61 39.7514H199.742L197.601 12.5527H205.655L206.264 29.3813L217.681 12.5527H226L206.61 39.7514Z" fill="black"/>
<path d="M162.376 39.7514H169.78L176.261 18.8302H184.278L186.336 12.5527H162.936L160.876 18.8302H168.856L162.376 39.7514Z" fill="black"/>
<path d="M73.6409 36.5204C71.1488 38.8913 67.7344 39.9618 63.612 39.9618C56.78 39.9618 53.0294 36.4459 53.3362 30.5555C53.407 29.2171 53.6757 27.6908 54.1722 26.2382L58.5086 12.5524H65.992L61.4729 26.7703C61.2005 27.6094 61.0043 28.4797 60.9593 29.3588C60.8335 31.7696 62.2432 33.2512 64.9167 33.2512C66.366 33.2512 67.614 32.7366 68.6154 31.818C69.6219 30.8629 70.4162 29.49 71.0988 27.347L75.8007 12.5524H83.2842L78.2206 28.4572C77.0796 31.975 75.6092 34.6449 73.6409 36.5204Z" fill="black"/>
<path d="M25.0291 39.7514H46.6351L48.6448 33.4744H34.367L35.7373 29.2897H48.4863L50.3563 23.0144H37.604L38.9275 18.8302H52.9742L55.0202 12.5527H33.6416L25.0291 39.7514Z" fill="black"/>
</svg>
