<svg width="160" height="160" viewBox="0 0 160 160" fill="none" xmlns="http://www.w3.org/2000/svg">
<path d="M42.5001 18V68.922C45.6251 68.302 48.7501 67.682 51.8751 67.682V45.9H145V94.8799H120.625L126.25 104.18H155V18H42.5001Z" fill="white"/>
<path fill-rule="evenodd" clip-rule="evenodd" d="M61.25 90.5401C50.625 90.5401 42.5 99.2201 42.5 109.14C42.5 119.68 51.25 127.74 61.25 127.74C71.2499 127.74 79.9999 119.06 79.9999 109.14C80.6249 99.2201 71.8749 90.5401 61.25 90.5401ZM61.25 99.8401C66.2499 99.8401 70.6249 104.18 70.6249 109.14C70.6249 114.1 66.2499 118.44 61.25 118.44C56.25 118.44 51.875 114.1 51.875 109.14C51.875 104.18 56.25 99.8401 61.25 99.8401Z" fill="white"/>
<path fill-rule="evenodd" clip-rule="evenodd" d="M61.875 76.2801C26.25 76.2801 5 107.28 5 107.28C5 107.28 27.5 142 61.875 142C98.1249 142 118.125 107.28 118.125 107.28C118.125 107.28 98.1249 76.2801 61.875 76.2801ZM61.875 86.2001C84.3749 86.2001 99.9999 100.46 106.875 107.9C99.9999 116.58 84.3749 132.7 61.875 132.7C41.25 132.7 24.375 115.96 17.5 107.28C23.75 99.8401 39.375 86.2001 61.875 86.2001Z" fill="white"/>
<path d="M85.877 52.49H138.695V87.8012H115.174C115.174 87.8012 108.159 82.0529 101.97 78.3575C95.7803 74.6622 85.877 70.9668 85.877 70.9668V52.49Z" fill="white"/>
</svg>
