<svg width="271" height="40" viewBox="0 0 271 40" fill="none" xmlns="http://www.w3.org/2000/svg">
<path d="M11.049 11.8602H0.5625V14.7463L4.52308 15.7384V35.5355L0.5625 36.5276V39.4137H15.0546V36.5276L11.094 35.5355V11.8602H11.049ZM7.76355 7.39571C8.97873 7.39571 9.87886 7.03495 10.5089 6.40361C11.139 5.72717 11.4991 4.82525 11.4991 3.74295C11.4991 2.61555 11.184 1.71364 10.5089 1.0372C9.83385 0.360761 8.93372 0 7.76355 0C6.59338 0 5.69325 0.360761 5.06316 1.0372C4.43306 1.71364 4.07301 2.61555 4.07301 3.74295C4.07301 4.87034 4.38806 5.72717 5.01815 6.40361C5.64824 7.08005 6.59338 7.39571 7.76355 7.39571ZM42.6436 24.5772C42.2836 24.0361 41.9235 23.54 41.5185 23.044C41.2484 22.7283 40.9784 22.4126 40.7083 22.1421C41.9235 21.8715 42.9137 21.5107 43.6788 21.0598C44.3989 20.6539 45.119 20.1578 45.7491 19.6618C46.9643 18.7148 47.9094 17.5874 48.6295 16.1894C49.3496 14.7914 49.6646 13.3935 49.6646 11.9504C49.6646 10.5073 49.3046 9.06426 48.5845 7.66629C47.8644 6.26832 46.8742 5.09582 45.6591 4.19391C44.6239 3.51747 43.4988 2.97632 42.3286 2.70575C41.1134 2.39008 39.6282 2.25479 38.008 2.25479H18.7451V5.23112L23.0658 6.31342V35.3551L18.7451 36.4374V39.4137H34.6775V36.4374L29.7717 35.3551V23.1792H34.7225L41.4735 36.4374V39.4137H53.6252V36.4374L49.0346 35.4002L42.6436 24.5772ZM35.5776 19.3461H29.7717V5.95265H35.3976C37.5129 5.95265 39.0881 6.40361 40.2583 7.30553C40.9334 7.89177 41.5185 8.6133 41.9235 9.42502C42.3286 10.2367 42.5536 11.1838 42.5536 12.221C42.5536 13.3484 42.3736 14.4307 41.9685 15.3777C41.5635 16.3698 41.0234 17.1364 40.3483 17.7227C39.0431 18.805 37.4679 19.3461 35.5776 19.3461ZM83.6896 6.04284C82.1594 4.50958 80.3141 3.38219 78.2438 2.70575C76.1735 2.02931 73.7432 1.71364 70.9527 1.71364C68.0273 1.71364 65.552 2.07441 63.5717 2.79595C61.5914 3.51748 59.8361 4.64486 58.3959 6.22322C56.7307 7.98196 55.4705 10.1466 54.5704 12.7621C53.6702 15.3777 53.2202 18.2187 53.2202 21.2401C53.2202 24.2616 53.6702 27.0124 54.5704 29.5378C55.4705 32.018 56.6857 34.0473 58.1709 35.6257C59.5661 37.0688 61.3213 38.1511 63.3466 38.8726C65.3719 39.5941 67.8923 39.9549 70.7727 39.9549C73.6981 39.9549 76.1735 39.5941 78.1988 38.8726C80.2241 38.1511 82.0244 37.0237 83.4646 35.4453C85.2648 33.5964 86.57 31.3416 87.3801 28.726C88.1452 26.336 88.5953 23.4949 88.5953 20.4284C88.5953 17.7677 88.1903 15.1071 87.4251 12.5366C86.75 10.0113 85.4899 7.84667 83.6896 6.04284ZM80.4941 28.1849C79.9991 30.124 79.324 31.7024 78.4238 32.92C76.7586 35.1747 74.3282 36.3472 71.0878 36.3472C69.2875 36.3472 67.7573 36.0316 66.5421 35.3551C65.3269 34.7238 64.2918 33.7317 63.4817 32.469C62.6265 31.1612 61.9514 29.4927 61.4564 27.4183C60.9613 25.3438 60.6912 22.9538 60.6912 20.2931C60.6912 15.1071 61.6364 11.274 63.5717 8.74859C64.3368 7.71138 65.3269 6.85456 66.4971 6.22322C67.6673 5.63697 69.0625 5.3213 70.7277 5.3213C72.3479 5.3213 73.7882 5.63698 75.0933 6.26832C76.3985 6.89966 77.4787 7.84667 78.3788 9.15445C79.279 10.4622 79.9541 12.1308 80.4491 14.115C80.9442 16.0992 81.2142 18.4893 81.2142 21.195C81.2142 23.9008 80.9892 26.2458 80.4941 28.1849ZM114.879 35.4904H98.4518L119.83 5.3213V2.16459H92.0608V13.8895H96.2914L97.9567 6.04284H111.864L90.4856 36.2119V39.3686H121.045V27.0575H116.544L114.879 35.4904ZM148.544 5.18602L152.865 6.26832V18.3991H137.382V6.26832L141.748 5.18602V2.20969H126.401V5.18602L130.721 6.26832V35.31L126.401 36.3923V39.3686H141.748V36.3923L137.382 35.31V22.1872H152.865V35.31L148.544 36.3923V39.3686H163.891V36.3923L159.571 35.31V6.26832L163.891 5.18602V2.20969H148.544V5.18602V5.18602ZM193.686 35.4904H181.219V6.26832L186.575 5.18602V2.20969H169.652V5.18602L174.513 6.26832V35.31L169.652 36.3923V39.3686H199.807V26.5614H195.441L193.686 35.4904ZM225.28 1.71364H218.934L206.873 35.31L202.642 36.3923V39.3686H216.234V36.3923L211.958 35.31L214.659 27.3281H227.261L229.871 35.31L225.64 36.3923V39.3686H241.348V36.3923L237.207 35.31L225.28 1.71364ZM215.964 23.54L221.005 8.52311H221.23L226.045 23.54H215.964ZM269.972 26.1105C269.567 25.1184 268.892 24.1714 267.991 23.2694C267.091 22.3675 265.876 21.5107 264.391 20.6539C262.906 19.7971 261.06 18.8501 258.9 17.8579C257.685 17.3168 256.47 16.7305 255.255 16.1443C254.264 15.6482 253.499 15.1522 252.869 14.6561C252.284 14.1601 251.834 13.6189 251.564 12.9876C251.294 12.3562 251.159 11.5896 251.159 10.7328C251.159 7.03494 253.094 5.18602 256.965 5.18602C259.485 5.18602 261.33 5.95265 262.546 7.53101C263.761 9.06427 264.346 11.4543 264.346 14.7012H268.847V2.20969H264.436L264.031 4.55468C261.916 2.61556 259.125 1.66855 255.75 1.66855C252.329 1.66855 249.584 2.57046 247.513 4.41939C245.488 6.22322 244.453 8.83878 244.453 12.1759C244.453 13.7091 244.678 14.9718 245.128 16.0541C245.578 17.1364 246.253 18.1285 247.063 18.9402C247.919 19.7971 248.999 20.5186 250.214 21.195C251.474 21.8715 252.914 22.5479 254.534 23.1792C255.885 23.7655 257.145 24.3067 258.315 24.8478C259.44 25.3439 260.43 25.9301 261.24 26.5163C262.051 27.1026 262.681 27.779 263.131 28.5456C263.581 29.3123 263.806 30.2142 263.806 31.2965C263.806 33.0552 263.221 34.3179 262.051 35.1296C260.88 35.9414 259.305 36.3472 257.37 36.3472C256.155 36.3472 255.03 36.1668 254.039 35.8512C253.049 35.5355 252.194 34.9944 251.474 34.2277C250.754 33.4611 250.169 32.469 249.764 31.2965C249.314 30.0789 249.089 28.6359 248.954 26.9222H244.273V39.4137H248.684L249.269 36.4374C250.349 37.655 251.564 38.602 252.914 39.1432C254.264 39.7294 255.93 40 257.865 40C259.62 40 261.285 39.7745 262.816 39.3686C264.346 38.9177 265.696 38.2864 266.866 37.3844C267.991 36.5276 268.937 35.4002 269.567 34.0924C270.197 32.7847 270.557 31.2514 270.557 29.5378C270.602 28.23 270.377 27.1026 269.972 26.1105Z" fill="black"/>
</svg>
