<svg width="223" height="40" viewBox="0 0 223 40" fill="none" xmlns="http://www.w3.org/2000/svg">
<path d="M177.908 10.1713C176.155 8.67833 174.306 7.56143 172.356 6.8131C170.406 6.0685 168.355 5.6962 166.208 5.6962C162.048 5.6962 158.665 7.03276 156.056 9.70216C153.447 12.3716 152.145 15.8302 152.145 20.0782C152.145 24.1884 153.414 27.5763 155.952 30.2494C158.49 32.9188 161.694 34.2517 165.557 34.2517C167.812 34.2517 169.955 33.8533 171.991 33.0566C174.027 32.2599 175.984 31.0536 177.856 29.4415V36.4371C176.192 37.6322 174.38 38.5294 172.423 39.1176C170.462 39.7059 168.34 40 166.052 40C163.142 40 160.447 39.5235 157.98 38.5704C155.509 37.6173 153.339 36.2137 151.468 34.3559C149.614 32.5354 148.185 30.3909 147.192 27.9226C146.194 25.4505 145.696 22.8183 145.696 20.0261C145.696 17.2338 146.194 14.6128 147.192 12.1593C148.185 9.70589 149.629 7.55027 151.52 5.6962C153.41 3.82353 155.576 2.40506 158.017 1.44453C160.462 0.480267 163.104 0 165.948 0C168.184 0 170.316 0.323905 172.345 0.975428C174.373 1.62695 176.338 2.60982 178.247 3.92777L177.908 10.1713Z" fill="black"/>
<path fill-rule="evenodd" clip-rule="evenodd" d="M64.2385 27.699C65.2544 25.2902 65.7606 22.7325 65.7606 20.0259C65.7606 17.3379 65.2544 14.7839 64.2385 12.3677C63.2263 9.94772 61.7489 7.77721 59.8063 5.85241C57.8675 3.96112 55.6682 2.52404 53.2158 1.53372C50.7634 0.547123 48.1696 0.051966 45.4307 0.051966C42.6731 0.051966 40.0681 0.547123 37.6046 1.53372C35.1448 2.52404 32.9417 3.96112 31.0029 5.85241C29.0603 7.75859 27.5866 9.91793 26.5819 12.3267C25.5771 14.7392 25.0747 17.3044 25.0747 20.0259C25.0747 22.766 25.5771 25.3312 26.5819 27.7251C27.5866 30.119 29.0603 32.2597 31.0029 34.151C32.9082 36.02 35.1075 37.4645 37.5934 38.4809C40.0793 39.4935 42.6917 39.9998 45.4307 39.9998C48.1361 39.9998 50.7187 39.4972 53.1786 38.492C55.6384 37.4868 57.8489 36.0386 59.8063 34.151C61.7489 32.2597 63.2263 30.1078 64.2385 27.699ZM58.262 14.5382C58.9616 16.2731 59.3114 18.1011 59.3114 20.0259C59.3114 21.9358 58.9616 23.7489 58.262 25.4764C57.5586 27.2001 56.5501 28.7415 55.2328 30.0929C53.8968 31.4444 52.3934 32.4757 50.7225 33.1867C49.0478 33.8978 47.2839 34.2515 45.4307 34.2515C43.5402 34.2515 41.7577 33.8978 40.0756 33.1867C38.3935 32.4757 36.8938 31.4444 35.5764 30.0929C34.2591 28.7415 33.2543 27.2039 32.5621 25.4876C31.8699 23.7713 31.5239 21.9507 31.5239 20.0259C31.5239 18.0862 31.8699 16.2471 32.5621 14.5121C33.2543 12.7809 34.2591 11.2433 35.5764 9.91049C36.8938 8.55531 38.401 7.52404 40.0868 6.81295C41.78 6.10558 43.5588 5.74817 45.4307 5.74817C47.3025 5.74817 49.085 6.10931 50.7746 6.82784C52.4641 7.54639 53.9489 8.57394 55.2328 9.91049C56.5501 11.2619 57.5586 12.8033 58.262 14.5382Z" fill="black"/>
<path fill-rule="evenodd" clip-rule="evenodd" d="M5.79791 38.9874V21.8987H9.35927C12.1317 21.8987 14.171 21.7535 15.4809 21.4557C16.7909 21.1616 17.9296 20.6702 18.9009 19.974C20.0954 19.1065 21.0295 17.9114 21.7068 16.385C22.3841 14.8623 22.719 13.1943 22.719 11.3924C22.719 9.59047 22.3841 7.93747 21.7068 6.43709C21.0295 4.93672 20.0954 3.74536 18.9009 2.85928C17.9296 2.1668 16.7909 1.66791 15.4809 1.36635C14.171 1.06106 12.1317 0.908425 9.35927 0.908425H0V38.9874H5.79791ZM7.77396 16.828H6.18865V6.21743H7.77396C11.0488 6.21743 13.2965 6.63069 14.5171 7.46464C15.7414 8.29488 16.3517 9.72823 16.3517 11.7573C16.3517 13.6448 15.7786 14.9628 14.6362 15.7111C13.4937 16.4557 11.2051 16.828 7.77396 16.828Z" fill="black"/>
<path d="M71.2607 38.9871V0.911857H77.4457V33.4472H91.278V38.9871H71.2607Z" fill="black"/>
<path d="M100.991 0.911857H94.8022V38.9871H100.991V0.911857Z" fill="black"/>
<path d="M120.58 6.16502V38.9871H114.392V6.16502H104.281V0.911857H130.643V6.16502H120.58Z" fill="black"/>
<path d="M140.065 0.911857H133.88V38.9871H140.065V0.911857Z" fill="black"/>
<path fill-rule="evenodd" clip-rule="evenodd" d="M221.478 27.699C222.494 25.2902 223 22.7325 223 20.0259C223 17.3379 222.494 14.7839 221.478 12.3677C220.466 9.94772 218.988 7.77721 217.046 5.85241C215.107 3.96112 212.908 2.52404 210.455 1.53372C208.003 0.547123 205.409 0.051966 202.67 0.051966C199.916 0.051966 197.308 0.547123 194.844 1.53372C192.384 2.52404 190.181 3.96112 188.242 5.85241C186.3 7.75859 184.826 9.91793 183.821 12.3267C182.817 14.7392 182.314 17.3044 182.314 20.0259C182.314 22.766 182.817 25.3312 183.821 27.7251C184.826 30.119 186.3 32.2597 188.242 34.151C190.148 36.02 192.343 37.4645 194.833 38.4809C197.319 39.4935 199.931 39.9998 202.67 39.9998C205.376 39.9998 207.958 39.4972 210.418 38.492C212.878 37.4868 215.088 36.0386 217.046 34.151C218.988 32.2597 220.466 30.1078 221.478 27.699ZM215.501 14.5382C216.201 16.2731 216.555 18.1011 216.555 20.0259C216.555 21.9358 216.201 23.7489 215.501 25.4764C214.798 27.2001 213.79 28.7415 212.472 30.0929C211.136 31.4444 209.633 32.4757 207.962 33.1867C206.287 33.8978 204.523 34.2515 202.67 34.2515C200.78 34.2515 198.997 33.8978 197.315 33.1867C195.633 32.4757 194.133 31.4444 192.816 30.0929C191.502 28.7415 190.494 27.2039 189.802 25.4876C189.109 23.7713 188.763 21.9507 188.763 20.0259C188.763 18.0862 189.109 16.2471 189.802 14.5121C190.494 12.7809 191.502 11.2433 192.816 9.91049C194.133 8.55531 195.64 7.52404 197.326 6.81295C199.019 6.10558 200.798 5.74817 202.67 5.74817C204.542 5.74817 206.324 6.10931 208.014 6.82784C209.704 7.54639 211.188 8.57394 212.472 9.91049C213.79 11.2619 214.798 12.8033 215.501 14.5382Z" fill="black"/>
</svg>
