<svg width="210" height="40" viewBox="0 0 210 40" fill="none" xmlns="http://www.w3.org/2000/svg">
<path d="M118.8 10.4454C119.051 10.4211 119.293 10.4089 119.528 10.4089C120.632 10.4089 121.485 10.6522 122.088 11.1389C122.815 11.7228 123.322 12.7001 123.606 14.0707C123.648 14.2572 123.673 14.4924 123.681 14.7763V14.8371C123.681 15.0966 123.635 15.3318 123.543 15.5427C123.443 15.7617 123.246 15.8712 122.954 15.8712C122.585 15.8225 122.305 15.6076 122.113 15.2264C121.929 14.8452 121.774 14.4235 121.648 13.9612C121.515 13.4422 121.351 13.0366 121.159 12.7447L120.883 12.4649C120.632 12.2621 120.364 12.1607 120.08 12.1607C119.929 12.1607 119.779 12.1851 119.628 12.2337L119.44 12.2946L119.227 12.3797C118.398 12.7203 117.788 13.3813 117.394 14.3627C117.001 15.344 116.763 16.4673 116.679 17.7325C116.646 18.2677 116.629 18.7989 116.629 19.3261C116.629 20.0317 116.658 20.7251 116.717 21.4064C116.826 22.5986 116.968 23.5759 117.143 24.3382C117.244 24.8248 117.419 25.3885 117.67 26.0292C117.93 26.6699 118.281 27.1808 118.725 27.562C118.967 27.7648 119.247 27.8662 119.565 27.8662C119.816 27.8662 120.092 27.8013 120.394 27.6715C120.921 27.339 121.28 26.9092 121.473 26.382C121.674 25.8548 121.816 25.3277 121.899 24.8005C121.966 24.3382 122.063 23.953 122.188 23.6448C122.322 23.3285 122.548 23.1541 122.866 23.1217H122.903C123.238 23.1217 123.468 23.2433 123.594 23.4866C123.719 23.7218 123.782 23.9935 123.782 24.3017V24.3625C123.773 24.6951 123.74 24.9749 123.681 25.202C123.548 25.8751 123.322 26.5483 123.004 27.2214C122.686 27.8864 122.255 28.4379 121.711 28.8759C120.816 29.4923 119.879 29.8004 118.9 29.8004C118.373 29.8004 117.838 29.7153 117.294 29.545C116.282 29.1719 115.495 28.4744 114.935 27.4525C114.383 26.4225 113.998 25.2425 113.78 23.9124C113.588 22.6878 113.492 21.4794 113.492 20.2872V20.0074C113.508 18.7341 113.592 17.6554 113.743 16.7714C113.885 15.7738 114.136 14.8209 114.496 13.9125C114.864 12.9961 115.391 12.2256 116.077 11.6011C116.763 10.9685 117.67 10.5833 118.8 10.4454Z" fill="black"/>
<path fill-rule="evenodd" clip-rule="evenodd" d="M128.639 19.6909C129.459 19.3827 130.383 19.2286 131.412 19.2286C131.596 19.2286 131.78 19.2327 131.964 19.2408C133.203 19.2976 134.236 19.6544 135.064 20.3113C135.934 21.1386 136.482 22.1402 136.708 23.3162C136.792 23.7379 136.833 24.1596 136.833 24.5814C136.833 25.3113 136.704 26.029 136.444 26.7346C136.026 27.8457 135.281 28.7216 134.211 29.3623C133.424 29.7841 132.596 30.0517 131.726 30.1652C131.483 30.1977 131.237 30.2139 130.986 30.2139C130.367 30.2139 129.747 30.1125 129.128 29.9098C128.141 29.561 127.363 28.9325 126.794 28.0241C126.225 27.1158 125.899 26.102 125.815 24.9828C125.799 24.8125 125.79 24.6422 125.79 24.4719C125.79 23.5473 125.983 22.6755 126.368 21.8563C126.828 20.8912 127.585 20.1694 128.639 19.6909ZM131.864 28.4378C132.809 28.3891 133.554 28.0079 134.098 27.2942C134.642 26.5805 134.938 25.7857 134.989 24.9098L135.001 24.6422C135.001 24.0177 134.897 23.4176 134.687 22.8417C134.445 22.1767 134.056 21.6617 133.52 21.2967C133.144 21.0372 132.688 20.9074 132.153 20.9074C131.927 20.9074 131.688 20.9318 131.437 20.9804C130.442 21.2075 129.743 21.686 129.342 22.4159C129.04 22.9512 128.89 23.5433 128.89 24.1921C128.89 24.4273 128.911 24.6706 128.953 24.922C129.07 25.7168 129.363 26.471 129.831 27.1847C130.308 27.8984 130.986 28.3161 131.864 28.4378Z" fill="black"/>
<path d="M141.665 26.978C141.431 26.4752 141.256 25.4087 141.138 23.7786C141.155 23.0568 141.164 22.4647 141.164 22.0024V20.7372C141.164 19.5694 140.745 18.9854 139.909 18.9854C139.775 19.0016 139.658 19.0219 139.558 19.0462H139.532C139.231 19.0462 138.989 19.2247 138.805 19.5815C138.738 19.7599 138.704 20.0316 138.704 20.3966C138.704 20.5264 138.708 20.6683 138.717 20.8224C138.742 21.4063 138.792 22.0024 138.867 22.6107C138.943 23.2108 139.005 23.6528 139.055 23.9367C139.148 24.5693 139.298 25.3033 139.507 26.1386C139.716 26.9659 140.026 27.7323 140.436 28.4379C140.846 29.1353 141.385 29.6139 142.055 29.8734C142.373 29.9707 142.678 30.0194 142.971 30.0194C143.364 30.0194 143.728 29.9261 144.062 29.7396C144.64 29.407 145.138 28.9488 145.556 28.3649C145.731 28.1297 145.844 27.9675 145.895 27.8783C145.928 27.8215 145.949 27.7931 145.957 27.7931C145.966 27.785 145.97 27.8093 145.97 27.8661C145.97 27.931 145.982 28.0364 146.008 28.1824C146.091 28.5311 146.246 28.8677 146.472 29.1921C146.698 29.5246 146.97 29.7436 147.287 29.8491C147.371 29.8734 147.455 29.8856 147.538 29.8856C147.781 29.8856 148.028 29.7761 148.279 29.5571C148.521 29.2327 148.672 28.738 148.731 28.0729C148.772 27.5701 148.793 27.0997 148.793 26.6617L148.781 26.2481V25.871C148.789 25.6358 148.793 25.3966 148.793 25.1532C148.802 24.545 148.806 23.9367 148.806 23.3284V22.416C148.806 22.2944 148.81 22.1565 148.818 22.0024V21.7713C148.818 21.4469 148.806 21.1144 148.781 20.7737C148.756 20.3439 148.655 19.9627 148.48 19.6302C148.304 19.2977 148.011 19.0787 147.601 18.9733C147.459 18.9489 147.325 18.9368 147.2 18.9368C146.865 18.9368 146.61 19.0341 146.434 19.2287C146.2 19.5045 146.053 19.8654 145.995 20.3114C145.936 20.7575 145.907 21.1955 145.907 21.6253C145.907 21.8929 145.899 22.12 145.882 22.3066C145.765 23.7096 145.455 25.0681 144.953 26.3819C144.861 26.609 144.715 26.8767 144.514 27.1849C144.322 27.493 144.092 27.7566 143.824 27.9756C143.606 28.1702 143.376 28.2676 143.134 28.2676C143.083 28.2676 143.037 28.2635 142.996 28.2554C142.443 28.1256 142 27.6998 141.665 26.978Z" fill="black"/>
<path d="M156.085 19.7032C156.972 19.2896 157.725 19.0828 158.344 19.0828C158.561 19.0828 158.758 19.1071 158.934 19.1558C159.645 19.3423 160.172 19.8046 160.515 20.5426C160.866 21.2807 161.084 22.1971 161.167 23.292C161.268 24.4274 161.318 25.5669 161.318 26.7105C161.318 27.3187 161.305 27.9229 161.28 28.5231C161.255 28.8718 161.125 29.1962 160.891 29.4963C160.707 29.7153 160.464 29.8248 160.163 29.8248C160.063 29.8248 159.954 29.8126 159.837 29.7883C159.444 29.6666 159.226 29.4314 159.184 29.0827C159.176 28.9773 159.172 28.8718 159.172 28.7664C159.172 28.5312 159.197 28.292 159.247 28.0487C159.264 27.9432 159.277 27.8459 159.285 27.7567C159.335 27.3755 159.377 26.8078 159.41 26.0535C159.427 25.7129 159.436 25.3682 159.436 25.0195C159.436 24.5978 159.423 24.1639 159.398 23.7178C159.348 22.9068 159.214 22.2093 158.996 21.6254C158.787 21.0414 158.457 20.7211 158.005 20.6643H157.905C157.47 20.6643 156.896 21.0212 156.185 21.7349L155.972 21.9538C155.42 22.5864 155.006 23.3082 154.73 24.1193C154.462 24.9059 154.328 25.7007 154.328 26.5037V26.5766C154.328 26.7307 154.332 26.8889 154.341 27.0511C154.349 27.2052 154.353 27.3633 154.353 27.5255C154.353 27.8337 154.336 28.1419 154.303 28.4501C154.261 28.9205 154.106 29.2976 153.839 29.5815C153.63 29.8005 153.307 29.9099 152.872 29.9099C152.747 29.9099 152.613 29.9018 152.471 29.8856C151.76 29.764 151.341 29.4801 151.216 29.034C151.141 28.7502 151.103 28.442 151.103 28.1095C151.103 27.9148 151.116 27.708 151.141 27.489L151.166 26.9294C151.183 26.2806 151.191 25.6399 151.191 25.0073C151.191 24.3666 151.183 23.734 151.166 23.1095C151.158 22.4202 151.153 21.7267 151.153 21.0293C151.153 20.3156 151.346 19.7884 151.731 19.4478C151.998 19.2045 152.35 19.0828 152.785 19.0828C152.985 19.0828 153.199 19.1071 153.425 19.1558C153.876 19.2694 154.144 19.4681 154.228 19.7519C154.295 19.9628 154.328 20.1939 154.328 20.4453C154.328 20.5427 154.324 20.64 154.316 20.7373C154.307 20.8346 154.303 20.936 154.303 21.0414C154.303 21.1063 154.312 21.1388 154.328 21.1388H154.341C154.358 21.1388 154.378 21.1225 154.404 21.0901C154.437 21.0577 154.47 21.0171 154.504 20.9684L154.655 20.7738C154.822 20.5954 155.002 20.4291 155.194 20.275L155.219 20.2507C155.487 20.0398 155.775 19.8573 156.085 19.7032Z" fill="black"/>
<path d="M164.042 20.9076C164.109 20.8995 164.171 20.8955 164.23 20.8955L164.23 21.3212C164.23 21.8809 164.247 22.5459 164.28 23.3164C164.322 24.2328 164.431 25.1655 164.607 26.1144C164.782 27.0633 165.075 27.8865 165.485 28.5839C165.903 29.2814 166.485 29.7153 167.229 29.8856C167.522 29.9505 167.869 29.9829 168.271 29.9829H168.409C168.861 29.9667 169.266 29.8735 169.626 29.7031C169.986 29.5328 170.195 29.2409 170.254 28.8272V28.7299C170.254 28.5028 170.199 28.369 170.09 28.3285C170.015 28.3041 169.927 28.292 169.827 28.292C169.752 28.292 169.664 28.3001 169.563 28.3163C169.413 28.3406 169.258 28.3528 169.099 28.3528H168.974C168.764 28.3366 168.568 28.2474 168.384 28.0852C168.041 27.7121 167.794 27.0511 167.643 26.1022C167.493 25.1533 167.397 24.1801 167.355 23.1825C167.33 22.3877 167.317 21.7389 167.317 21.2361V20.8955C167.392 20.9036 167.476 20.9076 167.568 20.9076H167.907C168.141 20.9076 168.388 20.9036 168.647 20.8955C169.032 20.8874 169.321 20.8387 169.513 20.7495C169.814 20.5629 169.965 20.3399 169.965 20.0804C169.965 19.9993 169.952 19.9182 169.927 19.8371C169.818 19.4721 169.425 19.2572 168.748 19.1923C168.296 19.1761 167.84 19.168 167.38 19.168C167.405 18.3732 167.455 17.5662 167.53 16.7471L167.581 16.0658C167.606 15.8387 167.618 15.6035 167.618 15.3602C167.618 15.1737 167.61 14.9831 167.593 14.7885C167.56 14.3505 167.422 13.9856 167.179 13.6936C166.978 13.4503 166.652 13.3286 166.2 13.3286C166.117 13.3286 166.033 13.3327 165.949 13.3408C165.397 13.4057 165.004 13.6166 164.77 13.9734C164.544 14.3221 164.41 14.7398 164.368 15.2264C164.343 15.5346 164.33 15.8388 164.33 16.1388C164.33 16.3254 164.335 16.5078 164.343 16.6863V17.3797C164.334 17.7041 164.322 18.0245 164.305 18.3408C164.288 18.6165 164.276 18.8963 164.268 19.1802H164.13C164.029 19.172 163.929 19.168 163.828 19.168C163.561 19.168 163.305 19.2004 163.063 19.2653C162.72 19.3626 162.548 19.6343 162.548 20.0804C162.59 20.4859 162.762 20.7292 163.063 20.8103C163.314 20.8752 163.582 20.9076 163.866 20.9076H164.042Z" fill="black"/>
<path d="M176.704 21.4672C176.437 21.6699 176.202 21.9173 176.002 22.2092C175.684 22.6715 175.429 23.1379 175.236 23.6083C174.885 24.3868 174.676 24.987 174.609 25.4087C174.55 25.7169 174.521 26.0616 174.521 26.4428C174.521 26.5725 174.525 26.7063 174.533 26.8442C174.542 27.1443 174.546 27.5133 174.546 27.9513V28.0243C174.546 28.5839 174.45 29.038 174.257 29.3868C174.073 29.7436 173.684 29.9221 173.09 29.9221H173.015C172.337 29.8572 171.936 29.5855 171.81 29.107C171.71 28.7501 171.66 28.3771 171.66 27.9878C171.66 27.8499 171.668 27.7039 171.685 27.5498C171.693 27.4444 171.697 27.3389 171.697 27.2335C171.697 27.1362 171.701 27.0389 171.71 26.9416L171.735 25.871V24.8978C171.735 23.6001 171.722 22.3025 171.697 21.0049V20.8346C171.697 20.3236 171.798 19.9222 171.998 19.6302C172.233 19.2977 172.684 19.1314 173.354 19.1314C173.914 19.1314 174.274 19.837 174.433 21.2482L174.496 21.7956C174.563 21.601 174.667 21.3658 174.809 21.09C174.96 20.8143 175.111 20.6034 175.261 20.4574C175.721 20.0114 176.227 19.6708 176.78 19.4356C177.164 19.2734 177.574 19.1922 178.009 19.1922C178.403 19.1922 178.817 19.2612 179.252 19.3991C179.519 19.4883 179.724 19.6545 179.867 19.8978C179.942 20.0033 179.979 20.1209 179.979 20.2506C179.979 20.5426 179.971 20.7494 179.954 20.8711C179.938 20.9846 179.904 21.1063 179.854 21.236C179.67 21.7145 179.394 21.9538 179.026 21.9538H178.875C178.633 21.9538 178.248 21.7591 177.721 21.3698C177.587 21.2563 177.482 21.1995 177.407 21.1995C177.223 21.1995 176.989 21.2887 176.704 21.4672Z" fill="black"/>
<path d="M184.46 14.8126C184.226 14.3585 183.866 14.03 183.381 13.8272C183.197 13.7624 183.009 13.7299 182.816 13.7299C182.657 13.7299 182.494 13.7542 182.327 13.8029C182.009 13.9408 181.758 14.2003 181.574 14.5815C181.398 14.9627 181.298 15.3682 181.273 15.798C181.264 15.8872 181.26 15.9724 181.26 16.0535C181.26 16.3698 181.31 16.6293 181.411 16.8321C181.578 17.124 181.892 17.3146 182.352 17.4038C182.511 17.4363 182.67 17.4525 182.829 17.4525C183.13 17.4525 183.427 17.3957 183.72 17.2822C184.172 17.1119 184.473 16.7875 184.623 16.309C184.674 16.1224 184.699 15.9359 184.699 15.7494C184.699 15.4249 184.619 15.1127 184.46 14.8126Z" fill="black"/>
<path d="M181.273 21.2359C181.29 22.1524 181.34 23.0567 181.423 23.9488C181.49 25.4654 181.75 26.8198 182.201 28.012C182.662 29.2042 183.389 29.8449 184.385 29.9341H184.736C185.063 29.9341 185.28 29.7232 185.389 29.3015V29.1069L185.288 28.7662C185.004 28.5067 184.795 27.9147 184.661 26.9901C184.527 26.0574 184.456 25.2018 184.448 24.4232C184.448 23.8798 184.452 23.3405 184.46 22.8052C184.46 22.57 184.473 22.3227 184.498 22.0632C184.523 21.7955 184.536 21.5279 184.536 21.2602C184.536 21.098 184.531 20.9399 184.523 20.7858C184.498 20.3722 184.377 20.0194 184.159 19.7274C183.942 19.4273 183.561 19.2408 183.017 19.1678C182.917 19.1597 182.821 19.1556 182.729 19.1556C182.151 19.1556 181.766 19.3341 181.574 19.6909C181.373 20.0478 181.273 20.4857 181.273 21.0048V21.2359Z" fill="black"/>
<path fill-rule="evenodd" clip-rule="evenodd" d="M190.259 25.141C190.25 25.2464 190.246 25.3559 190.246 25.4695C190.246 25.7777 190.28 26.1102 190.347 26.467C190.439 26.9455 190.606 27.3713 190.848 27.7444C191.099 28.1174 191.451 28.3445 191.903 28.4256C191.986 28.4337 192.07 28.4378 192.154 28.4378C192.622 28.4378 193.028 28.2797 193.371 27.9634C193.764 27.5984 194.082 27.1888 194.325 26.7347C194.391 26.6049 194.45 26.4751 194.5 26.3454C194.576 26.1426 194.668 25.9723 194.776 25.8344C194.852 25.7371 194.96 25.6884 195.103 25.6884C195.153 25.6884 195.203 25.6925 195.253 25.7006C195.529 25.7817 195.697 25.9561 195.755 26.2237C195.78 26.3373 195.793 26.4589 195.793 26.5887C195.793 26.7509 195.772 26.9171 195.73 27.0875C195.655 27.3956 195.567 27.6511 195.467 27.8539C194.965 28.7865 194.27 29.4394 193.383 29.8125C192.831 30.0477 192.262 30.1653 191.677 30.1653C191.317 30.1653 190.953 30.1207 190.585 30.0315C189.606 29.7557 188.866 29.2326 188.364 28.4621C187.87 27.6836 187.565 26.8036 187.448 25.8223C187.398 25.4005 187.372 24.9869 187.372 24.5814C187.372 24.0299 187.418 23.4906 187.511 22.9634C187.761 21.5117 188.339 20.4614 189.242 19.8126C189.953 19.3017 190.815 19.0462 191.827 19.0462C192.103 19.0462 192.392 19.0665 192.693 19.107C193.454 19.2043 194.111 19.4922 194.663 19.9708C195.19 20.4168 195.454 21.0494 195.454 21.8685V21.978C195.42 22.4565 195.282 22.8742 195.04 23.2311C194.806 23.5879 194.496 23.892 194.111 24.1435C193.551 24.4841 192.927 24.7274 192.241 24.8734C191.564 25.0194 190.903 25.1086 190.259 25.141ZM193.647 21.3089C193.396 20.9683 193.086 20.798 192.718 20.798H192.618C192.208 20.8304 191.811 20.9805 191.426 21.2481C191.049 21.5157 190.769 21.8199 190.585 22.1605C190.401 22.566 190.28 22.9877 190.221 23.4257C190.564 23.4176 191.041 23.3608 191.652 23.2554C192.271 23.1418 192.81 22.9431 193.27 22.6593C193.605 22.4565 193.772 22.1848 193.772 21.8442C193.772 21.7307 193.751 21.605 193.71 21.4671L193.647 21.3089Z" fill="black"/>
<path d="M203.938 19.4843C203.561 19.0301 202.808 18.7179 201.679 18.5476C201.436 18.5232 201.185 18.5111 200.926 18.5111C200.6 18.5111 200.261 18.5314 199.91 18.5719C199.291 18.6368 198.772 18.872 198.354 19.2775C197.969 19.7154 197.776 20.1899 197.776 20.7008C197.776 20.7576 197.78 20.8184 197.789 20.8833C197.839 21.4672 198.019 22.039 198.328 22.5986C198.646 23.1582 198.981 23.6448 199.332 24.0585C199.424 24.1639 199.567 24.318 199.759 24.5207C200.102 24.8695 200.474 25.2831 200.876 25.7616C201.277 26.2401 201.562 26.6983 201.729 27.1363C201.779 27.2742 201.804 27.4039 201.804 27.5256C201.804 27.7851 201.683 27.996 201.441 28.1582C201.231 28.2636 201.026 28.3163 200.826 28.3163C200.633 28.3163 200.441 28.2677 200.248 28.1703C199.864 27.9676 199.525 27.7243 199.232 27.4404C199.224 27.4323 199.211 27.4242 199.194 27.4161L199.081 27.3066C198.889 27.1282 198.688 26.9862 198.479 26.8808C198.404 26.8484 198.333 26.8321 198.266 26.8321C198.123 26.8321 197.981 26.897 197.839 27.0268C197.722 27.2052 197.663 27.3999 197.663 27.6107C197.663 27.8135 197.722 28.0325 197.839 28.2677C198.082 28.7299 198.362 29.0908 198.68 29.3504C199.173 29.7316 199.784 29.987 200.512 30.1168C200.796 30.1654 201.081 30.1898 201.365 30.1898C201.792 30.1898 202.214 30.133 202.633 30.0195C203.31 29.8248 203.825 29.4477 204.176 28.8881C204.419 28.4096 204.54 27.9554 204.54 27.5256C204.54 27.3958 204.532 27.2701 204.515 27.1484C204.423 26.597 204.21 26.0779 203.875 25.5913C203.54 25.0966 203.156 24.6181 202.72 24.1558C202.637 24.0585 202.52 23.9368 202.369 23.7908C202.076 23.4907 201.754 23.142 201.403 22.7446C201.06 22.3391 200.792 21.9376 200.6 21.5402C200.508 21.3375 200.462 21.155 200.462 20.9928C200.462 20.8225 200.508 20.6684 200.6 20.5305C200.801 20.2953 201.043 20.1777 201.328 20.1777C201.428 20.1777 201.537 20.1939 201.654 20.2264C202.089 20.348 202.482 20.5062 202.833 20.7008C202.925 20.7414 203.005 20.7819 203.072 20.8225C203.298 20.9036 203.494 20.9441 203.662 20.9441C203.921 20.9441 204.109 20.8468 204.226 20.6522C204.293 20.5467 204.327 20.4332 204.327 20.3115C204.327 20.0601 204.197 19.7844 203.938 19.4843Z" fill="black"/>
<path d="M103.299 21.1661L103.337 21.2147C103.404 21.3932 103.449 21.604 103.475 21.8473C103.508 22.0825 103.533 22.2934 103.55 22.4799C103.659 24.0371 103.713 25.5983 103.713 27.1636C103.713 27.5529 103.709 27.9421 103.701 28.3314C103.692 28.518 103.684 28.7491 103.675 29.0249C103.65 29.4466 103.638 29.8805 103.638 30.3265C103.638 30.7645 103.667 31.1011 103.726 31.3363C103.868 31.7256 104.127 31.9932 104.504 32.1392C104.746 32.2284 104.993 32.273 105.244 32.273C105.378 32.273 105.512 32.2608 105.646 32.2365C106.039 32.1635 106.336 32.0013 106.537 31.7499C106.746 31.4174 106.859 30.9024 106.875 30.2049C106.884 29.9697 106.888 29.7426 106.888 29.5236C106.888 29.0857 106.875 28.668 106.85 28.2706C106.834 28.0597 106.825 27.8773 106.825 27.7232C106.8 26.9203 106.763 26.1052 106.712 25.2779C106.637 24.2398 106.599 23.222 106.599 22.2244C106.599 21.8352 106.604 21.4499 106.612 21.0687C106.955 21.012 107.302 20.9836 107.653 20.9836C107.762 20.9836 107.875 20.9876 107.992 20.9958H108.306C108.549 20.9958 108.754 20.9147 108.921 20.7525C109.097 20.5821 109.184 20.3794 109.184 20.1442C109.184 19.9009 109.097 19.6981 108.921 19.5359C108.754 19.3656 108.549 19.2805 108.306 19.2805H107.013C106.913 19.2723 106.825 19.2602 106.75 19.244C106.675 19.2196 106.62 19.1629 106.587 19.0736C106.528 18.9033 106.499 18.6438 106.499 18.2951C106.499 18.1572 106.503 18.0071 106.511 17.8449C106.545 17.2691 106.603 16.6933 106.687 16.1175C106.771 15.5335 106.859 15.1077 106.951 14.8401C107.126 14.2643 107.369 13.875 107.679 13.6722C107.913 13.5181 108.222 13.4411 108.607 13.4411C108.741 13.4411 108.883 13.4492 109.034 13.4654C109.184 13.4898 109.352 13.5019 109.536 13.5019H109.674C109.908 13.4938 110.109 13.4371 110.276 13.3316C110.427 13.2343 110.502 13.0762 110.502 12.8572V12.7842C110.418 12.33 110.105 12.0502 109.561 11.9448C109.268 11.888 108.958 11.8596 108.632 11.8596C108.365 11.8596 108.084 11.8799 107.791 11.9204C107.147 12.0015 106.641 12.107 106.273 12.2367C105.587 12.4882 105.043 12.9586 104.642 13.6479C104.24 14.3292 103.951 15.0713 103.776 15.8742C103.6 16.6771 103.512 17.3908 103.512 18.0153V18.2951C103.512 18.5546 103.479 18.7614 103.412 18.9155C103.337 19.102 103.111 19.2237 102.734 19.2805C102.433 19.3129 102.17 19.3981 101.944 19.5359C101.76 19.6495 101.668 19.8441 101.668 20.1199C101.668 20.1685 101.672 20.2212 101.68 20.278C101.739 20.5619 101.86 20.7484 102.044 20.8376C102.228 20.9187 102.433 20.9674 102.659 20.9836C102.743 20.9917 102.826 21.0039 102.91 21.0201H102.935C103.002 21.0363 103.065 21.0525 103.123 21.0688C103.19 21.085 103.249 21.1174 103.299 21.1661Z" fill="black"/>
<path fill-rule="evenodd" clip-rule="evenodd" d="M95.6891 19.3292C94.6601 19.3292 93.7357 19.4833 92.9158 19.7915C91.8617 20.27 91.1046 20.9918 90.6444 21.9569C90.2596 22.776 90.0672 23.6479 90.0672 24.5725C90.0672 24.7428 90.0756 24.9131 90.0923 25.0834C90.176 26.2026 90.5022 27.2164 91.0711 28.1247C91.64 29.0331 92.418 29.6616 93.4052 30.0104C94.0243 30.2131 94.6434 30.3145 95.2624 30.3145C95.5134 30.3145 95.7602 30.2983 96.0028 30.2658C96.8729 30.1523 97.7011 29.8846 98.4875 29.4629C99.5583 28.8222 100.303 27.9463 100.721 26.8352C100.981 26.1296 101.11 25.4119 101.11 24.6819C101.11 24.2602 101.068 23.8385 100.985 23.4168C100.759 22.2408 100.211 21.2392 99.3408 20.4119C98.5126 19.755 97.4794 19.3981 96.2412 19.3414C96.0572 19.3333 95.8731 19.3292 95.6891 19.3292ZM98.3746 27.3948C97.8308 28.1085 97.0862 28.4897 96.1409 28.5384C95.2624 28.4167 94.5848 27.999 94.1079 27.2853C93.6394 26.5716 93.3466 25.8174 93.2295 25.0226C93.1877 24.7712 93.1667 24.5279 93.1667 24.2927C93.1667 23.6438 93.3173 23.0518 93.6185 22.5165C94.0201 21.7866 94.7186 21.3081 95.7142 21.081C95.9651 21.0324 96.2036 21.008 96.4295 21.008C96.9649 21.008 97.4208 21.1378 97.7973 21.3973C98.3327 21.7623 98.7217 22.2773 98.9643 22.9423C99.1735 23.5181 99.2781 24.1183 99.2781 24.7428L99.2655 25.0104C99.2153 25.8863 98.9183 26.6811 98.3746 27.3948Z" fill="black"/>
<path d="M9.95504 23.0058L14.2593 22.5922C14.2509 22.5678 14.2426 22.5273 14.2342 22.4705C14.1924 22.2029 14.1129 21.7122 13.9958 20.9985C13.8787 20.2848 13.7364 19.486 13.5691 18.602C13.4102 17.7098 13.2345 16.8623 13.0421 16.0594C12.858 15.2484 12.6698 14.6117 12.4774 14.1495C12.3435 13.8007 12.2138 13.6263 12.0883 13.6263C12.0549 13.6263 12.0172 13.6466 11.9754 13.6872C11.8081 13.9467 11.5822 14.7334 11.2978 16.0472C11.0133 17.3611 10.7414 18.7114 10.4821 20.0983C10.2228 21.4851 10.0512 22.43 9.96759 22.9328L9.95504 23.0058L9.95504 23.0058ZM9.65387 24.7698C9.49492 25.6862 9.35688 26.6067 9.23976 27.5313C9.1812 28.0666 9.00552 28.5005 8.71271 28.833C8.4199 29.1655 7.9765 29.3318 7.38252 29.3318C6.77181 29.3074 6.37025 29.1168 6.17783 28.76C6.04398 28.5086 5.97705 28.2126 5.97705 27.8719C5.97705 27.7259 5.9896 27.5718 6.0147 27.4096C6.19875 26.0471 6.44972 24.3724 6.76763 22.3854C7.0939 20.3984 7.48292 18.4479 7.93467 16.5339C8.3948 14.6117 8.91767 13.0667 9.50328 11.8989C9.91321 11.1933 10.4319 10.7918 11.0593 10.6945C11.1681 10.6783 11.2769 10.6702 11.3856 10.6702C11.9127 10.6702 12.4355 10.881 12.9542 11.3028C13.4394 11.7488 13.8996 12.5882 14.3346 13.821C14.7696 15.0537 15.1628 16.469 15.5142 18.0667C15.8656 19.6563 16.1667 21.2175 16.4177 22.7503C16.6687 24.2831 16.8611 25.6538 16.995 26.8622C17.0201 27.0244 17.0326 27.1947 17.0326 27.3731C17.0326 27.6083 17.0075 27.8557 16.9573 28.1152C16.8653 28.5694 16.5683 28.8654 16.0663 29.0033C15.9994 29.0114 15.9367 29.0155 15.8781 29.0155C15.602 29.0155 15.3929 28.9141 15.2507 28.7113C15.075 28.468 14.9704 28.1882 14.9369 27.8719C14.8031 26.5986 14.6609 25.4064 14.5103 24.2953L9.65387 24.7698H9.65387Z" fill="black"/>
<path d="M25.5817 9.97082C25.8327 9.94649 26.0753 9.93433 26.3096 9.93433C27.4139 9.93433 28.2672 10.1776 28.8695 10.6642C29.5974 11.2482 30.1035 12.2255 30.388 13.5961C30.4298 13.7826 30.4549 14.0178 30.4633 14.3017V14.3625C30.4633 14.622 30.4172 14.8572 30.3252 15.0681C30.2248 15.2871 30.0282 15.3966 29.7354 15.3966C29.3673 15.3479 29.0871 15.133 28.8946 14.7518C28.7106 14.3706 28.5558 13.9489 28.4303 13.4866C28.2965 12.9676 28.1333 12.562 27.9409 12.2701L27.6649 11.9903C27.4139 11.7875 27.1462 11.6861 26.8617 11.6861C26.7111 11.6861 26.5606 11.7105 26.41 11.7591L26.2217 11.82L26.0084 11.9051C25.1802 12.2457 24.5695 12.9067 24.1763 13.8881C23.7831 14.8694 23.5446 15.9927 23.461 17.2579C23.4275 17.7931 23.4108 18.3243 23.4108 18.8515C23.4108 19.5571 23.4401 20.2505 23.4986 20.9318C23.6074 22.124 23.7496 23.1013 23.9253 23.8636C24.0257 24.3502 24.2014 24.9139 24.4523 25.5546C24.7117 26.1953 25.0631 26.7062 25.5064 27.0874C25.7491 27.2902 26.0293 27.3916 26.3472 27.3916C26.5982 27.3916 26.8743 27.3267 27.1754 27.1969C27.7025 26.8644 28.0622 26.4346 28.2546 25.9074C28.4554 25.3802 28.5977 24.8531 28.6813 24.3259C28.7482 23.8636 28.8444 23.4784 28.9699 23.1702C29.1038 22.8539 29.3297 22.6795 29.6476 22.6471H29.6852C30.0199 22.6471 30.2499 22.7687 30.3754 23.012C30.5009 23.2472 30.5636 23.5189 30.5636 23.8271V23.8879C30.5553 24.2205 30.5218 24.5003 30.4632 24.7274C30.3294 25.4005 30.1035 26.0736 29.7856 26.7468C29.4677 27.4118 29.0369 27.9633 28.4931 28.4013C27.5979 29.0177 26.6609 29.3258 25.6821 29.3258C25.1551 29.3258 24.6197 29.2407 24.0759 29.0704C23.0636 28.6973 22.2772 27.9998 21.7167 26.9779C21.1645 25.9479 20.7797 24.7679 20.5622 23.4378C20.3698 22.2132 20.2736 21.0048 20.2736 19.8126V19.5328C20.2903 18.2595 20.374 17.1808 20.5245 16.2968C20.6668 15.2992 20.9177 14.3463 21.2775 13.4379C21.6456 12.5215 22.1726 11.751 22.8586 11.1265C23.5446 10.4939 24.4523 10.1087 25.5817 9.97083L25.5817 9.97082Z" fill="black"/>
<path d="M38.5245 27.9633C39.4698 27.9146 40.2144 27.5334 40.7582 26.8198C41.3019 26.1061 41.5989 25.3113 41.6491 24.4354L41.6617 24.1677C41.6617 23.5432 41.5571 22.9431 41.348 22.3672C41.1053 21.7022 40.7163 21.1872 40.1809 20.8223C39.8044 20.5627 39.3485 20.433 38.8131 20.433C38.5872 20.433 38.3488 20.4573 38.0978 20.506C37.1023 20.733 36.4037 21.2116 36.0021 21.9415C35.701 22.4767 35.5504 23.0688 35.5504 23.7176C35.5504 23.9528 35.5713 24.1961 35.6131 24.4475C35.7302 25.2423 36.023 25.9966 36.4915 26.7103C36.9684 27.424 37.646 27.8416 38.5245 27.9633H38.5245ZM35.2994 19.2164C36.1193 18.9082 37.0437 18.7542 38.0727 18.7542C38.2567 18.7542 38.4408 18.7582 38.6248 18.7663C39.863 18.8231 40.8962 19.1799 41.7244 19.8369C42.5945 20.6641 43.1424 21.6657 43.3683 22.8417C43.452 23.2634 43.4938 23.6852 43.4938 24.1069C43.4938 24.8368 43.3641 25.5546 43.1048 26.2601C42.6865 27.3712 41.9419 28.2471 40.8711 28.8879C40.0847 29.3096 39.2565 29.5772 38.3864 29.6908C38.1438 29.7232 37.897 29.7394 37.646 29.7394C37.027 29.7394 36.4079 29.6381 35.7888 29.4353C34.8016 29.0866 34.0236 28.458 33.4547 27.5497C32.8858 26.6413 32.5596 25.6276 32.4759 24.5083C32.4592 24.338 32.4508 24.1677 32.4508 23.9974C32.4508 23.0728 32.6432 22.201 33.0281 21.3819C33.4882 20.4167 34.2453 19.6949 35.2994 19.2164H35.2994Z" fill="black"/>
<path d="M47.6774 23.3042C47.7945 24.9343 47.9702 26.0008 48.2044 26.5037C48.5391 27.2255 48.9824 27.6513 49.5346 27.781C49.5764 27.7891 49.6224 27.7932 49.6726 27.7932C49.9152 27.7932 50.1453 27.6959 50.3628 27.5012C50.6305 27.2823 50.8606 27.0187 51.053 26.7105C51.2538 26.4023 51.4002 26.1347 51.4922 25.9076C51.9942 24.5937 52.3037 23.2353 52.4208 21.8322C52.4376 21.6457 52.4459 21.4186 52.4459 21.1509C52.4459 20.7211 52.4752 20.2831 52.5338 19.8371C52.5923 19.391 52.7387 19.0301 52.973 18.7544C53.1487 18.5597 53.4038 18.4624 53.7385 18.4624C53.864 18.4624 53.9978 18.4746 54.14 18.4989C54.55 18.6043 54.8428 18.8233 55.0184 19.1558C55.1941 19.4883 55.2945 19.8695 55.3196 20.2994C55.3447 20.64 55.3573 20.9725 55.3573 21.2969V21.5281C55.3489 21.6822 55.3447 21.82 55.3447 21.9417V22.8541C55.3447 23.4623 55.3405 24.0706 55.3322 24.6789C55.3322 24.9222 55.328 25.1614 55.3196 25.3966V25.7738L55.3322 26.1874C55.3322 26.6253 55.3113 27.0957 55.2694 27.5986C55.2109 28.2636 55.0603 28.7583 54.8177 29.0827C54.5667 29.3017 54.3199 29.4112 54.0773 29.4112C53.9936 29.4112 53.91 29.399 53.8263 29.3747C53.5084 29.2693 53.2365 29.0503 53.0106 28.7178C52.7847 28.3934 52.63 28.0568 52.5463 27.708C52.5212 27.5621 52.5087 27.4566 52.5087 27.3917C52.5087 27.335 52.5045 27.3106 52.4961 27.3187C52.4877 27.3187 52.4668 27.3471 52.4334 27.4039C52.3832 27.4931 52.2702 27.6553 52.0945 27.8905C51.6763 28.4745 51.1785 28.9327 50.6012 29.2652C50.2666 29.4517 49.9027 29.545 49.5095 29.545C49.2167 29.545 48.9113 29.4963 48.5934 29.399C47.9241 29.1395 47.3845 28.661 46.9746 27.9635C46.5647 27.2579 46.2551 26.4915 46.046 25.6643C45.8368 24.8289 45.6863 24.0949 45.5942 23.4624C45.544 23.1785 45.4813 22.7365 45.406 22.1363C45.3307 21.5281 45.2805 20.932 45.2554 20.348C45.247 20.1939 45.2429 20.052 45.2429 19.9222C45.2429 19.5573 45.2763 19.2856 45.3432 19.1072C45.5273 18.7503 45.7699 18.5719 46.0711 18.5719H46.0962C46.1966 18.5476 46.3137 18.5273 46.4476 18.5111C47.2841 18.5111 47.7024 19.095 47.7024 20.2629V21.5281C47.7024 21.9903 47.6941 22.5824 47.6773 23.3042H47.6774Z" fill="black"/>
<path d="M60.7832 25.4209V26.7104C60.7832 26.832 60.779 26.9253 60.7707 26.9902V27.124C60.7707 27.1564 60.7874 27.1848 60.8209 27.2092C60.8543 27.2335 60.9045 27.2659 60.9714 27.3065C60.9798 27.3065 60.9882 27.3105 60.9965 27.3186C61.6742 27.6998 62.2849 27.8904 62.8287 27.8904C63.0796 27.8904 63.3139 27.8499 63.5314 27.7688C64.2258 27.5011 64.7696 26.9942 65.1628 26.2481C65.5643 25.502 65.8069 24.6869 65.8906 23.8029C65.9157 23.5677 65.9282 23.3406 65.9282 23.1216C65.9282 22.5134 65.8404 21.9619 65.6647 21.4671C65.4221 20.8426 65.1167 20.4939 64.7486 20.4209C64.665 20.4047 64.5813 20.3966 64.4977 20.3966C64.1965 20.3966 63.887 20.4939 63.569 20.6886C63.1675 20.94 62.791 21.2482 62.4396 21.6131C61.9544 22.1565 61.6031 22.7161 61.3855 23.2919C61.168 23.8596 60.9923 24.472 60.8585 25.1289L60.7832 25.4209L60.7832 25.4209ZM62.5526 19.3747C63.2386 19.026 63.9455 18.8192 64.6734 18.7543C64.7403 18.7462 64.803 18.7421 64.8616 18.7421C65.5141 18.7421 66.1081 19.0057 66.6435 19.5328C67.2375 20.1979 67.5763 21.0251 67.66 22.0146C67.6767 22.2498 67.6851 22.485 67.6851 22.7202C67.6851 23.4825 67.5847 24.2449 67.3839 25.0072C67.1162 26.0048 66.7481 26.8523 66.2796 27.5498C65.3426 28.9123 64.1923 29.5936 62.8287 29.5936C62.1929 29.5936 61.511 29.4435 60.7832 29.1434C60.7748 30.0599 60.7707 30.9804 60.7707 31.905C60.7707 32.8214 60.7748 33.7379 60.7832 34.6543C60.7916 34.8571 60.7999 35.0761 60.8083 35.3113C60.8334 35.587 60.8459 35.8628 60.8459 36.1385C60.8459 36.3088 60.8418 36.4791 60.8334 36.6494C60.8167 37.0955 60.7079 37.4888 60.5071 37.8295C60.3063 38.1701 59.9592 38.3891 59.4656 38.4864C59.2732 38.5188 59.1017 38.5351 58.9511 38.5351C58.4156 38.5351 58.0643 38.3648 57.897 38.0241C57.7045 37.6511 57.6083 37.1888 57.6083 36.6373C57.6083 36.5481 57.6125 36.4589 57.6209 36.3696C57.6376 33.7906 57.646 31.2156 57.646 28.6447V22.4768C57.646 21.7794 57.6418 21.0778 57.6334 20.3722V20.2993C57.6334 19.2287 58.194 18.6772 59.315 18.6448C60.0512 18.6529 60.4946 18.8435 60.6452 19.2165C60.7623 19.5004 60.8209 19.837 60.8209 20.2263C60.8209 20.356 60.8125 20.4898 60.7958 20.6277C60.7874 20.7007 60.7832 20.7696 60.7832 20.8345C61.0425 20.5101 61.3061 20.2344 61.5738 20.0073C61.8499 19.7802 62.1761 19.5693 62.5526 19.3747V19.3747Z" fill="black"/>
<path d="M71.8937 10.5671C72.4626 10.6401 72.86 10.8632 73.0859 11.2362C73.3118 11.6093 73.4372 12.0432 73.4623 12.5379C73.4791 12.765 73.4874 12.984 73.4874 13.1949C73.4874 13.4544 73.4749 13.7099 73.4498 13.9613C73.3745 14.5939 73.3243 15.4738 73.2992 16.6011C73.2741 17.3473 73.2365 18.0975 73.1863 18.8517C73.1277 19.5898 73.0859 20.3278 73.0608 21.0658V21.1753C73.044 21.5321 73.0357 22.0715 73.0357 22.7933V23.0123C73.0357 23.6692 73.0691 24.3545 73.1361 25.0682C73.203 25.863 73.3369 26.5443 73.5376 27.112C73.7468 27.6797 74.048 27.9879 74.4412 28.0365H74.5165C74.575 28.0365 74.6419 28.0325 74.7172 28.0244C74.8093 28.0081 74.8971 28 74.9808 28C75.0644 28 75.1439 28.0081 75.2192 28.0244C75.3698 28.0568 75.4493 28.1744 75.4576 28.3772C75.4409 28.6205 75.3029 28.8273 75.0435 28.9976C74.7842 29.176 74.4872 29.3058 74.1525 29.3869C73.8932 29.4436 73.6631 29.472 73.4623 29.472C73.3954 29.472 73.3327 29.468 73.2741 29.4599C72.7638 29.3788 72.3288 29.1517 71.969 28.7786C71.6177 28.4136 71.3332 27.9879 71.1157 27.5013C70.8982 27.0146 70.7392 26.5524 70.6388 26.1144C70.4632 25.2872 70.3502 24.4356 70.3 23.5597C70.2498 22.6757 70.2247 21.8038 70.2247 20.9441C70.2164 20.8063 70.2122 20.6684 70.2122 20.5305C70.2038 19.679 70.1996 18.8274 70.1996 17.9758V15.6279C70.1996 14.5492 70.1871 13.6004 70.162 12.7812C70.162 12.3108 70.2331 11.8607 70.3753 11.4309C70.551 10.8956 71.0028 10.6077 71.7306 10.5671H71.8937L71.8937 10.5671Z" fill="black"/>
<path d="M82.7784 20.8345C82.5274 20.4939 82.2178 20.3236 81.8497 20.3236H81.7493C81.3394 20.356 80.942 20.5061 80.5572 20.7737C80.1807 21.0413 79.9005 21.3455 79.7164 21.6861C79.5324 22.0916 79.4111 22.5133 79.3525 22.9513C79.6955 22.9432 80.1724 22.8864 80.7831 22.781C81.4022 22.6674 81.9418 22.4687 82.4019 22.1849C82.7365 21.9821 82.9038 21.7104 82.9038 21.3698C82.9038 21.2562 82.8829 21.1305 82.8411 20.9927L82.7784 20.8345V20.8345ZM79.3902 24.6666C79.3818 24.772 79.3776 24.8815 79.3776 24.9951C79.3776 25.3032 79.4111 25.6358 79.478 25.9926C79.57 26.4711 79.7373 26.8969 79.98 27.27C80.2309 27.643 80.5823 27.8701 81.0341 27.9512C81.1177 27.9593 81.2014 27.9634 81.285 27.9634C81.7535 27.9634 82.1593 27.8052 82.5023 27.4889C82.8955 27.124 83.2134 26.7144 83.456 26.2602C83.5229 26.1305 83.5815 26.0007 83.6317 25.871C83.707 25.6682 83.799 25.4979 83.9078 25.36C83.983 25.2627 84.0918 25.214 84.234 25.214C84.2842 25.214 84.3344 25.2181 84.3846 25.2262C84.6607 25.3073 84.828 25.4817 84.8866 25.7493C84.9117 25.8629 84.9242 25.9845 84.9242 26.1143C84.9242 26.2765 84.9033 26.4427 84.8615 26.613C84.7862 26.9212 84.6983 27.1767 84.5979 27.3795C84.096 28.3121 83.4016 28.965 82.5148 29.3381C81.9627 29.5733 81.3938 29.6909 80.8082 29.6909C80.4484 29.6909 80.0845 29.6463 79.7164 29.5571C78.7376 29.2813 77.9972 28.7582 77.4953 27.9877C77.0017 27.2091 76.6963 26.3292 76.5792 25.3479C76.529 24.9261 76.5039 24.5125 76.5039 24.107C76.5039 23.5555 76.5499 23.0162 76.6419 22.489C76.8929 21.0373 77.4702 19.987 78.3737 19.3382C79.0848 18.8272 79.9465 18.5718 80.9588 18.5718C81.2348 18.5718 81.5235 18.5921 81.8246 18.6326C82.5859 18.7299 83.2427 19.0178 83.7948 19.4963C84.3219 19.9424 84.5854 20.575 84.5854 21.3941V21.5036C84.5519 21.9821 84.4139 22.3998 84.1713 22.7566C83.937 23.1135 83.6275 23.4176 83.2427 23.669C82.6821 24.0097 82.0589 24.253 81.3729 24.399C80.6952 24.5449 80.0343 24.6342 79.3901 24.6666L79.3902 24.6666Z" fill="black"/>
</svg>
