<svg width="154" height="40" viewBox="0 0 154 40" fill="none" xmlns="http://www.w3.org/2000/svg">
<path fill-rule="evenodd" clip-rule="evenodd" d="M129.764 6.57983C129.674 5.36157 129.651 4.14613 130.004 2.95882C130.356 1.77151 131.066 0.885243 132.313 0.533551C134.484 -0.116291 136.79 -0.173611 138.991 0.367553C140.748 0.812091 142.093 3.70722 141.41 5.31093C141.249 5.68835 140.956 5.69192 140.658 5.69556L140.598 5.69638C140.357 5.70195 140.116 5.69914 139.874 5.69634C139.506 5.69205 139.138 5.68777 138.772 5.71327C137.985 5.76672 137.492 5.58103 137.596 4.65256C137.689 3.84227 137.173 3.58905 136.468 3.56373C136.157 3.55249 135.845 3.55621 135.532 3.55996C135.375 3.56184 135.217 3.56373 135.059 3.56373C134.004 3.54966 133.545 4.04203 133.593 5.11117C133.645 6.31943 133.642 7.53217 133.639 8.74339V8.74411L133.638 9.17954C133.638 10.0545 134.052 10.4766 134.923 10.4681H136.333C137.26 10.516 137.785 10.1446 137.672 9.16266C137.559 8.18073 138.047 7.99504 138.91 7.98097C141.687 7.93033 141.969 8.24263 141.382 10.9746C140.993 12.7837 140.198 13.5433 138.377 13.8106C136.658 14.0821 134.908 14.0821 133.189 13.8106C131.176 13.4786 130.333 12.6317 129.998 10.6369C129.89 10.0858 129.816 9.52861 129.775 8.96852C129.747 8.40649 129.753 7.84445 129.759 7.28241C129.761 7.04822 129.764 6.81403 129.764 6.57983ZM135.665 39.7036C134.775 39.7036 133.903 39.7022 133.042 39.7009C130.631 39.6971 128.317 39.6935 126 39.7204C125.315 39.7204 125.118 39.3575 124.946 38.8398C124.766 38.2934 124.579 37.7493 124.391 37.205L124.391 37.2047L124.391 37.2044L124.391 37.2041L124.391 37.2038L124.391 37.2036L124.391 37.2034L124.391 37.2032C124.014 36.1084 123.636 35.0133 123.322 33.8992C123.068 33.0045 122.611 32.7373 121.721 32.7485C118.715 32.7907 115.707 32.771 112.699 32.7485C112.611 32.7485 112.523 32.7516 112.433 32.7548C112.005 32.7699 111.55 32.7859 111.007 32.4672L111.39 31.286L111.392 31.2803L111.392 31.2802L111.392 31.2801L111.392 31.2801L111.392 31.28L111.392 31.2799C112.059 29.2201 112.733 27.1381 113.421 25.0619C113.604 24.5105 114.06 24.5325 114.493 24.5533C114.579 24.5575 114.664 24.5616 114.746 24.5611H120.283C119.664 22.6934 119.064 20.8792 118.472 19.0911L118.469 19.0829C117.774 16.9815 117.091 14.9163 116.403 12.8428C115.959 13.1485 115.855 13.5624 115.757 13.9471C115.731 14.0509 115.705 14.1526 115.673 14.2495L114.941 16.4888L114.941 16.4894L114.941 16.4901C112.61 23.6215 110.278 30.7556 108.024 37.9198C107.607 39.2421 107.103 39.8189 105.625 39.7289C104.022 39.6288 102.411 39.6479 100.8 39.667H100.8H100.799H100.799H100.799H100.798H100.798H100.797C100.011 39.6763 99.2241 39.6857 98.4388 39.6811C98.3351 39.6811 98.23 39.6872 98.1245 39.6934C97.7683 39.7143 97.407 39.7356 97.0742 39.5207C96.9672 39.0935 97.1153 38.7296 97.2607 38.3723C97.3068 38.2589 97.3526 38.1462 97.39 38.0323C98.6669 34.187 99.9472 30.3431 101.228 26.4993L101.228 26.498L101.228 26.4969L101.229 26.496L101.229 26.4944L101.23 26.4931L101.23 26.4915L101.231 26.4902C103.946 18.3366 106.662 10.1837 109.344 2.0191C109.739 0.817724 110.291 0.443524 111.529 0.477287C113.702 0.537675 115.877 0.528446 118.052 0.519218C119.12 0.514687 120.188 0.510157 121.255 0.513862C121.325 0.513862 121.395 0.511736 121.466 0.509605C121.946 0.495107 122.435 0.480364 122.651 1.13284C123.369 3.28317 124.096 5.42921 124.834 7.60673L124.834 7.60698C125.13 8.48077 125.427 9.35963 125.727 10.2459C125.028 10.4532 124.406 10.4299 123.808 10.4076C123.667 10.4023 123.528 10.3971 123.39 10.395C122.662 10.3837 122.437 10.6763 122.4 11.391L122.396 11.4727C122.337 12.6451 122.307 13.2379 122.588 13.5377C122.877 13.8444 123.491 13.8444 124.734 13.8444H124.743C124.976 13.8641 125.211 13.8641 125.445 13.8444C126.573 13.6531 127.089 14.1426 127.447 15.2286C129.351 21.0057 131.308 26.7636 133.266 32.5245L133.267 32.5277L133.268 32.5304L133.269 32.5332L133.27 32.5359L133.271 32.5387C133.679 33.7395 134.087 34.9404 134.495 36.1416L134.648 36.6091C134.963 37.5737 135.284 38.5532 135.665 39.7036ZM29.4674 15.6451C29.4674 14.4327 29.4698 13.2201 29.4722 12.0075C29.4788 8.67238 29.4854 5.33656 29.442 2.00225C29.4279 0.823376 29.8057 0.466057 30.9672 0.505447C33.3608 0.581412 35.76 0.575785 38.1536 0.505447C39.2221 0.474498 39.5013 0.840257 39.4984 1.87564C39.4702 9.94204 39.4702 18.0056 39.4702 26.0692C39.4445 27.0533 39.5191 28.0375 39.693 29.0065C39.8931 29.9716 40.4288 30.509 41.3648 30.6384C42.4333 30.7847 43.5103 30.9057 44.5845 30.9704C45.1737 31.007 45.4302 31.2067 45.4302 31.8144C45.4133 34.2528 45.4133 36.6912 45.4302 39.1296C45.4302 39.8246 45.1258 40.0187 44.4858 39.9878C41.4804 39.8443 38.4891 39.6586 35.5937 38.7217C33.0338 37.8776 31.3647 36.1895 30.4851 33.6883C29.6534 31.353 29.4984 28.9221 29.4814 26.4828C29.4608 24.0762 29.4677 21.6683 29.4746 19.2609V19.2606V19.2602V19.2599V19.2596V19.2593V19.259V19.2587C29.478 18.0558 29.4814 16.8531 29.4814 15.6507L29.4674 15.6451ZM62.612 19.1801C62.6101 17.8206 62.6082 16.461 62.6082 15.1021H62.6364C62.6364 13.9465 62.634 12.79 62.6316 11.6328V11.6309V11.629V11.6271V11.6252V11.6233V11.6215C62.625 8.4266 62.6183 5.22698 62.6618 2.0304C62.6759 0.89373 62.3939 0.457632 61.1873 0.502649C59.5505 0.564779 57.9109 0.55267 56.2714 0.540562C55.6094 0.535673 54.9474 0.530784 54.2856 0.530784C52.6701 0.533598 52.6701 0.542038 52.6701 2.17107V25.6444C52.671 26.7694 52.5824 27.8927 52.4051 29.0037C52.2585 29.9435 51.7172 30.5259 50.753 30.6468C50.5887 30.6671 50.4244 30.6879 50.2601 30.7087L50.2588 30.7088L50.2588 30.7089C49.3979 30.8178 48.5381 30.9265 47.6743 30.962C46.9893 30.9901 46.6453 31.1673 46.6453 31.9214C46.6678 34.3072 46.6594 36.7016 46.6453 39.0903C46.6425 39.7317 46.8708 40.0159 47.5559 39.999C50.5669 39.9174 53.5554 39.698 56.4367 38.7217C59.0192 37.8495 60.7108 36.1023 61.5961 33.5448C62.2718 31.5432 62.6137 29.4446 62.6082 27.3325C62.6195 24.6191 62.6157 21.9006 62.612 19.1822V19.1801ZM84.2437 28.0781C83.7725 28.0781 83.2934 28.0753 82.8089 28.0725H82.8088H82.8087H82.8085H82.8084H82.8083C81.8232 28.0669 80.816 28.0611 79.8089 28.0781C79.0054 28.0977 78.6079 27.8867 78.6276 26.9808C78.6784 24.7299 78.6784 22.4791 78.6276 20.2283C78.6079 19.3308 78.9716 19.131 79.792 19.131C80.3083 19.131 80.8247 19.1369 81.3411 19.1429C83.2641 19.1649 85.1873 19.187 87.1053 18.9031C88.2471 18.7315 88.8983 18.18 89.0337 17.0434C89.2456 15.1326 89.2362 13.2039 89.0055 11.2953C88.8814 10.1699 88.264 9.70568 87.1701 9.57063C84.8273 9.28928 82.4788 9.33711 80.1359 9.38775C78.9885 9.41307 78.5656 9.1064 78.6163 7.90783C78.6823 6.41579 78.6689 4.91809 78.6555 3.42275V3.42265V3.42255V3.42246V3.42236V3.42226V3.42107V3.41987V3.41867V3.41748V3.41628C78.65 2.80461 78.6445 2.19334 78.6445 1.58301C78.6445 1.04563 78.6445 0.513869 79.4057 0.527937C80.4975 0.548577 81.591 0.534452 82.6845 0.520327C85.7647 0.480541 88.8449 0.440752 91.8868 1.17786C95.5294 2.06131 97.8073 4.31214 98.6249 7.95004C99.5688 12.1731 99.5842 16.5502 98.6701 20.7797C97.9173 24.3473 95.7239 26.5025 92.1546 27.3493C90.1132 27.8464 88.0455 27.9252 85.9418 28.0053L85.9415 28.0053L85.9413 28.0053L85.941 28.0054L85.9408 28.0054L85.9405 28.0054C85.3776 28.0268 84.812 28.0484 84.2437 28.0781ZM67.4096 15.5567V15.5573V15.5578V15.5583V15.5589C67.4082 17.0697 67.4068 18.5804 67.4068 20.0904C67.4068 22.0293 67.4088 23.9682 67.4108 25.9065V25.9084V25.9103V25.9122V25.9141C67.4151 30.0626 67.4194 34.2082 67.404 38.3446C67.3955 39.3603 67.6295 39.7485 68.7234 39.7148C71.2072 39.6444 73.6967 39.6698 76.1861 39.7148C77.0516 39.7288 77.4463 39.5178 77.4463 38.5612C77.4313 26.2867 77.4416 14.0131 77.4773 1.74052C77.4801 0.705136 77.0403 0.488494 76.1241 0.505376C73.6769 0.556019 71.2326 0.581341 68.7939 0.505376C67.6436 0.4688 67.3842 0.885202 67.3842 1.95997C67.4181 6.48431 67.4138 11.0213 67.4096 15.5567ZM10.0325 24.8786V24.8788C10.0265 29.3085 10.0205 33.7386 10.0621 38.1702C10.0621 39.3969 9.74071 39.7936 8.4833 39.7402C6.13244 39.6426 3.77896 39.6808 1.42539 39.7189H1.42531H1.42522H1.42494L1.15311 39.7233C0.327057 39.7233 -0.0028014 39.5263 1.79069e-05 38.6288C0.0263314 26.2943 0.0263314 13.9607 1.79069e-05 1.62804C1.79069e-05 0.741777 0.335515 0.502627 1.15593 0.516695C3.60027 0.550457 6.0446 0.581406 8.48612 0.516695C9.65613 0.468865 10.0198 0.843065 10.0085 2.01631C9.97294 6.50995 9.97779 11.0036 9.98263 15.4972C9.98431 17.0527 9.98599 18.6081 9.98599 20.1636H10.0367C10.0367 21.7352 10.0346 23.3067 10.0325 24.8783V24.8785V24.8786ZM21.2467 30.4314C20.5125 30.428 19.7783 30.4245 19.0444 30.4245C18.321 30.4245 17.5975 30.4271 16.8744 30.4298H16.8743H16.8741C15.3489 30.4353 13.8258 30.4408 12.3091 30.4217C11.5141 30.4105 11.2519 30.6918 11.2519 31.4768C11.2885 33.8486 11.297 36.2485 11.2519 38.6316C11.235 39.515 11.5817 39.7317 12.4106 39.7317C16.8614 39.6979 21.314 39.6979 25.7685 39.7317C26.6143 39.7317 26.9103 39.4503 26.8962 38.6063C26.8539 36.2682 26.8426 33.9302 26.8962 31.5921C26.9159 30.6412 26.5297 30.4048 25.6529 30.4245C24.1849 30.4452 22.7156 30.4383 21.2467 30.4314ZM145.025 3.61905C146.068 3.58938 147.114 3.55959 148.154 3.73256C148.172 4.19377 147.939 4.45031 147.716 4.695C147.658 4.75929 147.6 4.82276 147.548 4.88892C147.336 5.15369 147.125 5.41854 146.914 5.68311C145.865 6.99855 144.822 8.30713 143.714 9.56501C143.337 9.97788 143.047 10.4627 142.862 10.9902C142.678 11.5177 142.602 12.0771 142.64 12.6346C142.665 13.594 142.913 13.9457 143.914 13.926C146.778 13.8641 149.643 13.8444 152.504 13.926C153.683 13.9626 154.137 13.5687 153.965 12.4179C153.926 12.1379 153.926 11.8539 153.965 11.5739C154.063 10.7017 153.683 10.4147 152.837 10.4485C151.846 10.4741 150.854 10.4664 149.761 10.4578C149.175 10.4533 148.56 10.4485 147.9 10.4485C148.498 9.71838 149.062 9.01605 149.608 8.33564C150.713 6.96029 151.746 5.67452 152.834 4.43031C153.231 4.00588 153.534 3.50313 153.724 2.95453C153.914 2.40593 153.986 1.82368 153.937 1.24539C153.889 0.401334 153.607 0.11998 152.761 0.11998C149.846 0.142489 146.933 0.142489 144.021 0.11998C143.266 0.11154 142.865 0.333809 142.947 1.15817C142.992 1.57806 142.992 2.00156 142.947 2.42145C142.834 3.35836 143.22 3.65378 144.134 3.63971C144.43 3.63597 144.727 3.62751 145.025 3.61905Z" fill="black"/>
</svg>
