<svg width="104" height="40" viewBox="0 0 104 40" fill="none" xmlns="http://www.w3.org/2000/svg">
<g clip-path="url(#clip0)">
<path fill-rule="evenodd" clip-rule="evenodd" d="M51.715 0H103.333V40H51.715H51.6183H0V0H51.6183H51.715ZM87.2599 5.90658H77.7283V33.8799H87.2599V5.90658ZM33.51 33.8799V25.4116H25.8916V5.90658H16.36V33.8799H33.51ZM57.604 13.6457C59.7174 13.6199 61.7524 14.4739 63.2525 16.0161L67.167 8.65607C64.5462 6.16991 60.8553 5.15991 56.9713 5.15991C48.5836 5.15991 42.2738 11.0572 42.2738 19.8934C42.2738 28.7295 48.6983 34.6268 57.0864 34.6268C61.4368 34.6268 64.5789 33.5768 67.2821 31.0114L62.9139 24.2372C61.585 25.5763 59.7917 26.305 57.9382 26.2591C54.4649 26.2591 51.5515 23.9038 51.5515 19.8826C51.5515 16.0472 54.3093 13.6457 57.604 13.6457Z" fill="black"/>
</g>
<defs>
<clipPath id="clip0">
<rect width="103.333" height="40" fill="white"/>
</clipPath>
</defs>
</svg>
