<svg width="312" height="40" viewBox="0 0 312 40" fill="none" xmlns="http://www.w3.org/2000/svg">
<path d="M45.4609 35.2696C45.3565 35.2696 45.287 35.2 45.287 35.0957V4.90435C45.287 4.8 45.3565 4.73044 45.4609 4.73044H59.0261C65.2174 4.73044 69.0435 7.72174 69.0435 12.5565V12.6609C69.0435 15.5478 67.7565 17.6696 65.0783 19.1652L64.7304 19.3739L65.113 19.513C69.0783 21.0435 70.7826 23.2696 70.7826 26.9565V27.0609C70.7826 32.3478 66.6435 35.3739 59.3739 35.3739H45.4609V35.2696ZM59.3739 29.6696C62.6087 29.6696 64.3826 28.4174 64.3826 26.1217V26.0174C64.3826 23.687 62.5739 22.4696 59.1652 22.4696H51.5478V29.6348H59.3739V29.6696ZM57.5652 17.2174C60.9043 17.2174 62.6435 16.0348 62.6435 13.7739V13.6696C62.6435 11.5478 60.9391 10.2957 57.9826 10.2957H51.513V17.2174H57.5652ZM86.9217 35.7217C82.2261 35.7217 77.7043 34.0522 74.1913 31.0609C74.1217 30.9913 74.1217 30.887 74.1565 30.8174L77.7043 26.5391C77.7391 26.5043 77.8087 26.4696 77.8435 26.4696C77.8783 26.4696 77.913 26.4696 77.9478 26.5043C80.9739 28.9391 83.8609 30.087 87.0261 30.087C89.8783 30.087 91.687 28.9043 91.687 26.9913V26.887C91.687 24.9391 90.3304 24.0696 85.3217 22.7826C78.4696 21.0435 75.2 19.2 75.2 13.4957V13.3913C75.2 7.93043 79.4783 4.24348 85.8435 4.24348C90.0522 4.24348 93.7739 5.49565 96.9391 7.93043C97.0087 8 97.0435 8.10435 96.9739 8.17391L93.8435 12.7304C93.8087 12.7652 93.7391 12.8 93.7043 12.8C93.6696 12.8 93.6348 12.8 93.6 12.7652C90.713 10.8174 88.1739 9.87826 85.7391 9.87826C83.2 9.87826 81.5652 10.9913 81.5652 12.7652V12.8696C81.5652 15.1652 83.3391 15.8261 88.3826 17.113C94.3652 18.6783 98.0522 20.7304 98.0522 26.2261V26.3304C98.0869 32.1043 93.8087 35.7217 86.9217 35.7217V35.7217ZM103.374 35.2696C103.27 35.2696 103.2 35.2 103.2 35.0957V4.90435C103.2 4.8 103.27 4.73044 103.374 4.73044H125.148C125.252 4.73044 125.322 4.8 125.322 4.90435V10.2261C125.322 10.3304 125.252 10.4 125.148 10.4H109.565V17.0435H123.13C123.235 17.0435 123.304 17.113 123.304 17.2174V22.5391C123.304 22.6435 123.235 22.713 123.13 22.713H109.565V29.5652H125.357C125.461 29.5652 125.53 29.6348 125.53 29.7391V35.0609C125.53 35.1652 125.461 35.2348 125.357 35.2348H103.374V35.2696ZM149.53 35.2696C149.461 35.2696 149.426 35.2348 149.391 35.2L142.817 25.3913H137.183V35.0957C137.183 35.2 137.113 35.2696 137.009 35.2696H130.922C130.817 35.2696 130.748 35.2 130.748 35.0957V4.90435C130.748 4.8 130.817 4.73044 130.922 4.73044H144.696C151.896 4.73044 156.174 8.48696 156.174 14.7478V14.8522C156.174 20.6261 152.626 23.1652 149.67 24.2783L149.461 24.3478L156.765 35.0261C156.8 35.0957 156.8 35.1652 156.765 35.2C156.73 35.2696 156.661 35.3043 156.591 35.3043H149.53V35.2696ZM144.243 19.7217C147.513 19.7217 149.635 17.9478 149.635 15.1652V15.0609C149.635 12.1391 147.617 10.4696 144.104 10.4696H137.148V19.7217H144.243ZM170.365 35.2696C170.296 35.2696 170.226 35.2348 170.191 35.1652L157.983 4.97391C157.948 4.90435 157.983 4.86957 158.017 4.8C158.052 4.76522 158.122 4.73044 158.157 4.73044H164.87C164.939 4.73044 165.009 4.76522 165.043 4.83478L173.217 26.5043L181.391 4.83478C181.426 4.76522 181.496 4.73044 181.565 4.73044H188.104C188.174 4.73044 188.209 4.76522 188.243 4.8C188.278 4.83478 188.278 4.90435 188.278 4.97391L176.07 35.1652C176.035 35.2348 175.965 35.2696 175.896 35.2696H170.365V35.2696ZM209.043 35.2696C208.974 35.2696 208.904 35.2348 208.87 35.1652L206.087 28.3478H192.73L189.948 35.1652C189.913 35.2348 189.843 35.2696 189.774 35.2696H183.617C183.548 35.2696 183.513 35.2348 183.478 35.2C183.443 35.1652 183.443 35.0957 183.478 35.0261L196.487 4.83478C196.522 4.76522 196.591 4.73044 196.661 4.73044H202.47C202.539 4.73044 202.609 4.76522 202.643 4.83478L215.617 35.0261C215.652 35.0957 215.652 35.1304 215.617 35.2C215.583 35.2348 215.513 35.2696 215.478 35.2696H209.043V35.2696ZM203.791 22.6783L199.409 11.9652L195.026 22.6783H203.791ZM219.13 35.2696C219.026 35.2696 218.957 35.2 218.957 35.0957V4.90435C218.957 4.8 219.026 4.73044 219.13 4.73044H230.852C240.313 4.73044 247.165 11.1304 247.165 19.9304V20.0348C247.165 28.9043 240.313 35.3043 230.852 35.3043H219.13V35.2696ZM230.852 29.4957C236.557 29.4957 240.383 25.7043 240.383 20.0696V19.9652C240.383 14.3652 236.452 10.4696 230.852 10.4696H225.391V29.4957H230.852ZM304.696 35.2696C304.626 35.2696 304.591 35.2348 304.556 35.2L297.948 25.3913H292.313V35.0957C292.313 35.2 292.243 35.2696 292.139 35.2696H286.052C285.948 35.2696 285.878 35.2 285.878 35.0957V4.90435C285.878 4.8 285.948 4.73044 286.052 4.73044H299.861C307.061 4.73044 311.374 8.48696 311.374 14.7478V14.8522C311.374 20.6261 307.826 23.1652 304.835 24.2783L304.626 24.3478L311.93 35.0261C311.965 35.0957 311.965 35.1652 311.93 35.2C311.896 35.2696 311.826 35.3043 311.756 35.3043H304.696V35.2696ZM299.409 19.7217C302.713 19.7217 304.835 17.9478 304.835 15.1652V15.0609C304.835 12.1391 302.817 10.4696 299.304 10.4696H292.348V19.7217H299.409ZM266.504 35.7913C257.774 35.7913 250.643 28.6957 250.643 19.9652C250.643 11.2348 257.774 4.17391 266.504 4.17391C275.235 4.17391 282.365 11.2696 282.365 20C282.365 28.7304 275.27 35.7913 266.504 35.7913ZM266.504 10.4696C261.287 10.4696 257.078 14.7478 257.078 19.9652C257.078 25.1826 261.322 29.4609 266.504 29.4609C271.722 29.4609 275.93 25.1826 275.93 19.9652C275.93 14.7478 271.722 10.4696 266.504 10.4696V10.4696ZM20 0C8.93913 0 0 8.93913 0 20C0 31.0609 8.93913 40 20 40C31.0609 40 40 31.0609 40 20C40 8.93913 31.0609 0 20 0ZM20 32.9391C12.8696 32.9391 7.06087 27.1304 7.06087 20C7.06087 12.8696 12.8696 7.06087 20 7.06087C27.1304 7.06087 32.9391 12.8696 32.9391 20C32.9391 27.1304 27.1304 32.9391 20 32.9391Z" fill="black"/>
</svg>
