<svg width="187" height="40" viewBox="0 0 187 40" fill="none" xmlns="http://www.w3.org/2000/svg">
<path d="M12.72 18.4001L12.192 21.7121H14.856V24.1601H11.784L11.16 28.0001H8.40002L9.02402 24.1601H5.90402L5.30402 28.0001H2.52002L3.12002 24.1601H0.624023V21.7121H3.52802L4.05602 18.4001H1.65602V15.9521H4.46402L5.06402 12.1601H7.84802L7.24802 15.9521H10.344L10.944 12.1601H13.728L13.128 15.9521H15.888V18.4001H12.72ZM9.96002 18.4001H6.84002L6.31202 21.7121H9.40802L9.96002 18.4001Z" fill="black"/>
<path d="M25.4269 15.7601C25.9709 15.7601 26.4029 15.8481 26.7229 16.0241L26.2909 19.4801C26.1309 19.3841 25.9149 19.3041 25.6429 19.2401C25.3709 19.1601 25.0829 19.1201 24.7789 19.1201C24.0109 19.1201 23.3709 19.3681 22.8589 19.8641C22.3469 20.3441 22.0909 21.0401 22.0909 21.9521V28.0001H18.0109V16.0001H21.6109L21.7789 18.5921C22.0669 17.6801 22.5149 16.9841 23.1229 16.5041C23.7469 16.0081 24.5149 15.7601 25.4269 15.7601Z" fill="black"/>
<path d="M33.9428 15.7601C35.9428 15.7601 37.4948 16.3121 38.5988 17.4161C39.7188 18.5041 40.2788 20.0321 40.2788 22.0001C40.2788 23.9681 39.7188 25.5041 38.5988 26.6081C37.4948 27.6961 35.9428 28.2401 33.9428 28.2401C31.9428 28.2401 30.3828 27.6961 29.2628 26.6081C28.1588 25.5041 27.6068 23.9681 27.6068 22.0001C27.6068 20.0321 28.1588 18.5041 29.2628 17.4161C30.3828 16.3121 31.9428 15.7601 33.9428 15.7601ZM33.9428 18.6641C33.1748 18.6641 32.6068 18.9281 32.2388 19.4561C31.8708 19.9841 31.6868 20.8321 31.6868 22.0001C31.6868 23.1681 31.8708 24.0161 32.2388 24.5441C32.6068 25.0721 33.1748 25.3361 33.9428 25.3361C34.7108 25.3361 35.2788 25.0721 35.6468 24.5441C36.0148 24.0161 36.1988 23.1681 36.1988 22.0001C36.1988 20.8321 36.0148 19.9841 35.6468 19.4561C35.2788 18.9281 34.7108 18.6641 33.9428 18.6641Z" fill="black"/>
<path d="M54.5723 16.0001V28.0001H50.9243L50.8043 25.7681C50.0523 27.4161 48.6683 28.2401 46.6523 28.2401C45.3723 28.2401 44.3643 27.9041 43.6283 27.2321C42.9083 26.5441 42.5483 25.4721 42.5483 24.0161V16.0001H46.6283V22.9841C46.6283 23.7681 46.7643 24.3201 47.0363 24.6401C47.3083 24.9601 47.7243 25.1201 48.2843 25.1201C48.9563 25.1201 49.4923 24.8961 49.8923 24.4481C50.2923 23.9841 50.4923 23.2881 50.4923 22.3601V16.0001H54.5723Z" fill="black"/>
<path d="M62.4711 28.2401C59.7191 28.2401 57.7671 27.5361 56.6151 26.1281L58.7271 23.8241C59.4151 24.9601 60.5991 25.5281 62.2791 25.5281C62.8391 25.5281 63.2791 25.4561 63.5991 25.3121C63.9191 25.1521 64.0791 24.9441 64.0791 24.6881C64.0791 24.4641 63.9111 24.2721 63.5751 24.1121C63.2551 23.9361 62.6951 23.7681 61.8951 23.6081C60.1031 23.2561 58.8231 22.7761 58.0551 22.1681C57.3031 21.5601 56.9271 20.7521 56.9271 19.7441C56.9271 19.0561 57.1431 18.4081 57.5751 17.8001C58.0071 17.1921 58.6551 16.7041 59.5191 16.3361C60.3991 15.9521 61.4631 15.7601 62.7111 15.7601C64.0871 15.7601 65.2071 15.9521 66.0711 16.3361C66.9511 16.7041 67.6631 17.2641 68.2071 18.0161L66.0951 20.0801C65.7111 19.5201 65.2551 19.1121 64.7271 18.8561C64.1991 18.6001 63.5671 18.4721 62.8311 18.4721C62.2551 18.4721 61.8071 18.5601 61.4871 18.7361C61.1671 18.9121 61.0071 19.1281 61.0071 19.3841C61.0071 19.6241 61.1671 19.8321 61.4871 20.0081C61.8231 20.1681 62.3991 20.3281 63.2151 20.4881C64.9751 20.7921 66.2391 21.2481 67.0071 21.8561C67.7911 22.4481 68.1831 23.2641 68.1831 24.3041C68.1831 25.4721 67.6951 26.4241 66.7191 27.1601C65.7431 27.8801 64.3271 28.2401 62.4711 28.2401Z" fill="black"/>
<path d="M76.324 23.0801L74.38 25.2401V28.0001H70.3V10.9121H74.38V21.0401L78.964 16.0001H83.476L79.06 20.7041L83.74 28.0001H79.228L76.324 23.0801Z" fill="black"/>
<path d="M93.0536 28.0001C92.6056 29.2801 92.1176 30.2961 91.5896 31.0481C91.0616 31.8001 90.4377 32.3361 89.7177 32.6561C88.9977 32.9921 88.1256 33.1601 87.1016 33.1601C85.7416 33.1601 84.6536 32.8641 83.8376 32.2721L84.7016 29.5361C84.9576 29.7761 85.2376 29.9361 85.5416 30.0161C85.8616 30.1121 86.2696 30.1601 86.7656 30.1601C87.2616 30.1601 87.6537 30.0721 87.9417 29.8961C88.2297 29.7361 88.4616 29.4401 88.6376 29.0081L88.9257 28.2641L87.5336 25.0001L83.9576 16.0001H88.4456L90.2936 22.8401L90.8697 25.3841L91.5176 22.7441L93.3656 16.0001H97.4456L93.0536 28.0001Z" fill="black"/>
<path d="M103.674 28.2401C100.922 28.2401 98.9702 27.5361 97.8182 26.1281L99.9302 23.8241C100.618 24.9601 101.802 25.5281 103.482 25.5281C104.042 25.5281 104.482 25.4561 104.802 25.3121C105.122 25.1521 105.282 24.9441 105.282 24.6881C105.282 24.4641 105.114 24.2721 104.778 24.1121C104.458 23.9361 103.898 23.7681 103.098 23.6081C101.306 23.2561 100.026 22.7761 99.2582 22.1681C98.5062 21.5601 98.1302 20.7521 98.1302 19.7441C98.1302 19.0561 98.3462 18.4081 98.7782 17.8001C99.2102 17.1921 99.8582 16.7041 100.722 16.3361C101.602 15.9521 102.666 15.7601 103.914 15.7601C105.29 15.7601 106.41 15.9521 107.274 16.3361C108.154 16.7041 108.866 17.2641 109.41 18.0161L107.298 20.0801C106.914 19.5201 106.458 19.1121 105.93 18.8561C105.402 18.6001 104.77 18.4721 104.034 18.4721C103.458 18.4721 103.01 18.5601 102.69 18.7361C102.37 18.9121 102.21 19.1281 102.21 19.3841C102.21 19.6241 102.37 19.8321 102.69 20.0081C103.026 20.1681 103.602 20.3281 104.418 20.4881C106.178 20.7921 107.442 21.2481 108.21 21.8561C108.994 22.4481 109.386 23.2641 109.386 24.3041C109.386 25.4721 108.898 26.4241 107.922 27.1601C106.946 27.8801 105.53 28.2401 103.674 28.2401Z" fill="black"/>
<path d="M120.215 27.3281C119.815 27.6001 119.303 27.8241 118.679 28.0001C118.071 28.1601 117.455 28.2401 116.831 28.2401C115.407 28.2401 114.319 27.9361 113.567 27.3281C112.815 26.7201 112.431 25.7441 112.415 24.4001V18.9041H110.351V16.0001H112.415V13.3121L116.495 12.1841V16.0001H120.095V18.9041H116.495V23.7281C116.495 24.8001 117.023 25.3361 118.079 25.3361C118.735 25.3361 119.311 25.1601 119.807 24.8081L120.215 27.3281Z" fill="black"/>
<path d="M133.885 16.0001V28.0001H130.237L130.117 25.7681C129.365 27.4161 127.981 28.2401 125.965 28.2401C124.685 28.2401 123.677 27.9041 122.941 27.2321C122.221 26.5441 121.861 25.4721 121.861 24.0161V16.0001H125.941V22.9841C125.941 23.7681 126.077 24.3201 126.349 24.6401C126.621 24.9601 127.037 25.1201 127.597 25.1201C128.269 25.1201 128.805 24.8961 129.205 24.4481C129.605 23.9841 129.805 23.2881 129.805 22.3601V16.0001H133.885Z" fill="black"/>
<path d="M140.848 23.8481C140.848 24.3921 140.928 24.7761 141.088 25.0001C141.248 25.2241 141.536 25.3361 141.952 25.3361C142.336 25.3361 142.744 25.2641 143.176 25.1201L142.912 27.6401C142.624 27.8161 142.248 27.9601 141.784 28.0721C141.32 28.1841 140.864 28.2401 140.416 28.2401C139.136 28.2401 138.208 27.9441 137.632 27.3521C137.056 26.7441 136.768 25.7761 136.768 24.4481V10.9121H140.848V23.8481Z" fill="black"/>
<path d="M150.691 23.0801L148.747 25.2401V28.0001H144.667V10.9121H148.747V21.0401L153.331 16.0001H157.843L153.427 20.7041L158.107 28.0001H153.595L150.691 23.0801Z" fill="black"/>
<path d="M164.701 15.7601C166.701 15.7601 168.253 16.3121 169.357 17.4161C170.477 18.5041 171.037 20.0321 171.037 22.0001C171.037 23.9681 170.477 25.5041 169.357 26.6081C168.253 27.6961 166.701 28.2401 164.701 28.2401C162.701 28.2401 161.141 27.6961 160.021 26.6081C158.917 25.5041 158.365 23.9681 158.365 22.0001C158.365 20.0321 158.917 18.5041 160.021 17.4161C161.141 16.3121 162.701 15.7601 164.701 15.7601ZM164.701 18.6641C163.933 18.6641 163.365 18.9281 162.997 19.4561C162.629 19.9841 162.445 20.8321 162.445 22.0001C162.445 23.1681 162.629 24.0161 162.997 24.5441C163.365 25.0721 163.933 25.3361 164.701 25.3361C165.469 25.3361 166.037 25.0721 166.405 24.5441C166.773 24.0161 166.957 23.1681 166.957 22.0001C166.957 20.8321 166.773 19.9841 166.405 19.4561C166.037 18.9281 165.469 18.6641 164.701 18.6641Z" fill="black"/>
<path d="M185.33 16.0001V28.0001H181.682L181.562 25.7681C180.81 27.4161 179.426 28.2401 177.41 28.2401C176.13 28.2401 175.122 27.9041 174.386 27.2321C173.666 26.5441 173.306 25.4721 173.306 24.0161V16.0001H177.386V22.9841C177.386 23.7681 177.522 24.3201 177.794 24.6401C178.066 24.9601 178.482 25.1201 179.042 25.1201C179.714 25.1201 180.25 24.8961 180.65 24.4481C181.05 23.9841 181.25 23.2881 181.25 22.3601V16.0001H185.33Z" fill="black"/>
</svg>
