<svg width="255" height="40" viewBox="0 0 255 40" fill="none" xmlns="http://www.w3.org/2000/svg">
<path d="M130.897 29.5337C130.839 29.4743 130.782 29.4157 130.734 29.3562L129.855 28.2628L129.816 28.214L129.776 28.1633L129.773 28.1604L129.758 28.1414L129.746 28.1259C127.525 25.3622 125.302 22.5968 123.035 19.8736C122.528 19.2588 122.503 18.8801 123.062 18.2716C125.016 16.1499 126.935 13.9978 128.854 11.8455L128.855 11.8443C129.364 11.2732 129.873 10.7021 130.383 10.1315C130.425 10.0851 130.474 10.0389 130.524 9.9918C130.714 9.81234 130.919 9.61947 130.781 9.34646C130.644 9.07512 130.368 9.09912 130.11 9.12166C130.04 9.12774 129.971 9.13371 129.907 9.13371C129.727 9.13101 129.547 9.12955 129.367 9.12898C128.969 9.12774 128.572 9.13075 128.175 9.13376C127.333 9.14015 126.491 9.14649 125.652 9.11241C124.826 9.07839 124.262 9.38262 123.737 9.99325C121.911 12.1165 120.052 14.21 118.192 16.3014C118.136 16.3623 118.084 16.4316 118.031 16.5021C117.858 16.7326 117.674 16.9767 117.316 16.9865C117.163 16.6614 117.179 16.3363 117.195 16.0112C117.197 15.9733 117.199 15.9353 117.201 15.8974C117.203 15.8349 117.205 15.7725 117.205 15.71C117.204 14.8463 117.202 13.9826 117.2 13.119C117.19 9.16435 117.181 5.21056 117.218 1.25536C117.235 0.259673 116.899 -0.0658499 115.941 0.0107131C115.378 0.0552276 114.807 0.0448911 114.238 0.0345546C114.1 0.0320614 113.963 0.0295681 113.826 0.027854C113.716 0.0265035 113.607 0.0256205 113.497 0.0256205C112.071 0.0298798 112.071 0.0320094 112.071 1.42344V21.7267C112.071 22.4555 112.073 23.1844 112.075 23.9134C112.08 25.7704 112.085 27.6281 112.059 29.4859C112.046 30.3093 112.331 30.6412 113.165 30.6029C114.156 30.5561 115.154 30.5518 116.144 30.6029C116.995 30.6454 117.252 30.2901 117.226 29.4753C117.193 28.3763 117.201 27.2784 117.208 26.1808L117.211 25.5849C117.213 25.3214 117.214 25.058 117.214 24.7946V21.3374C117.628 21.3269 117.762 21.5349 117.886 21.7274C117.913 21.7699 117.94 21.8116 117.969 21.8501L119.215 23.4316L119.218 23.4353C120.82 25.466 122.421 27.4968 123.981 29.5583C124.556 30.3178 125.177 30.6539 126.128 30.6071C126.999 30.5644 127.873 30.5725 128.747 30.5807C129.222 30.5852 129.696 30.5896 130.17 30.5859C130.241 30.585 130.316 30.5896 130.391 30.5943C130.681 30.6121 130.989 30.631 131.149 30.3476C131.348 30.0001 131.117 29.761 130.897 29.5337Z" fill="black"/>
<path fill-rule="evenodd" clip-rule="evenodd" d="M218.49 17.2546C218.162 14.7782 216.916 12.5153 214.998 10.9149C213.08 9.31457 210.631 8.49373 208.136 8.61532C205.641 8.73692 203.283 9.79208 201.53 11.5714C199.776 13.3506 198.756 15.724 198.671 18.2205C198.625 27.5818 204.163 32.2348 211.59 30.6157C214.698 29.937 216.985 28.1945 218.053 25.084C218.434 23.9798 218.324 23.8372 217.185 23.8245C216.789 23.8206 216.393 23.8237 215.997 23.8269H215.989C215.324 23.8322 214.659 23.8375 213.994 23.8096C213.356 23.7819 212.99 24.0224 212.632 24.5564C211.618 26.0989 210.026 26.4201 208.331 26.2839C206.635 26.1478 205.318 25.3265 204.65 23.6671C203.818 21.6033 204.012 21.3097 206.203 21.3097C206.573 21.3097 206.944 21.3095 207.314 21.3091L207.909 21.3085C208.576 21.3076 209.244 21.3064 209.912 21.3051L209.992 21.305C212.518 21.3003 215.044 21.2955 217.571 21.3097C218.398 21.3097 218.713 21.0395 218.673 20.2013C218.666 20.0502 218.66 19.8989 218.654 19.7473L218.649 19.5919C218.62 18.8169 218.591 18.0364 218.49 17.2546ZM211.86 17.6546H208.684C208.433 17.6546 208.183 17.6539 207.932 17.653L207.484 17.6513C206.684 17.6479 205.884 17.6447 205.084 17.6546C204.501 17.6546 204.269 17.4908 204.367 16.8418C204.673 14.8888 206.163 13.5207 208.197 13.3995C210.724 13.2526 212.292 14.2335 212.845 16.3078C213.139 17.4056 212.971 17.6546 211.86 17.6546Z" fill="black"/>
<path d="M254.428 29.6668C254.428 30.371 254.143 30.605 253.48 30.5922C252.346 30.5667 251.209 30.5476 250.075 30.5922C249.195 30.6348 248.897 30.2901 248.905 29.4179C248.932 26.705 248.927 23.9909 248.923 21.2766C248.922 20.4848 248.921 19.6931 248.92 18.9013C248.92 18.3694 248.92 17.8375 248.895 17.3078C248.807 15.393 247.882 14.1505 246.342 13.8569C244.214 13.4527 242.546 14.2484 241.765 16.0483C241.35 17.0078 241.248 18.0269 241.248 19.063C241.248 19.9782 241.246 20.8936 241.245 21.8091C241.24 24.3285 241.235 26.8487 241.267 29.3689C241.267 30.2859 241.008 30.6582 240.061 30.5965C239.069 30.5325 238.074 30.5325 237.082 30.5965C236.161 30.6518 235.842 30.3221 235.853 29.3838C235.888 26.7128 235.882 24.0406 235.876 21.3682V21.358C235.874 20.4916 235.872 19.6252 235.872 18.7588C235.883 18.2617 235.865 17.7644 235.819 17.2695C235.563 15.1611 234.606 14.0186 232.97 13.8292C230.657 13.5612 229.036 14.4483 228.289 16.4227C227.98 17.2956 227.836 18.2183 227.864 19.1439L227.864 19.6199C227.863 19.9997 227.863 20.3795 227.862 20.7593L227.86 21.7487V21.7537C227.855 24.2872 227.85 26.8188 227.889 29.3434C227.904 30.3369 227.559 30.6603 226.613 30.6029C225.64 30.5465 224.667 30.5666 223.695 30.5867L223.421 30.5922C222.762 30.605 222.455 30.3625 222.458 29.6646C222.475 23.1472 222.475 16.6305 222.458 10.1145C222.458 9.39539 222.726 9.08052 223.46 9.10815C224.344 9.15568 225.231 9.15215 226.115 9.09756C227.055 9.02094 227.5 9.38262 227.538 10.3145C227.591 10.7259 227.668 11.1337 227.77 11.5357C229.087 10.0102 230.536 9.08052 232.315 8.84647C235.195 8.46563 237.846 8.89114 239.787 11.34C240.18 11.8357 240.361 11.7229 240.735 11.3166C241.984 9.99439 243.627 9.11231 245.419 8.80242C247.211 8.49248 249.055 8.77146 250.675 9.5975C253.156 10.8889 254.314 13.0846 254.382 15.7462C254.454 18.725 254.443 21.7039 254.432 24.6828C254.426 26.3441 254.42 28.0054 254.428 29.6668Z" fill="black"/>
<path d="M192.663 29.6413C194.959 28.5817 196.072 26.6138 196.035 24.0734C195.999 21.4544 194.84 19.5417 192.38 18.4907C191.463 18.1149 190.51 17.8347 189.536 17.6546C189.036 17.5503 188.533 17.4706 188.031 17.3909C187.068 17.2383 186.109 17.0862 185.187 16.7632C183.668 16.2036 183.379 14.7164 184.549 13.7846C186.264 12.4229 189.321 13.2038 190.08 15.2334C190.261 15.7142 190.485 15.9121 190.985 15.9121C192.193 15.8887 193.399 15.8738 194.601 15.9121C195.404 15.9291 195.591 15.527 195.487 14.8484C195.306 13.5413 194.725 12.3223 193.823 11.3591C191.057 8.4316 185.242 7.80186 181.472 10.0337C179.504 11.191 178.46 12.9101 178.494 15.1951C178.528 17.5376 179.551 19.329 181.634 20.4864C182.802 21.1324 184.073 21.41 185.346 21.6883L185.464 21.714C185.861 21.8009 186.263 21.8679 186.664 21.9349L186.667 21.9353C187.592 22.0895 188.516 22.2436 189.38 22.6394C190.066 22.9543 190.538 23.4714 190.519 24.2819C190.5 25.0457 190.038 25.5457 189.374 25.801C187.949 26.3861 186.351 26.3861 184.925 25.801C184.315 25.5648 183.738 25.1393 183.606 24.5011C183.376 23.3883 182.694 23.2309 181.755 23.3373C181.366 23.3586 180.976 23.3586 180.587 23.3373V23.3501H178.568C178.013 23.3458 177.807 23.616 177.881 24.1522C178.177 26.2733 178.945 28.1839 180.86 29.3008C184.704 31.5433 188.71 31.4667 192.663 29.6413Z" fill="black"/>
<path d="M153.737 10.2464C151.088 17.5624 148.454 24.8862 145.836 32.2177C145.594 32.8912 145.35 33.564 145.107 34.2367C144.519 35.8591 143.932 37.4813 143.368 39.1132C143.155 39.7514 142.836 40.0238 142.146 39.9982C140.836 39.9528 139.525 39.9528 138.215 39.9982C137.317 40.0259 137.074 39.7365 137.394 38.8706C138.048 37.0922 138.677 35.3042 139.305 33.5164L139.306 33.5136C139.51 32.9326 139.714 32.3516 139.919 31.771C139.939 31.7141 139.96 31.6573 139.981 31.6006C140.17 31.0972 140.353 30.6067 139.619 30.2433C139.471 30.1719 139.402 29.926 139.336 29.6953C139.316 29.6236 139.296 29.5533 139.274 29.4902C137.086 23.1345 134.9 16.7781 132.717 10.4209C132.292 9.16565 132.319 9.12732 133.666 9.12098C133.853 9.12098 134.04 9.12275 134.227 9.12529L134.39 9.12763L134.623 9.13132C135.368 9.14337 136.113 9.15542 136.857 9.10182C137.779 9.03798 138.159 9.42734 138.417 10.272C139.446 13.6665 140.508 17.0523 141.57 20.438C141.754 21.0247 141.938 21.6115 142.122 22.1983C142.263 22.6481 142.404 23.098 142.544 23.5479C142.61 23.7598 142.689 23.9675 142.782 24.2106C142.82 24.3117 142.861 24.4189 142.904 24.5351C143.266 24.2501 143.35 23.9281 143.428 23.6273C143.447 23.5532 143.466 23.4803 143.489 23.4096C143.773 22.5347 144.058 21.66 144.344 20.7853L144.384 20.6614C145.479 17.3063 146.574 13.95 147.604 10.5741C147.957 9.41882 148.487 8.96775 149.695 9.08478C150.79 9.16778 151.89 9.17204 152.986 9.09756C153.931 9.06992 154.037 9.42095 153.737 10.2464Z" fill="black"/>
<path d="M175.802 10.1166C173.587 16.6865 171.38 23.2614 169.181 29.8412C169.009 30.3624 168.732 30.5922 168.194 30.588L167.935 30.5879L166.458 30.5842C165.301 30.5804 164.143 30.5766 162.986 30.588C162.384 30.588 162.099 30.3135 161.922 29.7774C159.71 23.2415 157.488 16.7099 155.257 10.1826C154.969 9.34221 155.242 9.08899 156.059 9.1188C157.19 9.14431 158.327 9.16986 159.463 9.10815C160.348 9.05922 160.782 9.36132 161.044 10.2464C162.171 14.0605 163.344 17.8611 164.517 21.6608L165.192 23.85C165.2 23.8748 165.207 23.8999 165.214 23.9253C165.225 23.9663 165.236 24.0079 165.246 24.0502C165.316 24.329 165.393 24.6348 165.733 24.9542C166.45 22.5692 167.133 20.3076 167.809 18.0439C167.986 17.4542 168.163 16.8649 168.341 16.2757L168.342 16.2716C168.96 14.22 169.578 12.1694 170.149 10.106C170.362 9.35067 170.728 9.07839 171.492 9.11028C172.66 9.15781 173.832 9.13506 175.006 9.11226H175.008L175.109 9.11028C175.847 9.10815 176.034 9.42729 175.802 10.1166Z" fill="black"/>
<path fill-rule="evenodd" clip-rule="evenodd" d="M23.5904 8.95285C24.1777 8.94438 24.4414 9.20819 24.4414 9.78262C24.4351 10.7655 24.4266 11.757 24.4542 12.7527C24.467 13.4527 24.0969 13.6654 23.4586 13.6654C23.1807 13.6613 22.9032 13.6594 22.6259 13.6589C22.2406 13.6582 21.8557 13.6602 21.4711 13.6621C21.2713 13.6631 21.0715 13.6641 20.8718 13.6647L20.7636 13.6651C20.6691 13.6653 20.5745 13.6654 20.48 13.6654C19.9481 13.659 19.5906 13.8356 19.5013 14.4037C19.3169 15.5909 19.1268 16.7773 18.9311 17.9631C18.8397 18.5141 19.0736 18.7652 19.6268 18.7269C19.6976 18.7226 19.7687 18.7226 19.8396 18.7269C21.0971 18.7589 21.7242 18.7748 22.0369 19.0965C22.348 19.4164 22.348 20.0387 22.348 21.28C22.3471 21.5022 22.3488 21.7015 22.3502 21.8803V21.8878C22.3565 22.6387 22.3597 23.0243 22.1685 23.2225C21.9668 23.4318 21.5487 23.4324 20.6895 23.4337H20.6846C20.6104 23.4338 20.5332 23.434 20.4524 23.4343L20.2651 23.4351C20.0066 23.437 19.7775 23.4362 19.5741 23.4355C18.7298 23.4323 18.3284 23.4309 18.108 23.6299C17.9084 23.8101 17.8571 24.1545 17.7594 24.8109C17.7221 25.0616 17.678 25.3576 17.6163 25.7074L17.6104 25.7416C17.3911 26.9854 17.1721 28.2272 16.9929 29.4774C16.878 30.2689 16.5248 30.671 15.6738 30.6114C15.1336 30.5736 14.5934 30.5821 14.0532 30.5906H14.0513C13.7411 30.5955 13.4309 30.6004 13.1207 30.5965C11.9548 30.5816 11.8165 30.4135 12.0017 29.2859C12.0576 28.949 12.1121 28.6118 12.1661 28.2745L12.2416 27.8018C12.4247 26.6545 12.6078 25.5071 12.8293 24.367C12.9761 23.6075 12.6803 23.4139 12.008 23.4309C11.2655 23.4564 10.5166 23.4756 9.77624 23.4309C8.95493 23.382 8.64224 23.7713 8.52942 24.5245C8.4167 25.2756 8.28789 26.0242 8.15917 26.7726L8.15793 26.7807L8.05228 27.3978C8.00169 27.6951 7.95172 27.9925 7.90341 28.2901C7.82965 28.7448 7.75984 29.2 7.69761 29.6561C7.59757 30.3944 7.24655 30.6071 6.57421 30.6071C5.58065 30.5859 4.5871 30.5795 3.59563 30.6071C2.86802 30.6284 2.56384 30.4221 2.72341 29.6157C2.93513 28.5353 3.10778 27.4471 3.28054 26.359C3.3087 26.1813 3.33685 26.0037 3.36531 25.8261L3.40479 25.5796C3.44645 25.3207 3.48862 25.0618 3.53184 24.8032C3.72122 23.633 3.59563 23.4671 2.46806 23.4351L2.41009 23.4336C0.00204645 23.3672 -0.014679 23.3667 0.00225419 20.9204C0.00298138 20.8173 0.00318915 20.719 0.00308527 20.6253C0.00298138 20.4965 0.00235807 20.3763 0.00173476 20.2643C-0.00252451 19.4907 -0.0046022 19.1043 0.187481 18.913C0.379252 18.7222 0.764456 18.7257 1.53424 18.7327C1.74243 18.7346 1.97866 18.7368 2.24679 18.7354C2.53642 18.7325 2.78958 18.7332 3.01138 18.7338C3.84422 18.736 4.23348 18.7371 4.44312 18.5435C4.6271 18.3736 4.6726 18.0537 4.75789 17.453L4.7582 17.4508C4.79861 17.1664 4.84806 16.8191 4.92535 16.3951C4.93813 16.3206 4.94883 16.2525 4.95942 16.1823C5.36582 13.8675 5.3679 13.8505 3.00629 13.6675C2.3915 13.6101 2.10633 13.3782 2.10633 12.7591V9.78049C2.10633 9.20181 2.38724 8.95285 2.95736 8.95285L3.04067 8.95269C3.0869 8.95248 3.13292 8.95217 3.17894 8.9517C3.35056 8.95004 3.52114 8.94672 3.69203 8.94339C4.18133 8.93394 4.67187 8.92449 5.18703 8.95285C5.95942 8.99544 6.25933 8.61247 6.36997 7.90397C6.6168 6.33173 6.89334 4.7637 7.16998 3.19784C7.43375 1.6979 7.44019 1.6979 8.99119 1.6979H9.84221C11.1103 1.6979 11.7416 1.6979 12.0027 2.00883C12.2615 2.317 12.1566 2.93081 11.9475 4.1528L11.9463 4.1595C11.8813 4.5485 11.8179 4.9377 11.7546 5.32686C11.6192 6.15944 11.4837 6.99171 11.3315 7.82102C11.1931 8.56993 11.374 8.92734 12.225 8.96136L12.3131 8.96495C15.4419 9.09356 15.4443 9.09366 15.9291 5.93172C15.9873 5.5568 16.0497 5.18277 16.1122 4.80899C16.2189 4.17093 16.3254 3.53349 16.4099 2.89356C16.5185 2.06597 16.8504 1.61277 17.78 1.6979C18.3164 1.74803 18.8577 1.73582 19.3993 1.72362H19.4008C19.4791 1.72185 19.5573 1.72008 19.6355 1.71853C19.7973 1.71525 19.9589 1.71281 20.1204 1.71281C21.5012 1.72128 21.6012 1.84895 21.3757 3.17868C21.2775 3.7569 21.1854 4.33595 21.0933 4.91495L21.0924 4.92119C20.9293 5.94642 20.7662 6.97145 20.5693 7.99124C20.4311 8.71246 20.6161 8.97627 21.3587 8.95285C21.7662 8.94002 22.1751 8.94511 22.5838 8.9502C22.9196 8.9544 23.2555 8.95861 23.5904 8.95285ZM14.125 16.678C14.1377 16.6015 14.1717 16.5355 14.1717 16.4653C14.2152 16.18 14.2574 15.9238 14.2954 15.6937L14.297 15.6837C14.4578 14.708 14.541 14.2029 14.3269 13.9397C14.0971 13.6571 13.5248 13.6531 12.3382 13.6447C12.1643 13.6434 11.9772 13.6421 11.7761 13.6399C10.7698 13.6293 10.1358 13.8229 10.1486 14.9951C10.1526 15.3261 10.0797 15.658 10.0065 15.9912L10.0055 15.9954C9.96427 16.1835 9.92293 16.372 9.8954 16.561C9.84886 16.8808 9.8018 17.1535 9.7616 17.386C9.65314 18.0143 9.59538 18.3491 9.73604 18.5273C9.89654 18.7307 10.3156 18.7301 11.2129 18.7287H11.2269L11.4061 18.7285C11.5056 18.7284 11.6104 18.7285 11.7208 18.729C12.0289 18.7227 12.2904 18.7251 12.5134 18.727C13.0875 18.7322 13.4061 18.735 13.6069 18.5827C13.8574 18.3927 13.9247 17.9615 14.0757 16.9924L14.076 16.9909C14.0914 16.8923 14.1076 16.7881 14.125 16.678Z" fill="black"/>
<path d="M108.252 23.55C108.444 25.9244 107.672 27.9838 105.597 29.1987C101.604 31.539 97.4252 31.5858 93.3382 29.4583C91.3638 28.4306 90.4361 26.5456 90.1468 24.3394C90.049 23.5543 90.332 23.3117 91.0638 23.3521C91.4638 23.3748 91.8657 23.3673 92.2676 23.3597L92.4313 23.3567L92.5491 23.3548L92.6303 23.3537C92.7103 23.3528 92.7903 23.3521 92.8702 23.3521C93.2245 23.3703 93.5795 23.3703 93.9339 23.3521C94.8721 23.2522 95.5593 23.4139 95.8295 24.5138C95.9913 25.1712 96.6061 25.6244 97.255 25.8584C98.6288 26.3682 100.141 26.3614 101.51 25.8393C102.214 25.5734 102.714 25.0797 102.721 24.2606C102.727 23.4415 102.274 22.9373 101.57 22.6309C100.637 22.2237 99.6411 22.0572 98.646 21.8909C98.279 21.8296 97.9121 21.7682 97.5486 21.6948C95.7636 21.3374 94.0168 20.8885 92.6319 19.6055C89.6788 16.8631 90.1064 12.0335 93.6382 10.0954C97.2721 8.09969 101.053 8.12738 104.682 10.2166C106.469 11.2464 107.421 12.925 107.708 14.9781C107.799 15.6164 107.595 15.9185 106.938 15.9121C105.696 15.9036 104.457 15.9036 103.219 15.9121C102.68 15.9121 102.44 15.6823 102.255 15.1504C101.551 13.1293 98.1656 12.4059 96.6146 13.9079C95.7359 14.759 95.9636 16.0504 97.1188 16.6206C97.9301 17.0215 98.8109 17.1552 99.6902 17.2887L99.6924 17.289C100.002 17.336 100.312 17.3831 100.619 17.4418L100.874 17.4909C102.146 17.7348 103.414 17.978 104.616 18.4886C106.867 19.4396 108.059 21.1544 108.252 23.55Z" fill="black"/>
<path d="M78.6453 30.8199C82.7344 30.4582 85.5343 27.8668 86.2088 23.8245C86.4593 22.325 86.4203 20.8142 86.3844 19.4273V19.4239C86.3622 18.5627 86.3412 17.7494 86.3917 17.0163C86.3917 16.5183 86.3908 16.0381 86.3893 15.5724C86.3882 15.1836 86.3866 14.8049 86.3852 14.4342C86.3791 12.9119 86.3737 11.526 86.3917 10.14C86.4024 9.41025 86.1215 9.11667 85.3939 9.13584C84.296 9.17199 83.194 9.19116 82.0984 9.13584C81.1877 9.08899 80.7644 9.40178 80.8643 10.3464C80.8868 10.7716 80.8868 11.1977 80.8643 11.6229C80.8623 12.6847 80.8634 13.7462 80.8644 14.8077C80.8668 17.2175 80.8692 19.6269 80.8367 22.0373C80.8069 24.2904 79.4495 25.6691 77.3114 25.7627C74.8859 25.8733 73.4838 24.7649 73.169 22.4692C73.0722 21.7683 73.0211 21.062 73.0157 20.3544C72.9924 17.0141 72.9753 13.6845 73.0157 10.3549C73.0264 9.42303 72.6988 9.08052 71.7775 9.13158C70.7521 9.18264 69.7202 9.1656 68.6947 9.13158C67.9309 9.11667 67.6182 9.39326 67.6182 10.1805C67.6279 11.6863 67.6217 13.1927 67.6156 14.6991C67.6041 17.5152 67.5926 20.3312 67.6842 23.1436C67.7798 26.1031 69.2393 28.386 71.9073 29.8178C74.0328 30.9582 76.3347 31.0326 78.6453 30.8199Z" fill="black"/>
<path d="M41.064 9.54005V13.0442C41.064 13.8543 40.5259 13.8525 39.9878 13.8506L39.9036 13.8504L39.8768 13.8505C38.2003 13.8505 36.6174 14.108 35.4579 15.493C34.3474 16.8206 34.0772 18.4226 34.0559 20.0693C34.0175 23.1118 34.0069 26.1584 34.0559 29.2009C34.075 30.2412 33.7984 30.7114 32.6879 30.6157C31.7667 30.5622 30.8432 30.5622 29.9221 30.6157C29.2136 30.6348 28.8987 30.3753 28.9008 29.6285C28.9178 23.1508 28.9178 16.6731 28.9008 10.1954C28.9008 9.41882 29.188 9.07413 29.9646 9.13158C30.0529 9.13828 30.1428 9.13657 30.2324 9.13433C30.2669 9.1335 30.3013 9.13257 30.3354 9.13205C30.3537 9.13173 30.3719 9.13158 30.3901 9.13158C30.7027 9.14695 31.0325 9.11568 31.3612 9.08452C32.0326 9.02084 32.6992 8.95762 33.2048 9.29328C33.7406 9.64903 33.759 10.3079 33.7776 10.9748C33.7868 11.3089 33.7961 11.6452 33.8707 11.9463C33.8787 11.9798 33.9138 12.0074 33.9685 12.0504C34.0006 12.0756 34.0394 12.1062 34.0835 12.1463C34.2095 11.9757 34.3297 11.8015 34.4496 11.6278C34.7468 11.1972 35.0421 10.7692 35.4197 10.4039C36.7919 9.07626 38.4514 8.66566 40.296 8.74009C40.8513 8.76352 41.0747 9.03372 41.064 9.54005Z" fill="black"/>
<path fill-rule="evenodd" clip-rule="evenodd" d="M51.7466 8.85499C54.5678 8.45503 57.2782 8.79328 59.6739 10.4677C62.4057 12.3825 63.5013 15.193 63.8205 18.3801C63.8488 18.7332 63.8394 19.0872 63.8299 19.4416C63.8253 19.6188 63.8205 19.7962 63.8205 19.9736C63.8418 23.1245 63.1056 25.9946 60.7653 28.2924C59.3951 29.6572 57.604 30.5193 55.6826 30.7391C51.5488 31.2497 47.783 30.5667 45.2299 26.8605C42.4598 22.833 42.7024 16.0972 45.681 12.2251C47.2107 10.2358 49.3106 9.19968 51.7466 8.85499ZM57.4144 21.0438C57.9569 21.0459 58.2718 20.8608 58.2931 20.2545L58.2973 20.2459C58.3463 18.7184 58.225 17.2142 57.4974 15.8206C56.6464 14.1824 55.24 13.5845 53.472 13.6207C51.7742 13.6569 50.4722 14.3441 49.6999 15.893C49.0339 17.2248 48.8999 18.6524 48.9191 20.1183C48.9298 20.8161 49.2318 21.0438 49.8872 21.0438C50.3933 21.0385 50.8997 21.0376 51.4063 21.0383C52.1369 21.0393 52.8676 21.0438 53.5976 21.0438H57.4144Z" fill="black"/>
</svg>
