<svg width="126" height="56" viewBox="0 0 126 56" fill="none" xmlns="http://www.w3.org/2000/svg">
<path fill-rule="evenodd" clip-rule="evenodd" d="M15.0162 8.90918H17.7492V20.3637H15.1735L15.1136 19.6105C14.9039 19.9188 14.5919 20.1549 14.1776 20.3189C13.7683 20.483 13.3115 20.5651 12.8073 20.5651C12.2782 20.5651 11.779 20.4731 11.3098 20.2891C10.8406 20.1002 10.4288 19.8342 10.0744 19.4912C9.7199 19.1481 9.44037 18.7157 9.2357 18.1936C9.03103 17.6666 8.9287 17.0825 8.9287 16.4411C8.9287 15.7998 9.03103 15.2157 9.2357 14.6886C9.44037 14.1617 9.7199 13.7291 10.0744 13.391C10.4288 13.048 10.8406 12.7845 11.3098 12.6005C11.779 12.4117 12.2782 12.3172 12.8073 12.3172C13.2765 12.3172 13.7059 12.3868 14.0952 12.526C14.4846 12.6652 14.7915 12.869 15.0162 13.1375V8.90918ZM12.1634 17.8282C12.5028 18.1663 12.9321 18.3353 13.4513 18.3353C13.9705 18.3353 14.3997 18.1663 14.7392 17.8282C15.0786 17.4901 15.2483 17.0277 15.2483 16.4411C15.2483 15.8545 15.0786 15.3921 14.7392 15.0541C14.4047 14.716 13.9754 14.5469 13.4513 14.5469C12.9321 14.5469 12.5028 14.716 12.1634 15.0541C11.8289 15.3921 11.6618 15.8545 11.6618 16.4411C11.6618 17.0277 11.8289 17.4901 12.1634 17.8282Z" fill="black"/>
<path fill-rule="evenodd" clip-rule="evenodd" d="M26.8541 20.1325C26.7343 19.7049 26.6744 19.1158 26.6744 18.3651V15.233C26.6744 14.8751 26.637 14.5519 26.5621 14.2636C26.4872 13.9752 26.3874 13.7316 26.2626 13.5328C26.1378 13.3339 25.9806 13.1599 25.7909 13.0107C25.6062 12.8616 25.414 12.7448 25.2143 12.6602C25.0196 12.5708 24.7975 12.5012 24.548 12.4514C24.3033 12.3968 24.0737 12.3619 23.8591 12.347C23.6444 12.3271 23.4123 12.3172 23.1627 12.3172C21.9946 12.3172 21.0936 12.5161 20.4597 12.9138C19.8257 13.3115 19.4139 13.9429 19.2242 14.808L21.6277 15.2032C21.6976 14.8154 21.8449 14.5395 22.0695 14.3754C22.2991 14.2113 22.6061 14.1293 22.9905 14.1293C23.1702 14.1293 23.3349 14.1442 23.4847 14.1741C23.6344 14.2039 23.7717 14.271 23.8965 14.3754C24.0213 14.4798 24.0837 14.6165 24.0837 14.7856C24.0837 14.9347 24.0238 15.0565 23.904 15.151C23.7892 15.2405 23.5821 15.3225 23.2825 15.3971L22.0096 15.7177C21.6552 15.8073 21.3507 15.8967 21.0961 15.9862C20.8415 16.0708 20.5845 16.1851 20.3249 16.3293C20.0653 16.4685 19.8556 16.6251 19.6959 16.7991C19.5362 16.9731 19.4064 17.1893 19.3065 17.4479C19.2068 17.7064 19.1568 17.9973 19.1568 18.3204C19.1568 18.6485 19.2042 18.9418 19.299 19.2004C19.3989 19.4539 19.5262 19.6627 19.6809 19.8268C19.8407 19.9859 20.0303 20.1201 20.25 20.2295C20.4746 20.3339 20.7018 20.406 20.9314 20.4457C21.161 20.4905 21.4031 20.5129 21.6577 20.5129C22.1568 20.5129 22.6386 20.4333 23.1028 20.2742C23.567 20.1151 23.9315 19.874 24.196 19.5509L24.3607 20.3637H26.8541V20.1325ZM23.6943 18.2533C23.3349 18.5714 22.948 18.7305 22.5337 18.7305C22.3091 18.7305 22.1219 18.6784 21.9722 18.5739C21.8224 18.4645 21.7475 18.3179 21.7475 18.134C21.7475 17.9749 21.8074 17.853 21.9273 17.7685C22.047 17.679 22.2193 17.597 22.4439 17.5225L24.2334 16.9258C24.2334 17.4877 24.0537 17.9301 23.6943 18.2533Z" fill="black"/>
<path d="M31.5564 20.3637C30.7178 20.3637 30.0739 20.135 29.6246 19.6777C29.1753 19.2153 28.9507 18.559 28.9507 17.7089V14.5321H27.4307V12.4664H27.8799C28.3442 12.4664 28.6936 12.347 28.9283 12.1084C29.1679 11.8697 29.2876 11.4297 29.2876 10.7885V9.97559H31.7286V12.4664H33.2412V14.5321H31.7286V17.4031C31.7286 17.7313 31.7935 17.9699 31.9233 18.119C32.0581 18.2632 32.2627 18.3353 32.5373 18.3353H33.2412V20.3637H31.5564Z" fill="black"/>
<path fill-rule="evenodd" clip-rule="evenodd" d="M41.9194 20.1325C41.7996 19.7049 41.7396 19.1158 41.7396 18.3651V15.233C41.7396 14.8751 41.7022 14.5519 41.6273 14.2636C41.5525 13.9752 41.4526 13.7316 41.3279 13.5328C41.2031 13.3339 41.0458 13.1599 40.8561 13.0107C40.6714 12.8616 40.4793 12.7448 40.2796 12.6602C40.0849 12.5708 39.8628 12.5012 39.6132 12.4514C39.3686 12.3968 39.139 12.3619 38.9243 12.347C38.7097 12.3271 38.4776 12.3172 38.228 12.3172C37.0599 12.3172 36.1589 12.5161 35.5249 12.9138C34.891 13.3115 34.4791 13.9429 34.2894 14.808L36.693 15.2032C36.7629 14.8154 36.9101 14.5395 37.1348 14.3754C37.3644 14.2113 37.6713 14.1293 38.0558 14.1293C38.2355 14.1293 38.4002 14.1442 38.5499 14.1741C38.6997 14.2039 38.8369 14.271 38.9618 14.3754C39.0865 14.4798 39.1489 14.6165 39.1489 14.7856C39.1489 14.9347 39.0891 15.0565 38.9692 15.151C38.8544 15.2405 38.6473 15.3225 38.3478 15.3971L37.0748 15.7177C36.7205 15.8073 36.4159 15.8967 36.1614 15.9862C35.9068 16.0708 35.6497 16.1851 35.3901 16.3293C35.1306 16.4685 34.9209 16.6251 34.7612 16.7991C34.6014 16.9731 34.4717 17.1893 34.3718 17.4479C34.272 17.7064 34.222 17.9973 34.222 18.3204C34.222 18.6485 34.2695 18.9418 34.3643 19.2004C34.4641 19.4539 34.5914 19.6627 34.7462 19.8268C34.9059 19.9859 35.0956 20.1201 35.3153 20.2295C35.5399 20.3339 35.767 20.406 35.9966 20.4457C36.2262 20.4905 36.4684 20.5129 36.7229 20.5129C37.2221 20.5129 37.7038 20.4333 38.1681 20.2742C38.6323 20.1151 38.9967 19.874 39.2613 19.5509L39.426 20.3637H41.9194V20.1325ZM38.7596 18.2533C38.4002 18.5714 38.0133 18.7305 37.599 18.7305C37.3744 18.7305 37.1871 18.6784 37.0374 18.5739C36.8877 18.4645 36.8127 18.3179 36.8127 18.134C36.8127 17.9749 36.8727 17.853 36.9925 17.7685C37.1123 17.679 37.2845 17.597 37.5092 17.5225L39.2987 16.9258C39.2987 17.4877 39.119 17.9301 38.7596 18.2533Z" fill="black"/>
<path fill-rule="evenodd" clip-rule="evenodd" d="M14.4846 25.0445C15.0137 25.0445 15.5129 25.139 15.9821 25.3279C16.4514 25.5119 16.8632 25.7753 17.2176 26.1184C17.572 26.4565 17.8515 26.889 18.0562 27.416C18.2609 27.9429 18.3632 28.5271 18.3632 29.1685C18.3632 29.8098 18.2609 30.394 18.0562 30.9209C17.8515 31.4429 17.572 31.8755 17.2176 32.2185C16.8632 32.5616 16.4514 32.8276 15.9821 33.0165C15.5129 33.2005 15.0137 33.2924 14.4846 33.2924C14.0154 33.2924 13.586 33.2228 13.1967 33.0836C12.8073 32.9394 12.5003 32.7331 12.2757 32.4646V36.8496H9.5427V25.1937H12.1185L12.1784 25.9917C12.3881 25.6834 12.6975 25.4497 13.1069 25.2906C13.5161 25.1265 13.9754 25.0445 14.4846 25.0445ZM13.8406 31.0626C14.3598 31.0626 14.7866 30.8936 15.121 30.5556C15.4605 30.2175 15.6302 29.7551 15.6302 29.1685C15.6302 28.5818 15.4605 28.1195 15.121 27.7814C14.7866 27.4433 14.3598 27.2743 13.8406 27.2743C13.3165 27.2743 12.8847 27.4433 12.5452 27.7814C12.2109 28.1195 12.0436 28.5818 12.0436 29.1685C12.0436 29.7551 12.2109 30.2175 12.5452 30.5556C12.8847 30.8936 13.3165 31.0626 13.8406 31.0626Z" fill="black"/>
<path d="M23.3875 25.4919C22.8933 25.7454 22.5363 26.0412 22.3167 26.3793V25.1935H19.711V33.0909H22.4739V29.4741C22.4739 29.0714 22.5189 28.7433 22.6087 28.4897C22.6986 28.2312 22.8483 28.0274 23.058 27.8783C23.2676 27.7291 23.5198 27.6271 23.8142 27.5725C24.1138 27.5128 24.4931 27.483 24.9523 27.483V25.1041C24.4032 25.1041 23.8816 25.2334 23.3875 25.4919Z" fill="black"/>
<path fill-rule="evenodd" clip-rule="evenodd" d="M29.9541 33.2402C28.5864 33.2402 27.4857 32.8773 26.6521 32.1514C25.8184 31.4256 25.4016 30.4213 25.4016 29.1386C25.4016 28.2885 25.5938 27.5527 25.9782 26.9313C26.3625 26.3098 26.8942 25.84 27.573 25.5218C28.2569 25.2037 29.0506 25.0445 29.9541 25.0445C31.3369 25.0445 32.445 25.4075 33.2786 26.1333C34.1123 26.8542 34.5291 27.856 34.5291 29.1386C34.5291 30.4213 34.1098 31.4256 33.2712 32.1514C32.4376 32.8773 31.3318 33.2402 29.9541 33.2402ZM29.9242 31.1223C30.5032 31.1223 30.9625 30.9409 31.3019 30.5779C31.6413 30.2101 31.811 29.7303 31.811 29.1386C31.811 28.5421 31.6413 28.0623 31.3019 27.6993C30.9625 27.3315 30.5032 27.1475 29.9242 27.1475C29.3801 27.1475 28.9433 27.3315 28.6139 27.6993C28.2844 28.0673 28.1196 28.547 28.1196 29.1386C28.1196 29.7303 28.2844 30.2101 28.6139 30.5779C28.9433 30.9409 29.3801 31.1223 29.9242 31.1223Z" fill="black"/>
<path d="M37.1272 32.4049C37.5765 32.8624 38.2204 33.091 39.059 33.091H40.7438V31.0626H40.0399C39.7653 31.0626 39.5607 30.9905 39.4259 30.8464C39.2962 30.6973 39.2313 30.4586 39.2313 30.1305V27.2594H40.7438V25.1937H39.2313V22.7029H36.7903V23.5157C36.7903 24.1571 36.6704 24.5971 36.4308 24.8357C36.1963 25.0744 35.8468 25.1937 35.3826 25.1937H34.9333V27.2594H36.4533V30.4362C36.4533 31.2864 36.678 31.9426 37.1272 32.4049Z" fill="black"/>
<path d="M43.6715 24.433C43.2572 24.433 42.9027 24.2888 42.6083 24.0005C42.3137 23.7121 42.1665 23.3616 42.1665 22.949C42.1665 22.5463 42.3137 22.2032 42.6083 21.9199C42.9027 21.6315 43.2572 21.4873 43.6715 21.4873C44.0708 21.4873 44.4152 21.6315 44.7048 21.9199C44.9943 22.2032 45.1391 22.5463 45.1391 22.949C45.1391 23.3616 44.9943 23.7121 44.7048 24.0005C44.4152 24.2888 44.0708 24.433 43.6715 24.433Z" fill="black"/>
<path d="M42.2788 33.091V25.1936H45.0268V33.091H42.2788Z" fill="black"/>
<path d="M10.1118 44.8338C10.9304 45.5895 11.9986 45.9674 13.3165 45.9674C14.3897 45.9674 15.2932 45.6964 16.027 45.1545C16.7609 44.6126 17.2076 43.8519 17.3673 42.8725L14.8514 42.6414C14.6918 43.4467 14.1701 43.8494 13.2866 43.8494C12.7724 43.8494 12.3656 43.668 12.066 43.305C11.7666 42.9371 11.6168 42.4574 11.6168 41.8658C11.6168 41.2692 11.7666 40.7894 12.066 40.4265C12.3656 40.0586 12.7724 39.8746 13.2866 39.8746C14.1701 39.8746 14.6918 40.2774 14.8514 41.0827L17.3673 40.8516C17.2076 39.8672 16.7658 39.109 16.042 38.577C15.3232 38.0402 14.4146 37.7717 13.3165 37.7717C11.9986 37.7717 10.9304 38.1495 10.1118 38.9052C9.29312 39.6559 8.88379 40.6427 8.88379 41.8658C8.88379 43.0838 9.29312 44.0731 10.1118 44.8338Z" fill="black"/>
<path fill-rule="evenodd" clip-rule="evenodd" d="M22.5713 45.9674C21.2036 45.9674 20.1029 45.6044 19.2692 44.8786C18.4356 44.1527 18.0188 43.1484 18.0188 41.8658C18.0188 41.0156 18.211 40.2798 18.5954 39.6584C18.9797 39.037 19.5113 38.5671 20.1902 38.249C20.8741 37.9307 21.6678 37.7717 22.5713 37.7717C23.954 37.7717 25.0622 38.1346 25.8959 38.8605C26.7295 39.5814 27.1463 40.5831 27.1463 41.8658C27.1463 43.1484 26.727 44.1527 25.8883 44.8786C25.0547 45.6044 23.949 45.9674 22.5713 45.9674ZM22.5413 43.8494C23.1204 43.8494 23.5796 43.668 23.9191 43.305C24.2585 42.9371 24.4282 42.4574 24.4282 41.8658C24.4282 41.2692 24.2585 40.7894 23.9191 40.4265C23.5796 40.0586 23.1204 39.8746 22.5413 39.8746C21.9973 39.8746 21.5605 40.0586 21.231 40.4265C20.9016 40.7944 20.7368 41.2742 20.7368 41.8658C20.7368 42.4574 20.9016 42.9371 21.231 43.305C21.5605 43.668 21.9973 43.8494 22.5413 43.8494Z" fill="black"/>
<path d="M36.3336 37.9209H33.4508L31.6762 42.7757L29.9242 37.9209H27.0563L30.4707 45.8183H32.8668L36.3336 37.9209Z" fill="black"/>
<path d="M38.5798 37.1603C38.1655 37.1603 37.811 37.0162 37.5166 36.7278C37.222 36.4394 37.0748 36.089 37.0748 35.6763C37.0748 35.2736 37.222 34.9306 37.5166 34.6472C37.811 34.3588 38.1655 34.2146 38.5798 34.2146C38.9791 34.2146 39.3236 34.3588 39.6131 34.6472C39.9026 34.9306 40.0474 35.2736 40.0474 35.6763C40.0474 36.089 39.9026 36.4394 39.6131 36.7278C39.3236 37.0162 38.9791 37.1603 38.5798 37.1603Z" fill="black"/>
<path d="M37.1871 45.8183V37.921H39.9351V45.8183H37.1871Z" fill="black"/>
<path fill-rule="evenodd" clip-rule="evenodd" d="M50.1109 34.3637H47.378V38.592C47.1534 38.3235 46.8464 38.1197 46.457 37.9805C46.0676 37.8413 45.6384 37.7717 45.1691 37.7717C44.64 37.7717 44.1408 37.8662 43.6716 38.055C43.2024 38.239 42.7905 38.5025 42.4361 38.8455C42.0817 39.1836 41.8021 39.6162 41.5975 40.1431C41.3928 40.6701 41.2905 41.2542 41.2905 41.8956C41.2905 42.537 41.3928 43.1211 41.5975 43.6481C41.8021 44.1701 42.0817 44.6026 42.4361 44.9457C42.7905 45.2887 43.2024 45.5547 43.6716 45.7436C44.1408 45.9275 44.64 46.0195 45.1691 46.0195C45.6733 46.0195 46.13 45.9375 46.5394 45.7734C46.9537 45.6094 47.2657 45.3732 47.4753 45.065L47.5352 45.8182H50.1109V34.3637ZM45.8131 43.7898C45.2939 43.7898 44.8646 43.6207 44.5251 43.2826C44.1908 42.9446 44.0235 42.4822 44.0235 41.8956C44.0235 41.309 44.1908 40.8466 44.5251 40.5086C44.8646 40.1705 45.2939 40.0014 45.8131 40.0014C46.3372 40.0014 46.7665 40.1705 47.1009 40.5086C47.4404 40.8466 47.6101 41.309 47.6101 41.8956C47.6101 42.4822 47.4404 42.9446 47.1009 43.2826C46.7615 43.6207 46.3322 43.7898 45.8131 43.7898Z" fill="black"/>
<path fill-rule="evenodd" clip-rule="evenodd" d="M97.1337 12.1705C97.9306 11.9394 98.476 11.4221 98.4278 10.8718C98.3675 10.1889 97.4157 9.71398 96.3008 9.81102C95.1867 9.90814 94.332 10.5405 94.3922 11.2235C94.4404 11.7737 95.0678 12.1889 95.8927 12.2787L96.5787 20.0907C95.8962 20.2026 95.2452 20.3981 94.6356 20.6655L92.4637 16.4738C92.9786 16.0578 93.2204 15.5058 93.0164 15.1114C92.7625 14.6217 91.9167 14.5601 91.1279 14.9738C90.3383 15.3874 89.9046 16.1197 90.1576 16.6093C90.3624 17.0038 90.9512 17.1205 91.585 16.9346L93.7529 21.1195C93.1509 21.4776 92.6014 21.9106 92.116 22.4045L86.0842 17.3637C86.4834 16.6394 86.5019 15.8896 86.077 15.5345C85.5501 15.0938 84.5396 15.4285 83.8207 16.2819C83.101 17.1353 82.9459 18.1844 83.4729 18.625C83.8978 18.9801 84.6368 18.8319 85.2834 18.3147L91.315 23.3553C90.9229 23.9005 90.5979 24.4951 90.3509 25.1263L85.9357 23.7223C86.0072 23.0612 85.7903 22.4978 85.3694 22.3638C84.8465 22.1976 84.2063 22.7561 83.9396 23.6112C83.673 24.4663 83.881 25.2943 84.4039 25.4606C84.8248 25.5945 85.322 25.2581 85.6385 24.6751L90.046 26.0765C89.8788 26.7366 89.794 27.4266 89.8021 28.134L81.9579 28.8175C81.7266 28.0243 81.2069 27.4812 80.6543 27.5293C79.9686 27.589 79.4917 28.5372 79.5892 29.6469C79.6868 30.7568 80.3216 31.6081 81.0077 31.5483C81.5595 31.5001 81.9764 30.8754 82.0672 30.0541L89.9107 29.3707C90.0264 30.0711 90.2313 30.7382 90.5125 31.3612L86.4185 33.5067C86.004 32.9877 85.4554 32.7429 85.0642 32.9479C84.579 33.2025 84.5188 34.0538 84.9316 34.8495C85.3437 35.6453 86.0715 36.0839 86.5574 35.8294C86.9486 35.6243 87.0635 35.0319 86.8779 34.3933L90.9793 32.2438C91.3318 32.8203 91.7542 33.3476 92.2338 33.8151L87.1726 39.8224C86.4457 39.4249 85.6922 39.4067 85.3356 39.8297C84.8938 40.3549 85.2296 41.3612 86.0866 42.0773C86.9429 42.7934 87.9968 42.9482 88.4394 42.423C88.7952 41.9999 88.6466 41.2645 88.1277 40.6203L93.1887 34.6132C93.7544 35.0167 94.3731 35.3488 95.0304 35.5976L93.6284 40.0954C92.9722 40.0225 92.4131 40.2397 92.2806 40.6636C92.1167 41.1898 92.6726 41.8354 93.5224 42.1056C94.3714 42.3758 95.1932 42.1682 95.3578 41.6419C95.4896 41.218 95.1546 40.7166 94.5755 40.3964L95.9797 35.8915C96.6246 36.0483 97.2975 36.1277 97.9868 36.1199L98.6728 43.9318C97.8767 44.1629 97.3313 44.6803 97.3795 45.2305C97.4398 45.9135 98.3916 46.3884 99.5057 46.2913C100.62 46.1942 101.474 45.5618 101.415 44.8789C101.366 44.3286 100.74 43.9135 99.9146 43.8236L99.2282 36.0117C99.9106 35.8997 100.561 35.7042 101.171 35.4368L103.343 39.6288C102.829 40.0447 102.586 40.5966 102.791 40.9912C103.045 41.4808 103.89 41.5425 104.68 41.1288C105.468 40.7152 105.903 39.9829 105.649 39.4932C105.445 39.0988 104.856 38.9821 104.222 39.1679L102.054 34.9826C102.656 34.6245 103.205 34.1916 103.69 33.6978L109.722 38.7386C109.323 39.4629 109.305 40.2128 109.729 40.5678C110.257 41.0085 111.268 40.6739 111.987 39.8205C112.706 38.9671 112.861 37.918 112.334 37.4773C111.909 37.1223 111.171 37.2705 110.524 37.7877L104.492 32.7467C104.884 32.2016 105.209 31.6072 105.456 30.9763L109.871 32.3802C109.8 33.0414 110.017 33.6048 110.438 33.7387C110.961 33.905 111.601 33.3465 111.867 32.4914C112.134 31.6362 111.926 30.8082 111.404 30.642C110.982 30.5081 110.485 30.8445 110.168 31.4274L105.761 30.026C105.928 29.3659 106.013 28.6758 106.005 27.9683L113.849 27.2849C114.081 28.0781 114.6 28.6212 115.152 28.5731C115.838 28.5133 116.315 27.5652 116.217 26.4553C116.12 25.3456 115.486 24.4943 114.8 24.5541C114.247 24.6022 113.83 25.2269 113.74 26.0482L105.896 26.7317C105.781 26.0314 105.576 25.3645 105.294 24.7417L109.389 22.5958C109.803 23.1148 110.351 23.3597 110.742 23.1546C111.228 22.9001 111.288 22.0486 110.876 21.253C110.463 20.4573 109.735 20.0186 109.249 20.2731C108.858 20.4782 108.744 21.0706 108.93 21.7093L104.828 23.859C104.475 23.2824 104.053 22.755 103.573 22.2875L108.634 16.28C109.362 16.6775 110.114 16.6957 110.471 16.2726C110.913 15.7474 110.578 14.7412 109.721 14.025C108.864 13.3089 107.811 13.1541 107.368 13.6793C107.011 14.1025 107.16 14.8378 107.68 15.4821L102.618 21.4896C102.052 21.086 101.434 20.7538 100.776 20.5049L102.178 16.0072C102.835 16.0801 103.394 15.8629 103.526 15.439C103.691 14.9127 103.135 14.2671 102.285 13.997C101.435 13.7268 100.613 13.9344 100.45 14.4606C100.317 14.8846 100.652 15.3859 101.232 15.7061L99.8274 20.2111C99.1824 20.0542 98.5095 19.9748 97.8202 19.9826L97.1337 12.1705ZM96.0581 31.8577C96.7304 32.1452 97.4775 32.2531 98.2976 32.1816C99.2735 32.0965 100.099 31.7846 100.774 31.246C101.448 30.7036 101.886 30.0069 102.088 29.1559L100.045 28.6364C99.9474 29.0988 99.7265 29.4753 99.3811 29.7657C99.0406 30.0558 98.6229 30.2225 98.1289 30.2654C97.5015 30.3201 96.9698 30.16 96.5328 29.7851C96.0951 29.4065 95.8469 28.8739 95.7866 28.1872C95.7264 27.5005 95.8782 26.9329 96.2429 26.4845C96.6075 26.036 97.1031 25.7845 97.7305 25.7297C98.2245 25.6868 98.6647 25.7786 99.051 26.0053C99.4414 26.2317 99.7249 26.5642 99.9017 27.0027L101.823 26.1377C101.476 25.3346 100.923 24.7261 100.165 24.3123C99.406 23.8948 98.5385 23.7285 97.5626 23.8136C96.7417 23.8851 96.026 24.1205 95.4139 24.5198C94.8018 24.9191 94.3416 25.454 94.0339 26.1245C93.7263 26.7912 93.6082 27.5399 93.6813 28.3706C93.7544 29.1976 94.0002 29.9146 94.4203 30.5217C94.8396 31.125 95.3858 31.5704 96.0581 31.8577Z" fill="black"/>
<path fill-rule="evenodd" clip-rule="evenodd" d="M5.11159 0H53.1078C54.7757 0 56.3387 0.810528 57.2953 2.17146L70.6239 21.1354C73.6973 8.99013 84.7375 0 97.8863 0C113.413 0 126 12.536 126 28C126 43.464 113.413 56 97.8863 56C84.7375 56 73.6973 47.0099 70.6239 34.8646L57.2953 53.8286C56.3387 55.1894 54.7757 56 53.1078 56H5.11159C2.28853 56 0 53.7207 0 50.9091V5.09091C0 2.27928 2.28853 0 5.11159 0ZM71.3028 26.5401C71.9188 27.4166 71.9188 28.5832 71.3028 29.4596L55.2015 52.3688C54.7232 53.0493 53.9417 53.4546 53.1078 53.4546H5.11159C3.70005 53.4546 2.55579 52.3149 2.55579 50.9091V5.09091C2.55579 3.6851 3.70005 2.54546 5.11159 2.54546H53.1078C53.9417 2.54546 54.7232 2.95072 55.2015 3.63118L71.3028 26.5401ZM72.6415 31.9941C74.5658 44.1548 85.1359 53.4546 97.8863 53.4546C112.002 53.4546 123.445 42.0582 123.445 28C123.445 13.9418 112.002 2.54546 97.8863 2.54546C85.1359 2.54546 74.5658 11.8452 72.6415 24.0059L73.3968 25.0806C74.6288 26.8334 74.6288 29.1666 73.3968 30.9194L72.6415 31.9941Z" fill="black"/>
</svg>
