<svg width="162" height="56" viewBox="0 0 162 56" fill="none" xmlns="http://www.w3.org/2000/svg">
<path d="M87.4006 15.12C87.1661 13.4183 85.6291 12.4465 83.8251 12.9053C81.902 13.393 79.9898 13.935 78.0775 14.4516C77.9459 14.4746 77.8205 14.5248 77.7092 14.5989C77.598 14.6731 77.5034 14.7696 77.4314 14.8823C77.3594 14.9951 77.3117 15.1216 77.2912 15.2538C77.2706 15.386 77.2778 15.5211 77.3122 15.6504C77.3467 15.7797 77.4075 15.9004 77.4911 16.0048C77.5746 16.1093 77.6789 16.1952 77.7973 16.2571C77.9158 16.319 78.0458 16.3556 78.1792 16.3644C78.3125 16.3733 78.4462 16.3543 78.5718 16.3087C79.1996 16.1461 79.8238 15.969 80.448 15.7992C81.7397 15.438 83.0277 15.0767 84.323 14.7551C84.756 14.6431 85.2142 14.672 85.4523 15.1164C85.6904 15.5608 85.326 15.8101 85.041 16.0232C84.4854 16.4387 83.9045 16.8109 83.3344 17.201C80.3277 19.2387 77.321 21.274 74.3144 23.3069C73.7651 23.6985 73.1262 23.9454 72.4566 24.025C71.787 24.1046 71.1082 24.0141 70.4826 23.7621C68.0364 22.848 65.5902 21.9556 63.1584 20.9874C62.076 20.5574 60.9719 20.1781 59.7741 20.3226C59.4132 20.366 59.2942 20.2178 59.2978 19.8493C59.3158 18.3138 59.3267 16.7747 59.2978 15.2392C59.2978 14.784 59.4565 14.7045 59.857 14.7081C61.8234 14.7262 63.7898 14.7081 65.7598 14.7081C66.1687 14.6762 66.5801 14.6993 66.9829 14.7768C69.1044 15.3693 71.2151 15.9943 73.3222 16.623C73.4403 16.6447 73.5527 16.6908 73.6521 16.7584C73.7515 16.8259 73.8358 16.9135 73.8996 17.0154C73.9634 17.1173 74.0053 17.2315 74.0227 17.3505C74.04 17.4695 74.0325 17.5909 74.0005 17.7069C73.8814 18.2921 73.3618 18.545 72.6835 18.3463C71.2151 17.9092 69.7502 17.4576 68.2818 17.0276C67.5854 16.8253 67.0983 17.0674 66.9287 17.649C66.7592 18.2307 67.0442 18.6498 67.7009 18.8521C69.2487 19.3218 70.7929 19.8096 72.3552 20.2323C72.7187 20.3425 73.1009 20.3766 73.4781 20.3327C73.8553 20.2888 74.2195 20.1677 74.548 19.977C74.8765 19.7862 75.1624 19.5299 75.3878 19.2239C75.6133 18.9179 75.7735 18.5688 75.8586 18.1982C76.0407 17.4763 75.9306 16.7117 75.5521 16.0708C75.1736 15.4299 74.5575 14.9648 73.8381 14.7768C72.4129 14.3505 70.9878 13.9133 69.5554 13.5123C68.3359 13.151 67.1524 12.7319 65.8319 12.7897C63.9088 12.8692 61.9822 12.7897 60.0591 12.8186C59.5071 12.8186 59.2509 12.7427 59.2906 12.096C59.3447 11.2253 58.9659 10.9001 58.0747 10.9001C57.0175 10.9001 55.9568 10.9001 54.896 10.9001C53.9399 10.9001 53.6224 11.2181 53.6188 12.19C53.6188 13.9422 53.6188 15.6945 53.6188 17.4467C53.6188 19.2532 53.6188 21.0849 53.6188 22.9022C53.6188 23.7187 53.9507 24.0439 54.7553 24.0511C55.7728 24.0511 56.7938 24.0114 57.8041 24.0511C58.9695 24.1089 59.4133 23.6898 59.3086 22.606C59.3086 22.4217 59.2617 22.1832 59.5684 22.1977C60.189 22.2266 60.8096 22.1218 61.4265 22.3603C64.183 23.4225 66.9492 24.4678 69.725 25.4963C71.7418 26.2441 73.6541 26.0852 75.4617 24.8387C77.7384 23.2671 80.0439 21.7389 82.3169 20.1853C83.6591 19.2749 85.0157 18.3789 86.3218 17.4287C86.6986 17.1827 86.9992 16.8362 87.1898 16.4283C87.3805 16.0204 87.4535 15.5673 87.4006 15.12V15.12ZM56.8407 22.2338C55.5418 22.2338 55.5418 22.2338 55.5418 20.9801C55.5418 18.4728 55.5418 15.9654 55.5418 13.4617C55.5418 12.9667 55.6717 12.8475 56.1516 12.8583C57.3892 12.8872 57.3892 12.8583 57.3892 14.1156V17.6165C57.3892 18.9786 57.3711 20.3407 57.3892 21.6991C57.4 22.1363 57.2557 22.2338 56.8407 22.2338V22.2338Z" fill="black"/>
<path d="M105.026 1.85345H102.107C100.837 1.85345 100.638 2.03771 100.584 3.29861C100.584 3.51177 100.624 3.75745 100.281 3.73938C99.704 3.70687 99.1195 3.82248 98.5495 3.60571C95.8434 2.57964 93.1374 1.58609 90.4314 0.538351C88.2305 -0.317907 86.1992 -0.1481 84.2328 1.2248C81.3753 3.2119 78.46 5.12313 75.5988 7.09216C74.7979 7.63771 73.9067 8.0568 73.2356 8.79384C72.9619 9.0541 72.7516 9.37384 72.6208 9.72839C72.4901 10.0829 72.4424 10.4628 72.4815 10.8387C72.7052 12.5332 74.2855 13.5376 76.039 13.0787C77.9404 12.5874 79.8347 12.0563 81.7253 11.5324C82.4252 11.3409 82.7066 10.9038 82.5551 10.304C82.4036 9.70429 81.8984 9.50919 81.2057 9.69345C80.1017 9.9861 78.9976 10.2896 77.8935 10.5858C77.0781 10.8062 76.2699 11.0447 75.4509 11.2217C75.2665 11.2912 75.0636 11.293 74.878 11.2269C74.6924 11.1607 74.5362 11.0309 74.4371 10.8604C74.2206 10.4196 74.5525 10.1378 74.8376 9.94274C75.4617 9.48029 76.1148 9.06119 76.7606 8.62403C79.7072 6.62248 82.6429 4.62936 85.5678 2.64467C86.1139 2.24981 86.7506 1.99912 87.4191 1.91576C88.0875 1.83241 88.7661 1.91908 89.3923 2.16777C91.9179 3.11074 94.4074 4.03926 96.9006 5.01835C97.9181 5.41938 98.9319 5.74093 100.04 5.60726C100.451 5.56029 100.599 5.69397 100.592 6.13474C100.568 7.65216 100.568 9.16717 100.592 10.6798C100.592 11.135 100.473 11.2651 100.018 11.2615C97.8784 11.2398 95.7352 11.2615 93.5956 11.2615C93.3362 11.2656 93.0774 11.2327 92.8271 11.1639C90.7958 10.575 88.7681 9.97164 86.7404 9.35745C86.0188 9.14068 85.7266 8.69629 85.907 8.13629C86.0874 7.57629 86.578 7.38842 87.2924 7.60158L91.5715 8.88055C92.2751 9.08648 92.7622 8.88055 92.9498 8.32055C93.1374 7.76055 92.8452 7.26197 92.1127 7.04158C90.6226 6.59358 89.1361 6.14558 87.6424 5.71564C87.2801 5.59365 86.8968 5.54637 86.5157 5.57665C86.1347 5.60693 85.7637 5.71414 85.4251 5.89183C85.0865 6.06951 84.7873 6.31399 84.5456 6.61054C84.3039 6.90709 84.1246 7.24957 84.0186 7.61735C83.9126 7.98512 83.882 8.37058 83.9287 8.7505C83.9754 9.13042 84.0985 9.49694 84.2904 9.82798C84.4824 10.159 84.7393 10.4477 85.0456 10.6767C85.3519 10.9057 85.7014 11.0702 86.0729 11.1603C87.2299 11.5071 88.3893 11.8504 89.5511 12.19C91.3082 12.6994 93.0292 13.2738 94.927 13.151C96.5831 13.0318 98.2572 13.151 99.9205 13.1149C100.462 13.1149 100.62 13.2377 100.595 13.7833C100.556 14.6901 100.891 14.9972 101.782 15.0008H105.029C105.968 15.0008 106.271 14.6973 106.274 13.7616C106.274 12.0057 106.274 10.2535 106.274 8.50119C106.274 6.74893 106.274 4.90635 106.274 3.11074C106.267 2.16777 105.942 1.85706 105.026 1.85345ZM103.824 13.1438C102.507 13.1438 102.507 13.1438 102.507 11.8287V8.38919C102.507 7.00545 102.507 5.62171 102.507 4.23435C102.507 3.87306 102.601 3.75745 102.976 3.75022C104.355 3.72132 104.351 3.70326 104.351 5.06532C104.351 7.59435 104.351 10.0873 104.351 12.5946C104.358 13.0065 104.272 13.1474 103.824 13.1438Z" fill="black"/>
<path d="M139.021 46.5126C139.021 47.4014 139.021 48.2902 139.021 49.1754C139.039 50.1797 139.19 50.429 140.132 50.6205C140.612 50.7108 140.59 50.9601 140.572 51.2925C140.55 51.755 140.19 51.5635 139.987 51.549C138.63 51.4479 137.268 51.4479 135.91 51.549C135.723 51.549 135.38 51.7333 135.351 51.3359C135.351 51.0468 135.196 50.6783 135.712 50.6133C136.091 50.5663 136.257 50.299 136.318 49.8907C136.417 48.9016 136.447 47.9069 136.408 46.9137C136.408 45.9599 136.434 45.0061 136.408 44.0559C136.372 42.9937 135.791 42.5457 134.738 42.7191C134.548 42.7545 134.361 42.804 134.179 42.8672C133.554 43.0768 133.226 43.3839 133.273 44.1679C133.381 45.8912 133.342 47.629 133.342 49.3596C133.324 49.5145 133.339 49.6713 133.385 49.8203C133.431 49.9692 133.507 50.1071 133.608 50.2251C133.71 50.3432 133.835 50.4389 133.975 50.5064C134.116 50.5738 134.268 50.6114 134.424 50.6169C134.889 50.6711 134.918 50.924 134.889 51.2781C134.85 51.7261 134.503 51.5563 134.294 51.5418C132.937 51.4425 131.574 51.4425 130.217 51.5418C130.026 51.5418 129.694 51.7297 129.643 51.3503C129.604 51.0324 129.513 50.6675 130.051 50.5952C130.589 50.523 130.625 50.0352 130.664 49.6053C130.801 48.1601 130.715 46.715 130.733 45.2698C130.749 44.8372 130.738 44.404 130.7 43.9728C130.589 42.9539 130.08 42.5782 129.073 42.7191C128.646 42.7851 128.238 42.9442 127.879 43.1852C127.789 43.223 127.712 43.2862 127.658 43.3671C127.604 43.4479 127.574 43.5429 127.572 43.6404C127.598 45.5625 127.619 47.4881 127.619 49.421C127.602 49.5669 127.615 49.7146 127.657 49.8553C127.699 49.9961 127.769 50.1268 127.862 50.2397C127.956 50.3525 128.072 50.4451 128.203 50.5118C128.333 50.5785 128.476 50.618 128.622 50.6277C129.106 50.7036 129.084 50.989 129.041 51.3286C128.983 51.755 128.637 51.5707 128.424 51.5563C127.109 51.4605 125.788 51.4605 124.473 51.5563C124.267 51.5563 123.917 51.7514 123.863 51.3178C123.824 50.9999 123.842 50.7217 124.264 50.6494C124.686 50.5772 124.848 50.2881 124.902 49.8763C125.139 47.7266 125.153 45.5582 124.946 43.4055C124.906 42.8636 124.423 42.8925 124.073 42.8022C123.791 42.7299 123.521 42.7372 123.528 42.3289C123.535 41.9206 123.889 42.0254 124.087 41.9676C124.818 41.7848 125.534 41.5432 126.227 41.245C126.894 40.9452 127.11 41.0716 127.255 41.7725C127.295 41.9496 127.208 42.2277 127.457 42.2639C127.706 42.3 127.767 42.0543 127.904 41.9026C128.229 41.5824 128.617 41.3335 129.043 41.1719C129.469 41.0103 129.924 40.9395 130.379 40.964C130.834 40.9884 131.279 41.1077 131.685 41.3141C132.092 41.5205 132.45 41.8095 132.739 42.1627C133.013 42.5059 133.139 42.2458 133.273 42.1121C133.924 41.4385 134.809 41.0414 135.744 41.003C137.664 40.8801 138.858 41.8665 138.963 43.7957C139.013 44.699 138.963 45.6022 138.963 46.5199L139.021 46.5126Z" fill="black"/>
<path d="M110.25 42.7299C109.952 42.2689 109.559 41.878 109.096 41.5838C108.633 41.2897 108.112 41.0994 107.568 41.0259C107.025 40.9525 106.472 40.9976 105.948 41.1583C105.424 41.319 104.941 41.5913 104.531 41.9567C104.391 42.0832 104.261 42.318 104.055 42.2313C103.85 42.1446 103.9 41.9061 103.864 41.7255C103.727 41.0716 103.503 40.9379 102.897 41.2052C102.169 41.5296 101.411 41.7837 100.635 41.9639C100.422 42.0109 100.148 41.9387 100.162 42.3252C100.177 42.7118 100.364 42.7479 100.653 42.766C101.374 42.8094 101.631 43.2104 101.627 43.9185C101.627 46.9895 101.627 50.0605 101.627 53.1278C101.627 53.406 101.555 53.6842 101.544 53.9624C101.555 54.0647 101.545 54.168 101.515 54.2665C101.486 54.365 101.437 54.4567 101.372 54.5362C101.307 54.6158 101.227 54.6817 101.136 54.7302C101.046 54.7786 100.946 54.8087 100.844 54.8186C100.422 54.8873 100.527 55.2125 100.519 55.4798C100.519 55.8628 100.812 55.7291 100.988 55.7183C102.626 55.6316 104.268 55.6568 105.906 55.7183C106.112 55.7183 106.422 55.87 106.4 55.4401C106.4 55.151 106.498 54.8186 106.007 54.8006C105.729 54.7627 105.455 54.706 105.185 54.6308C104.925 54.6168 104.682 54.5006 104.509 54.3076C104.335 54.1146 104.244 53.8606 104.257 53.6011C104.221 52.9327 104.214 52.2679 104.232 51.5996C106.22 51.885 107.58 51.5996 108.818 50.6999C111.61 48.6767 111.401 44.5219 110.25 42.7299ZM107.937 48.6081C107.497 50.3206 106.234 50.9601 104.712 50.2881C104.559 50.2446 104.426 50.148 104.338 50.0157C104.249 49.8833 104.21 49.7238 104.228 49.5655C104.257 48.5719 104.228 47.5784 104.228 46.5885C104.228 45.5985 104.254 44.6014 104.228 43.6078C104.208 43.4492 104.246 43.2886 104.335 43.1557C104.424 43.0228 104.558 42.9268 104.712 42.8852C106.48 42.1229 107.717 42.8274 108.067 44.8796C108.288 46.1176 108.244 47.3885 107.937 48.6081V48.6081Z" fill="black"/>
<path d="M64.9732 50.6167C64.7894 50.6021 64.6103 50.5512 64.4463 50.4668C64.2824 50.3825 64.1367 50.2663 64.0179 50.1252C63.8991 49.984 63.8095 49.8206 63.7542 49.6445C63.6989 49.4684 63.6791 49.2831 63.6959 49.0992C63.6959 48.8861 63.6129 48.6729 63.6166 48.4598C63.6707 44.7601 63.4758 41.0605 63.7248 37.3645C63.7645 36.7756 63.4794 36.5372 62.9202 36.725C61.9498 37.0203 60.9616 37.2532 59.9616 37.4223C59.7488 37.4657 59.4096 37.3284 59.3843 37.7511C59.3591 38.1738 59.6189 38.1919 59.94 38.2461C60.9069 38.4087 60.9394 38.452 61.0224 39.4419C61.0621 39.8719 61.0224 40.3054 61.0657 40.7354C61.109 41.1653 60.9935 41.1725 60.6003 41.0967C57.9989 40.6089 55.7402 41.7253 54.8058 44.0159C54.4493 44.8761 54.2701 45.7995 54.2787 46.7307C54.2874 47.662 54.4839 48.5819 54.8563 49.4352C55.0847 49.9768 55.4363 50.4574 55.883 50.8389C56.3297 51.2204 56.8593 51.4921 57.4294 51.6324C57.9995 51.7728 58.5944 51.7779 59.1669 51.6473C59.7393 51.5168 60.2734 51.2541 60.7265 50.8804C60.9105 50.7359 61.0873 50.6022 61.3507 50.4179C61.407 50.5464 61.4482 50.681 61.4734 50.819C61.4734 51.4838 61.8089 51.5416 62.3826 51.4729C63.2002 51.3922 64.0242 51.4019 64.8397 51.5018C65.0165 51.5018 65.352 51.7439 65.3953 51.3356C65.4314 51.0466 65.5144 50.6998 64.9732 50.6167ZM60.6147 49.7387C59.2653 50.3638 58.1504 49.9952 57.602 48.6187C56.9221 46.9114 56.9286 45.0068 57.62 43.3041C58.136 41.9674 59.6622 41.6711 60.7879 42.5816C60.8872 42.6628 60.9639 42.7684 61.0107 42.888C61.0574 43.0076 61.0727 43.1372 61.0549 43.2644C61.0549 44.2146 61.0549 45.1684 61.0549 46.1186C61.0549 47.0688 61.0549 48.0696 61.0549 49.0414C61.072 49.1905 61.0376 49.341 60.9575 49.4678C60.8775 49.5946 60.7565 49.6902 60.6147 49.7387V49.7387Z" fill="black"/>
<path d="M81.7902 42.4227C81.5985 42.2775 81.3573 42.2139 81.1191 42.2457C80.7583 42.2457 80.5454 42.2204 80.549 41.7362C80.5526 41.2521 80.8377 41.3171 81.1263 41.3171C82.3783 41.3171 83.6519 41.3171 84.8895 41.3171C85.142 41.3171 85.3152 41.3461 85.2755 41.6495C85.2466 41.8699 85.5317 42.2312 85.1023 42.2818C83.6988 42.4588 82.9736 43.5933 82.0319 44.4134C81.6711 44.7205 81.1191 45.0782 81.1083 45.425C81.0974 45.7719 81.635 46.1476 81.9381 46.527C82.7932 47.5602 83.6627 48.5791 84.507 49.6196C84.7975 49.9964 85.1472 50.3234 85.5425 50.5879C85.6499 50.6602 85.7306 50.7658 85.7723 50.8885C85.814 51.0112 85.8144 51.1442 85.7734 51.2671C85.7265 51.6284 85.4307 51.4369 85.2575 51.4405C84.4132 51.4405 83.4535 51.697 82.7643 51.3682C82.0752 51.0395 81.7288 50.1435 81.2309 49.4932C80.5093 48.5357 79.7552 47.5747 78.9398 46.6245C78.9398 47.8095 78.7414 48.9982 79.0553 50.1652C79.1599 50.5264 79.6145 50.5734 79.9284 50.6168C80.4372 50.689 80.3434 51.025 80.3253 51.3393C80.2965 51.7729 79.9645 51.5453 79.7805 51.5344C78.3579 51.4477 76.9313 51.4477 75.5086 51.5344C75.3463 51.5344 75.1189 51.6428 75.0973 51.3827C75.0757 51.1226 74.9349 50.7613 75.238 50.6999C76.2194 50.5012 76.2699 49.7316 76.2771 49.0162C76.3108 45.8562 76.3108 42.6973 76.2771 39.5396C76.2771 38.5858 76.1184 38.4557 75.1334 38.3401C74.7726 38.2931 74.6283 38.1775 74.6174 37.8307C74.6174 37.408 74.9458 37.5706 75.1334 37.5344C76.1735 37.3552 77.2004 37.1066 78.2074 36.7902C78.6404 36.6348 79.0445 36.895 79.0012 37.296C78.7089 40.0346 78.9759 42.784 78.8424 45.743L81.7902 42.4227Z" fill="black"/>
<path d="M9.48587 39.7708C9.46243 40.1149 9.46243 40.4601 9.48587 40.8041C9.56525 41.3641 9.34516 41.5267 8.81839 41.4436C8.7324 41.4298 8.64564 41.4214 8.55861 41.4183C7.91639 41.4183 7.58445 41.1907 7.59167 40.432C7.59167 39.9262 7.66022 39.2433 7.05768 38.9326C6.69163 38.7204 6.28221 38.5941 5.86032 38.5634C5.43843 38.5328 5.01509 38.5985 4.62227 38.7556C3.33781 39.3048 3.17906 41.1221 4.29033 42.1228C4.75552 42.5097 5.28574 42.8107 5.85621 43.0116C6.66733 43.3054 7.45191 43.668 8.20142 44.0955C9.55443 44.9264 10.2508 46.097 10.092 47.7084C9.93327 49.3197 9.15755 50.5806 7.59167 51.1876C5.25728 52.1053 2.93732 51.7946 0.649839 50.9419C0.595401 50.9348 0.543305 50.9153 0.49752 50.885C0.451734 50.8546 0.413466 50.8142 0.38563 50.7669C0.357794 50.7195 0.341124 50.6664 0.33689 50.6115C0.332656 50.5567 0.34097 50.5017 0.361197 50.4506C0.564433 49.3459 0.685036 48.2276 0.721999 47.105C0.721999 47.0436 0.721999 46.9316 0.747255 46.9208C1.18383 46.7762 1.61679 46.9208 2.05336 46.9641C2.27345 46.9641 2.44663 47.0039 2.46467 47.3254C2.50436 47.9685 2.6126 48.608 2.69198 49.2511C2.69736 49.3593 2.72994 49.4644 2.78671 49.5566C2.84348 49.6488 2.92259 49.7251 3.0167 49.7786C3.45242 50.0517 3.93977 50.2319 4.44824 50.3078C4.95672 50.3836 5.47535 50.3535 5.97167 50.2193C6.34167 50.1247 6.67384 49.9188 6.92348 49.6295C7.17312 49.3401 7.32824 48.9811 7.36797 48.6008C7.52311 47.6253 7.34271 46.7437 6.46957 46.1259C5.86607 45.7498 5.21588 45.4547 4.53567 45.248C3.92448 45.0376 3.33585 44.7665 2.77857 44.4387C1.46164 43.6294 0.790552 42.4624 0.931264 40.9161C1.07198 39.3698 1.96316 38.257 3.45688 37.6645C5.00111 37.072 6.55977 37.231 8.11122 37.5995C9.66267 37.968 9.62659 37.9788 9.48587 39.7708Z" fill="black"/>
<path d="M29.8203 46.3969C29.7661 45.5731 29.8636 44.5904 29.7553 43.586C29.694 43.026 29.4378 42.7189 28.9543 42.6647C28.4709 42.6105 28.4997 42.3323 28.4853 42.0433C28.4853 41.664 28.8244 41.7904 28.9976 41.7615C29.9121 41.6096 30.8133 41.3862 31.6928 41.0931C32.2232 40.9089 32.5046 41.1979 32.4649 41.7723C32.3026 44.2111 32.3495 46.6534 32.4252 49.0957C32.4541 49.97 32.851 50.5047 33.7386 50.6312C33.9478 50.6601 34.1535 50.6637 34.1571 50.9925C34.1607 51.3212 34.1282 51.5778 33.6484 51.5236C32.7468 51.4133 31.8348 51.4206 30.9351 51.5452C30.6032 51.5958 30.5383 51.4622 30.4986 51.184C30.3651 50.2916 30.3254 50.2591 29.6435 50.866C28.4492 51.9499 27.089 51.8849 25.6746 51.4911C24.6247 51.1948 24.1196 50.4072 23.9681 49.345C23.784 48.0769 23.9067 46.7979 23.8742 45.5225C23.8742 44.9842 23.8526 44.4387 23.8526 43.904C23.8526 43.2428 23.6397 42.7551 22.9037 42.7009C22.5176 42.6683 22.4743 42.4046 22.4455 42.1228C22.4022 41.6965 22.763 41.8591 22.947 41.8229C23.8801 41.6544 24.801 41.4238 25.7035 41.1329C26.3097 40.9161 26.6199 41.1654 26.5586 41.7868C26.3277 44.0304 26.4756 46.2812 26.4684 48.5285C26.4684 49.1643 26.6488 49.8111 27.3812 50.0134C28.2363 50.2482 28.9976 49.9556 29.6904 49.457C29.8563 49.3378 29.7986 49.1427 29.7986 48.9729C29.8203 48.1672 29.8203 47.3651 29.8203 46.3969Z" fill="black"/>
<path d="M118.159 40.9992C115.749 40.7824 113.692 41.9169 112.852 43.9726C112.428 45.0883 112.31 46.2968 112.509 47.4735C112.816 49.7569 114.248 51.314 116.442 51.6753C118.765 52.0583 120.883 51.0395 121.875 49.0596C122.329 48.1019 122.555 47.052 122.536 45.9922C122.582 43.073 120.988 41.2521 118.159 40.9992ZM119.425 49.1355C119.191 49.905 118.805 50.5301 117.914 50.6059C117.022 50.6818 116.438 50.1904 116.059 49.4534C115.457 48.2901 115.356 47.0219 115.338 45.4503C115.302 44.7263 115.403 44.0021 115.633 43.3151C116.142 41.9205 117.629 41.6568 118.599 42.7876C119.321 43.615 119.512 44.6374 119.609 45.6779C119.777 46.8313 119.714 48.0064 119.425 49.1355V49.1355Z" fill="black"/>
<path d="M149.848 42.0073C148.001 40.5043 144.627 40.6633 142.91 42.3252C141.467 43.7306 141.2 45.4973 141.445 47.3833C141.759 49.8184 143.336 51.4658 145.566 51.679C148.322 51.9391 150.404 50.6565 151.154 48.2106C151.377 47.5277 151.482 46.8117 151.465 46.0935C151.493 44.4387 151.107 43.0297 149.848 42.0073ZM148.603 46.8883C148.652 47.7469 148.53 48.6067 148.243 49.4173C147.683 50.783 146.182 51.0106 145.27 49.8473C144.754 49.1239 144.45 48.2704 144.393 47.3833C144.234 46.0501 144.158 44.7205 144.544 43.4091C144.739 42.7443 145.107 42.2276 145.825 42.1048C146.179 42.0405 146.544 42.0836 146.873 42.2284C147.202 42.3733 147.481 42.6133 147.673 42.9177C148.347 43.8679 148.506 44.9807 148.603 46.1043C148.625 46.3716 148.603 46.6318 148.603 46.8883Z" fill="black"/>
<path d="M17.1814 40.9992C14.396 40.7571 12.2132 42.2493 11.607 44.8361C11.4243 45.6815 11.3962 46.553 11.524 47.4085C11.8307 49.8327 13.4579 51.5164 15.7238 51.7006C18.5055 51.9282 20.6018 50.5698 21.2765 48.0877C21.46 47.4388 21.5535 46.7678 21.5543 46.0934C21.5832 43.0405 20.0101 41.2485 17.1814 40.9992ZM18.4189 49.1896C18.2133 49.9122 17.8164 50.4939 16.9757 50.5842C16.6097 50.6267 16.2395 50.5542 15.9163 50.3769C15.5932 50.1996 15.333 49.9261 15.1717 49.5943C14.4682 48.3984 14.3888 47.0653 14.3744 45.7213C14.3176 44.9007 14.4167 44.0769 14.6666 43.2934C15.1789 41.9024 16.6618 41.6459 17.6396 42.7767C18.0622 43.299 18.3442 43.9209 18.4586 44.5832C18.8221 46.0988 18.8084 47.6805 18.4189 49.1896V49.1896Z" fill="black"/>
<path d="M96.1717 50.8118C96.0454 50.5697 95.7568 50.6131 95.5475 50.5625C94.9666 50.4144 94.6022 50.1398 94.5409 49.4786C94.494 48.962 94.4182 48.449 94.4182 47.9323C94.4182 46.5269 94.4182 45.1215 94.4182 43.7161C94.4182 42.0324 93.6533 41.2087 91.9936 41.0281C90.4277 40.8546 89.0386 41.4869 87.6243 41.9963C87.2021 42.1481 87.0686 42.3576 87.1841 42.8092C87.2705 43.2759 87.3259 43.7478 87.3501 44.2219C87.3501 44.3881 87.332 44.5832 87.5774 44.6193C88.077 44.664 88.5788 44.561 89.0206 44.323C89.302 44.1821 89.1108 43.81 89.1469 43.5463C89.1938 43.1633 89.0783 42.7117 89.3706 42.4263C90.002 41.8157 91.5534 42.354 91.7699 43.2283C91.8588 43.848 91.8974 44.4739 91.8854 45.0998C91.9178 45.4936 91.7519 45.6201 91.4091 45.6959C90.2693 45.9348 89.1489 46.2584 88.0572 46.6642C86.9388 47.0869 86.4914 47.8745 86.5563 49.2872C86.6104 50.5372 87.1805 51.3573 88.3242 51.6103C89.468 51.8632 90.6911 51.8812 91.6508 50.9202C91.8457 50.7251 92.073 50.5589 92.3328 50.3457C92.4798 50.5655 92.5555 50.8255 92.5492 51.09C92.5492 51.4946 92.7044 51.5886 93.1085 51.5308C93.9674 51.4302 94.8347 51.4217 95.6954 51.5055C96.1464 51.5416 96.3809 51.2164 96.1717 50.8118ZM91.8854 48.8283C91.8854 49.6412 91.4632 50.0206 90.5323 50.0422C89.7241 50.0422 89.3201 49.699 89.2659 48.9114C89.1938 47.8673 89.4788 47.4446 90.5323 47.0291C91.8854 46.498 91.8854 46.498 91.8854 47.9215V48.8283Z" fill="black"/>
<path d="M47.3733 46.209C48.9031 46.162 50.4329 46.0644 51.9627 45.9922C52.4714 45.9705 52.9476 45.761 53.0451 45.2696C53.3806 43.7522 52.1791 41.6567 50.689 41.2159C48.885 40.6776 47.1784 40.9847 45.7569 42.2998C44.3353 43.6149 43.9925 45.3021 44.108 47.1483C44.274 49.8724 46.2079 51.7042 49.2278 51.7042C50.5591 51.8921 51.6957 50.9202 52.8719 50.035C53.0739 49.8833 53.0126 49.7713 52.9224 49.6123C52.7095 49.2293 52.5363 48.8139 51.9987 49.2727C51.7672 49.4309 51.5161 49.5584 51.2519 49.652C49.0871 50.6022 47.283 49.5942 46.9692 47.2459C46.9439 47.0761 46.9331 46.8846 46.9042 46.7328C46.8537 46.3896 46.9511 46.2234 47.3733 46.209ZM47.0377 44.3266C47.1476 43.752 47.3952 43.2127 47.7593 42.755C48.5314 41.8373 49.7149 41.9927 50.2019 43.073C50.238 43.1524 50.2669 43.2355 50.2957 43.315C50.7359 44.6121 50.5916 44.8324 49.2494 44.9444C48.7371 44.9914 48.2247 45.0492 47.8784 45.0817C46.8465 45.1612 46.8501 45.1612 47.0377 44.3266V44.3266Z" fill="black"/>
<path d="M38.1006 51.7187C37.2493 51.6884 36.4074 51.5288 35.6039 51.2454C35.2431 51.1154 35.106 50.9456 35.1673 50.5445C35.2862 49.8189 35.3585 49.0864 35.3838 48.3515C35.3838 47.9216 35.557 47.918 35.8889 47.9902C37.0218 48.1925 37.0218 48.1817 37.1265 49.3198C37.2167 50.2699 37.4151 50.4578 38.4723 50.5807C39.3779 50.6854 40.0237 50.3241 40.2763 49.569C40.4119 49.2329 40.4126 48.8572 40.2781 48.5206C40.1436 48.1839 39.8844 47.9124 39.5547 47.7626C38.7717 47.358 37.9347 47.04 37.1409 46.6787C35.5786 45.9128 34.9761 44.7494 35.4235 43.2754C35.8096 41.9928 36.827 41.4003 38.0465 41.1402C39.432 40.8403 40.7922 41.0896 42.1272 41.5014C42.1807 41.5073 42.2322 41.5251 42.278 41.5535C42.3238 41.5819 42.3626 41.6202 42.3917 41.6656C42.4207 41.711 42.4393 41.7623 42.446 41.8158C42.4526 41.8693 42.4473 41.9236 42.4303 41.9747C42.3557 42.6612 42.3028 43.35 42.2715 44.0413C42.2715 44.3376 42.138 44.4026 41.8782 44.4026C41.7051 44.4026 41.5174 44.4026 41.3587 44.3737C40.8211 44.3195 40.5 44.175 40.5072 43.4777C40.5072 42.2601 39.2047 41.6279 38.1295 42.2638C37.9654 42.3587 37.826 42.491 37.7225 42.65C37.6191 42.809 37.5546 42.9902 37.5342 43.1789C37.5138 43.3675 37.5381 43.5583 37.6052 43.7358C37.6723 43.9133 37.7802 44.0724 37.9202 44.2003C38.4015 44.6022 38.9533 44.911 39.5475 45.1107C40.0598 45.3383 40.5866 45.5334 41.0845 45.79C42.1669 46.3355 42.7514 47.1592 42.7081 48.4274C42.7167 49.0037 42.5623 49.5706 42.2629 50.0629C41.9635 50.5551 41.5312 50.9525 41.0159 51.2093C40.2294 51.6067 39.3562 51.7296 38.1006 51.7187Z" fill="black"/>
<path d="M73.3943 42.9935C73.3872 43.2087 73.3691 43.4233 73.3402 43.6366C73.2789 43.9546 73.5386 44.4423 72.8315 44.4026C71.8898 44.3484 71.63 44.2436 71.6372 43.6005C71.6372 42.0506 70.8362 41.9783 69.5734 42.1192C69.3437 42.1456 69.1291 42.2475 68.9633 42.409C68.7975 42.5704 68.6898 42.7824 68.657 43.0116C68.5955 43.2316 68.5997 43.4647 68.6689 43.6823C68.7382 43.9 68.8695 44.0926 69.0467 44.2364C69.456 44.5555 69.9109 44.8112 70.3961 44.9951C70.9697 45.2408 71.547 45.4828 72.1099 45.7538C73.1706 46.2596 73.8165 47.0797 73.8129 48.2828C73.8092 49.4859 73.3222 50.5445 72.2001 51.1226C70.295 52.1017 68.3503 51.8452 66.4272 51.1551C66.3858 51.1444 66.3471 51.1253 66.3134 51.099C66.2797 51.0726 66.2519 51.0396 66.2315 51.0019C66.2112 50.9643 66.1989 50.9228 66.1953 50.8802C66.1917 50.8375 66.197 50.7946 66.2108 50.7541C66.3592 49.9456 66.4413 49.1264 66.4561 48.3045C66.4561 48.1997 66.4814 48.0083 66.5174 48.0046C66.9884 47.9932 67.4586 48.0492 67.9137 48.1708C68.2529 48.2178 68.1302 48.4888 68.1555 48.6766C68.2135 48.9741 68.2413 49.2768 68.2385 49.5799C68.2096 50.1254 68.5235 50.3313 68.9601 50.4723C70.2373 50.8733 71.2476 50.3711 71.3991 49.2511C71.4581 48.9396 71.4081 48.6172 71.2576 48.3382C71.1072 48.0593 70.8653 47.8407 70.5729 47.7192C69.8982 47.3832 69.1874 47.1231 68.5055 46.8052C66.7664 45.9923 66.2035 45.0999 66.4308 43.5535C66.6257 42.2637 67.8308 41.2557 69.4472 41.0426C70.6752 40.9141 71.9166 41.0445 73.0912 41.4255C73.452 41.5267 73.5964 41.6712 73.4809 42.065C73.424 42.3627 73.3962 42.6652 73.3979 42.9683L73.3943 42.9935Z" fill="black"/>
<path d="M155.61 45.8368C155.602 46.7067 155.746 47.5713 156.036 48.3911C156.142 48.7102 156.312 49.0046 156.534 49.2567C156.756 49.5088 157.027 49.7135 157.33 49.8584C157.633 50.0034 157.962 50.0858 158.298 50.1006C158.633 50.1154 158.969 50.0624 159.283 49.9447C159.713 49.811 160.109 49.5834 160.532 49.4208C160.77 49.3305 160.99 48.8933 161.293 49.4208C161.542 49.8543 161.502 50.0458 161.105 50.3927C160.414 51.0353 159.557 51.4714 158.631 51.6514C157.705 51.8315 156.748 51.7484 155.866 51.4115C153.774 50.6889 152.619 48.6476 152.847 46.1042C153.164 42.3214 156.159 40.291 160.063 41.2303C160.586 41.3568 161.195 41.4291 161.574 41.7506C161.953 42.0722 161.535 42.708 161.592 43.1958C161.63 43.4364 161.619 43.6821 161.56 43.9183C161.477 44.1749 161.74 44.594 161.325 44.6771C160.808 44.757 160.28 44.6603 159.824 44.4025C159.741 44.3627 159.785 44.0809 159.759 43.9147C159.669 43.3547 159.933 42.6611 159.153 42.3648C158.093 41.9638 157.14 42.1047 156.53 42.8128C155.744 43.716 155.646 44.7999 155.61 45.8368Z" fill="black"/>
<path d="M90.0959 40.0308C89.9684 40.0072 89.848 39.9546 89.7439 39.8771C89.6399 39.7997 89.555 39.6993 89.4958 39.5838C89.4365 39.4683 89.4045 39.3407 89.4022 39.2109C89.3999 39.0811 89.4274 38.9525 89.4825 38.8349C90.0851 37.8956 90.7093 36.9634 91.2866 36.006C91.3163 35.929 91.3628 35.8595 91.4226 35.8027C91.4825 35.7459 91.5542 35.7031 91.6326 35.6775C91.7111 35.6519 91.7942 35.6442 91.876 35.6547C91.9578 35.6653 92.0362 35.694 92.1056 35.7387C92.6276 35.9372 93.1645 36.0942 93.7112 36.2084C94.1585 36.3131 94.1225 36.6274 93.9132 36.8117C92.7081 37.8956 91.467 38.9216 90.2366 39.9694C90.1933 39.9972 90.1458 40.0179 90.0959 40.0308Z" fill="black"/>
</svg>
