<svg width="141" height="40" viewBox="0 0 141 40" fill="none" xmlns="http://www.w3.org/2000/svg">
<path d="M12.72 18.4001L12.192 21.7121H14.856V24.1601H11.784L11.16 28.0001H8.40002L9.02402 24.1601H5.90402L5.30402 28.0001H2.52002L3.12002 24.1601H0.624023V21.7121H3.52802L4.05602 18.4001H1.65602V15.9521H4.46402L5.06402 12.1601H7.84802L7.24802 15.9521H10.344L10.944 12.1601H13.728L13.128 15.9521H15.888V18.4001H12.72ZM9.96002 18.4001H6.84002L6.31202 21.7121H9.40802L9.96002 18.4001Z" fill="black"/>
<path d="M36.6349 28.0001H32.9869V20.7281L33.1069 15.8561H33.0589L29.1469 28.0001H25.8109L21.8989 15.8561H21.8509L21.9709 20.7281V28.0001H18.2989V12.1601H24.1789L26.6749 20.2241L27.5629 23.5841H27.6109L28.5229 20.2481L30.9949 12.1601H36.6349V28.0001Z" fill="black"/>
<path d="M51.3998 25.6721C51.7038 25.6721 51.9518 25.6401 52.1438 25.5761L51.8318 27.8561C51.3678 28.1121 50.8238 28.2401 50.1998 28.2401C48.4718 28.2401 47.4398 27.6241 47.1038 26.3921C46.3838 27.6241 44.9598 28.2401 42.8318 28.2401C41.6318 28.2401 40.7118 27.9841 40.0718 27.4721C39.4318 26.9601 39.1118 26.2161 39.1118 25.2401C39.1118 24.2161 39.4718 23.3921 40.1918 22.7681C40.9278 22.1281 42.1278 21.6401 43.7918 21.3041L46.5038 20.7761V20.3441C46.5038 19.8001 46.3518 19.3681 46.0478 19.0481C45.7438 18.7281 45.3278 18.5681 44.7998 18.5681C44.1918 18.5681 43.6958 18.7121 43.3118 19.0001C42.9278 19.2881 42.6798 19.7601 42.5678 20.4161L39.2558 19.4561C39.4638 18.2881 40.0398 17.3841 40.9838 16.7441C41.9278 16.0881 43.1998 15.7601 44.7998 15.7601C46.6718 15.7601 48.0958 16.1441 49.0718 16.9121C50.0478 17.6801 50.5358 18.8321 50.5358 20.3681V24.7361C50.5358 25.3601 50.8238 25.6721 51.3998 25.6721ZM44.3198 25.6001C44.8798 25.6001 45.3838 25.4481 45.8318 25.1441C46.2798 24.8241 46.5038 24.4081 46.5038 23.8961V22.8641L44.5598 23.3201C44.0478 23.4481 43.6798 23.6081 43.4558 23.8001C43.2478 23.9761 43.1438 24.2321 43.1438 24.5681C43.1438 24.9041 43.2478 25.1601 43.4558 25.3361C43.6638 25.5121 43.9518 25.6001 44.3198 25.6001Z" fill="black"/>
<path d="M58.7211 28.2401C55.9691 28.2401 54.0171 27.5361 52.8651 26.1281L54.9771 23.8241C55.6651 24.9601 56.8491 25.5281 58.5291 25.5281C59.0891 25.5281 59.5291 25.4561 59.8491 25.3121C60.1691 25.1521 60.3291 24.9441 60.3291 24.6881C60.3291 24.4641 60.1611 24.2721 59.8251 24.1121C59.5051 23.9361 58.9451 23.7681 58.1451 23.6081C56.3531 23.2561 55.0731 22.7761 54.3051 22.1681C53.5531 21.5601 53.1771 20.7521 53.1771 19.7441C53.1771 19.0561 53.3931 18.4081 53.8251 17.8001C54.2571 17.1921 54.9051 16.7041 55.7691 16.3361C56.6491 15.9521 57.7131 15.7601 58.9611 15.7601C60.3371 15.7601 61.4571 15.9521 62.3211 16.3361C63.2011 16.7041 63.9131 17.2641 64.4571 18.0161L62.3451 20.0801C61.9611 19.5201 61.5051 19.1121 60.9771 18.8561C60.4491 18.6001 59.8171 18.4721 59.0811 18.4721C58.5051 18.4721 58.0571 18.5601 57.7371 18.7361C57.4171 18.9121 57.2571 19.1281 57.2571 19.3841C57.2571 19.6241 57.4171 19.8321 57.7371 20.0081C58.0731 20.1681 58.6491 20.3281 59.4651 20.4881C61.2251 20.7921 62.4891 21.2481 63.2571 21.8561C64.0411 22.4481 64.4331 23.2641 64.4331 24.3041C64.4331 25.4721 63.9451 26.4241 62.9691 27.1601C61.9931 27.8801 60.5771 28.2401 58.7211 28.2401Z" fill="black"/>
<path d="M72.574 23.0801L70.63 25.2401V28.0001H66.55V10.9121H70.63V21.0401L75.214 16.0001H79.726L75.31 20.7041L79.99 28.0001H75.478L72.574 23.0801Z" fill="black"/>
<path d="M86.3539 28.2401C83.6019 28.2401 81.6499 27.5361 80.4979 26.1281L82.6099 23.8241C83.2979 24.9601 84.4819 25.5281 86.1619 25.5281C86.7219 25.5281 87.1619 25.4561 87.4819 25.3121C87.8019 25.1521 87.9619 24.9441 87.9619 24.6881C87.9619 24.4641 87.7939 24.2721 87.4579 24.1121C87.1379 23.9361 86.5779 23.7681 85.7779 23.6081C83.9859 23.2561 82.7059 22.7761 81.9379 22.1681C81.1859 21.5601 80.8099 20.7521 80.8099 19.7441C80.8099 19.0561 81.0259 18.4081 81.4579 17.8001C81.8899 17.1921 82.5379 16.7041 83.4019 16.3361C84.2819 15.9521 85.3459 15.7601 86.5939 15.7601C87.9699 15.7601 89.0899 15.9521 89.9539 16.3361C90.8339 16.7041 91.5459 17.2641 92.0899 18.0161L89.9779 20.0801C89.5939 19.5201 89.1379 19.1121 88.6099 18.8561C88.0819 18.6001 87.4499 18.4721 86.7139 18.4721C86.1379 18.4721 85.6899 18.5601 85.3699 18.7361C85.0499 18.9121 84.8899 19.1281 84.8899 19.3841C84.8899 19.6241 85.0499 19.8321 85.3699 20.0081C85.7059 20.1681 86.2819 20.3281 87.0979 20.4881C88.8579 20.7921 90.1219 21.2481 90.8899 21.8561C91.6739 22.4481 92.0659 23.2641 92.0659 24.3041C92.0659 25.4721 91.5779 26.4241 90.6019 27.1601C89.6259 27.8801 88.2099 28.2401 86.3539 28.2401Z" fill="black"/>
<path d="M107.551 24.5201H105.127V28.0001H101.479V24.5201H93.5108V22.5761L100.303 12.1601H105.127V21.6881H107.551V24.5201ZM97.3508 21.6881H101.479V17.4641L101.575 14.8721H101.527C101.239 15.5921 100.775 16.4561 100.135 17.4641L97.3508 21.6881Z" fill="black"/>
<path d="M119.058 24.4241H113.586L112.482 28.0001H108.33L113.898 12.1601H118.842L124.386 28.0001H120.138L119.058 24.4241ZM118.194 21.6161L117.042 17.8241L116.346 15.3281H116.298L115.65 17.8001L114.45 21.6161H118.194Z" fill="black"/>
<path d="M129.973 23.8481C129.973 24.3921 130.053 24.7761 130.213 25.0001C130.373 25.2241 130.661 25.3361 131.077 25.3361C131.461 25.3361 131.869 25.2641 132.301 25.1201L132.037 27.6401C131.749 27.8161 131.373 27.9601 130.909 28.0721C130.445 28.1841 129.989 28.2401 129.541 28.2401C128.261 28.2401 127.333 27.9441 126.757 27.3521C126.181 26.7441 125.893 25.7761 125.893 24.4481V10.9121H129.973V23.8481Z" fill="black"/>
<path d="M137.824 23.8481C137.824 24.3921 137.904 24.7761 138.064 25.0001C138.224 25.2241 138.512 25.3361 138.928 25.3361C139.312 25.3361 139.72 25.2641 140.152 25.1201L139.888 27.6401C139.6 27.8161 139.224 27.9601 138.76 28.0721C138.296 28.1841 137.84 28.2401 137.392 28.2401C136.112 28.2401 135.184 27.9441 134.608 27.3521C134.032 26.7441 133.744 25.7761 133.744 24.4481V10.9121H137.824V23.8481Z" fill="black"/>
</svg>
