<svg width="113" height="56" viewBox="0 0 113 56" fill="none" xmlns="http://www.w3.org/2000/svg">
<path d="M32.1561 20.2674C32.2029 20.0796 32.2503 19.8889 32.298 19.694C32.26 19.694 32.2229 19.694 32.1866 19.6939L32.1478 19.6937H32.1475C31.9904 19.6932 31.8465 19.6928 31.7009 19.6979C31.5838 19.7005 31.4557 19.6909 31.3269 19.6812C31.0234 19.6585 30.7162 19.6355 30.5412 19.7707C30.3642 19.9076 30.3168 20.2133 30.2698 20.5164L30.2698 20.5165C30.2507 20.6399 30.2316 20.7629 30.2039 20.8738C29.9499 21.9012 29.9518 21.9012 31.0348 21.9012C31.0881 21.9012 31.1415 21.8997 31.1948 21.8982H31.1949C31.3015 21.8953 31.408 21.8923 31.514 21.9012C31.7105 21.9175 31.7852 21.8351 31.8274 21.6434C31.9266 21.1898 32.039 20.7381 32.1559 20.2685L32.1561 20.2676L32.1561 20.2674Z" fill="black"/>
<path d="M51.3077 31.9912H52.1205C52.2248 31.9912 52.3291 31.9903 52.4334 31.9893C52.6797 31.9871 52.9258 31.9849 53.1709 31.995C53.3961 32.0037 53.4871 31.9481 53.445 31.6989C53.3491 31.1018 52.96 30.6964 52.3907 30.6274C51.6566 30.5373 51.1582 30.8038 50.9244 31.4104C50.7097 31.9673 50.725 31.9912 51.3077 31.9912Z" fill="black"/>
<path d="M60.7566 33.5007C60.829 33.2227 60.8613 32.9358 60.8524 32.6487C60.8619 32.3463 60.8312 32.044 60.7614 31.7497C60.5668 31.0808 60.1614 30.7549 59.4838 30.7482C58.8254 30.7424 58.3654 31.0827 58.189 31.7344C58.0249 32.3217 58.0289 32.9433 58.2005 33.5285C58.3941 34.184 58.8197 34.4821 59.5164 34.4716C60.1863 34.4591 60.5649 34.1591 60.7566 33.5007Z" fill="black"/>
<path d="M66.1491 31.9865C66.255 31.9889 66.361 31.9912 66.4667 31.9912C66.5865 31.9912 66.7062 31.9898 66.8259 31.9883H66.8261C67.056 31.9855 67.2855 31.9827 67.5142 31.9903C67.7673 32.0018 67.797 31.9021 67.7615 31.6788C67.6628 31.0606 67.2698 30.6696 66.6613 30.6188C65.8763 30.5527 65.4278 30.8507 65.2055 31.5456C65.1058 31.8551 65.1192 32.0257 65.515 31.9912C65.7252 31.9772 65.9371 31.9818 66.1491 31.9865Z" fill="black"/>
<path d="M58.7957 23.5085C58.9989 23.8161 59.3219 23.8324 59.6439 23.8324C60.5707 23.8353 61.1141 23.29 61.046 22.4293C61.0447 22.4136 61.0439 22.3977 61.0431 22.3819V22.3817L61.0431 22.3815L61.0431 22.3813L61.0431 22.3811C61.0375 22.2684 61.0323 22.1636 60.8543 22.1955C60.6511 22.2323 60.4453 22.2562 60.2394 22.28C59.8618 22.3238 59.4841 22.3676 59.1225 22.4916C59.025 22.526 58.9368 22.5825 58.8647 22.6566C58.7926 22.7308 58.7386 22.8206 58.707 22.919C58.6753 23.0175 58.6669 23.1219 58.6823 23.2241C58.6977 23.3264 58.7365 23.4237 58.7957 23.5085Z" fill="black"/>
<path fill-rule="evenodd" clip-rule="evenodd" d="M54.6688 7.01637C55.1632 7.48466 55.5965 8.01343 55.9584 8.59016C56.066 8.4568 56.1714 8.32147 56.2769 8.18613C56.5123 7.88388 56.7478 7.58158 57.0073 7.30101C58.5743 5.60848 60.5294 4.51303 62.6533 3.68018C65.0933 2.72179 67.6446 2.24259 70.2323 1.95507C70.4467 1.97527 70.663 1.95808 70.8715 1.90428C70.8765 1.90356 70.8814 1.90194 70.8859 1.89948L70.9338 1.88319L71.6698 1.85827H74.6409L75.468 1.88415L75.4977 1.89565C75.683 1.95577 75.8792 1.97506 76.0727 1.9522L76.5318 1.97807C76.5457 1.98635 76.5605 1.9931 76.5759 1.9982L76.5893 2.00299C76.7313 2.0513 76.8823 2.06702 77.0311 2.04899C79.13 2.37102 81.2059 2.76683 83.2185 3.48659C85.6778 4.36735 87.9616 5.53564 89.8947 7.32017C90.1257 7.53294 90.2349 7.41985 90.3931 7.25596C91.1769 6.4481 91.8561 5.55487 92.5348 4.66239C92.6138 4.55856 92.6927 4.45474 92.7718 4.35106L92.7775 4.3436C93.642 3.2123 94.5069 2.08043 95.5665 1.12414C96.2407 0.497904 97.1051 0.115312 98.0219 0.0373204H98.6928C99.8668 0.260627 100.955 0.664112 101.688 1.6733C102.407 2.66045 102.611 3.78273 102.483 4.98935C102.379 5.98513 102.039 6.90231 101.665 7.81471C101.658 7.82685 101.652 7.83864 101.647 7.85003C101.61 7.92964 101.605 7.99045 101.657 8.01457C101.683 8.02578 101.723 8.0286 101.78 8.02116C101.782 8.02074 101.785 8.02029 101.788 8.01982L101.789 8.0198C102.451 7.94208 103.082 7.74428 103.712 7.54687C103.89 7.49114 104.067 7.43543 104.246 7.38247C105.689 6.95407 107.102 6.77389 108.539 7.45339C110.235 8.25461 111.126 9.65099 111.62 11.3684C111.718 11.7082 111.781 12.0577 111.845 12.4073L111.845 12.4082L111.845 12.4086C111.875 12.5714 111.905 12.7342 111.938 12.8961C111.92 13.0497 111.936 13.2053 111.984 13.3523C111.986 13.3597 111.989 13.367 111.992 13.3742C111.996 13.3837 112 13.393 112.005 13.4022V15.8355C112.002 15.844 111.999 15.8525 111.996 15.861C111.992 15.8744 111.988 15.888 111.985 15.9017C111.936 16.0754 111.921 16.257 111.941 16.4364C111.38 20.9591 109.899 25.178 107.738 29.1697C106.9 30.7512 105.875 32.2259 104.684 33.562C103.687 34.6642 102.493 35.4021 101.011 35.7136C99.9243 35.9417 98.8375 36.1526 97.7373 36.2935C97.5634 36.269 97.3862 36.2921 97.2245 36.3605L96.5882 36.3864H93.713L93.0795 36.3605L93.0536 36.349C92.8977 36.2905 92.7298 36.2714 92.5648 36.2935C91.0668 36.1669 89.5878 35.8714 88.1562 35.4127C87.2975 35.1443 86.4474 34.8463 85.6548 34.4246C85.4223 34.3013 85.3771 34.4068 85.3296 34.5175C85.3221 34.535 85.3145 34.5527 85.3062 34.5696C85.3033 34.5753 85.3004 34.581 85.2973 34.5865C84.4922 36.0369 83.6242 37.4486 82.6933 38.8217C81.0842 41.1976 79.2699 43.4009 77.173 45.3608C75.1318 47.2572 72.8765 48.9092 70.4527 50.2832C68.3423 51.4907 66.1351 52.4884 63.879 53.3836C61.3173 54.3941 58.7036 55.2674 56.0489 56V55.9947L56.0461 55.9981C55.4748 56.0003 54.946 55.8138 54.4221 55.6291L54.4218 55.629C54.2603 55.5721 54.0993 55.5153 53.9376 55.4643C52.1138 54.8892 50.3014 54.2749 48.5112 53.604C47.3055 53.1488 46.1209 52.636 44.9488 52.0945C42.7007 51.0732 40.5512 49.8474 38.5275 48.4325C37.4046 47.6368 36.3284 46.7769 35.3044 45.8573C34.5914 45.2171 33.8937 44.5721 33.2496 43.8753C32.0064 42.5237 30.8496 41.0951 29.786 39.598C28.6292 37.9783 27.6172 36.2733 26.6233 34.554C26.5054 34.3498 26.4431 34.3364 26.2399 34.4323C24.3241 35.3034 22.3364 35.936 20.2365 36.1794C20.055 36.2005 19.8744 36.2283 19.6941 36.256L19.6936 36.2561C19.6113 36.2688 19.5291 36.2815 19.4468 36.2935C19.272 36.2689 19.0939 36.2921 18.9312 36.3606L18.2967 36.3864H15.4216L14.7842 36.3606C14.6226 36.2921 14.4453 36.2689 14.2715 36.2935C12.6736 36.1672 11.0982 35.8387 9.58301 35.3159C9.03384 35.1233 8.58532 34.7811 8.15308 34.4169C7.15539 33.5755 6.36663 32.5509 5.62962 31.4842C5.52279 31.3044 5.41549 31.1248 5.30818 30.9452L5.30788 30.9447L5.30734 30.9438C4.64284 29.8316 3.97771 28.7183 3.41764 27.5404C2.0826 24.7525 1.04561 21.861 0.446613 18.819C0.423814 18.7266 0.396304 18.6355 0.364191 18.5459C0.221251 18.032 0.172113 17.5043 0.122981 16.9766C0.106228 16.7967 0.0894752 16.6168 0.0690045 16.4374C0.0896556 16.2536 0.0733632 16.0676 0.0210847 15.8902C0.0192726 15.8839 0.0170309 15.8779 0.0143759 15.872C0.0104246 15.8592 0.00562184 15.8467 0 15.8346V13.4022C0.00174253 13.3987 0.00383925 13.3953 0.00591246 13.3919C0.0106802 13.3842 0.0153343 13.3766 0.0153343 13.3686C0.0686515 13.2172 0.0866805 13.0556 0.0680461 12.8961C0.148027 11.8722 0.415382 10.8716 0.856806 9.94427C1.73086 8.14728 3.22021 7.20326 5.16288 6.97995C5.99047 6.88455 6.77811 7.11787 7.56191 7.35007C7.79381 7.41877 8.02538 7.48737 8.25754 7.54732C8.45129 7.59762 8.6429 7.65651 8.8345 7.71541C9.28548 7.85403 9.73634 7.99262 10.2146 8.01885L10.2156 8.01982C10.3814 8.05045 10.4302 7.99869 10.3392 7.84633C10.3999 7.86531 10.441 7.92107 10.46 7.97097C10.4415 7.92083 10.4004 7.86448 10.3382 7.84538C9.83166 6.84433 9.53797 5.7492 9.47567 4.62901C9.33957 1.99246 10.805 0.392893 13.3093 0.0363698C13.5302 -0.0121233 13.7591 -0.0121233 13.9801 0.0363698C15.3343 0.192588 16.3301 0.98614 17.2042 1.94645C18.0136 2.83491 18.7426 3.78794 19.4719 4.74139C20.0603 5.51069 20.649 6.28025 21.2802 7.01637C21.7351 7.54661 21.7521 7.53149 22.2452 7.09193C22.2602 7.07863 22.2755 7.06495 22.2913 7.05087C22.9127 6.49763 23.5781 5.99601 24.281 5.55098C25.9052 4.52863 27.6607 3.73163 29.4994 3.18183C31.5943 2.5374 33.7544 2.1282 35.9399 1.96179C36.0931 1.95095 36.2465 1.94102 36.4 1.93108L36.4001 1.93107C36.7218 1.91024 37.0439 1.88939 37.365 1.8602C37.6254 1.8748 37.8865 1.86195 38.1442 1.82186L38.1921 1.80844C38.2178 1.80365 38.2431 1.79693 38.2678 1.78832C38.6535 1.83192 39.0428 1.83192 39.4284 1.78832C39.4454 1.794 39.4627 1.79879 39.4802 1.80269C39.7247 1.87037 39.9773 1.86487 40.231 1.85935L40.2311 1.85935C40.2648 1.85862 40.2985 1.85788 40.3322 1.85732C43.4384 2.01833 46.4698 2.54929 49.3737 3.69936C51.3423 4.47662 53.1507 5.52223 54.6688 7.01637ZM54.2068 19.8728C54.0007 18.7337 53.9906 18.7338 52.8891 18.7452C52.8572 18.7476 52.8252 18.7476 52.7933 18.7452C52.546 18.7098 52.4636 18.8085 52.4636 19.0615C52.4712 20.8971 52.4712 22.7325 52.4636 24.5675C52.4617 24.81 52.5211 24.9135 52.7808 24.8981C53.1318 24.8736 53.484 24.8736 53.835 24.8981C54.1714 24.9278 54.2184 24.7783 54.2184 24.4851C54.2043 23.5752 54.2043 22.6654 54.2184 21.7555C54.2318 20.7099 54.896 20.132 55.9569 20.2125C56.2416 20.2777 56.3748 20.1866 56.3681 19.8723C56.3605 19.6212 56.388 19.3702 56.4495 19.1267C56.5502 18.7519 56.4064 18.5871 56.047 18.5516C55.1189 18.5242 54.5277 18.987 54.2235 19.8728C54.2192 19.8732 54.215 19.873 54.2107 19.8723C54.2094 19.8725 54.2082 19.8727 54.2068 19.8728ZM24.6969 30.868C22.6164 32.7185 19.9732 33.8141 17.1936 33.978C16.85 34.0013 16.5059 34.0173 16.1616 34.0332C16.0114 34.0401 15.8612 34.0471 15.711 34.0546C14.6412 34.0203 13.5741 33.9262 12.5147 33.7729C11.6838 33.6492 10.9813 33.2419 10.3583 32.7043C8.88817 31.444 7.86652 29.8454 7.01355 28.1394C4.96354 24.0241 3.66587 19.7055 3.64191 15.0631C3.6352 13.8449 3.801 12.6441 4.29362 11.5103C4.52631 10.9658 4.87041 10.4761 5.30377 10.0727C5.75134 9.65388 6.22862 9.57529 6.79886 9.79093C7.34122 9.99549 7.85324 10.2604 8.36528 10.5253C8.63047 10.6625 8.8957 10.7997 9.16514 10.9285C9.22443 10.9569 9.28364 10.9856 9.34287 11.0142C10.0152 11.3393 10.6884 11.6648 11.4653 11.656C12.7975 11.6416 13.4473 10.9218 13.3543 9.58296C13.3025 8.84403 13.0965 8.14536 12.8751 7.4419C12.5291 6.32441 12.2665 5.19254 12.4333 4.00796C12.5291 3.34667 12.7448 2.76205 13.43 2.49466C14.1469 2.21864 14.7794 2.41607 15.3334 2.90485C15.9918 3.47989 16.424 4.23223 16.8409 4.98745C17.1633 5.57085 17.4658 6.16492 17.7683 6.75897C18.1744 7.55653 18.5805 8.35407 19.0347 9.1258C19.6193 10.1197 20.272 11.0627 21.0876 11.8821C21.1492 11.9418 21.1976 12.0138 21.2296 12.0934C21.2617 12.1729 21.2766 12.2584 21.2735 12.3441C21.3169 13.7938 21.4375 15.2402 21.6348 16.677C21.9914 19.3097 22.5654 21.8964 23.2344 24.463C23.7471 26.4268 24.2886 28.3819 24.8426 30.3351C24.9116 30.5824 24.8781 30.7098 24.6969 30.868ZM107.795 20.2029C107.048 23.6532 105.851 26.9318 103.961 29.9335C103.752 30.2665 103.519 30.5844 103.286 30.9026L103.286 30.9031C103.208 31.0097 103.13 31.1163 103.053 31.2235C101.775 32.9966 100.082 33.978 97.859 33.9703C97.4918 33.9703 97.1242 33.9928 96.7556 34.0153C96.5805 34.026 96.4053 34.0367 96.2297 34.0451C92.9913 34.0633 90.0653 33.1825 87.5438 31.0846C87.1508 30.7578 87.0789 30.4856 87.2189 30.0025C88.2405 26.4833 89.2315 22.9555 89.9129 19.3509C90.3442 17.0738 90.649 14.7832 90.6959 12.4639C90.6959 12.4562 90.6959 12.4486 90.6959 12.441L90.6959 12.4333C90.6954 12.2533 90.695 12.0864 90.8474 11.9358C92.2754 10.5433 93.1858 8.79898 94.0867 7.05374C94.1952 6.8432 94.3022 6.63175 94.4091 6.42028L94.4096 6.41938C94.8418 5.56457 95.2742 4.70941 95.8119 3.91212C96.0753 3.49182 96.4058 3.11755 96.7904 2.80421C97.9721 1.89853 99.3435 2.45919 99.5601 3.93033C99.725 5.04782 99.5132 6.12122 99.2036 7.18887C99.1653 7.32019 99.1256 7.45115 99.086 7.58209L99.0851 7.58524C98.8991 8.19961 98.7132 8.81354 98.6612 9.46123C98.5193 11.1173 99.541 11.9924 101.171 11.5965C101.88 11.4237 102.523 11.0974 103.167 10.7707L103.196 10.756C103.315 10.696 103.432 10.6355 103.55 10.575C104.084 10.3011 104.617 10.0276 105.176 9.80625C105.786 9.5657 106.283 9.67495 106.75 10.1197C107.602 10.9305 107.981 11.9665 108.178 13.0821C108.602 15.4809 108.305 17.852 107.795 20.2029ZM72.6944 15.9889C73.3346 16.0253 73.6959 16.3924 73.6671 16.9779C73.6384 17.5635 73.2215 17.9028 72.5506 17.8712C71.9161 17.8415 71.5577 17.4763 71.5797 16.8821C71.6018 16.2879 72.0369 15.9515 72.6944 15.9889ZM46.7582 19.8215C47.3409 18.8708 48.1441 18.4702 49.2108 18.5976C50.2152 18.7174 50.8247 19.302 50.8669 20.3227C50.905 21.2602 50.9065 22.1978 50.9079 23.1339C50.9087 23.6333 50.9094 24.1323 50.9158 24.6307C50.9158 24.8435 50.8391 24.923 50.6369 24.8981H50.5889C50.4355 24.8885 50.2675 24.9068 50.1008 24.925C49.7699 24.9611 49.4441 24.9967 49.2472 24.8119C49.0568 24.6321 49.0958 24.2937 49.1348 23.9554V23.9549L49.1348 23.9547C49.1519 23.8063 49.169 23.6578 49.1667 23.5228C49.1591 23.1284 49.1595 22.7335 49.1599 22.3386V22.3375C49.1603 21.9824 49.1606 21.6272 49.1552 21.2725C49.1427 20.5719 48.929 20.248 48.4373 20.1224C48.155 20.0593 47.8599 20.0878 47.5948 20.2038C47.3298 20.3198 47.1086 20.5172 46.9633 20.7674C46.8134 21.0509 46.741 21.369 46.7534 21.6894C46.7553 22.0603 46.7547 22.4314 46.754 22.8025L46.754 22.8051V22.8064C46.753 23.3757 46.752 23.9452 46.7602 24.5148C46.7602 24.7841 46.7304 24.9278 46.4055 24.8981C46.2498 24.8849 46.0767 24.8984 45.906 24.9117C45.5924 24.9362 45.2867 24.96 45.1117 24.8167C44.9085 24.6507 44.95 24.3007 44.9911 23.9541C45.0081 23.8105 45.0251 23.6673 45.0245 23.5382C45.02 22.4683 45.0197 21.3985 45.0194 20.3286C45.0191 19.0983 45.0187 17.868 45.012 16.6377C45.012 16.3099 45.0801 16.1815 45.427 16.2131C45.5768 16.227 45.7442 16.2151 45.9092 16.2033C46.2121 16.1818 46.5073 16.1608 46.6729 16.3003C46.8519 16.4512 46.8166 16.7867 46.7815 17.1204V17.1205C46.7665 17.2638 46.7514 17.4069 46.7534 17.5348C46.765 18.0759 46.7626 18.6147 46.7602 19.1524V19.1619C46.7592 19.3819 46.7582 19.6017 46.7582 19.8215ZM36.3069 19.4353C36.2192 19.9063 36.1734 20.3842 36.1699 20.8633C36.1742 20.9342 36.1779 21.01 36.1819 21.0892L36.1819 21.0901C36.1904 21.2591 36.1996 21.4433 36.2159 21.6271C36.375 23.2995 37.3727 24.5301 38.8927 24.9288C39.5455 25.0919 40.2236 25.1277 40.89 25.0342C42.4617 24.833 43.4173 24.0385 43.7585 22.6919C43.9003 22.1303 43.9003 22.1284 43.3109 22.0642C43.1883 22.0504 43.0645 22.0406 42.9402 22.0308L42.9401 22.0308L42.939 22.0307C42.7781 22.018 42.6161 22.0052 42.4541 21.9836C42.2135 21.9511 42.1033 21.998 42.0276 22.2712C41.7861 23.1385 41.3337 23.4826 40.4606 23.5583C39.5875 23.634 38.7978 23.45 38.4049 22.5874C37.8634 21.3971 37.8787 20.1656 38.4173 18.9743C38.7518 18.2334 39.4275 17.9871 40.1942 17.9986C40.8996 18.0082 41.5081 18.2191 41.8666 18.9043C41.9082 18.9842 41.93 19.0816 41.9516 19.1778C41.9922 19.3586 42.0318 19.5354 42.2001 19.5848C42.3791 19.6374 42.5817 19.6077 42.785 19.5779C42.8746 19.5648 42.9642 19.5516 43.0521 19.5455C43.2109 19.5235 43.371 19.512 43.5313 19.511C43.814 19.5263 43.839 19.3893 43.7958 19.1573C43.5888 18.0561 42.9956 17.2645 41.9548 16.8265C41.2465 16.5275 40.5009 16.493 39.7456 16.5275C37.9678 16.608 36.6817 17.6996 36.3069 19.4353ZM46.6984 27.4674C46.424 27.4665 46.1497 27.4657 45.8756 27.4657C45.3645 27.4657 44.8541 27.4647 44.3436 27.4638C43.8325 27.4628 43.3212 27.4618 42.8087 27.4618C42.7788 27.4621 42.7434 27.4568 42.7065 27.4513C42.5886 27.4338 42.4562 27.4142 42.4445 27.5653C42.4138 27.994 42.4167 28.4243 42.4531 28.8525C42.4629 28.9778 42.5899 28.9651 42.7005 28.9541C42.7303 28.9512 42.7589 28.9483 42.7838 28.9483L42.9677 28.9522L42.9687 28.9523C43.4652 28.9631 43.9628 28.9739 44.4581 28.9483C44.8223 28.933 44.943 29.0231 44.9373 29.4122C44.9133 31.0357 44.92 32.665 44.9315 34.2942C44.9324 34.4308 44.9146 34.5815 44.8967 34.7323L44.8967 34.7324C44.8545 35.0893 44.8123 35.4464 45.0178 35.6168C45.1994 35.7662 45.5162 35.742 45.8411 35.7171C46.0184 35.7036 46.1981 35.6898 46.3595 35.704C46.717 35.7357 46.7649 35.5881 46.7649 35.2728C46.7539 34.0869 46.7558 32.9016 46.7577 31.7161V31.7124C46.7585 31.2559 46.7592 30.7994 46.7592 30.3428C46.7597 30.2161 46.748 30.0773 46.7363 29.9377C46.7068 29.588 46.6768 29.233 46.8378 29.0509C47.0211 28.8447 47.3739 28.886 47.7256 28.9273C47.8758 28.9449 48.0258 28.9625 48.1623 28.9608L48.19 28.9604C48.731 28.9535 49.0016 28.9501 49.136 28.8131C49.2705 28.676 49.2689 28.4054 49.2656 27.8639L49.2654 27.8299C49.2635 27.5356 49.1868 27.4532 48.8907 27.458C48.1616 27.4719 47.4299 27.4697 46.6984 27.4674ZM80.9222 19.9269C79.7721 18.1079 78.1007 18.0868 76.8806 19.9078C76.8522 19.7756 76.8372 19.6394 76.8226 19.5081C76.7915 19.2272 76.7628 18.968 76.6113 18.8152C76.4684 18.671 76.2164 18.6972 75.9627 18.7236C75.8219 18.7382 75.6806 18.7529 75.5571 18.7385C75.2111 18.6983 75.1383 18.8382 75.1383 19.166C75.151 20.2897 75.1491 21.4165 75.1473 22.5441V22.5498C75.1466 22.9533 75.1459 23.3569 75.1459 23.7605C75.1459 24.8615 75.1469 24.8616 76.1993 24.9015L76.2006 24.9015C76.2288 24.9026 76.2577 24.9037 76.2874 24.9048C76.803 24.924 76.9075 24.7544 76.8989 24.2752C76.8953 24.0712 76.8898 23.8667 76.8843 23.6619V23.6618C76.8627 22.863 76.8411 22.0593 76.9372 21.2629C76.9701 20.9248 77.1338 20.6129 77.3934 20.3937C77.653 20.1746 77.988 20.0655 78.3269 20.0899C78.9192 20.133 79.1971 20.5029 79.2172 21.3358C79.2266 21.733 79.225 22.1302 79.2234 22.5275C79.2219 22.897 79.2204 23.2664 79.2278 23.6359C79.2301 23.7587 79.2144 23.8935 79.1988 24.0284C79.1624 24.3422 79.126 24.6566 79.315 24.8215C79.4607 24.9506 79.7333 24.9302 80.0123 24.9094C80.1683 24.8978 80.3262 24.886 80.465 24.9001C80.8522 24.9393 80.9855 24.8311 80.972 24.4161C80.9375 23.4136 80.9394 22.4044 80.972 21.401C80.9746 21.2245 81.0123 21.0504 81.0828 20.8886C81.1534 20.7269 81.2554 20.5808 81.3829 20.4589C81.5105 20.337 81.661 20.2416 81.8258 20.1784C81.9905 20.1152 82.1662 20.0855 82.3425 20.0908C82.9828 20.1138 83.2645 20.5039 83.2703 21.3895C83.2726 21.6767 83.2713 21.9645 83.2701 22.2526V22.2645C83.2682 22.6906 83.2663 23.1171 83.276 23.543C83.279 23.6783 83.26 23.8296 83.241 23.9809L83.241 23.981C83.1981 24.3226 83.1553 24.6638 83.3652 24.8186C83.5761 24.9741 83.9233 24.9451 84.2704 24.916C84.4216 24.9034 84.5728 24.8907 84.7127 24.8933C84.7286 24.8924 84.7446 24.8924 84.7606 24.8933C84.9408 24.9125 85.0136 24.8435 85.0136 24.6518C85.0092 24.1804 85.0099 23.7088 85.0106 23.2373V23.2369C85.0121 22.2565 85.0135 21.2763 84.9695 20.2978C84.9245 19.3126 84.3235 18.7356 83.391 18.6053C82.2592 18.4472 81.4455 18.913 80.9222 19.9269ZM68.557 18.6082C67.4376 18.4491 66.5971 18.8641 66.0335 19.9355C66.0046 19.7958 65.989 19.6515 65.9742 19.5139L65.9741 19.5138L65.9741 19.5137C65.9422 19.2182 65.9136 18.9532 65.7632 18.8276C65.6216 18.7094 65.3733 18.7253 65.118 18.7416C64.9758 18.7507 64.8315 18.7599 64.7023 18.7462C64.3573 18.7107 64.2844 18.8401 64.2844 19.1698C64.2951 20.0447 64.2943 20.9196 64.2935 21.7944C64.2929 22.4195 64.2923 23.0445 64.2959 23.6695C64.2965 23.7856 64.2814 23.9122 64.2663 24.0392L64.2662 24.0394C64.2303 24.3408 64.194 24.6449 64.3659 24.8195C64.5198 24.9758 64.7812 24.9475 65.0511 24.9182C65.2098 24.9009 65.3715 24.8834 65.516 24.9029C65.9348 24.9585 66.0546 24.8176 66.0393 24.3902C66.0009 23.4318 66.0028 22.4734 66.0393 21.515C66.0728 20.6342 66.6651 20.0736 67.4586 20.0908C68.1621 20.1071 68.4324 20.4828 68.4362 21.4862L68.4373 21.7355C68.4376 21.8144 68.438 21.8934 68.4384 21.9724V21.9775C68.4424 22.8182 68.4464 23.6609 68.4295 24.5023C68.4295 24.8234 68.5253 24.9192 68.8368 24.8991C69.0793 24.8819 69.3228 24.8862 69.5659 24.8905H69.5661C69.6745 24.8924 69.7829 24.8943 69.8911 24.8943C70.0655 24.8972 70.2035 24.8857 70.1977 24.6489C70.1857 24.1185 70.1933 23.5862 70.201 23.0534V23.0503C70.2146 22.0996 70.2282 21.1471 70.1307 20.2001C70.0358 19.279 69.4703 18.7385 68.557 18.6082ZM71.7516 21.0166C71.7505 21.2716 71.7494 21.5265 71.7494 21.7814C71.7494 21.9572 71.7482 22.1329 71.747 22.3085V22.3089C71.7442 22.7221 71.7414 23.1344 71.7542 23.5439C71.7584 23.6811 71.7394 23.8347 71.7206 23.9879C71.6789 24.3259 71.6375 24.6618 71.8452 24.8148C72.0486 24.9646 72.3786 24.9382 72.7127 24.9115C72.8745 24.8985 73.0372 24.8855 73.187 24.8924C73.4093 24.9048 73.4908 24.8426 73.4908 24.6049C73.4851 22.7411 73.4851 20.8773 73.4908 19.0136C73.4918 18.8085 73.4304 18.7318 73.2196 18.7395C72.8537 18.7591 72.4871 18.7591 72.1213 18.7395C71.8318 18.7222 71.736 18.8027 71.7427 19.1056C71.7571 19.7419 71.7543 20.3788 71.7516 21.0157V21.0166ZM28.594 19.6918C28.7237 19.6929 28.8563 19.694 28.9934 19.694C28.9548 19.863 28.9138 20.0278 28.8735 20.19L28.8734 20.1901C28.7827 20.5549 28.6953 20.9064 28.6455 21.262C28.5746 21.7603 28.38 21.9453 27.8472 21.9108C26.9846 21.8537 26.9846 21.8939 26.9846 22.7533V22.7734C26.9836 23.0561 27.0344 23.1855 27.3469 23.1519C27.6226 23.136 27.899 23.1341 28.1749 23.1462L28.1455 23.2645C28.0877 23.4963 28.0385 23.6937 27.99 23.8918L27.9877 23.9013C27.8682 24.3962 27.8089 24.6416 27.9056 24.7649C28.0006 24.8862 28.2464 24.8894 28.734 24.8957L28.7739 24.8962C29.1036 24.9001 29.2828 24.8502 29.3576 24.4669C29.3784 24.3594 29.3921 24.2411 29.4061 24.1208C29.4494 23.7474 29.4951 23.3542 29.7611 23.2027C29.9906 23.072 30.3045 23.0972 30.6234 23.1228C30.7932 23.1364 30.9643 23.1501 31.1249 23.1404C31.4431 23.1203 31.4584 23.2507 31.3904 23.5037C31.3059 23.8184 31.2326 24.1359 31.1552 24.4709L31.1552 24.4712L31.1549 24.4722C31.1235 24.6082 31.0915 24.7469 31.0578 24.8895H31.5715C32.0579 24.8895 32.3018 24.8895 32.4515 24.7707C32.6019 24.6513 32.657 24.4117 32.7676 23.9311C32.8579 23.5383 32.9032 23.3414 33.0269 23.2426C33.1512 23.1433 33.3549 23.1433 33.7633 23.1433H33.7804C34.2522 23.1433 34.4872 23.1433 34.5998 23.0259C34.7116 22.9093 34.7025 22.6769 34.6845 22.2136L34.6834 22.1849C34.6748 21.953 34.6096 21.8821 34.3825 21.8916C34.1434 21.8992 33.9039 21.8968 33.6544 21.8943H33.6542C33.5256 21.893 33.3944 21.8916 33.2592 21.8916C33.2781 21.8143 33.2967 21.7381 33.3151 21.6628L33.36 21.4793C33.4464 21.1257 33.5285 20.7901 33.609 20.4541L33.6091 20.4539C33.7015 20.069 33.7475 19.8774 33.869 19.7819C33.9895 19.6873 34.1843 19.6873 34.5722 19.6873C35.2472 19.6873 35.2473 19.6856 35.2823 19.0751C35.2839 19.0484 35.2855 19.0206 35.2872 18.9915C35.315 18.5363 35.1971 18.3398 34.7237 18.4251C34.5961 18.434 34.4681 18.4356 34.3403 18.4299C34.1477 18.4433 34.0873 18.381 34.1419 18.1817C34.2015 17.9634 34.2537 17.7428 34.3058 17.5221L34.3059 17.5217L34.306 17.5213L34.3061 17.521L34.3062 17.5206L34.3063 17.5201C34.3529 17.3228 34.3995 17.1256 34.4515 16.93C34.4994 16.7451 34.462 16.6866 34.2598 16.6646C33.0781 16.5438 33.0302 16.5687 32.7695 17.6939C32.7287 17.8313 32.6967 17.9712 32.6736 18.1127C32.6506 18.3475 32.5491 18.4443 32.3037 18.4338C31.905 18.4165 31.5054 18.4184 31.1067 18.4338C30.8604 18.4443 30.7952 18.3542 30.8546 18.1271C30.8965 17.9673 30.9357 17.807 30.9748 17.6467L30.975 17.646C31.0227 17.4507 31.0704 17.2554 31.123 17.0613C31.191 16.8064 31.2006 16.6617 30.8421 16.6617L30.7909 16.6613C29.7371 16.6528 29.733 16.6527 29.4764 17.7159C29.3938 18.0649 29.3514 18.2437 29.2383 18.3354C29.1194 18.4318 28.9223 18.4318 28.518 18.4318H28.5152C28.017 18.4318 27.7693 18.4318 27.6533 18.5554C27.5386 18.6777 27.5529 18.921 27.5813 19.4049L27.5826 19.4276C27.5951 19.6385 27.6555 19.7017 27.8606 19.694C28.102 19.6877 28.3426 19.6897 28.594 19.6918ZM52.3437 33.1179C52.5513 33.1171 52.759 33.1164 52.9667 33.1164H54.2117C54.7255 33.1164 54.9828 33.1164 55.0998 32.9883C55.2171 32.8597 55.1932 32.6021 55.1452 32.0861C55.0177 30.6744 54.3689 29.7946 53.2025 29.4869C52.5366 29.308 51.8363 29.3007 51.1669 29.4659C50.1318 29.7198 49.4705 30.3802 49.1734 31.3922C48.9846 32.0728 48.9551 32.7877 49.0871 33.4815C49.3066 34.7495 50.1308 35.5795 51.3192 35.7961C51.9336 35.9057 52.5629 35.9011 53.1757 35.7826C54.0334 35.6197 54.666 35.1626 54.9765 34.3182C55.0512 34.1179 55.0848 33.9665 54.7637 33.9665C54.5324 33.9684 54.3007 33.9421 54.0688 33.9157C53.951 33.9023 53.8331 33.889 53.7152 33.8793C53.7057 33.8785 53.6962 33.8778 53.6868 33.877C53.5589 33.8664 53.4422 33.8567 53.353 34.0182C52.9849 34.6805 52.3543 34.6422 51.7515 34.5271C51.1812 34.4188 50.9551 33.9579 50.8238 33.4279C50.7519 33.1403 50.8621 33.1116 51.0988 33.1164C51.5134 33.1209 51.9285 33.1194 52.3437 33.1179ZM60.5985 29.4237C59.6008 29.2483 58.719 29.4438 58.099 30.3821C58.099 30.1389 58.0984 29.8957 58.0978 29.6527L58.0978 29.6455V29.6434C58.0961 28.8836 58.0943 28.1246 58.1095 27.3689C58.1095 27.0737 58.0194 26.9663 57.7261 26.9951C57.5705 27.0114 57.3995 26.9934 57.2307 26.9758C56.9225 26.9435 56.6219 26.912 56.4361 27.0909C56.25 27.2737 56.2887 27.6092 56.3271 27.9409C56.3428 28.0771 56.3585 28.2127 56.3585 28.3369C56.3521 30.6517 56.3521 32.9665 56.3585 35.2814C56.3587 35.3136 56.3531 35.3514 56.3473 35.3908C56.3281 35.5202 56.3065 35.6659 56.4821 35.6791C56.5092 35.6812 56.5364 35.6833 56.5637 35.6854C56.9827 35.7176 57.4182 35.7511 57.8114 35.6494C57.9548 35.6122 57.9639 35.4193 57.9734 35.2194C57.9785 35.1106 57.9838 34.9996 58.0108 34.9105C58.0185 34.8887 58.0215 34.8644 58.0245 34.8395C58.0325 34.7747 58.0409 34.7061 58.1344 34.668C58.6673 35.6849 59.5308 36.0117 60.6147 35.8104C61.6987 35.6092 62.2248 34.8587 62.4788 33.8649C62.6897 33.0415 62.6897 32.1782 62.4788 31.3548C62.2277 30.3466 61.6671 29.6154 60.5985 29.4237ZM66.7683 33.1207L66.7687 33.1207C66.9477 33.1186 67.1266 33.1164 67.3053 33.1164L67.2976 33.1126H68.4477C68.9767 33.1126 69.2431 33.1126 69.3709 32.9795C69.5007 32.8444 69.4878 32.5722 69.4617 32.0238C69.3965 30.6246 68.5589 29.6412 67.1922 29.4084C66.6253 29.3044 66.0427 29.3227 65.4834 29.462C64.4915 29.717 63.8359 30.3313 63.5254 31.3021C63.3422 31.882 63.2841 32.4942 63.3548 33.0982C63.5177 34.5693 64.2298 35.4558 65.4997 35.7568C66.2645 35.9369 67.0629 35.9158 67.8171 35.6954C68.5579 35.4855 69.0563 35.0063 69.3122 34.2751C69.3754 34.0959 69.4013 33.9799 69.1426 33.9694C68.8391 33.9566 68.5357 33.9247 68.2328 33.8928C68.1712 33.8863 68.1096 33.8798 68.0481 33.8735C67.8804 33.8544 67.7567 33.8697 67.6551 34.046C67.3024 34.6623 66.7063 34.622 66.1313 34.5367C65.5764 34.4543 65.3118 34.0374 65.1729 33.5275C65.101 33.2554 65.101 33.0857 65.4844 33.1068C65.9125 33.1311 66.3407 33.1259 66.7682 33.1207H66.7683ZM58.2312 24.9585C59.3401 25.201 60.3636 25.1119 61.0719 24.0394C61.299 24.8943 61.299 24.8943 62.1999 24.8972C62.2957 24.8919 62.3917 24.8919 62.4874 24.8972C62.705 24.9192 62.7529 24.8138 62.7529 24.6145C62.7499 24.1437 62.7516 23.673 62.7533 23.2022C62.7564 22.3312 62.7595 21.4602 62.7328 20.5892C62.7012 19.5666 62.1817 18.957 61.207 18.6983C60.3689 18.4759 59.4859 18.4875 58.6539 18.7318C58.3578 18.807 58.0848 18.9539 57.8588 19.1594C57.6329 19.365 57.4609 19.623 57.3581 19.9106C57.106 20.571 57.1156 20.594 57.8373 20.6467C58.0299 20.648 58.2222 20.664 58.4123 20.6946C58.7018 20.7607 58.858 20.7186 58.9749 20.3927C59.1522 19.8972 59.734 19.7238 60.4183 19.8896C60.8888 20.0027 61.0249 20.341 61.047 20.7837C61.0604 21.0492 60.9761 21.1211 60.7144 21.1604C60.4365 21.2023 60.1557 21.2295 59.875 21.2566C59.2506 21.3171 58.6259 21.3775 58.0309 21.6003C57.2201 21.9031 56.8636 22.4897 56.9172 23.3973C56.9642 24.1918 57.4405 24.786 58.2312 24.9585Z" fill="black"/>
</svg>
