<svg width="233" height="44" viewBox="0 0 233 44" fill="none" xmlns="http://www.w3.org/2000/svg">
<path d="M26.8986 4.58329C26.8986 7.11458 24.8454 9.16659 22.3127 9.16659C19.7801 9.16659 17.7269 7.11458 17.7269 4.58329C17.7269 2.05201 19.7801 0 22.3127 0C24.8454 0 26.8986 2.05201 26.8986 4.58329Z" fill="black"/>
<path d="M33.6286 22.3058C33.6286 28.5492 28.5639 33.6101 22.317 33.6101C16.0702 33.6101 11.0055 28.5492 11.0055 22.3058C11.0055 16.0624 16.0702 11.0005 22.317 11.0005C28.5639 11.0005 33.6286 16.0624 33.6286 22.3058Z" fill="black"/>
<path d="M26.8986 39.4167C26.8986 41.948 24.8454 44 22.3127 44C19.7801 44 17.7269 41.948 17.7269 39.4167C17.7269 36.8854 19.7801 34.8334 22.3127 34.8334C24.8454 34.8334 26.8986 36.8854 26.8986 39.4167Z" fill="black"/>
<path d="M39.7389 34.8302C39.7651 36.594 38.8386 38.2351 37.3145 39.1247C35.7903 40.0142 33.905 40.0142 32.3809 39.1247C30.8567 38.2351 29.9302 36.594 29.9564 34.8302C29.996 32.1586 32.1742 30.0135 34.8477 30.0135C37.5211 30.0135 39.6993 32.1586 39.7389 34.8302Z" fill="black"/>
<path d="M44.6362 22.3005C44.6362 24.8318 42.5831 26.8838 40.0504 26.8838C37.5178 26.8838 35.4646 24.8318 35.4646 22.3005C35.4646 19.7692 37.5178 17.7172 40.0504 17.7172C42.5831 17.7172 44.6362 19.7692 44.6362 22.3005Z" fill="black"/>
<path d="M39.7389 9.78355C39.7651 11.5473 38.8386 13.1884 37.3145 14.078C35.7903 14.9675 33.905 14.9675 32.3809 14.078C30.8567 13.1884 29.9302 11.5473 29.9564 9.78355C29.996 7.11189 32.1742 4.96685 34.8477 4.96685C37.5211 4.96685 39.6993 7.11189 39.7389 9.78355Z" fill="black"/>
<path d="M14.6787 34.8302C14.7049 36.594 13.7784 38.2351 12.2543 39.1247C10.7302 40.0142 8.84478 40.0142 7.32067 39.1247C5.79655 38.2351 4.87004 36.594 4.89619 34.8302C4.9358 32.1586 7.11405 30.0135 9.78747 30.0135C12.4609 30.0135 14.6391 32.1586 14.6787 34.8302Z" fill="black"/>
<path d="M9.17162 22.3005C9.17162 24.8318 7.11848 26.8838 4.58581 26.8838C2.05314 26.8838 0 24.8318 0 22.3005C0 19.7692 2.05314 17.7172 4.58581 17.7172C7.11848 17.7172 9.17162 19.7692 9.17162 22.3005Z" fill="black"/>
<path d="M64.5523 29.7056C63.6899 30.117 62.6438 30.3227 61.414 30.3227C60.2676 30.3227 59.2762 30.1378 58.4399 29.7681C57.6035 29.3983 56.947 28.8827 56.4702 28.2213C55.9933 27.5598 55.7237 26.7916 55.6612 25.9167H57.6622C57.7143 26.5208 57.9188 27.0195 58.2757 27.4127C58.6327 27.8059 59.086 28.0976 59.6358 28.2877C60.1856 28.4778 60.7783 28.5728 61.414 28.5728C62.154 28.5728 62.8184 28.4517 63.4072 28.2095C63.9961 27.9674 64.4624 27.6288 64.8064 27.194C65.1503 26.7591 65.3222 26.25 65.3222 25.6667C65.3222 25.1355 65.1737 24.7032 64.8767 24.3699C64.5797 24.0366 64.1889 23.7657 63.7042 23.5574C63.2196 23.3491 62.6959 23.1668 62.1331 23.0106L60.1634 22.4481C58.9128 22.0887 57.9227 21.5757 57.1932 20.9091C56.4636 20.2425 56.0989 19.3701 56.0989 18.292C56.0989 17.3963 56.3425 16.6137 56.8297 15.9445C57.3169 15.2753 57.9735 14.7545 58.7994 14.3821C59.6254 14.0097 60.549 13.8235 61.5704 13.8235C62.6021 13.8235 63.5193 14.0071 64.3217 14.3743C65.1242 14.7414 65.7613 15.2427 66.2329 15.8781C66.7044 16.5135 66.9533 17.2348 66.9793 18.0421H65.1034C65.0096 17.2504 64.6292 16.6359 63.9622 16.1984C63.2952 15.7609 62.4771 15.5422 61.5078 15.5422C60.7991 15.5422 60.1803 15.6568 59.6514 15.8859C59.1225 16.1151 58.7109 16.4302 58.4164 16.8312C58.122 17.2322 57.9748 17.6879 57.9748 18.1983C57.9748 18.6254 58.0777 18.9912 58.2836 19.2959C58.4894 19.6006 58.7538 19.8532 59.0769 20.0537C59.4 20.2542 59.7387 20.4182 60.0931 20.5458C60.4474 20.6734 60.7731 20.7763 61.0701 20.8544L62.6959 21.2919C63.1128 21.4013 63.5779 21.5523 64.0912 21.745C64.6044 21.9377 65.0969 22.1994 65.5685 22.5301C66.04 22.8608 66.4296 23.284 66.737 23.7996C67.0445 24.3152 67.1982 24.948 67.1982 25.6979C67.1982 26.5625 66.9728 27.3437 66.5221 28.0416C66.0713 28.7395 65.4147 29.2941 64.5523 29.7056Z" fill="black"/>
<path fill-rule="evenodd" clip-rule="evenodd" d="M71.9818 28.1978V34.5413H70.1372V18.0421H71.9193V19.9482H72.1382C72.2736 19.7399 72.4625 19.473 72.7049 19.1475C72.9472 18.822 73.2963 18.5303 73.7522 18.2725C74.2082 18.0147 74.827 17.8858 75.6086 17.8858C76.6196 17.8858 77.5106 18.1384 78.2819 18.6436C79.0531 19.1488 79.6549 19.8649 80.0874 20.7919C80.52 21.719 80.7362 22.8127 80.7362 24.073C80.7362 25.3438 80.52 26.444 80.0874 27.3736C79.6549 28.3033 79.0557 29.022 78.2897 29.5298C77.5237 30.0376 76.6404 30.2915 75.6399 30.2915C74.8687 30.2915 74.2512 30.1626 73.7874 29.9048C73.3236 29.647 72.9667 29.3527 72.7166 29.022C72.4664 28.6913 72.2736 28.4166 72.1382 28.1978H71.9818ZM73.5138 28.0533C74.0245 28.4413 74.6498 28.6353 75.3898 28.6353C76.161 28.6353 76.8059 28.4309 77.3243 28.022C77.8428 27.6132 78.2337 27.0612 78.4968 26.3659C78.76 25.6706 78.8915 24.8959 78.8915 24.0418C78.8915 23.1981 78.7626 22.4364 78.5046 21.7567C78.2467 21.0771 77.8585 20.538 77.34 20.1396C76.8215 19.7412 76.1714 19.542 75.3898 19.542C74.6394 19.542 74.0089 19.7308 73.4982 20.1084C72.9875 20.486 72.6019 21.012 72.3414 21.6864C72.0808 22.3609 71.9506 23.146 71.9506 24.0418C71.9506 24.948 72.0834 25.7461 72.3492 26.4362C72.615 27.1263 73.0032 27.6653 73.5138 28.0533Z" fill="black"/>
<path fill-rule="evenodd" clip-rule="evenodd" d="M91.2767 29.5181C90.4611 30.0337 89.5114 30.2915 88.4276 30.2915C87.3437 30.2915 86.394 30.0337 85.5785 29.5181C84.763 29.0025 84.1272 28.2812 83.6713 27.3541C83.2153 26.4271 82.9873 25.3438 82.9873 24.1043C82.9873 22.8543 83.2153 21.7632 83.6713 20.831C84.1272 19.8987 84.763 19.1748 85.5785 18.6592C86.394 18.1436 87.3437 17.8858 88.4276 17.8858C89.5114 17.8858 90.4611 18.1436 91.2767 18.6592C92.0922 19.1748 92.7279 19.8987 93.1839 20.831C93.6398 21.7632 93.8678 22.8543 93.8678 24.1043C93.8678 25.3438 93.6398 26.4271 93.1839 27.3541C92.7279 28.2812 92.0922 29.0025 91.2767 29.5181ZM86.3953 28.0025C86.9268 28.4244 87.6042 28.6353 88.4276 28.6353C89.2509 28.6353 89.9283 28.4244 90.4598 28.0025C90.9914 27.5807 91.3848 27.026 91.6401 26.3385C91.8955 25.6511 92.0231 24.9063 92.0231 24.1043C92.0231 23.3022 91.8955 22.5549 91.6401 21.8622C91.3848 21.1695 90.9914 20.6096 90.4598 20.1826C89.9283 19.7555 89.2509 19.542 88.4276 19.542C87.6042 19.542 86.9268 19.7555 86.3953 20.1826C85.8638 20.6096 85.4704 21.1695 85.215 21.8622C84.9597 22.5549 84.832 23.3022 84.832 24.1043C84.832 24.9063 84.9597 25.6511 85.215 26.3385C85.4704 27.026 85.8638 27.5807 86.3953 28.0025Z" fill="black"/>
<path d="M98.5147 15.675C98.2567 15.9198 97.948 16.0422 97.5884 16.0422C97.2289 16.0422 96.9201 15.9198 96.6622 15.675C96.4042 15.4302 96.2752 15.1359 96.2752 14.7922C96.2752 14.4485 96.4042 14.1542 96.6622 13.9094C96.9201 13.6647 97.2289 13.5423 97.5884 13.5423C97.948 13.5423 98.2567 13.6647 98.5147 13.9094C98.7726 14.1542 98.9016 14.4485 98.9016 14.7922C98.9016 15.1359 98.7726 15.4302 98.5147 15.675Z" fill="black"/>
<path d="M97.0061 34.096C96.498 34.3928 95.8584 34.5413 95.0872 34.5413H94.712V32.8226H95.0559C95.6187 32.8226 96.0303 32.6572 96.2909 32.3265C96.5514 31.9958 96.6817 31.5258 96.6817 30.9164V18.0421H98.5264V30.9164C98.5264 31.656 98.4 32.2966 98.1473 32.8382C97.8945 33.3799 97.5141 33.7991 97.0061 34.096Z" fill="black"/>
<path d="M108.031 29.561C107.437 29.9855 106.687 30.1977 105.78 30.1977C105.03 30.1977 104.363 30.0324 103.779 29.7017C103.195 29.3709 102.737 28.871 102.403 28.2017C102.07 27.5325 101.903 26.6875 101.903 25.6667V18.0421H103.748V25.5417C103.748 26.4167 103.994 27.1145 104.486 27.6353C104.979 28.1562 105.608 28.4166 106.374 28.4166C106.833 28.4166 107.3 28.2994 107.777 28.065C108.254 27.8307 108.655 27.4713 108.981 26.9869C109.307 26.5026 109.469 25.8854 109.469 25.1355V18.0421H111.314V30.0415H109.469V28.0103H109.344C109.063 28.6197 108.625 29.1366 108.031 29.561Z" fill="black"/>
<path d="M116.524 15.675C116.266 15.9198 115.957 16.0422 115.597 16.0422C115.238 16.0422 114.929 15.9198 114.671 15.675C114.413 15.4302 114.284 15.1359 114.284 14.7922C114.284 14.4485 114.413 14.1542 114.671 13.9094C114.929 13.6647 115.238 13.5423 115.597 13.5423C115.957 13.5423 116.266 13.6647 116.524 13.9094C116.782 14.1542 116.911 14.4485 116.911 14.7922C116.911 15.1359 116.782 15.4302 116.524 15.675Z" fill="black"/>
<path d="M115.015 34.096C114.507 34.3928 113.867 34.5413 113.096 34.5413H112.721V32.8226H113.065C113.628 32.8226 114.039 32.6572 114.3 32.3265C114.56 31.9958 114.691 31.5258 114.691 30.9164V18.0421H116.535V30.9164C116.535 31.656 116.409 32.2966 116.156 32.8382C115.904 33.3799 115.523 33.7991 115.015 34.096Z" fill="black"/>
<path fill-rule="evenodd" clip-rule="evenodd" d="M127.142 29.9126C126.491 30.1652 125.759 30.2915 124.946 30.2915C123.789 30.2915 122.792 30.035 121.956 29.522C121.12 29.009 120.476 28.2903 120.025 27.3658C119.575 26.4414 119.349 25.3646 119.349 24.1355C119.349 22.9064 119.575 21.8218 120.025 20.8818C120.476 19.9417 121.107 19.2074 121.917 18.6787C122.727 18.1501 123.674 17.8858 124.758 17.8858C125.384 17.8858 126.001 17.99 126.611 18.1983C127.22 18.4066 127.775 18.7438 128.276 19.21C128.776 19.6761 129.175 20.292 129.472 21.0575C129.769 21.8231 129.917 22.7658 129.917 23.8855V24.6667L121.198 24.6673L121.194 24.4168C121.194 25.323 121.352 26.0899 121.667 26.7174C121.982 27.345 122.421 27.8215 122.984 28.147C123.547 28.4725 124.201 28.6353 124.946 28.6353C125.43 28.6353 125.87 28.5663 126.263 28.4283C126.656 28.2903 126.996 28.0819 127.283 27.8033C127.57 27.5247 127.791 27.177 127.947 26.7604L129.73 27.2604C129.542 27.8645 129.227 28.3944 128.784 28.8501C128.341 29.3058 127.794 29.66 127.142 29.9126ZM121.624 21.495C121.378 21.9905 121.238 22.5167 121.203 23.0734L128.041 23.0731C128.041 22.396 127.907 21.7919 127.639 21.2607C127.37 20.7294 126.99 20.3102 126.497 20.0029C126.005 19.6956 125.425 19.542 124.758 19.542C124.024 19.542 123.389 19.723 122.855 20.0849C122.321 20.4469 121.91 20.9169 121.624 21.495Z" fill="black"/>
<path d="M134.576 22.5418V30.0415H132.731V18.0421H134.513V19.917H134.669C134.92 19.2764 135.323 18.7777 135.881 18.4209C136.439 18.0642 137.108 17.8858 137.89 17.8858C138.682 17.8858 139.342 18.0642 139.871 18.4209C140.4 18.7777 140.813 19.2764 141.11 19.917H141.235C141.543 19.2972 142.004 18.8037 142.619 18.4366C143.234 18.0694 143.971 17.8858 144.831 17.8858C145.904 17.8858 146.782 18.2204 147.465 18.8897C148.148 19.5589 148.489 20.5992 148.489 22.0106V30.0415H146.644V22.0106C146.644 21.1252 146.402 20.4925 145.917 20.1123C145.433 19.7321 144.862 19.542 144.206 19.542C143.361 19.542 142.707 19.7959 142.244 20.3037C141.78 20.8115 141.548 21.4534 141.548 22.2294V30.0415H139.672V21.8231C139.672 21.1409 139.451 20.5901 139.008 20.1709C138.565 19.7516 137.994 19.542 137.296 19.542C136.816 19.542 136.37 19.6696 135.955 19.9248C135.541 20.18 135.208 20.5328 134.955 20.9833C134.702 21.4338 134.576 21.9533 134.576 22.5418Z" fill="black"/>
<path fill-rule="evenodd" clip-rule="evenodd" d="M159.096 29.9126C158.444 30.1652 157.712 30.2915 156.899 30.2915C155.743 30.2915 154.746 30.035 153.91 29.522C153.073 29.009 152.43 28.2903 151.979 27.3658C151.528 26.4414 151.303 25.3646 151.303 24.1355C151.303 22.9064 151.528 21.8218 151.979 20.8818C152.43 19.9417 153.06 19.2074 153.871 18.6787C154.681 18.1501 155.628 17.8858 156.712 17.8858C157.337 17.8858 157.955 17.99 158.564 18.1983C159.174 18.4066 159.729 18.7438 160.229 19.21C160.729 19.6761 161.128 20.292 161.425 21.0575C161.722 21.8231 161.871 22.7658 161.871 23.8855V24.6667L153.152 24.6673L153.147 24.4168C153.147 25.323 153.305 26.0899 153.62 26.7174C153.936 27.345 154.375 27.8215 154.937 28.147C155.5 28.4725 156.154 28.6353 156.899 28.6353C157.384 28.6353 157.823 28.5663 158.216 28.4283C158.61 28.2903 158.95 28.0819 159.236 27.8033C159.523 27.5247 159.745 27.177 159.901 26.7604L161.683 27.2604C161.495 27.8645 161.18 28.3944 160.737 28.8501C160.294 29.3058 159.747 29.66 159.096 29.9126ZM153.577 21.495C153.332 21.9905 153.191 22.5167 153.156 23.0734L159.995 23.0731C159.995 22.396 159.86 21.7919 159.592 21.2607C159.324 20.7294 158.943 20.3102 158.451 20.0029C157.958 19.6956 157.379 19.542 156.712 19.542C155.977 19.542 155.343 19.723 154.808 20.0849C154.274 20.4469 153.864 20.9169 153.577 21.495Z" fill="black"/>
<path d="M180.943 9.35497L178.41 12.6048H176.722L174.189 9.35497V9.22998H175.94L177.566 11.4174L179.192 9.22998H180.943V9.35497Z" fill="black"/>
<path d="M179.844 29.9087C179.133 30.143 178.374 30.2602 177.566 30.2602C176.201 30.2602 174.987 29.9269 173.924 29.2603C172.86 28.5936 172.024 27.6458 171.414 26.4167C170.805 25.1876 170.5 23.7293 170.5 22.0419C170.5 20.3544 170.805 18.8962 171.414 17.6671C172.024 16.438 172.86 15.4901 173.924 14.8235C174.987 14.1568 176.201 13.8235 177.566 13.8235C178.374 13.8235 179.133 13.9407 179.844 14.1751C180.556 14.4094 181.198 14.7519 181.771 15.2024C182.344 15.6528 182.824 16.1997 183.209 16.8429C183.595 17.4861 183.861 18.2191 184.007 19.042H182.068C181.954 18.4847 181.754 17.9952 181.47 17.5733C181.186 17.1515 180.842 16.796 180.439 16.507C180.035 16.2179 179.588 16.0005 179.098 15.8547C178.608 15.7088 178.097 15.6359 177.566 15.6359C176.597 15.6359 175.72 15.8807 174.936 16.3703C174.152 16.8598 173.529 17.5811 173.068 18.5342C172.606 19.4873 172.376 20.6565 172.376 22.0419C172.376 23.4272 172.606 24.5964 173.068 25.5495C173.529 26.5026 174.152 27.2239 174.936 27.7135C175.72 28.203 176.597 28.4478 177.566 28.4478C178.097 28.4478 178.608 28.3749 179.098 28.2291C179.588 28.0832 180.035 27.8658 180.439 27.5768C180.842 27.2877 181.186 26.931 181.47 26.5065C181.754 26.082 181.954 25.5938 182.068 25.0417H184.007C183.861 25.8594 183.595 26.5911 183.209 27.2369C182.824 27.8827 182.344 28.4309 181.771 28.8814C181.198 29.3319 180.556 29.6743 179.844 29.9087Z" fill="black"/>
<path fill-rule="evenodd" clip-rule="evenodd" d="M194.113 29.9126C193.462 30.1652 192.73 30.2915 191.917 30.2915C190.76 30.2915 189.763 30.035 188.927 29.522C188.091 29.009 187.447 28.2903 186.996 27.3658C186.546 26.4414 186.32 25.3646 186.32 24.1355C186.32 22.9064 186.546 21.8218 186.996 20.8818C187.447 19.9417 188.078 19.2074 188.888 18.6787C189.698 18.1501 190.645 17.8858 191.729 17.8858C192.355 17.8858 192.972 17.99 193.582 18.1983C194.191 18.4066 194.746 18.7438 195.247 19.21C195.747 19.6761 196.146 20.292 196.443 21.0575C196.74 21.8231 196.888 22.7658 196.888 23.8855V24.6667L188.17 24.6673L188.165 24.4168C188.165 25.323 188.323 26.0899 188.638 26.7174C188.953 27.345 189.392 27.8215 189.955 28.147C190.518 28.4725 191.172 28.6353 191.917 28.6353C192.402 28.6353 192.841 28.5663 193.234 28.4283C193.627 28.2903 193.967 28.0819 194.254 27.8033C194.541 27.5247 194.762 27.177 194.918 26.7604L196.701 27.2604C196.513 27.8645 196.198 28.3944 195.755 28.8501C195.312 29.3058 194.765 29.66 194.113 29.9126ZM188.595 21.495C188.349 21.9905 188.209 22.5167 188.174 23.0734L195.012 23.0731C195.012 22.396 194.878 21.7919 194.61 21.2607C194.341 20.7294 193.961 20.3102 193.468 20.0029C192.976 19.6956 192.396 19.542 191.729 19.542C190.995 19.542 190.36 19.723 189.826 20.0849C189.292 20.4469 188.882 20.9169 188.595 21.495Z" fill="black"/>
<path d="M206.19 29.8227C205.486 30.1352 204.668 30.2915 203.735 30.2915C202.511 30.2915 201.497 30.0259 200.695 29.4946C199.892 28.9634 199.384 28.1874 199.171 27.1666L200.921 26.7291C201.088 27.3749 201.405 27.8593 201.871 28.1822C202.337 28.5051 202.948 28.6665 203.704 28.6665C204.564 28.6665 205.248 28.483 205.756 28.1158C206.264 27.7486 206.518 27.3072 206.518 26.7916C206.518 26.375 206.372 26.0248 206.08 25.7409C205.788 25.4571 205.34 25.2448 204.736 25.1042L202.735 24.6355C201.635 24.3751 200.829 23.9702 200.316 23.4207C199.802 22.8713 199.546 22.1825 199.546 21.3544C199.546 20.6773 199.737 20.0784 200.12 19.5576C200.503 19.0368 201.027 18.628 201.691 18.3311C202.356 18.0342 203.11 17.8858 203.954 17.8858C205.142 17.8858 206.076 18.1462 206.756 18.667C207.436 19.1878 207.92 19.8753 208.206 20.7294L206.549 21.1982C206.445 20.9221 206.293 20.6526 206.092 20.3896C205.891 20.1266 205.619 19.9092 205.275 19.7373C204.931 19.5654 204.491 19.4795 203.954 19.4795C203.219 19.4795 202.608 19.6475 202.121 19.9834C201.634 20.3193 201.39 20.7451 201.39 21.2607C201.39 21.719 201.557 22.0809 201.891 22.3465C202.224 22.6122 202.745 22.8335 203.454 23.0106L205.236 23.4481C206.31 23.7085 207.109 24.1056 207.636 24.6394C208.162 25.1732 208.425 25.8594 208.425 26.6979C208.425 27.3854 208.228 27.9999 207.835 28.5416C207.442 29.0832 206.893 29.5103 206.19 29.8227Z" fill="black"/>
<path d="M211.208 14.0422H213.053L213.052 23.386L213.271 23.3856L218.524 18.0421H220.806L215.733 23.1692L221.182 30.0415H218.837L214.344 24.355L213.052 25.5516L213.053 30.0415H211.208V14.0422Z" fill="black"/>
<path fill-rule="evenodd" clip-rule="evenodd" d="M230.409 29.5181C229.593 30.0337 228.644 30.2915 227.56 30.2915C226.476 30.2915 225.526 30.0337 224.711 29.5181C223.895 29.0025 223.259 28.2812 222.803 27.3541C222.348 26.4271 222.12 25.3438 222.12 24.1043C222.12 22.8543 222.348 21.7632 222.803 20.831C223.259 19.8987 223.895 19.1748 224.711 18.6592C225.526 18.1436 226.476 17.8858 227.56 17.8858C228.644 17.8858 229.593 18.1436 230.409 18.6592C231.224 19.1748 231.86 19.8987 232.316 20.831C232.772 21.7632 233 22.8543 233 24.1043C233 25.3438 232.772 26.4271 232.316 27.3541C231.86 28.2812 231.224 29.0025 230.409 29.5181ZM225.528 28.0025C226.059 28.4244 226.736 28.6353 227.56 28.6353C228.383 28.6353 229.061 28.4244 229.592 28.0025C230.124 27.5807 230.517 27.026 230.772 26.3385C231.028 25.6511 231.155 24.9063 231.155 24.1043C231.155 23.3022 231.028 22.5549 230.772 21.8622C230.517 21.1695 230.124 20.6096 229.592 20.1826C229.061 19.7555 228.383 19.542 227.56 19.542C226.736 19.542 226.059 19.7555 225.528 20.1826C224.996 20.6096 224.603 21.1695 224.347 21.8622C224.092 22.5549 223.964 23.3022 223.964 24.1043C223.964 24.9063 224.092 25.6511 224.347 26.3385C224.603 27.026 224.996 27.5807 225.528 28.0025Z" fill="black"/>
</svg>
