<svg width="244" height="40" viewBox="0 0 244 40" fill="none" xmlns="http://www.w3.org/2000/svg">
<path d="M12.72 18.4L12.192 21.712H14.856V24.16H11.784L11.16 28H8.40002L9.02402 24.16H5.90402L5.30402 28H2.52002L3.12002 24.16H0.624023V21.712H3.52802L4.05602 18.4H1.65602V15.952H4.46402L5.06402 12.16H7.84802L7.24802 15.952H10.344L10.944 12.16H13.728L13.128 15.952H15.888V18.4H12.72ZM9.96002 18.4H6.84002L6.31202 21.712H9.40802L9.96002 18.4Z" fill="black"/>
<path d="M33.6349 15.76C34.8509 15.76 35.8349 16.128 36.5869 16.864C37.3549 17.6 37.7389 18.648 37.7389 20.008V28H33.6589V20.944C33.6589 19.568 33.1149 18.88 32.0269 18.88C31.3869 18.88 30.8749 19.112 30.4909 19.576C30.1069 20.04 29.9149 20.712 29.9149 21.592V28H25.8349V20.944C25.8349 19.568 25.2909 18.88 24.2029 18.88C23.5949 18.88 23.0909 19.112 22.6909 19.576C22.2909 20.04 22.0909 20.736 22.0909 21.664V28H18.0109V16H21.6589L21.7789 18.304C22.1629 17.472 22.6989 16.84 23.3869 16.408C24.0749 15.976 24.8829 15.76 25.8109 15.76C26.7229 15.76 27.5069 15.968 28.1629 16.384C28.8349 16.8 29.3149 17.4 29.6029 18.184C29.9869 17.4 30.5309 16.8 31.2349 16.384C31.9549 15.968 32.7549 15.76 33.6349 15.76Z" fill="black"/>
<path d="M46.3646 15.76C48.3646 15.76 49.9166 16.312 51.0206 17.416C52.1406 18.504 52.7006 20.032 52.7006 22C52.7006 23.968 52.1406 25.504 51.0206 26.608C49.9166 27.696 48.3646 28.24 46.3646 28.24C44.3646 28.24 42.8046 27.696 41.6846 26.608C40.5806 25.504 40.0286 23.968 40.0286 22C40.0286 20.032 40.5806 18.504 41.6846 17.416C42.8046 16.312 44.3646 15.76 46.3646 15.76ZM46.3646 18.664C45.5966 18.664 45.0286 18.928 44.6606 19.456C44.2926 19.984 44.1087 20.832 44.1087 22C44.1087 23.168 44.2926 24.016 44.6606 24.544C45.0286 25.072 45.5966 25.336 46.3646 25.336C47.1326 25.336 47.7006 25.072 48.0686 24.544C48.4366 24.016 48.6206 23.168 48.6206 22C48.6206 20.832 48.4366 19.984 48.0686 19.456C47.7006 18.928 47.1326 18.664 46.3646 18.664Z" fill="black"/>
<path d="M63.6604 27.328C63.2604 27.6 62.7484 27.824 62.1244 28C61.5164 28.16 60.9004 28.24 60.2764 28.24C58.8524 28.24 57.7644 27.936 57.0124 27.328C56.2604 26.72 55.8764 25.744 55.8604 24.4V18.904H53.7964V16H55.8604V13.312L59.9404 12.184V16H63.5404V18.904H59.9404V23.728C59.9404 24.8 60.4684 25.336 61.5244 25.336C62.1804 25.336 62.7564 25.16 63.2524 24.808L63.6604 27.328Z" fill="black"/>
<path d="M71.1381 15.76C73.1381 15.76 74.6901 16.312 75.7941 17.416C76.9141 18.504 77.4741 20.032 77.4741 22C77.4741 23.968 76.9141 25.504 75.7941 26.608C74.6901 27.696 73.1381 28.24 71.1381 28.24C69.1381 28.24 67.5781 27.696 66.4581 26.608C65.3541 25.504 64.8021 23.968 64.8021 22C64.8021 20.032 65.3541 18.504 66.4581 17.416C67.5781 16.312 69.1381 15.76 71.1381 15.76ZM71.1381 18.664C70.3701 18.664 69.8021 18.928 69.4341 19.456C69.0661 19.984 68.8821 20.832 68.8821 22C68.8821 23.168 69.0661 24.016 69.4341 24.544C69.8021 25.072 70.3701 25.336 71.1381 25.336C71.9061 25.336 72.4741 25.072 72.8421 24.544C73.2101 24.016 73.3941 23.168 73.3941 22C73.3941 20.832 73.2101 19.984 72.8421 19.456C72.4741 18.928 71.9061 18.664 71.1381 18.664Z" fill="black"/>
<path d="M87.2316 15.76C87.7756 15.76 88.2076 15.848 88.5276 16.024L88.0956 19.48C87.9356 19.384 87.7196 19.304 87.4476 19.24C87.1756 19.16 86.8876 19.12 86.5836 19.12C85.8156 19.12 85.1756 19.368 84.6636 19.864C84.1516 20.344 83.8956 21.04 83.8956 21.952V28H79.8156V16H83.4156L83.5836 18.592C83.8716 17.68 84.3196 16.984 84.9276 16.504C85.5516 16.008 86.3196 15.76 87.2316 15.76Z" fill="black"/>
<path d="M96.1521 23.08L94.2081 25.24V28H90.1281V10.912H94.2081V21.04L98.7921 16H103.304L98.8881 20.704L103.568 28H99.0561L96.1521 23.08Z" fill="black"/>
<path d="M116.556 25.672C116.86 25.672 117.108 25.64 117.3 25.576L116.988 27.856C116.524 28.112 115.98 28.24 115.356 28.24C113.628 28.24 112.596 27.624 112.26 26.392C111.54 27.624 110.116 28.24 107.988 28.24C106.788 28.24 105.868 27.984 105.228 27.472C104.588 26.96 104.268 26.216 104.268 25.24C104.268 24.216 104.628 23.392 105.348 22.768C106.084 22.128 107.284 21.64 108.948 21.304L111.66 20.776V20.344C111.66 19.8 111.508 19.368 111.204 19.048C110.9 18.728 110.484 18.568 109.956 18.568C109.348 18.568 108.852 18.712 108.468 19C108.084 19.288 107.836 19.76 107.724 20.416L104.412 19.456C104.62 18.288 105.196 17.384 106.14 16.744C107.084 16.088 108.356 15.76 109.956 15.76C111.828 15.76 113.252 16.144 114.228 16.912C115.204 17.68 115.692 18.832 115.692 20.368V24.736C115.692 25.36 115.98 25.672 116.556 25.672ZM109.476 25.6C110.036 25.6 110.54 25.448 110.988 25.144C111.436 24.824 111.66 24.408 111.66 23.896V22.864L109.716 23.32C109.204 23.448 108.836 23.608 108.612 23.8C108.404 23.976 108.3 24.232 108.3 24.568C108.3 24.904 108.404 25.16 108.612 25.336C108.82 25.512 109.108 25.6 109.476 25.6Z" fill="black"/>
<path d="M126.325 15.76C126.869 15.76 127.301 15.848 127.621 16.024L127.189 19.48C127.029 19.384 126.813 19.304 126.541 19.24C126.269 19.16 125.981 19.12 125.677 19.12C124.909 19.12 124.269 19.368 123.757 19.864C123.245 20.344 122.989 21.04 122.989 21.952V28H118.909V16H122.509L122.677 18.592C122.965 17.68 123.413 16.984 124.021 16.504C124.645 16.008 125.413 15.76 126.325 15.76Z" fill="black"/>
<path d="M131.262 14.608C130.43 14.608 129.822 14.456 129.438 14.152C129.07 13.832 128.886 13.336 128.886 12.664C128.886 11.976 129.07 11.48 129.438 11.176C129.822 10.856 130.43 10.696 131.262 10.696C132.094 10.696 132.694 10.856 133.062 11.176C133.446 11.48 133.638 11.976 133.638 12.664C133.638 13.336 133.446 13.832 133.062 14.152C132.694 14.456 132.094 14.608 131.262 14.608ZM133.302 28H129.222V16H133.302V28Z" fill="black"/>
<path d="M143.91 15.76C145.478 15.76 146.694 16.304 147.558 17.392C148.422 18.48 148.854 20 148.854 21.952C148.854 23.936 148.414 25.48 147.534 26.584C146.654 27.688 145.446 28.24 143.91 28.24C143.062 28.24 142.326 28.04 141.702 27.64C141.094 27.24 140.622 26.688 140.286 25.984V33.04H136.206V16H139.782L139.902 18.544C140.238 17.696 140.75 17.024 141.438 16.528C142.142 16.016 142.966 15.76 143.91 15.76ZM142.494 25.24C143.214 25.24 143.766 24.976 144.15 24.448C144.55 23.92 144.75 23.104 144.75 22C144.75 20.896 144.55 20.08 144.15 19.552C143.766 19.024 143.214 18.76 142.494 18.76C141.806 18.76 141.262 19.024 140.862 19.552C140.478 20.08 140.286 20.856 140.286 21.88V22.12C140.286 23.112 140.478 23.88 140.862 24.424C141.246 24.968 141.79 25.24 142.494 25.24Z" fill="black"/>
<path d="M157.037 15.76C159.037 15.76 160.589 16.312 161.693 17.416C162.813 18.504 163.373 20.032 163.373 22C163.373 23.968 162.813 25.504 161.693 26.608C160.589 27.696 159.037 28.24 157.037 28.24C155.037 28.24 153.477 27.696 152.357 26.608C151.253 25.504 150.701 23.968 150.701 22C150.701 20.032 151.253 18.504 152.357 17.416C153.477 16.312 155.037 15.76 157.037 15.76ZM157.037 18.664C156.269 18.664 155.701 18.928 155.333 19.456C154.965 19.984 154.781 20.832 154.781 22C154.781 23.168 154.965 24.016 155.333 24.544C155.701 25.072 156.269 25.336 157.037 25.336C157.805 25.336 158.373 25.072 158.741 24.544C159.109 24.016 159.293 23.168 159.293 22C159.293 20.832 159.109 19.984 158.741 19.456C158.373 18.928 157.805 18.664 157.037 18.664Z" fill="black"/>
<path d="M181.338 15.76C182.554 15.76 183.538 16.128 184.29 16.864C185.058 17.6 185.442 18.648 185.442 20.008V28H181.362V20.944C181.362 19.568 180.818 18.88 179.73 18.88C179.09 18.88 178.578 19.112 178.194 19.576C177.81 20.04 177.618 20.712 177.618 21.592V28H173.538V20.944C173.538 19.568 172.994 18.88 171.906 18.88C171.298 18.88 170.794 19.112 170.394 19.576C169.994 20.04 169.794 20.736 169.794 21.664V28H165.714V16H169.362L169.482 18.304C169.866 17.472 170.402 16.84 171.09 16.408C171.778 15.976 172.586 15.76 173.514 15.76C174.426 15.76 175.21 15.968 175.866 16.384C176.538 16.8 177.018 17.4 177.306 18.184C177.69 17.4 178.234 16.8 178.938 16.384C179.658 15.968 180.458 15.76 181.338 15.76Z" fill="black"/>
<path d="M199.9 25.672C200.204 25.672 200.452 25.64 200.644 25.576L200.332 27.856C199.868 28.112 199.324 28.24 198.7 28.24C196.972 28.24 195.94 27.624 195.604 26.392C194.884 27.624 193.46 28.24 191.332 28.24C190.132 28.24 189.212 27.984 188.572 27.472C187.932 26.96 187.612 26.216 187.612 25.24C187.612 24.216 187.972 23.392 188.692 22.768C189.428 22.128 190.628 21.64 192.292 21.304L195.004 20.776V20.344C195.004 19.8 194.852 19.368 194.548 19.048C194.244 18.728 193.828 18.568 193.3 18.568C192.692 18.568 192.196 18.712 191.812 19C191.428 19.288 191.18 19.76 191.068 20.416L187.756 19.456C187.964 18.288 188.54 17.384 189.484 16.744C190.428 16.088 191.7 15.76 193.3 15.76C195.172 15.76 196.596 16.144 197.572 16.912C198.548 17.68 199.036 18.832 199.036 20.368V24.736C199.036 25.36 199.324 25.672 199.9 25.672ZM192.82 25.6C193.38 25.6 193.884 25.448 194.332 25.144C194.78 24.824 195.004 24.408 195.004 23.896V22.864L193.06 23.32C192.548 23.448 192.18 23.608 191.956 23.8C191.748 23.976 191.644 24.232 191.644 24.568C191.644 24.904 191.748 25.16 191.956 25.336C192.164 25.512 192.452 25.6 192.82 25.6Z" fill="black"/>
<path d="M210.125 15.76C211.389 15.76 212.397 16.128 213.149 16.864C213.901 17.6 214.277 18.648 214.277 20.008V28H210.197V21.136C210.197 19.616 209.629 18.856 208.493 18.856C207.853 18.856 207.333 19.088 206.933 19.552C206.533 20.016 206.333 20.728 206.333 21.688V28H202.253V10.912H206.333V18.184C206.685 17.384 207.181 16.784 207.821 16.384C208.477 15.968 209.245 15.76 210.125 15.76Z" fill="black"/>
<path d="M228.728 25.672C229.032 25.672 229.28 25.64 229.472 25.576L229.16 27.856C228.696 28.112 228.152 28.24 227.528 28.24C225.8 28.24 224.768 27.624 224.432 26.392C223.712 27.624 222.288 28.24 220.16 28.24C218.96 28.24 218.04 27.984 217.4 27.472C216.76 26.96 216.44 26.216 216.44 25.24C216.44 24.216 216.8 23.392 217.52 22.768C218.256 22.128 219.456 21.64 221.12 21.304L223.832 20.776V20.344C223.832 19.8 223.68 19.368 223.376 19.048C223.072 18.728 222.656 18.568 222.128 18.568C221.52 18.568 221.024 18.712 220.64 19C220.256 19.288 220.008 19.76 219.896 20.416L216.584 19.456C216.792 18.288 217.368 17.384 218.312 16.744C219.256 16.088 220.528 15.76 222.128 15.76C224 15.76 225.424 16.144 226.4 16.912C227.376 17.68 227.864 18.832 227.864 20.368V24.736C227.864 25.36 228.152 25.672 228.728 25.672ZM221.648 25.6C222.208 25.6 222.712 25.448 223.16 25.144C223.608 24.824 223.832 24.408 223.832 23.896V22.864L221.888 23.32C221.376 23.448 221.008 23.608 220.784 23.8C220.576 23.976 220.472 24.232 220.472 24.568C220.472 24.904 220.576 25.16 220.784 25.336C220.992 25.512 221.28 25.6 221.648 25.6Z" fill="black"/>
<path d="M233.097 10.696C233.913 10.696 234.513 10.856 234.897 11.176C235.297 11.496 235.497 11.992 235.497 12.664C235.497 13.32 235.305 13.808 234.921 14.128C234.537 14.448 233.929 14.608 233.097 14.608C232.281 14.608 231.681 14.448 231.297 14.128C230.929 13.808 230.745 13.32 230.745 12.664C230.745 11.992 230.929 11.496 231.297 11.176C231.681 10.856 232.281 10.696 233.097 10.696ZM235.161 28.672C235.161 30.24 234.761 31.376 233.961 32.08C233.161 32.8 232.009 33.16 230.505 33.16C229.241 33.16 228.193 32.904 227.361 32.392L227.937 29.752C228.305 30.072 228.809 30.232 229.449 30.232C229.977 30.232 230.377 30.08 230.649 29.776C230.937 29.488 231.081 29 231.081 28.312V16H235.161V28.672Z" fill="black"/>
<path d="M240.082 14.608C239.25 14.608 238.642 14.456 238.258 14.152C237.89 13.832 237.706 13.336 237.706 12.664C237.706 11.976 237.89 11.48 238.258 11.176C238.642 10.856 239.25 10.696 240.082 10.696C240.914 10.696 241.514 10.856 241.882 11.176C242.266 11.48 242.458 11.976 242.458 12.664C242.458 13.336 242.266 13.832 241.882 14.152C241.514 14.456 240.914 14.608 240.082 14.608ZM242.122 28H238.042V16H242.122V28Z" fill="black"/>
</svg>
