<svg width="198" height="28" viewBox="0 0 198 28" fill="none" xmlns="http://www.w3.org/2000/svg">
<path d="M63.8395 10.4107C62.9743 11.5824 61.5266 13.6192 60.6456 14.8089C60.1983 15.4139 59.3905 16.5123 62.0685 16.5123C64.9019 16.5123 76.1681 16.5123 76.1681 16.5123C76.1681 16.5123 78.4404 13.4209 80.3455 10.8354C82.9368 7.31826 80.5697 0 71.3056 0C63.0137 0 34.8214 0 34.8214 0L28.4954 8.59467C28.4954 8.59467 61.29 8.59467 62.9732 8.59467C64.7138 8.59467 64.6901 9.2571 63.8395 10.4107ZM53.4815 18.6325C50.8035 18.6325 51.6113 17.5318 52.0585 16.9269C52.9396 15.7372 54.4109 13.7217 55.2761 12.5501C56.1279 11.3965 56.1504 10.734 54.4075 10.734C52.7255 10.734 38.6395 10.734 38.6395 10.734L25.9346 28C25.9346 28 48.6257 28 56.9176 28C67.1506 28 72.8479 21.04 74.6043 18.6336C74.6043 18.6325 56.3138 18.6325 53.4815 18.6325ZM73.6366 28H91.8122L98.7026 18.6314L80.5292 18.6336C80.5235 18.6325 73.6366 28 73.6366 28ZM120.532 0L113.56 9.4689H105.449L112.417 0H94.2468L82.0907 16.5123H126.547L138.7 0H120.532ZM99.9238 28H118.093L124.986 18.6336H106.818C106.811 18.6325 99.9238 28 99.9238 28ZM0 22.3277V24.3172H25.3127L26.7751 22.3277H0ZM29.4959 18.6325H0V20.6198H28.0301L29.4959 18.6325ZM0 28H22.601L24.0566 26.0217H0V28ZM171.326 24.3161H198V22.3265H172.791L171.326 24.3161ZM168.617 28H198V26.0217H170.071L168.617 28ZM175.507 18.6325L174.046 20.622H198V18.6325H175.507V18.6325ZM151.709 16.5123L163.864 0H144.62C144.613 0 132.456 16.5123 132.456 16.5123H151.709ZM130.898 18.6325C130.898 18.6325 129.57 20.4474 128.924 21.3216C126.643 24.404 128.66 28 136.107 28C144.71 28 165.288 28 165.288 28L172.181 18.6336H130.898V18.6325Z" fill="black"/>
</svg>
