<svg width="32" height="32" viewBox="0 0 32 32" fill="none" xmlns="http://www.w3.org/2000/svg">
<path d="M20.0001 3.33317V3.2785C18.7374 2.88184 17.3941 2.6665 16.0001 2.6665C8.63608 2.6665 2.66675 8.63584 2.66675 15.9998C2.66675 16.4498 2.69075 16.8945 2.73408 17.3332H20.0001V3.33317Z" fill="#3F51B5"/>
<path d="M20 7.3335H26.12C25.482 6.5895 24.7613 5.92216 23.9753 5.3335H20V7.3335Z" fill="#ECEFF1"/>
<path d="M29.2659 17.3335H19.9999H2.73389C2.80189 18.0188 2.93589 18.6828 3.10389 19.3335H28.8966C29.0639 18.6828 29.1979 18.0188 29.2659 17.3335Z" fill="#ECEFF1"/>
<path d="M25.5141 25.3335H6.48608C7.23742 26.0995 8.08475 26.7662 9.00142 27.3335H22.9988C23.9154 26.7662 24.7628 26.0995 25.5141 25.3335Z" fill="#ECEFF1"/>
<path d="M28.2165 21.3335H3.7832C4.0892 22.0335 4.4532 22.7022 4.86987 23.3335H27.1299C27.5465 22.7022 27.9099 22.0335 28.2165 21.3335Z" fill="#ECEFF1"/>
<path d="M20 11.3335H28.4773C28.2167 10.6375 27.9033 9.96883 27.5353 9.3335H20V11.3335Z" fill="#ECEFF1"/>
<path d="M20 15.3335H29.3C29.266 14.6535 29.198 13.9828 29.066 13.3335H20V15.3335Z" fill="#ECEFF1"/>
<path d="M20 5.3335H23.976C22.8273 4.4735 21.542 3.7895 20.1487 3.3335H20V5.3335Z" fill="#F44336"/>
<path d="M20 9.3335H27.5353C27.124 8.62283 26.6513 7.9535 26.1207 7.3335H20V9.3335Z" fill="#F44336"/>
<path d="M20 13.3335H29.0653C28.9253 12.6442 28.7187 11.9802 28.4767 11.3335H20V13.3335Z" fill="#F44336"/>
<path d="M20 17.3335H29.266C29.3093 16.8948 29.3333 16.4502 29.3333 16.0002C29.3333 15.7748 29.3107 15.5555 29.3 15.3335H20V17.3335Z" fill="#F44336"/>
<path d="M28.896 19.3335H3.104C3.28134 20.0222 3.50334 20.6928 3.784 21.3335H28.2167C28.4967 20.6928 28.7187 20.0222 28.896 19.3335Z" fill="#F44336"/>
<path d="M27.1301 23.3335H4.87012C5.34412 24.0522 5.88545 24.7215 6.48612 25.3335H25.5148C26.1148 24.7215 26.6561 24.0522 27.1301 23.3335Z" fill="#F44336"/>
<path d="M9.00146 27.3335C11.0375 28.5935 13.4295 29.3335 16.0001 29.3335C18.5708 29.3335 20.9628 28.5935 22.9988 27.3335H9.00146Z" fill="#F44336"/>
<path d="M6.83325 8.6665L7.14325 9.32517L7.83325 9.42917L7.33325 9.9425L7.45325 10.6665L6.83325 10.3252L6.21325 10.6665L6.33325 9.9425L5.83325 9.42917L6.52325 9.32517L6.83325 8.6665Z" fill="white"/>
<path d="M9.5 8.6665L9.81 9.32517L10.5 9.42917L10 9.9425L10.12 10.6665L9.5 10.3252L8.88 10.6665L9 9.9425L8.5 9.42917L9.19 9.32517L9.5 8.6665Z" fill="white"/>
<path d="M4.16672 10.3255L4.78672 10.6668L4.66672 9.94285L5.16672 9.42951L4.47672 9.32551L4.47405 9.31885C4.25405 9.69751 4.05205 10.0875 3.86938 10.4888L4.16672 10.3255Z" fill="white"/>
<path d="M12.1667 8.6665L12.4767 9.32517L13.1667 9.42917L12.6667 9.9425L12.7867 10.6665L12.1667 10.3252L11.5467 10.6665L11.6667 9.9425L11.1667 9.42917L11.8567 9.32517L12.1667 8.6665Z" fill="white"/>
<path d="M14.8333 8.6665L15.1433 9.32517L15.8333 9.42917L15.3333 9.9425L15.4533 10.6665L14.8333 10.3252L14.2133 10.6665L14.3333 9.9425L13.8333 9.42917L14.5233 9.32517L14.8333 8.6665Z" fill="white"/>
<path d="M17.3333 8.6665L17.6433 9.32517L18.3333 9.42917L17.8333 9.9425L17.9533 10.6665L17.3333 10.3252L16.7133 10.6665L16.8333 9.9425L16.3333 9.42917L17.0233 9.32517L17.3333 8.6665Z" fill="white"/>
<path d="M6.83325 14L7.14325 14.6587L7.83325 14.7627L7.33325 15.276L7.45325 16L6.83325 15.6587L6.21325 16L6.33325 15.276L5.83325 14.7627L6.52325 14.6587L6.83325 14Z" fill="white"/>
<path d="M9.5 14L9.81 14.6587L10.5 14.7627L10 15.276L10.12 16L9.5 15.6587L8.88 16L9 15.276L8.5 14.7627L9.19 14.6587L9.5 14Z" fill="white"/>
<path d="M12.1667 14L12.4767 14.6587L13.1667 14.7627L12.6667 15.276L12.7867 16L12.1667 15.6587L11.5467 16L11.6667 15.276L11.1667 14.7627L11.8567 14.6587L12.1667 14Z" fill="white"/>
<path d="M4.16675 14L4.47675 14.6587L5.16675 14.7627L4.66675 15.276L4.78675 16L4.16675 15.6587L3.54675 16L3.66675 15.276L3.16675 14.7627L3.85675 14.6587L4.16675 14Z" fill="white"/>
<path d="M14.8333 14L15.1433 14.6587L15.8333 14.7627L15.3333 15.276L15.4533 16L14.8333 15.6587L14.2133 16L14.3333 15.276L13.8333 14.7627L14.5233 14.6587L14.8333 14Z" fill="white"/>
<path d="M17.3333 14L17.6433 14.6587L18.3333 14.7627L17.8333 15.276L17.9533 16L17.3333 15.6587L16.7133 16L16.8333 15.276L16.3333 14.7627L17.0233 14.6587L17.3333 14Z" fill="white"/>
<path d="M7.5 11.3335L7.81 11.9922L8.5 12.0962L8 12.6095L8.12 13.3335L7.5 12.9922L6.88 13.3335L7 12.6095L6.5 12.0962L7.19 11.9922L7.5 11.3335Z" fill="white"/>
<path d="M10.1667 11.3335L10.4767 11.9922L11.1667 12.0962L10.6667 12.6095L10.7867 13.3335L10.1667 12.9922L9.54675 13.3335L9.66675 12.6095L9.16675 12.0962L9.85675 11.9922L10.1667 11.3335Z" fill="white"/>
<path d="M4.83325 11.3335L5.14325 11.9922L5.83325 12.0962L5.33325 12.6095L5.45325 13.3335L4.83325 12.9922L4.21325 13.3335L4.33325 12.6095L3.83325 12.0962L4.52325 11.9922L4.83325 11.3335Z" fill="white"/>
<path d="M12.8333 11.3335L13.1433 11.9922L13.8333 12.0962L13.3333 12.6095L13.4533 13.3335L12.8333 12.9922L12.2133 13.3335L12.3333 12.6095L11.8333 12.0962L12.5233 11.9922L12.8333 11.3335Z" fill="white"/>
<path d="M15.5 11.3335L15.81 11.9922L16.5 12.0962L16 12.6095L16.12 13.3335L15.5 12.9922L14.88 13.3335L15 12.6095L14.5 12.0962L15.19 11.9922L15.5 11.3335Z" fill="white"/>
<path d="M18 11.3335L18.31 11.9922L19 12.0962L18.5 12.6095L18.62 13.3335L18 12.9922L17.38 13.3335L17.5 12.6095L17 12.0962L17.69 11.9922L18 11.3335Z" fill="white"/>
<path d="M7.5 6L7.81 6.65867L8.5 6.76267L8 7.276L8.12 8L7.5 7.65867L6.88 8L7 7.276L6.5 6.76267L7.19 6.65867L7.5 6Z" fill="white"/>
<path d="M10.1667 6L10.4767 6.65867L11.1667 6.76267L10.6667 7.276L10.7867 8L10.1667 7.65867L9.54675 8L9.66675 7.276L9.16675 6.76267L9.85675 6.65867L10.1667 6Z" fill="white"/>
<path d="M12.8333 6L13.1433 6.65867L13.8333 6.76267L13.3333 7.276L13.4533 8L12.8333 7.65867L12.2133 8L12.3333 7.276L11.8333 6.76267L12.5233 6.65867L12.8333 6Z" fill="white"/>
<path d="M15.5 6L15.81 6.65867L16.5 6.76267L16 7.276L16.12 8L15.5 7.65867L14.88 8L15 7.276L14.5 6.76267L15.19 6.65867L15.5 6Z" fill="white"/>
<path d="M18 6L18.31 6.65867L19 6.76267L18.5 7.276L18.62 8L18 7.65867L17.38 8L17.5 7.276L17 6.76267L17.69 6.65867L18 6Z" fill="white"/>
<path d="M10.1199 5.33319L9.99988 4.60919L10.4999 4.09586L10.1325 4.04053C9.73988 4.23319 9.35922 4.44453 8.98922 4.67386L8.87988 5.33319L9.49988 4.99186L10.1199 5.33319Z" fill="white"/>
<path d="M12.1667 3.3335L12.4767 3.99216L13.1667 4.09616L12.6667 4.6095L12.7867 5.3335L12.1667 4.99216L11.5467 5.3335L11.6667 4.6095L11.1667 4.09616L11.8567 3.99216L12.1667 3.3335Z" fill="white"/>
<path d="M14.8333 3.3335L15.1433 3.99216L15.8333 4.09616L15.3333 4.6095L15.4533 5.3335L14.8333 4.99216L14.2133 5.3335L14.3333 4.6095L13.8333 4.09616L14.5233 3.99216L14.8333 3.3335Z" fill="white"/>
<path d="M17.3333 3.3335L17.6433 3.99216L18.3333 4.09683L17.8333 4.61016L17.9533 5.3335L17.3333 4.99216L16.7133 5.3335L16.8333 4.6095L16.3333 4.09616L17.0233 3.99216L17.3333 3.3335Z" fill="white"/>
</svg>
